<?xml version="1.0" encoding="UTF-8" standalone="no"?>
<svg xmlns:xlink="http://www.w3.org/1999/xlink" height="3.0px" width="20.0px" xmlns="http://www.w3.org/2000/svg">
  <g transform="matrix(1.0, 0.0, 0.0, 1.0, -61.7, -104.35)">
    <path d="M81.7 106.0 L81.7 106.0 81.7 105.75 Q81.7 105.45 81.6 105.2 81.5 104.95 81.3 104.75 81.1 104.6 80.85 104.45 80.6 104.35 80.35 104.35 L63.05 104.35 Q62.8 104.35 62.55 104.45 62.3 104.6 62.1 104.75 61.9 104.95 61.8 105.2 61.7 105.45 61.7 105.75 L61.7 106.0 Q61.7 106.3 61.8 106.55 61.9 106.8 62.1 106.95 62.3 107.15 62.55 107.25 62.8 107.35 63.05 107.35 L80.35 107.35 Q80.6 107.35 80.85 107.25 81.1 107.15 81.3 106.95 81.5 106.8 81.6 106.55 81.7 106.3 81.7 106.0" fill="#ffffff" fill-rule="evenodd" stroke="none"/>
  </g>
</svg>
