<?xml version="1.0" encoding="UTF-8" standalone="no"?>
<svg xmlns:xlink="http://www.w3.org/1999/xlink" height="23.95px" width="34.95px" xmlns="http://www.w3.org/2000/svg">
  <g transform="matrix(1.0, 0.0, 0.0, 1.0, 0.0, 0.0)">
    <path d="M0.0 19.15 L0.0 19.15 0.0 21.95 Q0.0 22.35 0.1 22.7 0.25 23.1 0.5 23.35 0.75 23.65 1.1 23.8 1.45 23.95 1.85 23.95 2.25 23.95 2.6 23.8 2.95 23.65 3.2 23.35 3.45 23.1 3.6 22.7 3.7 22.35 3.7 21.95 L3.7 19.15 Q3.7 16.0 4.8 13.25 5.85 10.5 7.7 8.45 9.55 6.4 12.05 5.2 14.55 4.0 17.45 4.0 20.35 4.0 22.85 5.2 25.35 6.4 27.2 8.45 29.05 10.5 30.15 13.25 31.2 16.0 31.2 19.15 L31.2 21.95 Q31.2 22.35 31.35 22.7 31.45 23.1 31.7 23.35 31.95 23.65 32.3 23.8 32.65 23.95 33.05 23.95 33.5 23.95 33.85 23.8 34.15 23.65 34.4 23.35 34.65 23.1 34.8 22.7 34.95 22.35 34.95 21.95 L34.95 19.15 Q34.95 15.2 33.6 11.7 32.25 8.2 29.9 5.6 27.55 3.0 24.35 1.5 21.2 0.0 17.45 0.0 13.75 0.0 10.55 1.5 7.35 3.0 5.0 5.6 2.65 8.2 1.3 11.7 0.0 15.2 0.0 19.15" fill="#ffffff" fill-rule="evenodd" stroke="none"/>
  </g>
</svg>
