<?xml version="1.0" encoding="UTF-8" standalone="no"?>
<svg xmlns:xlink="http://www.w3.org/1999/xlink" height="33.7px" width="47.45px" xmlns="http://www.w3.org/2000/svg">
  <g transform="matrix(1.0, 0.0, 0.0, 1.0, 0.0, 0.0)">
    <path d="M38.4 0.0 L38.4 0.0 Q40.35 0.0 41.95 0.6 43.6 1.2 44.85 2.3 46.05 3.4 46.75 4.95 47.45 6.5 47.45 8.35 L47.45 24.3 Q47.45 26.2 46.75 27.9 46.05 29.55 44.85 30.85 43.6 32.15 41.95 32.9 40.35 33.7 38.4 33.7 L9.0 33.7 Q7.1 33.7 5.45 32.9 3.8 32.15 2.55 30.85 1.35 29.55 0.65 27.9 0.0 26.2 0.0 24.3 L0.0 8.35 Q0.0 6.5 0.65 4.95 1.35 3.4 2.55 2.3 3.8 1.2 5.45 0.6 7.1 0.0 9.0 0.0 L38.4 0.0 M26.2 16.75 L26.2 16.75 Q26.65 16.45 27.05 16.1 27.4 15.7 27.65 15.25 27.9 14.8 28.05 14.3 28.15 13.85 28.15 13.3 28.15 12.4 27.85 11.55 27.5 10.75 26.95 10.15 26.35 9.55 25.55 9.2 24.75 8.85 23.8 8.85 22.85 8.85 22.0 9.2 21.2 9.55 20.6 10.15 20.0 10.75 19.65 11.55 19.3 12.4 19.3 13.3 19.3 13.85 19.4 14.3 19.55 14.8 19.8 15.25 20.0 15.7 20.4 16.1 20.75 16.45 21.2 16.75 L21.2 20.5 Q21.2 21.15 21.35 21.8 21.55 22.4 21.85 22.85 22.2 23.3 22.65 23.55 23.1 23.85 23.7 23.85 24.3 23.85 24.75 23.55 25.2 23.3 25.55 22.85 25.85 22.4 26.05 21.8 26.2 21.15 26.2 20.5 L26.2 16.75" fill="#ffffff" fill-rule="evenodd" stroke="none"/>
  </g>
</svg>
