<?xml version="1.0" encoding="UTF-8" standalone="no"?>
<svg xmlns:xlink="http://www.w3.org/1999/xlink" height="3.0px" width="20.0px" xmlns="http://www.w3.org/2000/svg">
  <g transform="matrix(1.0, 0.0, 0.0, 1.0, -510.0, -104.35)">
    <path d="M530.0 106.0 L530.0 106.0 530.0 105.75 Q530.0 105.45 529.85 105.2 529.75 104.95 529.6 104.75 529.4 104.6 529.15 104.45 528.9 104.35 528.6 104.35 L511.35 104.35 Q511.05 104.35 510.8 104.45 510.55 104.6 510.4 104.75 510.2 104.95 510.1 105.2 510.0 105.45 510.0 105.75 L510.0 106.0 Q510.0 106.3 510.1 106.55 510.2 106.8 510.4 106.95 510.55 107.15 510.8 107.25 511.05 107.35 511.35 107.35 L528.6 107.35 Q528.9 107.35 529.15 107.25 529.4 107.15 529.6 106.95 529.75 106.8 529.85 106.55 530.0 106.3 530.0 106.0" fill="#ffffff" fill-rule="evenodd" stroke="none"/>
  </g>
</svg>
