<?xml version="1.0" encoding="UTF-8" standalone="no"?>
<svg xmlns:xlink="http://www.w3.org/1999/xlink" height="3.0px" width="10.0px" xmlns="http://www.w3.org/2000/svg">
  <g transform="matrix(1.0, 0.0, 0.0, 1.0, -66.7, -114.35)">
    <path d="M76.7 115.85 L76.7 115.85 Q76.7 115.55 76.55 115.3 76.4 115.0 76.2 114.8 75.95 114.6 75.6 114.5 75.3 114.35 74.95 114.35 L68.45 114.35 Q68.1 114.35 67.8 114.5 67.45 114.6 67.2 114.8 67.0 115.0 66.85 115.3 66.7 115.55 66.7 115.85 66.7 116.15 66.85 116.45 67.0 116.7 67.2 116.9 67.45 117.15 67.8 117.25 68.1 117.35 68.45 117.35 L74.95 117.35 Q75.3 117.35 75.6 117.25 75.95 117.15 76.2 116.9 76.4 116.7 76.55 116.45 76.7 116.15 76.7 115.85" fill="#ffffff" fill-rule="evenodd" stroke="none"/>
  </g>
</svg>
