<?xml version="1.0" encoding="UTF-8" standalone="no"?>
<svg xmlns:xlink="http://www.w3.org/1999/xlink" height="42.1px" width="36.45px" xmlns="http://www.w3.org/2000/svg">
  <g transform="matrix(1.0, 0.0, 0.0, 1.0, 0.0, 0.1)">
    <path d="M23.5 38.75 L23.5 38.75 35.65 17.8 Q36.2 16.8 36.35 15.65 36.55 14.45 36.35 13.35 36.1 12.2 35.55 11.2 34.95 10.15 34.05 9.45 L23.65 1.1 Q22.75 0.4 21.75 0.1 20.75 -0.1 19.75 0.05 18.8 0.25 17.95 0.85 17.1 1.45 16.5 2.45 L0.65 29.9 Q0.1 30.9 0.0 31.9 -0.05 32.95 0.25 33.9 0.55 34.85 1.3 35.6 2.0 36.35 3.1 36.75 L15.5 41.6 Q16.6 42.0 17.75 42.0 18.95 42.0 20.0 41.6 21.1 41.2 22.0 40.5 22.95 39.75 23.5 38.75" fill="#ffffff" fill-rule="evenodd" stroke="none"/>
  </g>
</svg>
