<?xml version="1.0" encoding="UTF-8" standalone="no"?>
<svg xmlns:xlink="http://www.w3.org/1999/xlink" height="58.0px" width="58.0px" xmlns="http://www.w3.org/2000/svg">
  <g transform="matrix(1.0, 0.0, 0.0, 1.0, 0.0, 0.0)">
    <path d="M58.0 29.0 L58.0 29.0 Q58.0 22.95 55.7 17.7 53.4 12.4 49.5 8.45 45.55 4.55 40.25 2.25 35.0 0.0 29.0 0.0 22.95 0.0 17.7 2.25 12.4 4.55 8.45 8.45 4.55 12.4 2.25 17.7 0.0 22.95 0.0 29.0 0.0 35.0 2.25 40.25 4.55 45.55 8.45 49.5 12.4 53.4 17.7 55.7 22.95 58.0 29.0 58.0 35.0 58.0 40.25 55.7 45.55 53.4 49.5 49.5 53.4 45.55 55.7 40.25 58.0 35.0 58.0 29.0" fill="#003a7d" fill-rule="evenodd" stroke="none"/>
  </g>
</svg>
