<?xml version="1.0" encoding="UTF-8" standalone="no"?>
<svg xmlns:xlink="http://www.w3.org/1999/xlink" height="14.0px" width="4.0px" xmlns="http://www.w3.org/2000/svg">
  <g transform="matrix(1.0, 0.0, 0.0, 1.0, -69.7, -7.95)">
    <path d="M73.7 20.0 L73.7 20.0 73.7 9.95 Q73.7 9.55 73.55 9.2 73.4 8.85 73.1 8.55 72.85 8.3 72.5 8.15 72.1 7.95 71.7 7.95 L71.7 7.95 Q71.3 7.95 70.9 8.15 70.55 8.3 70.3 8.55 70.0 8.85 69.85 9.2 69.7 9.55 69.7 9.95 L69.7 20.0 Q69.7 20.4 69.85 20.75 70.0 21.1 70.3 21.4 70.55 21.65 70.9 21.8 71.3 21.95 71.7 21.95 L71.7 21.95 Q72.1 21.95 72.5 21.8 72.85 21.65 73.1 21.4 73.4 21.1 73.55 20.75 73.7 20.4 73.7 20.0" fill="#ffffff" fill-rule="evenodd" stroke="none"/>
  </g>
</svg>
