<?xml version="1.0" encoding="UTF-8" standalone="no"?>
<svg xmlns:xlink="http://www.w3.org/1999/xlink" height="57.15px" width="25.85px" xmlns="http://www.w3.org/2000/svg">
  <g transform="matrix(1.0, 0.0, 0.0, 1.0, 0.0, 0.0)">
    <path d="M25.85 48.5 L25.85 48.5 25.85 1.65 Q25.85 1.0 25.3 0.6 24.75 0.2 23.8 0.05 22.85 -0.05 21.6 0.0 20.35 0.15 18.9 0.5 L6.9 3.75 Q5.5 4.15 4.2 4.75 2.95 5.3 2.0 6.0 1.05 6.65 0.5 7.35 0.0 8.05 0.0 8.65 L0.0 55.55 Q0.0 56.15 0.5 56.55 1.05 56.95 2.0 57.1 2.95 57.25 4.2 57.15 5.5 57.05 6.9 56.65 L18.9 53.4 Q20.35 53.0 21.6 52.45 22.85 51.85 23.8 51.2 24.75 50.5 25.3 49.85 25.85 49.15 25.85 48.5" fill="#ffffff" fill-rule="evenodd" stroke="none"/>
  </g>
</svg>
