<?xml version="1.0" encoding="UTF-8" standalone="no"?>
<svg xmlns:xlink="http://www.w3.org/1999/xlink" height="91.8px" width="57.5px" xmlns="http://www.w3.org/2000/svg">
  <g transform="matrix(1.0, 0.0, 0.0, 1.0, 0.0, 0.0)">
    <path d="M0.0 30.6 L0.0 30.6 14.3 30.6 Q14.3 26.35 15.2 22.85 16.1 19.4 18.0 17.0 19.85 14.55 22.7 13.2 25.6 11.9 29.5 11.9 31.15 11.9 33.25 12.65 35.4 13.4 37.3 15.05 39.2 16.7 40.5 19.4 41.8 22.05 41.8 25.85 41.8 29.0 40.95 31.25 40.1 33.5 38.7 35.3 37.3 37.1 35.45 38.65 33.6 40.2 31.6 41.9 29.15 44.05 27.3 46.25 25.45 48.45 24.25 51.35 23.0 54.2 22.4 58.1 21.85 61.95 21.85 67.4 L35.4 67.4 Q35.4 62.9 36.2 59.8 37.05 56.65 38.5 54.3 40.0 51.95 42.0 50.1 44.05 48.2 46.45 46.2 48.45 44.4 50.45 42.6 52.45 40.8 54.0 38.45 55.55 36.1 56.55 32.95 57.5 29.8 57.5 25.35 57.5 19.25 55.35 14.55 53.25 9.8 49.55 6.6 45.85 3.35 40.85 1.65 35.85 0.0 30.1 0.0 23.15 0.0 17.55 2.15 12.0 4.35 8.1 8.35 4.15 12.4 2.05 18.05 0.0 23.7 0.0 30.6 M19.95 76.1 L19.95 76.1 19.95 91.8 36.75 91.8 36.75 76.1 19.95 76.1" fill="#ffffff" fill-rule="evenodd" stroke="none"/>
  </g>
</svg>
