<?xml version="1.0" encoding="UTF-8" standalone="no"?>
<svg xmlns:xlink="http://www.w3.org/1999/xlink" height="44.1px" width="35.45px" xmlns="http://www.w3.org/2000/svg">
  <g transform="matrix(1.0, 0.0, 0.0, 1.0, -19.9, -17.65)">
    <path d="M51.15 46.1 L51.15 46.1 Q51.05 46.2 50.95 46.3 50.9 46.4 50.8 46.55 50.7 46.65 50.6 46.75 50.5 46.85 50.45 46.95 49.7 47.9 49.1 48.85 48.5 49.8 48.05 50.8 47.6 51.8 47.25 52.75 46.95 53.75 46.75 54.75 L45.85 59.05 Q45.8 59.6 45.55 60.1 45.25 60.6 44.85 60.95 44.45 61.35 43.9 61.55 43.4 61.75 42.85 61.75 L32.4 61.75 Q31.8 61.75 31.3 61.55 30.75 61.35 30.35 60.95 29.95 60.6 29.65 60.1 29.4 59.6 29.35 59.05 L28.5 54.7 Q28.25 53.75 27.95 52.75 27.6 51.8 27.15 50.8 26.7 49.8 26.1 48.85 25.5 47.9 24.8 47.0 24.7 46.85 24.6 46.75 24.5 46.65 24.4 46.55 24.3 46.4 24.25 46.3 24.15 46.2 24.05 46.05 24.05 46.05 24.05 46.05 24.05 46.05 24.05 46.05 24.05 46.05 24.05 46.05 24.05 46.05 24.05 46.05 L24.05 46.05 Q23.05 44.75 22.25 43.4 21.5 42.05 20.95 40.65 20.45 39.3 20.15 37.95 19.9 36.6 19.9 35.4 19.9 32.75 21.15 29.65 22.4 26.55 24.7 23.9 27.05 21.2 30.3 19.45 33.55 17.65 37.6 17.65 41.65 17.65 44.9 19.45 48.2 21.2 50.5 23.9 52.8 26.55 54.05 29.65 55.35 32.75 55.35 35.4 55.35 36.6 55.05 37.95 54.8 39.3 54.25 40.65 53.7 42.05 52.95 43.4 52.2 44.75 51.2 46.05 L51.2 46.05 Q51.2 46.05 51.15 46.05 51.15 46.05 51.15 46.05 51.15 46.1 51.15 46.1 51.15 46.1 51.15 46.1" fill="#ffffff" fill-rule="evenodd" stroke="none"/>
  </g>
</svg>
