<?xml version="1.0" encoding="UTF-8" standalone="no"?>
<svg xmlns:xlink="http://www.w3.org/1999/xlink" height="1.7px" width="13.6px" xmlns="http://www.w3.org/2000/svg">
  <g transform="matrix(1.0, 0.0, 0.0, 1.0, -30.8, -62.75)">
    <path d="M44.4 63.6 L44.4 63.6 Q44.4 63.45 44.35 63.25 44.25 63.1 44.15 63.0 44.05 62.9 43.85 62.8 43.7 62.75 43.55 62.75 L31.65 62.75 Q31.5 62.75 31.35 62.8 31.2 62.9 31.05 63.0 30.95 63.1 30.9 63.25 30.8 63.45 30.8 63.6 L30.8 63.6 Q30.8 63.8 30.9 63.95 30.95 64.1 31.05 64.2 31.2 64.3 31.35 64.4 31.5 64.45 31.65 64.45 L43.55 64.45 Q43.7 64.45 43.85 64.4 44.05 64.3 44.15 64.2 44.25 64.1 44.35 63.95 44.4 63.8 44.4 63.6" fill="#ffffff" fill-rule="evenodd" stroke="none"/>
  </g>
</svg>
