<?xml version="1.0" encoding="UTF-8" standalone="no"?>
<svg xmlns:xlink="http://www.w3.org/1999/xlink" height="1.7px" width="13.6px" xmlns="http://www.w3.org/2000/svg">
  <g transform="matrix(1.0, 0.0, 0.0, 1.0, -30.8, -65.3)">
    <path d="M44.4 66.15 L44.4 66.15 Q44.4 66.3 44.3 66.5 44.25 66.65 44.15 66.75 44.0 66.85 43.85 66.95 43.7 67.0 43.5 67.0 L31.7 67.0 Q31.5 67.0 31.35 66.95 31.2 66.85 31.05 66.75 30.95 66.65 30.9 66.5 30.8 66.3 30.8 66.15 30.8 65.95 30.9 65.8 30.95 65.65 31.05 65.55 31.2 65.45 31.35 65.35 31.5 65.3 31.7 65.3 L43.5 65.3 Q43.7 65.3 43.85 65.35 44.0 65.45 44.15 65.55 44.25 65.65 44.3 65.8 44.4 65.95 44.4 66.15" fill="#ffffff" fill-rule="evenodd" stroke="none"/>
  </g>
</svg>
