<?xml version="1.0" encoding="UTF-8" standalone="no"?>
<svg xmlns:xlink="http://www.w3.org/1999/xlink" height="2.55px" width="5.1px" xmlns="http://www.w3.org/2000/svg">
  <g transform="matrix(1.0, 0.0, 0.0, 1.0, -35.05, -68.7)">
    <path d="M40.15 70.1 L40.15 70.1 40.15 69.85 Q40.15 69.6 40.05 69.4 39.95 69.2 39.8 69.05 39.65 68.9 39.45 68.8 39.25 68.7 39.0 68.7 L36.2 68.7 Q36.0 68.7 35.75 68.8 35.55 68.9 35.4 69.05 35.25 69.2 35.15 69.4 35.05 69.6 35.05 69.85 L35.05 70.1 Q35.05 70.3 35.15 70.55 35.25 70.75 35.4 70.9 35.55 71.05 35.75 71.15 36.0 71.25 36.2 71.25 L39.0 71.25 Q39.25 71.25 39.45 71.15 39.65 71.05 39.8 70.9 39.95 70.75 40.05 70.55 40.15 70.3 40.15 70.1" fill="#ffffff" fill-rule="evenodd" stroke="none"/>
  </g>
</svg>
