<?xml version="1.0" encoding="UTF-8" standalone="no"?>
<svg xmlns:xlink="http://www.w3.org/1999/xlink" height="1.7px" width="10.2px" xmlns="http://www.w3.org/2000/svg">
  <g transform="matrix(1.0, 0.0, 0.0, 1.0, -32.5, -67.85)">
    <path d="M42.7 68.75 L42.7 68.75 42.7 68.65 Q42.7 68.45 42.65 68.3 42.55 68.2 42.45 68.05 42.35 67.95 42.2 67.9 42.05 67.85 41.9 67.85 L33.3 67.85 Q33.15 67.85 33.0 67.9 32.85 67.95 32.75 68.05 32.65 68.2 32.55 68.3 32.5 68.45 32.5 68.65 L32.5 68.75 Q32.5 68.9 32.55 69.05 32.65 69.2 32.75 69.3 32.85 69.4 33.0 69.5 33.15 69.55 33.3 69.55 L41.9 69.55 Q42.05 69.55 42.2 69.5 42.35 69.4 42.45 69.3 42.55 69.2 42.65 69.05 42.7 68.9 42.7 68.75" fill="#ffffff" fill-rule="evenodd" stroke="none"/>
  </g>
</svg>
