<?xml version="1.0" encoding="UTF-8" standalone="no"?>
<svg xmlns:xlink="http://www.w3.org/1999/xlink" height="8.45px" width="2.4px" xmlns="http://www.w3.org/2000/svg">
  <g transform="matrix(1.0, 0.0, 0.0, 1.0, -36.4, -3.2)">
    <path d="M38.8 10.45 L38.8 10.45 38.8 4.4 Q38.8 4.15 38.7 3.95 38.6 3.75 38.45 3.55 38.3 3.4 38.05 3.3 37.85 3.2 37.6 3.2 L37.6 3.2 Q37.35 3.2 37.15 3.3 36.9 3.4 36.75 3.55 36.6 3.75 36.5 3.95 36.4 4.15 36.4 4.4 L36.4 10.45 Q36.4 10.7 36.5 10.9 36.6 11.1 36.75 11.3 36.9 11.45 37.15 11.55 37.35 11.65 37.6 11.65 L37.6 11.65 Q37.85 11.65 38.05 11.55 38.3 11.45 38.45 11.3 38.6 11.1 38.7 10.9 38.8 10.7 38.8 10.45" fill="#ffffff" fill-rule="evenodd" stroke="none"/>
  </g>
</svg>
