<?xml version="1.0" encoding="UTF-8" standalone="no"?>
<svg xmlns:xlink="http://www.w3.org/1999/xlink" height="7.15px" width="6.1px" xmlns="http://www.w3.org/2000/svg">
  <g transform="matrix(1.0, 0.0, 0.0, 1.0, -20.25, -7.65)">
    <path d="M26.1 12.9 L26.1 12.9 22.45 8.15 Q22.25 7.95 22.05 7.85 21.85 7.7 21.6 7.7 21.4 7.65 21.15 7.7 20.95 7.75 20.75 7.95 L20.75 7.95 Q20.55 8.1 20.45 8.3 20.3 8.5 20.3 8.75 20.25 8.95 20.3 9.2 20.35 9.4 20.55 9.6 L24.2 14.35 Q24.4 14.55 24.6 14.65 24.8 14.8 25.05 14.8 25.25 14.85 25.5 14.8 25.7 14.7 25.9 14.55 L25.9 14.55 Q26.1 14.4 26.2 14.2 26.35 14.0 26.35 13.75 26.4 13.55 26.35 13.3 26.3 13.05 26.1 12.9" fill="#ffffff" fill-rule="evenodd" stroke="none"/>
  </g>
</svg>
