<?xml version="1.0" encoding="UTF-8" standalone="no"?>
<svg xmlns:xlink="http://www.w3.org/1999/xlink" height="5.4px" width="7.6px" xmlns="http://www.w3.org/2000/svg">
  <g transform="matrix(1.0, 0.0, 0.0, 1.0, -9.05, -19.0)">
    <path d="M16.05 22.15 L16.05 22.15 10.85 19.15 Q10.65 19.05 10.4 19.0 10.2 19.0 9.95 19.05 9.75 19.1 9.55 19.25 9.35 19.4 9.25 19.6 L9.25 19.6 Q9.1 19.8 9.1 20.05 9.05 20.3 9.1 20.5 9.15 20.75 9.3 20.9 9.45 21.1 9.65 21.25 L14.85 24.25 Q15.1 24.35 15.35 24.4 15.55 24.4 15.8 24.35 16.0 24.3 16.2 24.15 16.4 24.0 16.5 23.8 L16.5 23.8 Q16.65 23.6 16.65 23.35 16.7 23.1 16.65 22.9 16.6 22.65 16.45 22.5 16.3 22.3 16.05 22.15" fill="#ffffff" fill-rule="evenodd" stroke="none"/>
  </g>
</svg>
