<?xml version="1.0" encoding="UTF-8" standalone="no"?>
<svg xmlns:xlink="http://www.w3.org/1999/xlink" height="2.4px" width="8.4px" xmlns="http://www.w3.org/2000/svg">
  <g transform="matrix(1.0, 0.0, 0.0, 1.0, -4.85, -34.8)">
    <path d="M12.05 34.8 L12.05 34.8 6.05 34.8 Q5.8 34.8 5.55 34.85 5.35 34.95 5.2 35.15 5.0 35.3 4.95 35.5 4.85 35.75 4.85 36.0 L4.85 36.0 Q4.85 36.25 4.95 36.45 5.0 36.65 5.2 36.85 5.35 37.0 5.55 37.1 5.8 37.2 6.05 37.2 L12.05 37.2 Q12.3 37.2 12.5 37.1 12.75 37.0 12.9 36.85 13.05 36.65 13.15 36.45 13.25 36.25 13.25 36.0 L13.25 36.0 Q13.25 35.75 13.15 35.5 13.05 35.3 12.9 35.15 12.75 34.95 12.5 34.85 12.3 34.8 12.05 34.8" fill="#ffffff" fill-rule="evenodd" stroke="none"/>
  </g>
</svg>
