<?xml version="1.0" encoding="UTF-8" standalone="no"?>
<svg xmlns:xlink="http://www.w3.org/1999/xlink" height="5.4px" width="7.6px" xmlns="http://www.w3.org/2000/svg">
  <g transform="matrix(1.0, 0.0, 0.0, 1.0, -9.05, -47.55)">
    <path d="M14.9 47.7 L14.9 47.7 9.65 50.7 Q9.45 50.85 9.3 51.05 9.15 51.25 9.1 51.45 9.05 51.7 9.05 51.9 9.1 52.15 9.25 52.35 L9.25 52.35 Q9.35 52.6 9.55 52.7 9.75 52.85 9.95 52.9 10.2 53.0 10.4 52.95 10.65 52.95 10.85 52.8 L16.1 49.8 Q16.3 49.65 16.45 49.5 16.6 49.3 16.65 49.05 16.7 48.85 16.65 48.6 16.65 48.35 16.5 48.15 L16.5 48.15 Q16.4 47.95 16.2 47.8 16.0 47.65 15.8 47.6 15.55 47.55 15.35 47.55 15.1 47.6 14.9 47.7" fill="#ffffff" fill-rule="evenodd" stroke="none"/>
  </g>
</svg>
