<?xml version="1.0" encoding="UTF-8" standalone="no"?>
<svg xmlns:xlink="http://www.w3.org/1999/xlink" height="6.4px" width="6.95px" xmlns="http://www.w3.org/2000/svg">
  <g transform="matrix(1.0, 0.0, 0.0, 1.0, -58.85, -47.05)">
    <path d="M65.4 51.35 L65.4 51.35 60.85 47.35 Q60.7 47.2 60.45 47.15 60.2 47.05 60.0 47.1 59.75 47.1 59.55 47.2 59.35 47.3 59.15 47.5 L59.15 47.5 Q59.0 47.7 58.95 47.9 58.85 48.15 58.85 48.35 58.9 48.6 59.0 48.8 59.1 49.0 59.3 49.2 L63.8 53.15 Q64.0 53.3 64.2 53.4 64.45 53.45 64.7 53.45 64.9 53.45 65.1 53.3 65.35 53.2 65.5 53.05 L65.5 53.05 Q65.65 52.85 65.75 52.6 65.8 52.4 65.8 52.15 65.8 51.95 65.7 51.7 65.6 51.5 65.4 51.35" fill="#ffffff" fill-rule="evenodd" stroke="none"/>
  </g>
</svg>
