<?xml version="1.0" encoding="UTF-8" standalone="no"?>
<svg xmlns:xlink="http://www.w3.org/1999/xlink" height="2.4px" width="8.4px" xmlns="http://www.w3.org/2000/svg">
  <g transform="matrix(1.0, 0.0, 0.0, 1.0, -61.95, -34.8)">
    <path d="M70.35 36.0 L70.35 36.0 70.35 36.0 Q70.35 35.75 70.3 35.5 70.2 35.3 70.0 35.15 69.85 34.95 69.65 34.85 69.4 34.8 69.15 34.8 L63.15 34.8 Q62.9 34.8 62.7 34.85 62.45 34.95 62.3 35.15 62.15 35.3 62.05 35.5 61.95 35.75 61.95 36.0 L61.95 36.0 Q61.95 36.25 62.05 36.45 62.15 36.65 62.3 36.85 62.45 37.0 62.7 37.1 62.9 37.2 63.15 37.2 L69.15 37.2 Q69.4 37.2 69.65 37.1 69.85 37.0 70.0 36.85 70.2 36.65 70.3 36.45 70.35 36.25 70.35 36.0" fill="#ffffff" fill-rule="evenodd" stroke="none"/>
  </g>
</svg>
