<?xml version="1.0" encoding="UTF-8" standalone="no"?>
<svg xmlns:xlink="http://www.w3.org/1999/xlink" height="5.4px" width="7.65px" xmlns="http://www.w3.org/2000/svg">
  <g transform="matrix(1.0, 0.0, 0.0, 1.0, -58.5, -19.0)">
    <path d="M64.35 19.15 L64.35 19.15 59.15 22.15 Q58.9 22.3 58.75 22.5 58.65 22.65 58.55 22.9 58.5 23.1 58.55 23.35 58.55 23.6 58.7 23.8 L58.7 23.8 Q58.8 24.0 59.0 24.15 59.2 24.3 59.4 24.35 59.65 24.4 59.9 24.4 60.1 24.35 60.35 24.25 L65.55 21.25 Q65.75 21.1 65.9 20.9 66.05 20.75 66.1 20.5 66.15 20.3 66.15 20.05 66.1 19.8 66.0 19.6 L66.0 19.6 Q65.85 19.4 65.65 19.25 65.45 19.1 65.25 19.05 65.05 19.0 64.8 19.0 64.55 19.05 64.35 19.15" fill="#ffffff" fill-rule="evenodd" stroke="none"/>
  </g>
</svg>
