<?xml version="1.0" encoding="UTF-8" standalone="no"?>
<svg xmlns:xlink="http://www.w3.org/1999/xlink" height="7.65px" width="5.45px" xmlns="http://www.w3.org/2000/svg">
  <g transform="matrix(1.0, 0.0, 0.0, 1.0, -49.15, -7.4)">
    <path d="M52.35 8.05 L52.35 8.05 49.35 13.25 Q49.2 13.45 49.2 13.7 49.15 13.95 49.2 14.15 49.3 14.4 49.4 14.6 49.55 14.75 49.8 14.9 L49.8 14.9 Q50.0 15.0 50.25 15.05 50.45 15.05 50.7 15.0 50.9 14.95 51.1 14.8 51.3 14.65 51.4 14.45 L54.45 9.25 Q54.55 9.05 54.6 8.8 54.6 8.55 54.55 8.35 54.5 8.1 54.35 7.9 54.2 7.75 54.0 7.6 L54.0 7.6 Q53.75 7.5 53.55 7.45 53.3 7.4 53.1 7.5 52.85 7.55 52.65 7.7 52.45 7.85 52.35 8.05" fill="#ffffff" fill-rule="evenodd" stroke="none"/>
  </g>
</svg>
