<?xml version="1.0" encoding="UTF-8" standalone="no"?>
<svg xmlns:xlink="http://www.w3.org/1999/xlink" height="12.65px" width="9.1px" xmlns="http://www.w3.org/2000/svg">
  <g transform="matrix(1.0, 0.0, 0.0, 1.0, -43.4, -15.0)">
    <path d="M52.2 24.65 L52.2 24.65 47.2 16.0 Q47.0 15.65 46.65 15.4 46.35 15.15 45.95 15.05 45.6 15.0 45.2 15.0 44.8 15.05 44.45 15.25 L44.45 15.3 Q44.1 15.5 43.85 15.8 43.6 16.1 43.5 16.5 43.4 16.85 43.45 17.25 43.5 17.65 43.7 18.0 L48.7 26.65 Q48.95 27.05 49.25 27.25 49.55 27.5 49.95 27.6 50.3 27.7 50.7 27.65 51.1 27.6 51.45 27.4 L51.45 27.4 Q51.8 27.2 52.05 26.85 52.3 26.55 52.4 26.2 52.5 25.8 52.45 25.4 52.4 25.05 52.2 24.65" fill="#ffffff" fill-rule="evenodd" stroke="none"/>
  </g>
</svg>
