<?xml version="1.0" encoding="UTF-8" standalone="no"?>
<svg xmlns:xlink="http://www.w3.org/1999/xlink" height="4.0px" width="14.0px" xmlns="http://www.w3.org/2000/svg">
  <g transform="matrix(1.0, 0.0, 0.0, 1.0, -17.2, -60.45)">
    <path d="M29.2 60.45 L29.2 60.45 19.2 60.45 Q18.8 60.45 18.4 60.65 18.05 60.8 17.8 61.05 17.5 61.35 17.35 61.7 17.2 62.05 17.2 62.45 L17.2 62.5 Q17.2 62.9 17.35 63.25 17.5 63.6 17.8 63.9 18.05 64.15 18.4 64.3 18.8 64.45 19.2 64.45 L29.2 64.45 Q29.6 64.45 30.0 64.3 30.35 64.15 30.6 63.9 30.9 63.6 31.05 63.25 31.2 62.9 31.2 62.5 L31.2 62.45 Q31.2 62.05 31.05 61.7 30.9 61.35 30.6 61.05 30.35 60.8 30.0 60.65 29.6 60.45 29.2 60.45" fill="#ffffff" fill-rule="evenodd" stroke="none"/>
  </g>
</svg>
