<?xml version="1.0" encoding="UTF-8" standalone="no"?>
<svg xmlns:xlink="http://www.w3.org/1999/xlink" height="11.05px" width="11.05px" xmlns="http://www.w3.org/2000/svg">
  <g transform="matrix(1.0, 0.0, 0.0, 1.0, -25.05, -80.7)">
    <path d="M32.7 81.3 L32.7 81.3 25.6 88.35 Q25.35 88.65 25.2 89.0 25.05 89.35 25.05 89.75 25.05 90.15 25.2 90.5 25.3 90.9 25.6 91.15 L25.6 91.15 Q25.9 91.45 26.3 91.6 26.65 91.75 27.05 91.75 27.4 91.75 27.8 91.6 28.15 91.45 28.45 91.15 L35.5 84.1 Q35.8 83.8 35.95 83.45 36.1 83.05 36.1 82.7 36.1 82.3 35.95 81.95 35.8 81.55 35.5 81.3 L35.5 81.25 Q35.2 81.0 34.85 80.85 34.5 80.7 34.1 80.7 33.7 80.7 33.35 80.85 33.0 81.0 32.7 81.3" fill="#ffffff" fill-rule="evenodd" stroke="none"/>
  </g>
</svg>
