<?xml version="1.0" encoding="UTF-8" standalone="no"?>
<svg xmlns:xlink="http://www.w3.org/1999/xlink" height="94.45px" width="106.35px" xmlns="http://www.w3.org/2000/svg">
  <g transform="matrix(1.0, 0.0, 0.0, 1.0, 0.0, 0.0)">
    <path d="M56.2 65.1 L56.2 65.1 50.15 65.1 47.45 40.9 47.45 28.2 58.85 28.2 58.85 40.9 56.2 65.1 M58.35 70.1 L58.35 70.1 58.35 80.5 48.0 80.5 48.0 70.1 58.35 70.1 M97.5 94.45 L97.5 94.45 8.85 94.45 Q7.0 94.45 5.35 93.75 3.75 93.1 2.55 91.9 1.35 90.7 0.65 89.05 0.0 87.45 0.0 85.6 0.0 85.0 0.05 84.45 0.1 83.9 0.25 83.35 0.4 82.75 0.6 82.2 0.85 81.7 1.1 81.15 L45.45 4.4 Q46.05 3.35 46.9 2.55 47.75 1.7 48.75 1.15 49.75 0.6 50.85 0.3 52.0 0.0 53.15 0.0 54.35 0.0 55.5 0.3 56.6 0.6 57.6 1.15 58.6 1.7 59.45 2.55 60.25 3.35 60.9 4.4 L105.2 81.15 Q105.5 81.7 105.7 82.2 105.95 82.75 106.1 83.35 106.2 83.9 106.3 84.45 106.35 85.0 106.35 85.6 106.35 87.45 105.65 89.05 105.0 90.7 103.8 91.9 102.6 93.1 100.95 93.75 99.35 94.45 97.5 94.45 M53.15 8.85 L53.15 8.85 8.85 85.6 97.5 85.6 53.15 8.85" fill="#ffffff" fill-rule="evenodd" stroke="none"/>
  </g>
</svg>
