<?xml version="1.0" encoding="UTF-8" standalone="no"?>
<svg xmlns:xlink="http://www.w3.org/1999/xlink" height="64.3px" width="9.85px" xmlns="http://www.w3.org/2000/svg">
  <g transform="matrix(1.0, 0.0, 0.0, 1.0, 0.0, 0.0)">
    <path d="M9.0 0.1 L9.0 0.1 0.85 5.0 Q0.65 5.1 0.5 5.25 0.35 5.45 0.25 5.65 0.1 5.85 0.05 6.05 0.0 6.3 0.0 6.5 L0.0 63.65 Q0.0 63.9 0.05 64.0 0.1 64.15 0.25 64.2 0.35 64.3 0.5 64.3 0.65 64.25 0.85 64.15 L9.0 59.25 Q9.15 59.15 9.3 59.0 9.45 58.8 9.6 58.6 9.7 58.4 9.75 58.2 9.85 57.95 9.85 57.75 L9.85 0.6 Q9.85 0.4 9.75 0.25 9.7 0.1 9.6 0.05 9.45 0.0 9.3 0.0 9.15 0.0 9.0 0.1" fill="#ffffff" fill-rule="evenodd" stroke="none"/>
  </g>
</svg>
