<?xml version="1.0" encoding="UTF-8" standalone="no"?>
<svg xmlns:xlink="http://www.w3.org/1999/xlink" height="72.05px" width="45.15px" xmlns="http://www.w3.org/2000/svg">
  <g transform="matrix(1.0, 0.0, 0.0, 1.0, 0.0, 0.0)">
    <path d="M0.0 24.05 L0.0 24.05 11.2 24.05 Q11.2 20.65 11.95 17.95 12.65 15.25 14.1 13.3 15.6 11.4 17.85 10.4 20.1 9.35 23.15 9.35 24.45 9.35 26.1 9.95 27.8 10.5 29.3 11.8 30.75 13.1 31.8 15.2 32.8 17.3 32.8 20.3 32.8 22.75 32.15 24.55 31.5 26.3 30.35 27.7 29.25 29.1 27.8 30.35 26.4 31.55 24.8 32.9 22.85 34.55 21.4 36.3 19.95 38.05 19.0 40.3 18.05 42.55 17.6 45.6 17.15 48.65 17.15 52.95 L27.8 52.95 Q27.8 49.4 28.45 46.95 29.1 44.5 30.25 42.65 31.4 40.8 33.0 39.35 34.6 37.85 36.45 36.25 38.05 34.85 39.6 33.45 41.15 32.05 42.4 30.2 43.6 28.35 44.4 25.9 45.15 23.4 45.15 19.9 45.15 15.1 43.45 11.4 41.8 7.7 38.9 5.15 36.0 2.6 32.1 1.3 28.15 0.0 23.65 0.0 18.15 0.0 13.8 1.7 9.4 3.4 6.35 6.55 3.25 9.7 1.6 14.15 0.0 18.6 0.0 24.05 M15.65 59.75 L15.65 59.75 15.65 72.05 28.85 72.05 28.85 59.75 15.65 59.75" fill="#ffffff" fill-rule="evenodd" stroke="none"/>
  </g>
</svg>
