<?xml version="1.0" encoding="UTF-8" standalone="no"?>
<svg xmlns:xlink="http://www.w3.org/1999/xlink" height="92.1px" width="57.7px" xmlns="http://www.w3.org/2000/svg">
  <g transform="matrix(1.0, 0.0, 0.0, 1.0, 0.0, 0.0)">
    <path d="M0.0 30.75 L0.0 30.75 14.35 30.75 Q14.35 26.45 15.25 22.95 16.15 19.5 18.05 17.05 19.9 14.6 22.8 13.25 25.65 11.95 29.6 11.95 31.25 11.95 33.4 12.7 35.5 13.45 37.45 15.1 39.35 16.8 40.65 19.45 41.95 22.1 41.95 25.95 41.95 29.1 41.1 31.35 40.25 33.65 38.85 35.4 37.4 37.2 35.55 38.75 33.7 40.3 31.75 42.05 29.25 44.2 27.4 46.4 25.55 48.6 24.3 51.5 23.1 54.4 22.5 58.3 21.9 62.2 21.9 67.65 L35.5 67.65 Q35.5 63.1 36.35 60.0 37.2 56.85 38.65 54.5 40.15 52.15 42.15 50.25 44.2 48.4 46.6 46.35 48.65 44.55 50.65 42.75 52.6 40.95 54.2 38.6 55.75 36.25 56.75 33.1 57.7 29.9 57.7 25.45 57.7 19.35 55.55 14.6 53.45 9.85 49.75 6.6 46.0 3.35 41.0 1.65 36.0 0.0 30.25 0.0 23.25 0.0 17.65 2.15 12.05 4.35 8.1 8.4 4.2 12.45 2.1 18.1 0.0 23.8 0.0 30.75 M20.0 76.35 L20.0 76.35 20.0 92.1 36.9 92.1 36.9 76.35 20.0 76.35" fill="#ffffff" fill-rule="evenodd" stroke="none"/>
  </g>
</svg>
