<?xml version="1.0" encoding="UTF-8" standalone="no"?>
<svg xmlns:xlink="http://www.w3.org/1999/xlink" height="79.85px" width="12.2px" xmlns="http://www.w3.org/2000/svg">
  <g transform="matrix(1.0, 0.0, 0.0, 1.0, 0.0, 0.0)">
    <path d="M11.35 0.1 L11.35 0.1 0.85 6.4 Q0.65 6.5 0.5 6.7 0.35 6.85 0.25 7.05 0.1 7.25 0.05 7.5 0.0 7.7 0.0 7.9 L0.0 79.25 Q0.0 79.45 0.05 79.6 0.1 79.75 0.25 79.8 0.35 79.85 0.5 79.85 0.65 79.85 0.85 79.75 L11.35 73.45 Q11.5 73.35 11.65 73.15 11.85 73.0 11.95 72.8 12.05 72.55 12.15 72.35 12.2 72.1 12.2 71.9 L12.2 0.6 Q12.2 0.4 12.15 0.25 12.05 0.1 11.95 0.05 11.85 0.0 11.65 0.0 11.5 0.0 11.35 0.1" fill="#ffffff" fill-rule="evenodd" stroke="none"/>
  </g>
</svg>
