<?xml version="1.0" encoding="UTF-8" standalone="no"?>
<svg xmlns:xlink="http://www.w3.org/1999/xlink" height="89.3px" width="55.95px" xmlns="http://www.w3.org/2000/svg">
  <g transform="matrix(1.0, 0.0, 0.0, 1.0, 0.0, 0.0)">
    <path d="M0.0 29.8 L0.0 29.8 13.9 29.8 Q13.9 25.65 14.8 22.25 15.7 18.9 17.5 16.5 19.3 14.15 22.1 12.85 24.9 11.6 28.7 11.6 30.3 11.6 32.35 12.3 34.45 13.05 36.3 14.65 38.15 16.25 39.4 18.85 40.7 21.45 40.7 25.15 40.7 28.2 39.85 30.4 39.05 32.6 37.65 34.35 36.3 36.1 34.5 37.6 32.7 39.1 30.75 40.8 28.35 42.85 26.55 45.0 24.75 47.15 23.6 49.95 22.4 52.75 21.8 56.55 21.25 60.3 21.25 65.6 L34.45 65.6 Q34.45 61.2 35.25 58.15 36.05 55.15 37.5 52.85 38.9 50.55 40.9 48.75 42.85 46.9 45.2 44.95 47.15 43.2 49.1 41.45 51.0 39.7 52.55 37.4 54.05 35.15 55.0 32.1 55.95 29.0 55.95 24.65 55.95 18.75 53.9 14.15 51.8 9.55 48.2 6.4 44.6 3.25 39.75 1.6 34.9 0.0 29.3 0.0 22.55 0.0 17.1 2.1 11.65 4.25 7.85 8.15 4.05 12.05 2.0 17.55 0.0 23.05 0.0 29.8 M19.4 74.05 L19.4 74.05 19.4 89.3 35.8 89.3 35.8 74.05 19.4 74.05" fill="#ffffff" fill-rule="evenodd" stroke="none"/>
  </g>
</svg>
