<?xml version="1.0" encoding="UTF-8" standalone="no"?>
<svg xmlns:xlink="http://www.w3.org/1999/xlink" height="63.25px" width="65.9px" xmlns="http://www.w3.org/2000/svg">
  <g transform="matrix(1.0, 0.0, 0.0, 1.0, 0.0, 0.0)">
    <path d="M0.0 7.5 L0.0 7.5 0.0 12.4 10.2 12.4 10.2 37.35 17.55 37.35 17.55 1.6 11.65 1.6 Q11.25 3.15 10.15 4.3 9.1 5.4 7.55 6.15 5.95 6.85 4.05 7.15 2.1 7.5 0.0 7.5 M45.25 0.0 L45.25 0.0 9.8 63.25 16.5 63.25 51.85 0.0 45.25 0.0 M65.65 61.2 L65.65 61.2 65.65 55.3 47.2 55.3 Q47.4 54.6 47.8 53.95 48.2 53.35 48.75 52.75 49.35 52.15 50.05 51.6 50.8 51.05 51.6 50.55 L57.45 47.0 Q59.3 45.95 60.85 44.7 62.4 43.5 63.5 42.1 64.65 40.7 65.25 39.05 65.9 37.4 65.9 35.4 65.9 32.9 65.05 30.9 64.15 28.95 62.55 27.55 60.9 26.15 58.55 25.4 56.2 24.7 53.2 24.7 49.9 24.7 47.3 25.65 44.7 26.6 42.95 28.35 41.15 30.05 40.25 32.4 39.35 34.8 39.35 37.6 L46.7 37.6 Q46.8 36.3 47.1 35.0 47.4 33.75 48.15 32.8 48.85 31.8 50.05 31.2 51.25 30.6 53.1 30.6 54.4 30.6 55.45 30.95 56.45 31.3 57.15 31.95 57.8 32.6 58.2 33.5 58.55 34.35 58.55 35.4 58.55 36.55 58.15 37.55 57.8 38.55 57.1 39.45 56.4 40.3 55.4 41.1 54.4 41.9 53.2 42.6 L47.05 46.4 Q44.9 47.7 43.35 49.15 41.8 50.6 40.75 52.35 39.7 54.15 39.2 56.3 38.7 58.5 38.65 61.2 L65.65 61.2" fill="#ffffff" fill-rule="evenodd" stroke="none"/>
  </g>
</svg>
