<?xml version="1.0" encoding="UTF-8" standalone="no"?>
<svg xmlns:xlink="http://www.w3.org/1999/xlink" height="60.55px" width="38.55px" xmlns="http://www.w3.org/2000/svg">
  <g transform="matrix(1.0, 0.0, 0.0, 1.0, 0.0, 0.0)">
    <path d="M38.55 34.9 L38.55 34.9 38.55 25.4 Q38.55 23.65 38.5 22.05 38.4 20.4 38.2 18.95 38.05 17.45 37.8 16.1 37.55 14.75 37.2 13.55 36.85 12.35 36.45 11.25 36.0 10.15 35.5 9.15 35.05 8.15 34.5 7.3 33.9 6.4 33.3 5.65 32.65 4.9 31.95 4.25 31.25 3.6 30.5 3.05 29.75 2.5 28.9 2.1 28.1 1.65 27.2 1.3 26.3 1.0 25.35 0.75 24.4 0.5 23.4 0.3 22.45 0.15 21.4 0.05 20.35 0.0 19.25 0.0 18.15 0.0 17.15 0.05 16.1 0.15 15.1 0.3 14.1 0.5 13.2 0.75 12.25 1.0 11.35 1.3 10.45 1.65 9.65 2.1 8.8 2.5 8.05 3.05 7.3 3.6 6.6 4.25 5.9 4.9 5.25 5.65 4.65 6.4 4.05 7.3 3.5 8.15 3.0 9.15 2.55 10.15 2.1 11.25 1.7 12.35 1.35 13.55 1.0 14.75 0.75 16.1 0.5 17.45 0.3 18.95 0.15 20.4 0.05 22.05 0.0 23.65 0.0 25.4 L0.0 34.9 Q0.0 36.65 0.05 38.3 0.15 39.9 0.3 41.4 0.5 42.9 0.75 44.25 1.0 45.6 1.35 46.8 1.7 48.05 2.15 49.15 2.55 50.25 3.05 51.25 3.55 52.2 4.1 53.1 4.7 54.0 5.3 54.75 5.95 55.5 6.65 56.15 7.35 56.85 8.1 57.4 8.9 57.95 9.7 58.4 10.55 58.85 11.45 59.2 12.35 59.5 13.25 59.8 14.2 60.05 15.2 60.2 16.2 60.4 17.2 60.45 18.25 60.55 19.35 60.55 20.45 60.55 21.45 60.45 22.5 60.4 23.5 60.2 24.5 60.05 25.4 59.8 26.35 59.5 27.25 59.2 28.15 58.85 28.95 58.4 29.8 57.95 30.55 57.4 31.3 56.85 32.0 56.15 32.7 55.5 33.3 54.75 33.95 54.0 34.5 53.1 35.05 52.2 35.55 51.25 36.0 50.25 36.45 49.15 36.85 48.05 37.2 46.8 37.55 45.6 37.8 44.25 38.05 42.9 38.2 41.4 38.4 39.9 38.5 38.3 38.55 36.65 38.55 34.9 M28.75 23.9 L28.75 23.9 28.75 36.35 Q28.75 37.45 28.7 38.5 28.65 39.5 28.6 40.45 28.5 41.4 28.4 42.25 28.25 43.15 28.1 43.9 27.95 44.7 27.8 45.4 27.6 46.1 27.35 46.75 27.15 47.35 26.9 47.95 26.6 48.5 26.3 48.95 26.0 49.45 25.7 49.9 25.35 50.3 25.0 50.65 24.6 51.0 24.2 51.3 23.8 51.6 23.4 51.8 22.95 52.05 22.5 52.2 22.0 52.35 21.5 52.5 21.0 52.6 20.45 52.65 19.9 52.7 19.35 52.7 18.75 52.7 18.25 52.65 17.7 52.6 17.2 52.5 16.7 52.35 16.2 52.2 15.75 52.05 15.3 51.8 14.85 51.6 14.45 51.3 14.0 51.0 13.65 50.65 13.25 50.3 12.95 49.9 12.6 49.45 12.3 48.95 12.0 48.5 11.7 47.95 11.45 47.35 11.2 46.75 11.0 46.1 10.8 45.4 10.6 44.7 10.4 43.9 10.25 43.15 10.15 42.25 10.0 41.4 9.95 40.45 9.85 39.5 9.8 38.5 9.75 37.45 9.75 36.35 L9.75 23.9 Q9.75 22.8 9.8 21.75 9.85 20.7 9.95 19.75 10.0 18.85 10.15 17.95 10.25 17.1 10.4 16.35 10.55 15.6 10.75 14.9 10.95 14.2 11.2 13.6 11.4 12.95 11.65 12.45 11.95 11.9 12.25 11.4 12.55 10.95 12.9 10.55 13.2 10.15 13.6 9.8 13.95 9.45 14.4 9.2 14.8 8.9 15.2 8.7 15.65 8.5 16.15 8.35 16.6 8.2 17.1 8.1 17.6 8.0 18.15 7.9 18.7 7.85 19.25 7.85 19.8 7.85 20.35 7.9 20.9 8.0 21.4 8.1 21.9 8.2 22.35 8.35 22.85 8.5 23.3 8.7 23.7 8.9 24.15 9.2 24.55 9.45 24.9 9.8 25.3 10.15 25.6 10.55 25.95 10.95 26.25 11.4 26.55 11.9 26.85 12.45 27.1 12.95 27.3 13.6 27.55 14.2 27.75 14.9 27.95 15.6 28.1 16.35 28.25 17.1 28.35 17.95 28.5 18.85 28.55 19.75 28.65 20.7 28.7 21.75 28.75 22.8 28.75 23.9" fill="#ffffff" fill-rule="evenodd" stroke="none"/>
  </g>
</svg>
