<?xml version="1.0" encoding="UTF-8" standalone="no"?>
<svg xmlns:xlink="http://www.w3.org/1999/xlink" height="32.1px" width="25.95px" xmlns="http://www.w3.org/2000/svg">
  <g transform="matrix(1.0, 0.0, 0.0, 1.0, 0.0, 0.0)">
    <path d="M25.95 16.85 L25.95 16.85 25.95 15.25 Q25.95 14.4 25.85 13.55 25.8 12.7 25.7 11.9 25.6 11.1 25.4 10.35 25.25 9.6 25.0 8.85 24.75 8.15 24.5 7.5 24.2 6.85 23.85 6.25 23.55 5.65 23.15 5.1 22.8 4.55 22.35 4.05 21.9 3.55 21.45 3.15 21.0 2.7 20.45 2.3 19.95 1.95 19.4 1.6 18.85 1.3 18.25 1.05 17.65 0.75 17.0 0.55 16.4 0.35 15.75 0.25 15.05 0.1 14.35 0.05 13.7 0.0 12.95 0.0 12.25 0.0 11.55 0.05 10.85 0.1 10.2 0.25 9.55 0.35 8.9 0.55 8.3 0.75 7.7 1.05 7.1 1.3 6.55 1.6 6.0 1.95 5.45 2.3 4.95 2.7 4.5 3.15 4.0 3.55 3.6 4.05 3.15 4.55 2.8 5.1 2.4 5.65 2.1 6.25 1.75 6.85 1.45 7.5 1.15 8.15 0.95 8.85 0.7 9.6 0.5 10.35 0.35 11.1 0.2 11.9 0.1 12.7 0.05 13.55 0.0 14.4 0.0 15.25 L0.0 16.85 Q0.0 17.75 0.05 18.6 0.1 19.45 0.2 20.25 0.35 21.05 0.5 21.8 0.7 22.55 0.95 23.25 1.15 23.95 1.45 24.6 1.75 25.25 2.1 25.85 2.4 26.45 2.8 27.0 3.2 27.55 3.6 28.05 4.05 28.55 4.5 28.95 5.0 29.4 5.5 29.8 6.0 30.15 6.6 30.5 7.15 30.8 7.75 31.05 8.35 31.35 8.95 31.5 9.6 31.7 10.25 31.85 10.9 32.0 11.6 32.05 12.25 32.1 13.0 32.1 13.7 32.1 14.4 32.05 15.1 32.0 15.75 31.85 16.45 31.7 17.05 31.5 17.7 31.35 18.3 31.05 18.9 30.8 19.45 30.5 20.0 30.15 20.5 29.8 21.0 29.4 21.45 28.95 21.95 28.55 22.35 28.05 22.8 27.55 23.15 27.0 23.55 26.45 23.85 25.85 24.2 25.25 24.5 24.6 24.75 23.95 25.0 23.25 25.25 22.55 25.4 21.8 25.6 21.05 25.7 20.25 25.8 19.45 25.85 18.6 25.95 17.75 25.95 16.85 M20.5 15.25 L20.5 15.25 20.5 16.85 Q20.5 18.2 20.35 19.35 20.25 20.5 20.0 21.5 19.75 22.5 19.4 23.35 19.05 24.2 18.55 24.9 18.05 25.6 17.45 26.1 16.9 26.6 16.2 26.95 15.5 27.3 14.7 27.5 13.9 27.65 13.0 27.65 12.55 27.65 12.15 27.6 11.75 27.55 11.35 27.45 10.95 27.4 10.55 27.25 10.2 27.1 9.85 26.95 9.5 26.75 9.15 26.55 8.85 26.35 8.55 26.1 8.25 25.85 7.95 25.55 7.7 25.25 7.45 24.9 7.2 24.55 7.0 24.15 6.75 23.8 6.6 23.35 6.4 22.95 6.25 22.45 6.05 22.0 5.95 21.5 5.8 21.0 5.7 20.45 5.6 19.9 5.55 19.35 5.5 18.75 5.45 18.15 5.4 17.5 5.4 16.85 L5.4 15.25 Q5.4 14.55 5.45 13.95 5.5 13.35 5.55 12.75 5.6 12.2 5.7 11.65 5.8 11.1 5.95 10.6 6.05 10.1 6.25 9.65 6.4 9.15 6.6 8.75 6.75 8.35 7.0 7.95 7.2 7.6 7.45 7.25 7.7 6.9 7.95 6.6 8.25 6.3 8.5 6.05 8.8 5.8 9.15 5.6 9.45 5.35 9.8 5.2 10.15 5.0 10.55 4.9 10.9 4.75 11.3 4.65 11.7 4.55 12.1 4.55 12.5 4.5 12.95 4.5 13.4 4.5 13.8 4.55 14.25 4.55 14.65 4.65 15.05 4.75 15.4 4.9 15.8 5.0 16.15 5.2 16.5 5.35 16.8 5.6 17.15 5.8 17.45 6.05 17.75 6.3 18.0 6.6 18.25 6.9 18.5 7.25 18.75 7.6 18.95 7.95 19.2 8.35 19.35 8.75 19.55 9.15 19.7 9.65 19.85 10.1 20.0 10.6 20.1 11.1 20.2 11.65 20.3 12.2 20.35 12.75 20.45 13.35 20.45 13.95 20.5 14.55 20.5 15.25" fill="#ffffff" fill-rule="evenodd" stroke="none"/>
  </g>
</svg>
