<?xml version="1.0" encoding="UTF-8" standalone="no"?>
<svg xmlns:xlink="http://www.w3.org/1999/xlink" height="63.8px" width="9.75px" xmlns="http://www.w3.org/2000/svg">
  <g transform="matrix(1.0, 0.0, 0.0, 1.0, 0.0, 0.0)">
    <path d="M8.9 0.1 L8.9 0.1 0.85 4.95 Q0.65 5.05 0.5 5.2 0.35 5.4 0.25 5.6 0.1 5.8 0.05 6.05 0.0 6.25 0.0 6.45 L0.0 63.2 Q0.0 63.4 0.05 63.55 0.1 63.7 0.25 63.75 0.35 63.85 0.5 63.8 0.65 63.8 0.85 63.7 L8.9 58.85 Q9.1 58.75 9.25 58.55 9.4 58.4 9.5 58.2 9.65 58.0 9.7 57.75 9.75 57.55 9.75 57.35 L9.75 0.6 Q9.75 0.4 9.7 0.25 9.65 0.1 9.5 0.05 9.4 0.0 9.25 0.0 9.1 0.0 8.9 0.1" fill="#ffffff" fill-rule="evenodd" stroke="none"/>
  </g>
</svg>
