<?xml version="1.0" encoding="UTF-8" standalone="no"?>
<svg xmlns:xlink="http://www.w3.org/1999/xlink" height="63.8px" width="9.75px" xmlns="http://www.w3.org/2000/svg">
  <g transform="matrix(1.0, 0.0, 0.0, 1.0, 0.0, 0.0)">
    <path d="M8.9 4.95 L8.9 4.95 0.85 0.1 Q0.65 0.0 0.5 0.0 0.35 0.0 0.25 0.05 0.1 0.1 0.05 0.25 0.0 0.4 0.0 0.6 L0.0 57.35 Q0.0 57.55 0.05 57.75 0.1 58.0 0.25 58.2 0.35 58.4 0.5 58.55 0.65 58.75 0.85 58.85 L8.9 63.7 Q9.1 63.8 9.25 63.8 9.4 63.85 9.5 63.75 9.65 63.7 9.7 63.55 9.75 63.4 9.75 63.2 L9.75 6.45 Q9.75 6.25 9.7 6.05 9.65 5.8 9.5 5.6 9.4 5.4 9.25 5.2 9.1 5.05 8.9 4.95" fill="#ffffff" fill-rule="evenodd" stroke="none"/>
  </g>
</svg>
