<?xml version="1.0" encoding="UTF-8" standalone="no"?>
<svg xmlns:xlink="http://www.w3.org/1999/xlink" height="86.75px" width="13.0px" xmlns="http://www.w3.org/2000/svg">
  <g transform="matrix(1.0, 0.0, 0.0, 1.0, 0.0, 0.0)">
    <path d="M13.0 74.65 L13.0 74.65 13.0 1.65 Q13.0 1.0 12.8 0.6 12.6 0.2 12.3 0.05 11.95 -0.05 11.55 0.0 11.1 0.15 10.65 0.5 L2.3 7.25 Q1.85 7.65 1.4 8.2 1.0 8.8 0.65 9.45 0.35 10.1 0.15 10.8 0.0 11.5 0.0 12.15 L0.0 85.15 Q0.0 85.75 0.15 86.15 0.35 86.55 0.65 86.7 1.0 86.85 1.4 86.75 1.85 86.65 2.3 86.25 L10.65 79.5 Q11.1 79.15 11.55 78.55 11.95 77.95 12.3 77.3 12.6 76.65 12.8 75.95 13.0 75.25 13.0 74.65" fill="#ffffff" fill-rule="evenodd" stroke="none"/>
  </g>
</svg>
