<?xml version="1.0" encoding="UTF-8" standalone="no"?>
<svg xmlns:xlink="http://www.w3.org/1999/xlink" height="86.75px" width="13.0px" xmlns="http://www.w3.org/2000/svg">
  <g transform="matrix(1.0, 0.0, 0.0, 1.0, 0.0, 0.0)">
    <path d="M0.0 1.65 L0.0 1.65 0.0 74.65 Q0.0 75.25 0.15 75.95 0.35 76.65 0.65 77.3 1.0 77.95 1.4 78.55 1.85 79.15 2.3 79.5 L10.65 86.25 Q11.1 86.65 11.55 86.75 11.95 86.85 12.3 86.7 12.6 86.55 12.8 86.15 13.0 85.75 13.0 85.15 L13.0 12.15 Q13.0 11.5 12.8 10.8 12.6 10.1 12.3 9.45 11.95 8.8 11.55 8.2 11.1 7.65 10.65 7.25 L2.3 0.5 Q1.85 0.15 1.4 0.0 1.0 -0.05 0.65 0.05 0.35 0.2 0.15 0.6 0.0 1.0 0.0 1.65" fill="#ffffff" fill-rule="evenodd" stroke="none"/>
  </g>
</svg>
