<?xml version="1.0" encoding="UTF-8" standalone="no"?>
<svg xmlns:xlink="http://www.w3.org/1999/xlink" height="71.55px" width="44.8px" xmlns="http://www.w3.org/2000/svg">
  <g transform="matrix(1.0, 0.0, 0.0, 1.0, 0.0, 0.0)">
    <path d="M0.0 23.85 L0.0 23.85 11.15 23.85 Q11.15 20.55 11.85 17.85 12.55 15.15 14.0 13.25 15.45 11.35 17.7 10.3 19.95 9.3 23.0 9.3 24.25 9.3 25.95 9.85 27.6 10.45 29.05 11.75 30.55 13.05 31.55 15.1 32.6 17.15 32.6 20.15 32.6 22.6 31.9 24.35 31.25 26.1 30.15 27.5 29.05 28.9 27.65 30.1 26.2 31.3 24.65 32.7 22.7 34.35 21.25 36.05 19.85 37.75 18.9 40.0 17.95 42.25 17.5 45.3 17.0 48.3 17.0 52.55 L27.6 52.55 Q27.6 49.05 28.25 46.6 28.9 44.15 30.0 42.35 31.15 40.5 32.75 39.05 34.35 37.6 36.2 36.0 37.8 34.6 39.35 33.2 40.85 31.8 42.1 30.0 43.3 28.15 44.05 25.7 44.8 23.25 44.8 19.75 44.8 15.0 43.15 11.35 41.5 7.65 38.65 5.15 35.75 2.6 31.85 1.3 27.95 0.0 23.5 0.0 18.05 0.0 13.7 1.7 9.35 3.4 6.3 6.5 3.25 9.65 1.6 14.05 0.0 18.45 0.0 23.85 M15.55 59.3 L15.55 59.3 15.55 71.55 28.65 71.55 28.65 59.3 15.55 59.3" fill="#ffffff" fill-rule="evenodd" stroke="none"/>
  </g>
</svg>
