<?xml version="1.0" encoding="UTF-8" standalone="no"?>
<svg xmlns:xlink="http://www.w3.org/1999/xlink" height="71.8px" width="44.95px" xmlns="http://www.w3.org/2000/svg">
  <g transform="matrix(1.0, 0.0, 0.0, 1.0, 0.0, 0.0)">
    <path d="M0.0 23.95 L0.0 23.95 11.15 23.95 Q11.15 20.6 11.9 17.9 12.6 15.2 14.05 13.25 15.5 11.35 17.75 10.35 20.0 9.3 23.05 9.3 24.35 9.3 26.0 9.9 27.7 10.5 29.15 11.75 30.65 13.05 31.65 15.15 32.7 17.25 32.7 20.2 32.7 22.7 32.0 24.45 31.35 26.2 30.25 27.6 29.15 29.0 27.7 30.2 26.3 31.4 24.75 32.8 22.8 34.45 21.35 36.15 19.9 37.9 18.95 40.15 18.0 42.4 17.55 45.45 17.05 48.45 17.05 52.75 L27.7 52.75 Q27.7 49.2 28.3 46.75 28.95 44.3 30.1 42.45 31.25 40.65 32.85 39.2 34.45 37.7 36.3 36.1 37.9 34.7 39.45 33.3 41.0 31.9 42.25 30.05 43.45 28.25 44.2 25.8 44.95 23.3 44.95 19.8 44.95 15.05 43.3 11.35 41.65 7.7 38.75 5.15 35.85 2.6 31.95 1.3 28.05 0.0 23.55 0.0 18.1 0.0 13.75 1.7 9.35 3.4 6.3 6.55 3.25 9.7 1.6 14.1 0.0 18.55 0.0 23.95 M15.6 59.5 L15.6 59.5 15.6 71.8 28.75 71.8 28.75 59.5 15.6 59.5" fill="#ffffff" fill-rule="evenodd" stroke="none"/>
  </g>
</svg>
