<?xml version="1.0" encoding="UTF-8" standalone="no"?>
<svg xmlns:xlink="http://www.w3.org/1999/xlink" height="33.8px" width="33.35px" xmlns="http://www.w3.org/2000/svg">
  <g transform="matrix(1.0, 0.0, 0.0, 1.0, 0.0, 0.0)">
    <path d="M2.7 5.7 L2.7 5.7 0.65 7.6 Q0.35 7.9 0.2 8.25 0.0 8.6 0.0 8.95 0.0 9.35 0.05 9.7 0.2 10.05 0.5 10.35 0.75 10.65 1.15 10.8 1.5 10.95 1.85 10.95 2.2 10.95 2.6 10.8 2.95 10.65 3.25 10.35 L5.3 8.4 Q7.6 6.25 10.35 5.1 13.1 4.0 15.9 3.95 18.65 3.85 21.25 4.85 23.9 5.9 25.9 8.0 27.85 10.1 28.75 12.75 29.6 15.45 29.35 18.2 29.15 21.0 27.85 23.7 26.6 26.35 24.3 28.55 L22.25 30.45 Q21.95 30.75 21.75 31.1 21.6 31.45 21.55 31.8 21.55 32.2 21.65 32.55 21.8 32.9 22.05 33.2 22.35 33.5 22.7 33.65 23.05 33.8 23.45 33.8 23.8 33.8 24.2 33.65 24.55 33.5 24.85 33.2 L26.9 31.25 Q29.8 28.55 31.4 25.15 33.05 21.75 33.35 18.2 33.6 14.7 32.5 11.3 31.4 7.95 28.85 5.2 26.25 2.5 22.95 1.2 19.65 -0.05 16.1 0.0 12.55 0.05 9.1 1.5 5.6 2.95 2.7 5.7" fill="#f49b0b" fill-rule="evenodd" stroke="none"/>
  </g>
</svg>
