<?xml version="1.0" encoding="UTF-8" standalone="no"?>
<svg xmlns:xlink="http://www.w3.org/1999/xlink" height="33.95px" width="47.75px" xmlns="http://www.w3.org/2000/svg">
  <g transform="matrix(1.0, 0.0, 0.0, 1.0, 0.0, 0.0)">
    <path d="M38.7 0.0 L38.7 0.0 Q40.6 0.0 42.25 0.6 43.95 1.2 45.15 2.3 46.35 3.45 47.05 5.0 47.75 6.55 47.75 8.4 L47.75 24.5 Q47.75 26.35 47.05 28.05 46.35 29.8 45.15 31.1 43.95 32.4 42.25 33.15 40.6 33.95 38.7 33.95 L9.05 33.95 Q7.1 33.95 5.45 33.15 3.8 32.4 2.6 31.1 1.35 29.8 0.65 28.05 0.0 26.35 0.0 24.5 L0.0 8.4 Q0.0 6.55 0.65 5.0 1.35 3.45 2.6 2.3 3.8 1.2 5.45 0.6 7.1 0.0 9.05 0.0 L38.7 0.0 M26.4 16.9 L26.4 16.9 Q26.85 16.55 27.2 16.2 27.6 15.8 27.85 15.35 28.1 14.9 28.25 14.4 28.35 13.95 28.35 13.4 28.35 12.45 28.05 11.65 27.7 10.8 27.1 10.2 26.55 9.6 25.75 9.25 24.9 8.9 23.95 8.9 23.0 8.9 22.15 9.25 21.35 9.6 20.75 10.2 20.1 10.8 19.75 11.65 19.4 12.45 19.4 13.4 19.4 13.95 19.55 14.4 19.65 14.9 19.9 15.35 20.15 15.8 20.5 16.2 20.9 16.55 21.35 16.9 L21.35 20.6 Q21.35 21.3 21.5 21.95 21.7 22.55 22.0 23.0 22.35 23.45 22.8 23.75 23.25 24.0 23.85 24.0 24.45 24.0 24.95 23.75 25.4 23.45 25.7 23.0 26.05 22.55 26.2 21.95 26.4 21.3 26.4 20.6 L26.4 16.9" fill="#f49b0b" fill-rule="evenodd" stroke="none"/>
  </g>
</svg>
