<?xml version="1.0" encoding="UTF-8" standalone="no"?>
<svg xmlns:xlink="http://www.w3.org/1999/xlink" height="70.0px" width="70.0px" xmlns="http://www.w3.org/2000/svg">
  <g transform="matrix(1.0, 0.0, 0.0, 1.0, 0.0, 0.0)">
    <path d="M70.0 35.0 L70.0 35.0 Q70.0 27.75 67.25 21.35 64.5 15.0 59.75 10.25 55.0 5.5 48.6 2.75 42.25 0.0 35.0 0.0 27.75 0.0 21.35 2.75 15.0 5.5 10.25 10.25 5.5 15.0 2.75 21.35 0.0 27.75 0.0 35.0 0.0 42.2 2.75 48.6 5.5 54.95 10.25 59.7 15.0 64.45 21.35 67.2 27.75 70.0 35.0 70.0 42.25 70.0 48.6 67.2 55.0 64.45 59.75 59.7 64.5 54.95 67.25 48.6 70.0 42.2 70.0 35.0" fill="#ffffff" fill-rule="evenodd" stroke="none"/>
  </g>
</svg>
