<?xml version="1.0" encoding="UTF-8" standalone="no"?>
<svg xmlns:xlink="http://www.w3.org/1999/xlink" height="14.85px" width="19.0px" xmlns="http://www.w3.org/2000/svg">
  <g transform="matrix(1.0, 0.0, 0.0, 1.0, 1.5, -3.6)">
    <path d="M17.0 8.0 Q17.0 11.7 14.35 14.35 11.7 17.0 8.0 17.0 4.25 17.0 1.6 14.35 -0.95 11.7 -1.0 8.0 -0.95 5.55 0.1 3.6 -1.5 5.95 -1.5 8.95 -1.5 12.9 1.25 15.7 4.0 18.45 8.0 18.45 11.95 18.45 14.7 15.7 17.5 12.9 17.5 8.95 17.5 6.0 15.9 3.7 17.0 5.6 17.0 8.0" fill="url(#gradient0)" fill-rule="evenodd" stroke="none"/>
  </g>
  <defs>
    <radialGradient cx="0" cy="0" gradientTransform="matrix(0.0119, 0.0, 0.0, 0.0119, 8.0, 9.0)" gradientUnits="userSpaceOnUse" id="gradient0" r="819.2" spreadMethod="pad">
      <stop offset="0.7843137254901961" stop-color="#000000" stop-opacity="0.4"/>
      <stop offset="1.0" stop-color="#000000" stop-opacity="0.0"/>
    </radialGradient>
  </defs>
</svg>
