<?xml version="1.0" encoding="UTF-8" standalone="no"?>
<svg xmlns:xlink="http://www.w3.org/1999/xlink" height="12.0px" width="12.0px" xmlns="http://www.w3.org/2000/svg">
  <g transform="matrix(1.0, 0.0, 0.0, 1.0, -10.0, -5.0)">
    <path d="M13.65 5.45 Q12.55 5.9 11.75 6.75 10.9 7.55 10.45 8.65 10.0 9.75 10.0 11.0 10.0 12.2 10.45 13.3 10.9 14.4 11.75 15.2 12.55 16.05 13.65 16.5 14.75 17.0 16.0 17.0 18.45 16.95 20.2 15.2 22.0 13.45 22.0 11.0 21.95 8.5 20.2 6.75 18.45 5.0 16.0 5.0 14.75 5.0 13.65 5.45" fill="url(#gradient0)" fill-rule="evenodd" stroke="none"/>
  </g>
  <defs>
    <radialGradient cx="0" cy="0" gradientTransform="matrix(0.0073, 0.0, 0.0, 0.0073, 16.0, 11.0)" gradientUnits="userSpaceOnUse" id="gradient0" r="819.2" spreadMethod="pad">
      <stop offset="0.0" stop-color="#999999"/>
      <stop offset="1.0" stop-color="#666666"/>
    </radialGradient>
  </defs>
</svg>
