<?xml version="1.0" encoding="UTF-8" standalone="no"?>
<svg xmlns:xlink="http://www.w3.org/1999/xlink" height="65.0px" width="220.0px" xmlns="http://www.w3.org/2000/svg">
  <g transform="matrix(1.0, 0.0, 0.0, 1.0, 0.0, 0.0)">
    <path d="M8.0 1.0 L8.0 1.0 Q6.5 1.0 5.2 1.5 3.9 2.05 3.0 3.0 2.05 3.9 1.5 5.2 1.0 6.5 1.0 8.0 1.0 8.0 1.0 15.65 1.0 23.3 1.0 32.5 1.0 41.65 1.0 49.3 1.0 57.0 1.0 57.0 1.0 58.5 1.5 59.75 2.05 61.05 3.0 62.0 3.9 62.9 5.2 63.45 6.5 64.0 8.0 64.0 8.0 64.0 39.85 64.0 71.75 64.0 110.0 64.0 148.25 64.0 180.1 64.0 212.0 64.0 212.0 64.0 213.5 64.0 214.75 63.45 216.05 62.9 217.0 62.0 217.9 61.05 218.45 59.75 219.0 58.5 219.0 57.0 219.0 57.0 219.0 49.3 219.0 41.65 219.0 32.5 219.0 23.3 219.0 15.65 219.0 8.0 219.0 8.0 219.0 6.5 218.45 5.2 217.9 3.9 217.0 3.0 216.05 2.05 214.75 1.5 213.5 1.0 212.0 1.0 212.0 1.0 180.1 1.0 148.25 1.0 110.0 1.0 71.75 1.0 39.85 1.0 8.0 1.0 8.0 1.0 M0.0 57.0 L0.0 57.0 Q0.0 57.0 0.0 49.3 0.0 41.65 0.0 32.5 0.0 23.3 0.0 15.65 0.0 8.0 0.0 8.0 0.0 6.5 0.65 5.05 1.35 3.6 2.5 2.5 3.6 1.35 5.05 0.65 6.5 0.0 8.0 0.0 8.0 0.0 39.85 0.0 71.75 0.0 110.0 0.0 148.25 0.0 180.1 0.0 212.0 0.0 212.0 0.0 213.5 0.0 214.9 0.65 216.35 1.35 217.5 2.5 218.6 3.6 219.3 5.05 220.0 6.5 220.0 8.0 220.0 8.0 220.0 15.65 220.0 23.3 220.0 32.5 220.0 41.65 220.0 49.3 220.0 57.0 220.0 57.0 220.0 58.5 219.3 59.9 218.6 61.35 217.5 62.5 216.35 63.6 214.9 64.3 213.5 65.0 212.0 65.0 212.0 65.0 180.1 65.0 148.25 65.0 110.0 65.0 71.75 65.0 39.85 65.0 8.0 65.0 8.0 65.0 6.5 65.0 5.05 64.3 3.6 63.6 2.5 62.5 1.35 61.35 0.65 59.9 0.0 58.5 0.0 57.0" fill="#646464" fill-rule="evenodd" stroke="none"/>
  </g>
</svg>
