<?xml version="1.0" encoding="UTF-8" standalone="no"?>
<svg xmlns:xlink="http://www.w3.org/1999/xlink" height="63.0px" width="218.0px" xmlns="http://www.w3.org/2000/svg">
  <g transform="matrix(1.0, 0.0, 0.0, 1.0, -1.0, -1.0)">
    <path d="M8.0 1.0 L8.0 1.0 Q6.5 1.0 5.2 1.5 3.9 2.05 3.0 3.0 2.05 3.9 1.5 5.2 1.0 6.5 1.0 8.0 1.0 8.0 1.0 15.65 1.0 23.3 1.0 32.5 1.0 41.65 1.0 49.3 1.0 57.0 1.0 57.0 1.0 58.5 1.5 59.75 2.05 61.05 3.0 62.0 3.9 62.9 5.2 63.45 6.5 64.0 8.0 64.0 8.0 64.0 39.85 64.0 71.75 64.0 110.0 64.0 148.25 64.0 180.1 64.0 212.0 64.0 212.0 64.0 213.5 64.0 214.75 63.45 216.05 62.9 217.0 62.0 217.9 61.05 218.45 59.75 219.0 58.5 219.0 57.0 219.0 57.0 219.0 49.3 219.0 41.65 219.0 32.5 219.0 23.3 219.0 15.65 219.0 8.0 219.0 8.0 219.0 6.5 218.45 5.2 217.9 3.9 217.0 3.0 216.05 2.05 214.75 1.5 213.5 1.0 212.0 1.0 212.0 1.0 180.1 1.0 148.25 1.0 110.0 1.0 71.75 1.0 39.85 1.0 8.0 1.0 8.0 1.0" fill="url(#gradient0)" fill-rule="evenodd" stroke="none"/>
  </g>
  <defs>
    <linearGradient gradientTransform="matrix(0.0, 0.0385, -1.0, 0.0, -709.2, 32.5)" gradientUnits="userSpaceOnUse" id="gradient0" spreadMethod="pad" x1="-819.2" x2="819.2">
      <stop offset="0.0" stop-color="#000000" stop-opacity="0.050980393"/>
      <stop offset="1.0" stop-color="#000000" stop-opacity="0.2509804"/>
    </linearGradient>
  </defs>
</svg>
