<?xml version="1.0" encoding="UTF-8" standalone="no"?>
<svg xmlns:xlink="http://www.w3.org/1999/xlink" height="61.0px" width="216.0px" xmlns="http://www.w3.org/2000/svg">
  <g transform="matrix(1.0, 0.0, 0.0, 1.0, -2.0, -2.0)">
    <path d="M8.0 3.0 L8.0 3.0 Q6.85 3.0 5.95 3.35 5.0 3.7 4.35 4.35 3.7 5.0 3.35 5.95 3.0 6.85 3.0 8.0 3.0 8.0 3.0 15.65 3.0 23.3 3.0 32.5 3.0 41.65 3.0 49.3 3.0 57.0 3.0 57.0 3.0 58.1 3.35 59.0 3.7 59.95 4.35 60.6 5.0 61.25 5.95 61.6 6.85 62.0 8.0 62.0 8.0 62.0 39.85 62.0 71.75 62.0 110.0 62.0 148.25 62.0 180.1 62.0 212.0 62.0 212.0 62.0 213.1 62.0 214.0 61.6 214.95 61.25 215.6 60.6 216.25 59.95 216.6 59.0 217.0 58.1 217.0 57.0 217.0 57.0 217.0 49.3 217.0 41.65 217.0 32.5 217.0 23.3 217.0 15.65 217.0 8.0 217.0 8.0 217.0 6.85 216.6 5.95 216.25 5.0 215.6 4.35 214.95 3.7 214.0 3.35 213.1 3.0 212.0 3.0 212.0 3.0 180.1 3.0 148.25 3.0 110.0 3.0 71.75 3.0 39.85 3.0 8.0 3.0 8.0 3.0 M8.0 2.0 L8.0 2.0 Q8.0 2.0 39.85 2.0 71.75 2.0 110.0 2.0 148.25 2.0 180.1 2.0 212.0 2.0 212.0 2.0 213.1 2.0 214.2 2.5 215.25 3.0 216.1 3.85 216.95 4.7 217.45 5.75 218.0 6.85 218.0 8.0 218.0 8.0 218.0 15.65 218.0 23.3 218.0 32.5 218.0 41.65 218.0 49.3 218.0 57.0 218.0 57.0 218.0 58.1 217.45 59.2 216.95 60.25 216.1 61.1 215.25 61.95 214.2 62.45 213.1 63.0 212.0 63.0 212.0 63.0 180.1 63.0 148.25 63.0 110.0 63.0 71.75 63.0 39.85 63.0 8.0 63.0 8.0 63.0 6.85 63.0 5.75 62.45 4.7 61.95 3.85 61.1 3.0 60.25 2.5 59.2 2.0 58.1 2.0 57.0 2.0 57.0 2.0 49.3 2.0 41.65 2.0 32.5 2.0 23.3 2.0 15.65 2.0 8.0 2.0 8.0 2.0 6.85 2.5 5.75 3.0 4.7 3.85 3.85 4.7 3.0 5.75 2.5 6.85 2.0 8.0 2.0" fill="#000000" fill-opacity="0.101960786" fill-rule="evenodd" stroke="none"/>
  </g>
</svg>
