<?xml version="1.0" encoding="UTF-8" standalone="no"?>
<svg xmlns:xlink="http://www.w3.org/1999/xlink" height="86.0px" width="292.0px" xmlns="http://www.w3.org/2000/svg">
  <g transform="matrix(1.0, 0.0, 0.0, 1.0, 0.0, 0.0)">
    <path d="M12.0 2.0 L12.0 2.0 Q9.75 2.0 7.9 2.7 6.05 3.4 4.75 4.75 3.4 6.05 2.7 7.9 2.0 9.75 2.0 12.0 L2.0 74.0 Q2.0 76.25 2.7 78.05 3.4 79.9 4.75 81.25 6.05 82.55 7.9 83.25 9.75 84.0 12.0 84.0 L280.0 84.0 Q282.25 84.0 284.05 83.25 285.9 82.55 287.25 81.25 288.55 79.9 289.25 78.05 290.0 76.25 290.0 74.0 L290.0 12.0 Q290.0 9.75 289.25 7.9 288.55 6.05 287.25 4.75 285.9 3.4 284.05 2.7 282.25 2.0 280.0 2.0 L12.0 2.0 M12.0 0.0 L12.0 0.0 280.0 0.0 Q282.25 0.0 284.4 1.0 286.55 2.05 288.25 3.75 289.9 5.4 290.95 7.55 292.0 9.75 292.0 12.0 L292.0 74.0 Q292.0 76.25 290.95 78.4 289.9 80.55 288.25 82.25 286.55 83.9 284.4 84.95 282.25 86.0 280.0 86.0 L12.0 86.0 Q9.75 86.0 7.55 84.95 5.4 83.9 3.75 82.25 2.05 80.55 1.0 78.4 0.0 76.25 0.0 74.0 L0.0 12.0 Q0.0 9.75 1.0 7.55 2.05 5.4 3.75 3.75 5.4 2.05 7.55 1.0 9.75 0.0 12.0 0.0" fill="#464646" fill-rule="evenodd" stroke="none"/>
  </g>
</svg>
