<?xml version="1.0" encoding="UTF-8" standalone="no"?>
<svg xmlns:xlink="http://www.w3.org/1999/xlink" height="82.0px" width="288.0px" xmlns="http://www.w3.org/2000/svg">
  <g transform="matrix(1.0, 0.0, 0.0, 1.0, 0.0, 0.0)">
    <path d="M10.0 0.0 L10.0 0.0 Q7.75 0.0 5.9 0.7 4.05 1.4 2.75 2.75 1.4 4.05 0.7 5.9 0.0 7.75 0.0 10.0 L0.0 72.0 Q0.0 74.25 0.7 76.05 1.4 77.9 2.75 79.25 4.05 80.55 5.9 81.25 7.75 82.0 10.0 82.0 L278.0 82.0 Q280.25 82.0 282.05 81.25 283.9 80.55 285.25 79.25 286.55 77.9 287.25 76.05 288.0 74.25 288.0 72.0 L288.0 10.0 Q288.0 7.75 287.25 5.9 286.55 4.05 285.25 2.75 283.9 1.4 282.05 0.7 280.25 0.0 278.0 0.0 L10.0 0.0" fill="url(#gradient0)" fill-rule="evenodd" stroke="none"/>
  </g>
  <defs>
    <linearGradient gradientTransform="matrix(0.0, 0.05, -1.0, 0.0, -675.2, 41.0)" gradientUnits="userSpaceOnUse" id="gradient0" spreadMethod="pad" x1="-819.2" x2="819.2">
      <stop offset="0.0" stop-color="#000000" stop-opacity="0.050980393"/>
      <stop offset="1.0" stop-color="#000000" stop-opacity="0.2509804"/>
    </linearGradient>
  </defs>
</svg>
