<?xml version="1.0" encoding="UTF-8" standalone="no"?>
<svg xmlns:xlink="http://www.w3.org/1999/xlink" height="63.0px" width="218.0px" xmlns="http://www.w3.org/2000/svg">
  <g transform="matrix(1.0, 0.0, 0.0, 1.0, -1.0, -1.0)">
    <path d="M8.0 2.0 L8.0 2.0 Q6.85 2.0 5.75 2.5 4.7 3.0 3.85 3.85 3.0 4.7 2.5 5.75 2.0 6.85 2.0 8.0 2.0 8.0 2.0 15.65 2.0 23.3 2.0 32.5 2.0 41.65 2.0 49.3 2.0 57.0 2.0 57.0 2.0 58.1 2.5 59.2 3.0 60.25 3.85 61.1 4.7 61.95 5.75 62.45 6.85 63.0 8.0 63.0 8.0 63.0 39.85 63.0 71.75 63.0 110.0 63.0 148.25 63.0 180.1 63.0 212.0 63.0 212.0 63.0 213.1 63.0 214.2 62.45 215.25 61.95 216.1 61.1 216.95 60.25 217.45 59.2 218.0 58.1 218.0 57.0 218.0 57.0 218.0 49.3 218.0 41.65 218.0 32.5 218.0 23.3 218.0 15.65 218.0 8.0 218.0 8.0 218.0 6.85 217.45 5.75 216.95 4.7 216.1 3.85 215.25 3.0 214.2 2.5 213.1 2.0 212.0 2.0 212.0 2.0 180.1 2.0 148.25 2.0 110.0 2.0 71.75 2.0 39.85 2.0 8.0 2.0 8.0 2.0 M8.0 1.0 L8.0 1.0 Q8.0 1.0 39.85 1.0 71.75 1.0 110.0 1.0 148.25 1.0 180.1 1.0 212.0 1.0 212.0 1.0 213.5 1.0 214.75 1.5 216.05 2.05 217.0 3.0 217.9 3.9 218.45 5.2 219.0 6.5 219.0 8.0 219.0 8.0 219.0 15.65 219.0 23.3 219.0 32.5 219.0 41.65 219.0 49.3 219.0 57.0 219.0 57.0 219.0 58.5 218.45 59.75 217.9 61.05 217.0 62.0 216.05 62.9 214.75 63.45 213.5 64.0 212.0 64.0 212.0 64.0 180.1 64.0 148.25 64.0 110.0 64.0 71.75 64.0 39.85 64.0 8.0 64.0 8.0 64.0 6.5 64.0 5.2 63.45 3.9 62.9 3.0 62.0 2.05 61.05 1.5 59.75 1.0 58.5 1.0 57.0 1.0 57.0 1.0 49.3 1.0 41.65 1.0 32.5 1.0 23.3 1.0 15.65 1.0 8.0 1.0 8.0 1.0 6.5 1.5 5.2 2.05 3.9 3.0 3.0 3.9 2.05 5.2 1.5 6.5 1.0 8.0 1.0" fill="#000000" fill-opacity="0.2509804" fill-rule="evenodd" stroke="none"/>
  </g>
</svg>
