<?xml version="1.0" encoding="UTF-8" standalone="no"?>
<svg xmlns:xlink="http://www.w3.org/1999/xlink" height="43.0px" width="146.0px" xmlns="http://www.w3.org/2000/svg">
  <g transform="matrix(1.0, 0.0, 0.0, 1.0, 0.0, 0.0)">
    <path d="M6.0 1.0 L6.0 1.0 Q4.85 1.0 3.95 1.35 3.0 1.7 2.35 2.35 1.7 3.0 1.35 3.95 1.0 4.85 1.0 6.0 1.0 6.0 1.0 10.8 1.0 15.65 1.0 21.5 1.0 27.3 1.0 32.15 1.0 37.0 1.0 37.0 1.0 38.1 1.35 39.0 1.7 39.95 2.35 40.6 3.0 41.25 3.95 41.6 4.85 42.0 6.0 42.0 6.0 42.0 26.9 42.0 47.85 42.0 73.0 42.0 98.1 42.0 119.05 42.0 140.0 42.0 140.0 42.0 141.1 42.0 142.0 41.6 142.95 41.25 143.6 40.6 144.25 39.95 144.6 39.0 145.0 38.1 145.0 37.0 145.0 37.0 145.0 32.15 145.0 27.3 145.0 21.5 145.0 15.65 145.0 10.8 145.0 6.0 145.0 6.0 145.0 4.85 144.6 3.95 144.25 3.0 143.6 2.35 142.95 1.7 142.0 1.35 141.1 1.0 140.0 1.0 140.0 1.0 119.05 1.0 98.1 1.0 73.0 1.0 47.85 1.0 26.9 1.0 6.0 1.0 6.0 1.0 M6.0 0.0 L6.0 0.0 Q6.0 0.0 26.9 0.0 47.85 0.0 73.0 0.0 98.1 0.0 119.05 0.0 140.0 0.0 140.0 0.0 141.1 0.0 142.2 0.5 143.25 1.0 144.1 1.85 144.95 2.7 145.45 3.75 146.0 4.85 146.0 6.0 146.0 6.0 146.0 10.8 146.0 15.65 146.0 21.5 146.0 27.3 146.0 32.15 146.0 37.0 146.0 37.0 146.0 38.1 145.45 39.2 144.95 40.25 144.1 41.1 143.25 41.95 142.2 42.45 141.1 43.0 140.0 43.0 140.0 43.0 119.05 43.0 98.1 43.0 73.0 43.0 47.85 43.0 26.9 43.0 6.0 43.0 6.0 43.0 4.85 43.0 3.75 42.45 2.7 41.95 1.85 41.1 1.0 40.25 0.5 39.2 0.0 38.1 0.0 37.0 0.0 37.0 0.0 32.15 0.0 27.3 0.0 21.5 0.0 15.65 0.0 10.8 0.0 6.0 0.0 6.0 0.0 4.85 0.5 3.75 1.0 2.7 1.85 1.85 2.7 1.0 3.75 0.5 4.85 0.0 6.0 0.0" fill="#464646" fill-rule="evenodd" stroke="none"/>
  </g>
</svg>
