<?xml version="1.0" encoding="UTF-8" standalone="no"?>
<svg xmlns:xlink="http://www.w3.org/1999/xlink" height="41.0px" width="144.0px" xmlns="http://www.w3.org/2000/svg">
  <g transform="matrix(1.0, 0.0, 0.0, 1.0, -1.0, -1.0)">
    <path d="M6.0 1.0 L6.0 1.0 Q4.85 1.0 3.95 1.35 3.0 1.7 2.35 2.35 1.7 3.0 1.35 3.95 1.0 4.85 1.0 6.0 1.0 6.0 1.0 10.8 1.0 15.65 1.0 21.5 1.0 27.3 1.0 32.15 1.0 37.0 1.0 37.0 1.0 38.1 1.35 39.0 1.7 39.95 2.35 40.6 3.0 41.25 3.95 41.6 4.85 42.0 6.0 42.0 6.0 42.0 26.9 42.0 47.85 42.0 73.0 42.0 98.1 42.0 119.05 42.0 140.0 42.0 140.0 42.0 141.1 42.0 142.0 41.6 142.95 41.25 143.6 40.6 144.25 39.95 144.6 39.0 145.0 38.1 145.0 37.0 145.0 37.0 145.0 32.15 145.0 27.3 145.0 21.5 145.0 15.65 145.0 10.8 145.0 6.0 145.0 6.0 145.0 4.85 144.6 3.95 144.25 3.0 143.6 2.35 142.95 1.7 142.0 1.35 141.1 1.0 140.0 1.0 140.0 1.0 119.05 1.0 98.1 1.0 73.0 1.0 47.85 1.0 26.9 1.0 6.0 1.0 6.0 1.0" fill="url(#gradient0)" fill-rule="evenodd" stroke="none"/>
  </g>
  <defs>
    <linearGradient gradientTransform="matrix(0.0, 0.025, -1.0, 0.0, -746.2, 21.5)" gradientUnits="userSpaceOnUse" id="gradient0" spreadMethod="pad" x1="-819.2" x2="819.2">
      <stop offset="0.0" stop-color="#000000" stop-opacity="0.050980393"/>
      <stop offset="1.0" stop-color="#000000" stop-opacity="0.2509804"/>
    </linearGradient>
  </defs>
</svg>
