<?xml version="1.0" encoding="UTF-8" standalone="no"?>
<svg xmlns:xlink="http://www.w3.org/1999/xlink" height="41.0px" width="144.0px" xmlns="http://www.w3.org/2000/svg">
  <g transform="matrix(1.0, 0.0, 0.0, 1.0, -1.0, -1.0)">
    <path d="M2.0 6.0 L2.0 6.0 Q2.0 6.0 2.0 10.8 2.0 15.65 2.0 21.5 2.0 27.3 2.0 32.15 2.0 37.0 2.0 37.0 2.0 37.75 2.3 38.45 2.65 39.15 3.25 39.75 3.8 40.3 4.5 40.65 5.25 41.0 6.0 41.0 6.0 41.0 26.9 41.0 47.85 41.0 73.0 41.0 98.1 41.0 119.05 41.0 140.0 41.0 140.0 41.0 140.75 41.0 141.45 40.65 142.15 40.3 142.75 39.75 143.3 39.15 143.65 38.45 144.0 37.75 144.0 37.0 144.0 37.0 144.0 32.15 144.0 27.3 144.0 21.5 144.0 15.65 144.0 10.8 144.0 6.0 144.0 6.0 144.0 5.25 143.65 4.5 143.3 3.8 142.75 3.25 142.15 2.65 141.45 2.3 140.75 2.0 140.0 2.0 140.0 2.0 119.05 2.0 98.1 2.0 73.0 2.0 47.85 2.0 26.9 2.0 6.0 2.0 6.0 2.0 5.25 2.0 4.5 2.3 3.8 2.65 3.25 3.25 2.65 3.8 2.3 4.5 2.0 5.25 2.0 6.0 M6.0 1.0 L6.0 1.0 Q6.0 1.0 26.9 1.0 47.85 1.0 73.0 1.0 98.1 1.0 119.05 1.0 140.0 1.0 140.0 1.0 141.1 1.0 142.0 1.35 142.95 1.7 143.6 2.35 144.25 3.0 144.6 3.95 145.0 4.85 145.0 6.0 145.0 6.0 145.0 10.8 145.0 15.65 145.0 21.5 145.0 27.3 145.0 32.15 145.0 37.0 145.0 37.0 145.0 38.1 144.6 39.0 144.25 39.95 143.6 40.6 142.95 41.25 142.0 41.6 141.1 42.0 140.0 42.0 140.0 42.0 119.05 42.0 98.1 42.0 73.0 42.0 47.85 42.0 26.9 42.0 6.0 42.0 6.0 42.0 4.85 42.0 3.95 41.6 3.0 41.25 2.35 40.6 1.7 39.95 1.35 39.0 1.0 38.1 1.0 37.0 1.0 37.0 1.0 32.15 1.0 27.3 1.0 21.5 1.0 15.65 1.0 10.8 1.0 6.0 1.0 6.0 1.0 4.85 1.35 3.95 1.7 3.0 2.35 2.35 3.0 1.7 3.95 1.35 4.85 1.0 6.0 1.0" fill="#000000" fill-opacity="0.2" fill-rule="evenodd" stroke="none"/>
  </g>
</svg>
