<?xml version="1.0" encoding="UTF-8" standalone="no"?>
<svg xmlns:xlink="http://www.w3.org/1999/xlink" height="39.0px" width="142.0px" xmlns="http://www.w3.org/2000/svg">
  <g transform="matrix(1.0, 0.0, 0.0, 1.0, -2.0, -2.0)">
    <path d="M3.0 6.0 L3.0 6.0 Q3.0 6.0 3.0 10.8 3.0 15.65 3.0 21.5 3.0 27.3 3.0 32.15 3.0 37.0 3.0 37.0 3.0 37.75 3.15 38.3 3.35 38.85 3.75 39.25 4.1 39.6 4.65 39.8 5.25 40.0 6.0 40.0 6.0 40.0 26.9 40.0 47.85 40.0 73.0 40.0 98.1 40.0 119.05 40.0 140.0 40.0 140.0 40.0 140.75 40.0 141.3 39.8 141.85 39.6 142.25 39.25 142.6 38.85 142.8 38.3 143.0 37.75 143.0 37.0 143.0 37.0 143.0 32.15 143.0 27.3 143.0 21.5 143.0 15.65 143.0 10.8 143.0 6.0 143.0 6.0 143.0 5.25 142.8 4.65 142.6 4.1 142.25 3.75 141.85 3.35 141.3 3.15 140.75 3.0 140.0 3.0 140.0 3.0 119.05 3.0 98.1 3.0 73.0 3.0 47.85 3.0 26.9 3.0 6.0 3.0 6.0 3.0 5.25 3.0 4.65 3.15 4.1 3.35 3.75 3.75 3.35 4.1 3.15 4.65 3.0 5.25 3.0 6.0 M2.0 6.0 L2.0 6.0 Q2.0 5.25 2.3 4.5 2.65 3.8 3.25 3.25 3.8 2.65 4.5 2.3 5.25 2.0 6.0 2.0 6.0 2.0 26.9 2.0 47.85 2.0 73.0 2.0 98.1 2.0 119.05 2.0 140.0 2.0 140.0 2.0 140.75 2.0 141.45 2.3 142.15 2.65 142.75 3.25 143.3 3.8 143.65 4.5 144.0 5.25 144.0 6.0 144.0 6.0 144.0 10.8 144.0 15.65 144.0 21.5 144.0 27.3 144.0 32.15 144.0 37.0 144.0 37.0 144.0 37.75 143.65 38.45 143.3 39.15 142.75 39.75 142.15 40.3 141.45 40.65 140.75 41.0 140.0 41.0 140.0 41.0 119.05 41.0 98.1 41.0 73.0 41.0 47.85 41.0 26.9 41.0 6.0 41.0 6.0 41.0 5.25 41.0 4.5 40.65 3.8 40.3 3.25 39.75 2.65 39.15 2.3 38.45 2.0 37.75 2.0 37.0 2.0 37.0 2.0 32.15 2.0 27.3 2.0 21.5 2.0 15.65 2.0 10.8 2.0 6.0 2.0 6.0" fill="#646464" fill-opacity="0.101960786" fill-rule="evenodd" stroke="none"/>
  </g>
</svg>
