<?xml version="1.0" encoding="UTF-8" standalone="no"?>
<svg xmlns:xlink="http://www.w3.org/1999/xlink" height="82.0px" width="288.0px" xmlns="http://www.w3.org/2000/svg">
  <g transform="matrix(1.0, 0.0, 0.0, 1.0, 0.0, 0.0)">
    <path d="M2.0 10.0 L2.0 10.0 2.0 72.0 Q2.0 73.5 2.65 74.9 3.35 76.35 4.5 77.5 5.6 78.6 7.05 79.3 8.5 80.0 10.0 80.0 L278.0 80.0 Q279.5 80.0 280.9 79.3 282.35 78.6 283.5 77.5 284.6 76.35 285.3 74.9 286.0 73.5 286.0 72.0 L286.0 10.0 Q286.0 8.5 285.3 7.05 284.6 5.6 283.5 4.5 282.35 3.35 280.9 2.65 279.5 2.0 278.0 2.0 L10.0 2.0 Q8.5 2.0 7.05 2.65 5.6 3.35 4.5 4.5 3.35 5.6 2.65 7.05 2.0 8.5 2.0 10.0 M10.0 0.0 L10.0 0.0 278.0 0.0 Q280.25 0.0 282.05 0.7 283.9 1.4 285.25 2.75 286.55 4.05 287.25 5.9 288.0 7.75 288.0 10.0 L288.0 72.0 Q288.0 74.25 287.25 76.05 286.55 77.9 285.25 79.25 283.9 80.55 282.05 81.25 280.25 82.0 278.0 82.0 L10.0 82.0 Q7.75 82.0 5.9 81.25 4.05 80.55 2.75 79.25 1.4 77.9 0.7 76.05 0.0 74.25 0.0 72.0 L0.0 10.0 Q0.0 7.75 0.7 5.9 1.4 4.05 2.75 2.75 4.05 1.4 5.9 0.7 7.75 0.0 10.0 0.0" fill="#000000" fill-opacity="0.2" fill-rule="evenodd" stroke="none"/>
  </g>
</svg>
