<?xml version="1.0" encoding="UTF-8" standalone="no"?>
<svg xmlns:xlink="http://www.w3.org/1999/xlink" height="78.0px" width="284.0px" xmlns="http://www.w3.org/2000/svg">
  <g transform="matrix(1.0, 0.0, 0.0, 1.0, 0.0, 0.0)">
    <path d="M2.0 8.0 L2.0 8.0 2.0 70.0 Q2.0 71.5 2.35 72.6 2.75 73.75 3.5 74.5 4.25 75.25 5.35 75.6 6.5 76.0 8.0 76.0 L276.0 76.0 Q277.5 76.0 278.6 75.6 279.75 75.25 280.5 74.5 281.25 73.75 281.6 72.6 282.0 71.5 282.0 70.0 L282.0 8.0 Q282.0 6.5 281.6 5.35 281.25 4.25 280.5 3.5 279.75 2.75 278.6 2.35 277.5 2.0 276.0 2.0 L8.0 2.0 Q6.5 2.0 5.35 2.35 4.25 2.75 3.5 3.5 2.75 4.25 2.35 5.35 2.0 6.5 2.0 8.0 M0.0 8.0 L0.0 8.0 Q0.0 6.5 0.65 5.05 1.35 3.6 2.5 2.5 3.6 1.35 5.05 0.65 6.5 0.0 8.0 0.0 L276.0 0.0 Q277.5 0.0 278.9 0.65 280.35 1.35 281.5 2.5 282.6 3.6 283.3 5.05 284.0 6.5 284.0 8.0 L284.0 70.0 Q284.0 71.5 283.3 72.9 282.6 74.35 281.5 75.5 280.35 76.6 278.9 77.3 277.5 78.0 276.0 78.0 L8.0 78.0 Q6.5 78.0 5.05 77.3 3.6 76.6 2.5 75.5 1.35 74.35 0.65 72.9 0.0 71.5 0.0 70.0 L0.0 8.0" fill="#646464" fill-opacity="0.101960786" fill-rule="evenodd" stroke="none"/>
  </g>
</svg>
