<?xml version="1.0" encoding="UTF-8" standalone="no"?>
<svg xmlns:xlink="http://www.w3.org/1999/xlink" height="56.0px" width="56.0px" xmlns="http://www.w3.org/2000/svg">
  <g transform="matrix(1.0, 0.0, 0.0, 1.0, 0.0, 0.0)">
    <path d="M0.0 4.0 L0.0 4.0 0.0 52.0 Q0.0 52.75 0.0 53.45 0.05 54.15 0.25 54.75 0.4 55.3 0.8 55.65 1.25 56.0 2.0 56.0 L54.0 56.0 Q54.75 56.0 55.15 55.65 55.55 55.3 55.75 54.75 55.9 54.15 55.95 53.45 56.0 52.75 56.0 52.0 L56.0 4.0 Q56.0 3.25 55.65 2.5 55.3 1.8 54.75 1.25 54.15 0.65 53.45 0.3 52.75 0.0 52.0 0.0 L4.0 0.0 Q3.25 0.0 2.5 0.3 1.8 0.65 1.25 1.25 0.65 1.8 0.3 2.5 0.0 3.25 0.0 4.0" fill="url(#gradient0)" fill-rule="evenodd" stroke="none"/>
  </g>
  <defs>
    <linearGradient gradientTransform="matrix(0.0, 0.0244, -1.0, 0.0, -791.2, 28.0)" gradientUnits="userSpaceOnUse" id="gradient0" spreadMethod="pad" x1="-819.2" x2="819.2">
      <stop offset="0.0" stop-color="#ffffff" stop-opacity="0.8"/>
      <stop offset="1.0" stop-color="#ffffff" stop-opacity="0.047058824"/>
    </linearGradient>
  </defs>
</svg>
