<?xml version="1.0" encoding="UTF-8" standalone="no"?>
<svg xmlns:xlink="http://www.w3.org/1999/xlink" height="66.0px" width="66.0px" xmlns="http://www.w3.org/2000/svg">
  <g transform="matrix(1.0, 0.0, 0.0, 1.0, 0.0, 0.0)">
    <path d="M66.0 33.0 L66.0 33.0 Q66.0 26.15 63.4 20.15 60.8 14.1 56.3 9.65 51.85 5.15 45.8 2.55 39.8 0.0 33.0 0.0 26.15 0.0 20.15 2.55 14.1 5.15 9.65 9.65 5.15 14.1 2.55 20.15 0.0 26.15 0.0 33.0 0.0 39.8 2.55 45.8 5.15 51.85 9.65 56.3 14.1 60.8 20.15 63.4 26.15 66.0 33.0 66.0 39.8 66.0 45.8 63.4 51.85 60.8 56.3 56.3 60.8 51.85 63.4 45.8 66.0 39.8 66.0 33.0" fill="#ffffff" fill-rule="evenodd" stroke="none"/>
  </g>
</svg>
