<?xml version="1.0" encoding="UTF-8" standalone="no"?>
<svg xmlns:xlink="http://www.w3.org/1999/xlink" height="28.0px" width="28.0px" xmlns="http://www.w3.org/2000/svg">
  <g transform="matrix(1.0, 0.0, 0.0, 1.0, -2.0, -2.0)">
    <path d="M2.0 4.0 L2.0 4.0 Q2.0 4.0 2.0 7.75 2.0 11.5 2.0 16.0 2.0 20.5 2.0 24.25 2.0 28.0 2.0 28.0 2.0 28.35 2.0 28.7 2.0 29.05 2.1 29.35 2.2 29.65 2.4 29.8 2.6 30.0 3.0 30.0 3.0 30.0 7.05 30.0 11.1 30.0 16.0 30.0 20.85 30.0 24.9 30.0 29.0 30.0 29.0 30.0 29.35 30.0 29.55 29.8 29.75 29.65 29.85 29.35 29.95 29.05 29.95 28.7 30.0 28.35 30.0 28.0 30.0 28.0 30.0 24.25 30.0 20.5 30.0 16.0 30.0 11.5 30.0 7.75 30.0 4.0 30.0 4.0 30.0 3.6 29.8 3.25 29.65 2.9 29.35 2.6 29.05 2.3 28.7 2.15 28.35 2.0 28.0 2.0 28.0 2.0 24.25 2.0 20.5 2.0 16.0 2.0 11.5 2.0 7.75 2.0 4.0 2.0 4.0 2.0 3.6 2.0 3.25 2.15 2.9 2.3 2.6 2.6 2.3 2.9 2.15 3.25 2.0 3.6 2.0 4.0" fill="url(#gradient0)" fill-rule="evenodd" stroke="none"/>
  </g>
  <defs>
    <linearGradient gradientTransform="matrix(0.0, 0.0122, -1.0, 0.0, -803.2, 16.0)" gradientUnits="userSpaceOnUse" id="gradient0" spreadMethod="pad" x1="-819.2" x2="819.2">
      <stop offset="0.0" stop-color="#ffffff" stop-opacity="0.8"/>
      <stop offset="1.0" stop-color="#ffffff" stop-opacity="0.047058824"/>
    </linearGradient>
  </defs>
</svg>
