<?xml version="1.0" encoding="UTF-8" standalone="no"?>
<svg xmlns:xlink="http://www.w3.org/1999/xlink" height="32.0px" width="32.0px" xmlns="http://www.w3.org/2000/svg">
  <g transform="matrix(1.0, 0.0, 0.0, 1.0, 0.0, 0.0)">
    <path d="M1.0 3.0 L1.0 3.0 Q1.0 3.0 1.0 7.05 1.0 11.1 1.0 16.0 1.0 20.85 1.0 24.9 1.0 29.0 1.0 29.0 1.0 29.35 1.0 29.7 1.0 30.05 1.1 30.35 1.2 30.65 1.4 30.8 1.6 31.0 2.0 31.0 2.0 31.0 6.35 31.0 10.75 31.0 16.0 31.0 21.25 31.0 25.6 31.0 30.0 31.0 30.0 31.0 30.35 31.0 30.55 30.8 30.75 30.65 30.85 30.35 30.95 30.05 30.95 29.7 31.0 29.35 31.0 29.0 31.0 29.0 31.0 24.9 31.0 20.85 31.0 16.0 31.0 11.1 31.0 7.05 31.0 3.0 31.0 3.0 31.0 2.6 30.8 2.25 30.65 1.9 30.35 1.6 30.05 1.3 29.7 1.15 29.35 1.0 29.0 1.0 29.0 1.0 24.9 1.0 20.85 1.0 16.0 1.0 11.1 1.0 7.05 1.0 3.0 1.0 3.0 1.0 2.6 1.0 2.25 1.15 1.9 1.3 1.6 1.6 1.3 1.9 1.15 2.25 1.0 2.6 1.0 3.0 M0.0 2.0 L0.0 2.0 Q0.0 2.0 0.15 1.65 0.3 1.35 0.6 1.0 0.9 0.6 1.25 0.3 1.6 0.0 2.0 0.0 2.0 0.0 6.35 0.0 10.75 0.0 16.0 0.0 21.25 0.0 25.6 0.0 30.0 0.0 30.0 0.0 30.35 0.0 30.7 0.15 31.05 0.3 31.35 0.6 31.65 0.9 31.8 1.25 32.0 1.6 32.0 2.0 32.0 2.0 32.0 6.35 32.0 10.75 32.0 16.0 32.0 21.25 32.0 25.6 32.0 30.0 32.0 30.0 32.0 30.35 31.8 30.7 31.65 31.05 31.35 31.35 31.05 31.65 30.7 31.8 30.35 32.0 30.0 32.0 30.0 32.0 25.6 32.0 21.25 32.0 16.0 32.0 10.75 32.0 6.35 32.0 2.0 32.0 2.0 32.0 1.6 32.0 1.25 31.8 0.9 31.65 0.6 31.35 0.3 31.05 0.15 30.7 0.0 30.35 0.0 30.0 0.0 30.0 0.0 25.6 0.0 21.25 0.0 16.0 0.0 10.75 0.0 6.35 0.0 2.0 0.0 2.0" fill="#000000" fill-rule="evenodd" stroke="none"/>
  </g>
</svg>
