<?xml version="1.0" encoding="UTF-8" standalone="no"?>
<svg xmlns:xlink="http://www.w3.org/1999/xlink" height="60.0px" width="60.0px" xmlns="http://www.w3.org/2000/svg">
  <g transform="matrix(1.0, 0.0, 0.0, 1.0, 0.0, 0.0)">
    <path d="M2.0 6.0 L2.0 6.0 2.0 54.0 Q2.0 54.75 2.0 55.45 2.05 56.15 2.25 56.75 2.4 57.3 2.8 57.65 3.25 58.0 4.0 58.0 L56.0 58.0 Q56.75 58.0 57.15 57.65 57.55 57.3 57.75 56.75 57.9 56.15 57.95 55.45 58.0 54.75 58.0 54.0 L58.0 6.0 Q58.0 5.25 57.65 4.5 57.3 3.8 56.75 3.25 56.15 2.65 55.45 2.3 54.75 2.0 54.0 2.0 L6.0 2.0 Q5.25 2.0 4.5 2.3 3.8 2.65 3.25 3.25 2.65 3.8 2.3 4.5 2.0 5.25 2.0 6.0 M0.0 4.0 L0.0 4.0 Q0.0 4.0 0.3 3.35 0.65 2.75 1.25 2.0 1.8 1.25 2.5 0.6 3.25 0.0 4.0 0.0 L56.0 0.0 Q56.75 0.0 57.45 0.3 58.15 0.65 58.75 1.25 59.3 1.8 59.65 2.5 60.0 3.25 60.0 4.0 L60.0 56.0 Q60.0 56.75 59.65 57.45 59.3 58.15 58.75 58.75 58.15 59.3 57.45 59.65 56.75 60.0 56.0 60.0 L4.0 60.0 Q3.25 60.0 2.5 59.65 1.8 59.3 1.25 58.75 0.65 58.15 0.3 57.45 0.0 56.75 0.0 56.0 L0.0 4.0" fill="#000000" fill-rule="evenodd" stroke="none"/>
  </g>
</svg>
