<?xml version="1.0" encoding="UTF-8" standalone="no"?>
<svg xmlns:xlink="http://www.w3.org/1999/xlink" height="64.0px" width="64.0px" xmlns="http://www.w3.org/2000/svg">
  <g transform="matrix(1.0, 0.0, 0.0, 1.0, 0.0, 0.0)">
    <path d="M2.0 6.0 L2.0 6.0 2.0 58.0 Q2.0 58.75 2.0 59.45 2.05 60.15 2.25 60.75 2.4 61.3 2.8 61.65 3.25 62.0 4.0 62.0 L60.0 62.0 Q60.75 62.0 61.15 61.65 61.55 61.3 61.75 60.75 61.9 60.15 61.95 59.45 62.0 58.75 62.0 58.0 L62.0 6.0 Q62.0 5.25 61.65 4.5 61.3 3.8 60.75 3.25 60.15 2.65 59.45 2.3 58.75 2.0 58.0 2.0 L6.0 2.0 Q5.25 2.0 4.5 2.3 3.8 2.65 3.25 3.25 2.65 3.8 2.3 4.5 2.0 5.25 2.0 6.0 M0.0 4.0 L0.0 4.0 Q0.0 4.0 0.3 3.35 0.65 2.75 1.25 2.0 1.8 1.25 2.5 0.6 3.25 0.0 4.0 0.0 L60.0 0.0 Q60.75 0.0 61.45 0.3 62.15 0.65 62.75 1.25 63.3 1.8 63.65 2.5 64.0 3.25 64.0 4.0 L64.0 60.0 Q64.0 60.75 63.65 61.45 63.3 62.15 62.75 62.75 62.15 63.3 61.45 63.65 60.75 64.0 60.0 64.0 L4.0 64.0 Q3.25 64.0 2.5 63.65 1.8 63.3 1.25 62.75 0.65 62.15 0.3 61.45 0.0 60.75 0.0 60.0 L0.0 4.0" fill="#ffffff" fill-rule="evenodd" stroke="none"/>
  </g>
</svg>
