<?xml version="1.0" encoding="UTF-8" standalone="no"?>
<svg xmlns:xlink="http://www.w3.org/1999/xlink" height="52.0px" width="52.0px" xmlns="http://www.w3.org/2000/svg">
  <g transform="matrix(1.0, 0.0, 0.0, 1.0, 0.0, 0.0)">
    <path d="M2.0 6.0 L2.0 6.0 2.0 46.0 Q2.0 46.75 2.0 47.45 2.05 48.15 2.25 48.75 2.4 49.3 2.8 49.65 3.25 50.0 4.0 50.0 L48.0 50.0 Q48.75 50.0 49.15 49.65 49.55 49.3 49.75 48.75 49.9 48.15 49.95 47.45 50.0 46.75 50.0 46.0 L50.0 6.0 Q50.0 5.25 49.65 4.5 49.3 3.8 48.75 3.25 48.15 2.65 47.45 2.3 46.75 2.0 46.0 2.0 L6.0 2.0 Q5.25 2.0 4.5 2.3 3.8 2.65 3.25 3.25 2.65 3.8 2.3 4.5 2.0 5.25 2.0 6.0 M0.0 4.0 L0.0 4.0 Q0.0 3.25 0.3 2.5 0.65 1.8 1.25 1.25 1.8 0.65 2.5 0.3 3.25 0.0 4.0 0.0 L48.0 0.0 Q48.75 0.0 49.45 0.3 50.15 0.65 50.75 1.25 51.3 1.8 51.65 2.5 52.0 3.25 52.0 4.0 L52.0 48.0 Q52.0 48.75 51.95 49.45 51.9 50.15 51.75 50.75 51.55 51.3 51.15 51.65 50.75 52.0 50.0 52.0 L2.0 52.0 Q1.25 52.0 0.8 51.65 0.4 51.3 0.25 50.75 0.05 50.15 0.0 49.45 0.0 48.75 0.0 48.0 L0.0 4.0" fill="url(#gradient0)" fill-rule="evenodd" stroke="none"/>
  </g>
  <defs>
    <linearGradient gradientTransform="matrix(0.0, 0.0317, -1.0, 0.0, -793.2, 26.0)" gradientUnits="userSpaceOnUse" id="gradient0" spreadMethod="pad" x1="-819.2" x2="819.2">
      <stop offset="0.0" stop-color="#000000" stop-opacity="0.101960786"/>
      <stop offset="1.0" stop-color="#000000" stop-opacity="0.0"/>
    </linearGradient>
  </defs>
</svg>
