<?xml version="1.0" encoding="UTF-8" standalone="no"?>
<svg xmlns:xlink="http://www.w3.org/1999/xlink" height="56.0px" width="56.0px" xmlns="http://www.w3.org/2000/svg">
  <g transform="matrix(1.0, 0.0, 0.0, 1.0, 0.0, 0.0)">
    <path d="M2.0 6.0 L2.0 6.0 2.0 50.0 Q2.0 50.75 2.0 51.45 2.05 52.15 2.25 52.75 2.4 53.3 2.8 53.65 3.25 54.0 4.0 54.0 L52.0 54.0 Q52.75 54.0 53.15 53.65 53.55 53.3 53.75 52.75 53.9 52.15 53.95 51.45 54.0 50.75 54.0 50.0 L54.0 6.0 Q54.0 5.25 53.65 4.5 53.3 3.8 52.75 3.25 52.15 2.65 51.45 2.3 50.75 2.0 50.0 2.0 L6.0 2.0 Q5.25 2.0 4.5 2.3 3.8 2.65 3.25 3.25 2.65 3.8 2.3 4.5 2.0 5.25 2.0 6.0 M0.0 4.0 L0.0 4.0 Q0.0 3.25 0.3 2.5 0.65 1.8 1.25 1.25 1.8 0.65 2.5 0.3 3.25 0.0 4.0 0.0 L52.0 0.0 Q52.75 0.0 53.45 0.3 54.15 0.65 54.75 1.25 55.3 1.8 55.65 2.5 56.0 3.25 56.0 4.0 L56.0 52.0 Q56.0 52.75 55.95 53.45 55.9 54.15 55.75 54.75 55.55 55.3 55.15 55.65 54.75 56.0 54.0 56.0 L2.0 56.0 Q1.25 56.0 0.8 55.65 0.4 55.3 0.25 54.75 0.05 54.15 0.0 53.45 0.0 52.75 0.0 52.0 L0.0 4.0" fill="url(#gradient0)" fill-rule="evenodd" stroke="none"/>
  </g>
  <defs>
    <linearGradient gradientTransform="matrix(0.0, 0.0342, -1.0, 0.0, -791.2, 28.0)" gradientUnits="userSpaceOnUse" id="gradient0" spreadMethod="pad" x1="-819.2" x2="819.2">
      <stop offset="0.0" stop-color="#ffffff" stop-opacity="0.34901962"/>
      <stop offset="1.0" stop-color="#000000" stop-opacity="0.0"/>
    </linearGradient>
  </defs>
</svg>
