<?xml version="1.0" encoding="UTF-8" standalone="no"?>
<svg xmlns:xlink="http://www.w3.org/1999/xlink" height="55.0px" width="55.0px" xmlns="http://www.w3.org/2000/svg">
  <g transform="matrix(1.0, 0.0, 0.0, 1.0, 0.0, 0.0)">
    <path d="M55.0 27.5 L55.0 27.5 Q55.0 21.8 52.8 16.75 50.65 11.75 46.9 8.05 43.2 4.3 38.2 2.15 33.15 0.0 27.5 0.0 21.8 0.0 16.75 2.15 11.75 4.3 8.05 8.05 4.3 11.75 2.15 16.75 0.0 21.8 0.0 27.5 0.0 33.15 2.15 38.2 4.3 43.2 8.05 46.9 11.75 50.65 16.75 52.8 21.8 55.0 27.5 55.0 33.15 55.0 38.2 52.8 43.2 50.65 46.9 46.9 50.65 43.2 52.8 38.2 55.0 33.15 55.0 27.5" fill="#1c3d75" fill-rule="evenodd" stroke="none"/>
  </g>
</svg>
