<?xml version="1.0" encoding="UTF-8" standalone="no"?>
<svg xmlns:xlink="http://www.w3.org/1999/xlink" height="44.0px" width="44.0px" xmlns="http://www.w3.org/2000/svg">
  <g transform="matrix(1.0, 0.0, 0.0, 1.0, -2.0, -2.0)">
    <path d="M2.0 4.0 L2.0 4.0 Q2.0 4.0 2.0 10.25 2.0 16.5 2.0 24.0 2.0 31.5 2.0 37.75 2.0 44.0 2.0 44.0 2.0 44.35 2.0 44.7 2.0 45.05 2.1 45.35 2.2 45.65 2.4 45.8 2.6 46.0 3.0 46.0 3.0 46.0 9.55 46.0 16.1 46.0 24.0 46.0 31.85 46.0 38.4 46.0 45.0 46.0 45.0 46.0 45.35 46.0 45.55 45.8 45.75 45.65 45.85 45.35 45.95 45.05 45.95 44.7 46.0 44.35 46.0 44.0 46.0 44.0 46.0 37.75 46.0 31.5 46.0 24.0 46.0 16.5 46.0 10.25 46.0 4.0 46.0 4.0 46.0 3.6 45.8 3.25 45.65 2.9 45.35 2.6 45.05 2.3 44.7 2.15 44.35 2.0 44.0 2.0 44.0 2.0 37.75 2.0 31.5 2.0 24.0 2.0 16.5 2.0 10.25 2.0 4.0 2.0 4.0 2.0 3.6 2.0 3.25 2.15 2.9 2.3 2.6 2.6 2.3 2.9 2.15 3.25 2.0 3.6 2.0 4.0" fill="url(#gradient0)" fill-rule="evenodd" stroke="none"/>
  </g>
  <defs>
    <linearGradient gradientTransform="matrix(0.0, 0.0189, -1.0, 0.0, -795.2, 24.5)" gradientUnits="userSpaceOnUse" id="gradient0" spreadMethod="pad" x1="-819.2" x2="819.2">
      <stop offset="0.0" stop-color="#ffffff" stop-opacity="0.8"/>
      <stop offset="1.0" stop-color="#ffffff" stop-opacity="0.050980393"/>
    </linearGradient>
  </defs>
</svg>
