<?xml version="1.0" encoding="UTF-8" standalone="no"?>
<svg xmlns:xlink="http://www.w3.org/1999/xlink" height="48.0px" width="48.0px" xmlns="http://www.w3.org/2000/svg">
  <g transform="matrix(1.0, 0.0, 0.0, 1.0, 0.0, 0.0)">
    <path d="M1.0 3.0 L1.0 3.0 Q1.0 3.0 1.0 9.55 1.0 16.1 1.0 24.0 1.0 31.85 1.0 38.4 1.0 45.0 1.0 45.0 1.0 45.35 1.0 45.7 1.0 46.05 1.1 46.35 1.2 46.65 1.4 46.8 1.6 47.0 2.0 47.0 2.0 47.0 8.85 47.0 15.75 47.0 24.0 47.0 32.25 47.0 39.1 47.0 46.0 47.0 46.0 47.0 46.35 47.0 46.55 46.8 46.75 46.65 46.85 46.35 46.95 46.05 46.95 45.7 47.0 45.35 47.0 45.0 47.0 45.0 47.0 38.4 47.0 31.85 47.0 24.0 47.0 16.1 47.0 9.55 47.0 3.0 47.0 3.0 47.0 2.6 46.8 2.25 46.65 1.9 46.35 1.6 46.05 1.3 45.7 1.15 45.35 1.0 45.0 1.0 45.0 1.0 38.4 1.0 31.85 1.0 24.0 1.0 16.1 1.0 9.55 1.0 3.0 1.0 3.0 1.0 2.6 1.0 2.25 1.15 1.9 1.3 1.6 1.6 1.3 1.9 1.15 2.25 1.0 2.6 1.0 3.0 M0.0 2.0 L0.0 2.0 Q0.0 2.0 0.15 1.65 0.3 1.35 0.6 1.0 0.9 0.6 1.25 0.3 1.6 0.0 2.0 0.0 2.0 0.0 8.85 0.0 15.75 0.0 24.0 0.0 32.25 0.0 39.1 0.0 46.0 0.0 46.0 0.0 46.35 0.0 46.7 0.15 47.05 0.3 47.35 0.6 47.65 0.9 47.8 1.25 48.0 1.6 48.0 2.0 48.0 2.0 48.0 8.85 48.0 15.75 48.0 24.0 48.0 32.25 48.0 39.1 48.0 46.0 48.0 46.0 48.0 46.35 47.8 46.7 47.65 47.05 47.35 47.35 47.05 47.65 46.7 47.8 46.35 48.0 46.0 48.0 46.0 48.0 39.1 48.0 32.25 48.0 24.0 48.0 15.75 48.0 8.85 48.0 2.0 48.0 2.0 48.0 1.6 48.0 1.25 47.8 0.9 47.65 0.6 47.35 0.3 47.05 0.15 46.7 0.0 46.35 0.0 46.0 0.0 46.0 0.0 39.1 0.0 32.25 0.0 24.0 0.0 15.75 0.0 8.85 0.0 2.0 0.0 2.0" fill="#ffffff" fill-rule="evenodd" stroke="none"/>
  </g>
</svg>
