<?xml version="1.0" encoding="UTF-8" standalone="no"?>
<svg xmlns:xlink="http://www.w3.org/1999/xlink" height="42.0px" width="42.0px" xmlns="http://www.w3.org/2000/svg">
  <g transform="matrix(1.0, 0.0, 0.0, 1.0, -3.0, -3.0)">
    <path d="M4.0 6.0 L4.0 6.0 Q4.0 6.0 4.0 11.6 4.0 17.25 4.0 24.0 4.0 30.75 4.0 36.35 4.0 42.0 4.0 42.0 4.0 42.35 4.0 42.7 4.0 43.05 4.1 43.35 4.2 43.65 4.4 43.8 4.6 44.0 5.0 44.0 5.0 44.0 10.9 44.0 16.85 44.0 24.0 44.0 31.1 44.0 37.05 44.0 43.0 44.0 43.0 44.0 43.35 44.0 43.55 43.8 43.75 43.65 43.85 43.35 43.95 43.05 43.95 42.7 44.0 42.35 44.0 42.0 44.0 42.0 44.0 36.35 44.0 30.75 44.0 24.0 44.0 17.25 44.0 11.6 44.0 6.0 44.0 6.0 44.0 5.6 43.8 5.25 43.65 4.9 43.35 4.6 43.05 4.3 42.7 4.15 42.35 4.0 42.0 4.0 42.0 4.0 36.35 4.0 30.75 4.0 24.0 4.0 17.25 4.0 11.6 4.0 6.0 4.0 6.0 4.0 5.6 4.0 5.25 4.15 4.9 4.3 4.6 4.6 4.3 4.9 4.15 5.25 4.0 5.6 4.0 6.0 M3.0 5.0 L3.0 5.0 Q3.0 4.6 3.15 4.25 3.3 3.9 3.6 3.6 3.9 3.3 4.25 3.15 4.6 3.0 5.0 3.0 5.0 3.0 10.9 3.0 16.85 3.0 24.0 3.0 31.1 3.0 37.05 3.0 43.0 3.0 43.0 3.0 43.35 3.0 43.7 3.15 44.05 3.3 44.35 3.6 44.65 3.9 44.8 4.25 45.0 4.6 45.0 5.0 45.0 5.0 45.0 10.9 45.0 16.85 45.0 24.0 45.0 31.1 45.0 37.05 45.0 43.0 45.0 43.0 45.0 43.35 44.95 43.7 44.95 44.05 44.85 44.35 44.75 44.65 44.55 44.8 44.35 45.0 44.0 45.0 44.0 45.0 37.75 45.0 31.5 45.0 24.0 45.0 16.5 45.0 10.25 45.0 4.0 45.0 4.0 45.0 3.6 45.0 3.4 44.8 3.2 44.65 3.1 44.35 3.0 44.05 3.0 43.7 3.0 43.35 3.0 43.0 3.0 43.0 3.0 37.05 3.0 31.1 3.0 24.0 3.0 16.85 3.0 10.9 3.0 5.0 3.0 5.0" fill="url(#gradient0)" fill-rule="evenodd" stroke="none"/>
  </g>
  <defs>
    <linearGradient gradientTransform="matrix(0.0, 0.0269, -1.0, 0.0, -794.2, 25.0)" gradientUnits="userSpaceOnUse" id="gradient0" spreadMethod="pad" x1="-819.2" x2="819.2">
      <stop offset="0.0" stop-color="#000000" stop-opacity="0.12156863"/>
      <stop offset="1.0" stop-color="#000000" stop-opacity="0.0"/>
    </linearGradient>
  </defs>
</svg>
