<?xml version="1.0" encoding="UTF-8" standalone="no"?>
<svg xmlns:xlink="http://www.w3.org/1999/xlink" height="28.0px" width="28.0px" xmlns="http://www.w3.org/2000/svg">
  <g transform="matrix(1.0, 0.0, 0.0, 1.0, -2.0, -2.0)">
    <path d="M3.0 5.0 L3.0 5.0 Q3.0 5.0 3.0 8.4 3.0 11.85 3.0 16.0 3.0 20.1 3.0 23.55 3.0 27.0 3.0 27.0 3.0 27.35 3.0 27.7 3.0 28.05 3.1 28.35 3.2 28.65 3.4 28.8 3.6 29.0 4.0 29.0 4.0 29.0 7.75 29.0 11.5 29.0 16.0 29.0 20.5 29.0 24.25 29.0 28.0 29.0 28.0 29.0 28.35 29.0 28.55 28.8 28.75 28.65 28.85 28.35 28.95 28.05 28.95 27.7 29.0 27.35 29.0 27.0 29.0 27.0 29.0 23.55 29.0 20.1 29.0 16.0 29.0 11.85 29.0 8.4 29.0 5.0 29.0 5.0 29.0 4.6 28.8 4.25 28.65 3.9 28.35 3.6 28.05 3.3 27.7 3.15 27.35 3.0 27.0 3.0 27.0 3.0 23.55 3.0 20.1 3.0 16.0 3.0 11.85 3.0 8.4 3.0 5.0 3.0 5.0 3.0 4.6 3.0 4.25 3.15 3.9 3.3 3.6 3.6 3.3 3.9 3.15 4.25 3.0 4.6 3.0 5.0 M2.0 4.0 L2.0 4.0 Q2.0 3.6 2.15 3.25 2.3 2.9 2.6 2.6 2.9 2.3 3.25 2.15 3.6 2.0 4.0 2.0 4.0 2.0 7.75 2.0 11.5 2.0 16.0 2.0 20.5 2.0 24.25 2.0 28.0 2.0 28.0 2.0 28.35 2.0 28.7 2.15 29.05 2.3 29.35 2.6 29.65 2.9 29.8 3.25 30.0 3.6 30.0 4.0 30.0 4.0 30.0 7.75 30.0 11.5 30.0 16.0 30.0 20.5 30.0 24.25 30.0 28.0 30.0 28.0 30.0 28.35 29.95 28.7 29.95 29.05 29.85 29.35 29.75 29.65 29.55 29.8 29.35 30.0 29.0 30.0 29.0 30.0 24.9 30.0 20.85 30.0 16.0 30.0 11.1 30.0 7.05 30.0 3.0 30.0 3.0 30.0 2.6 30.0 2.4 29.8 2.2 29.65 2.1 29.35 2.0 29.05 2.0 28.7 2.0 28.35 2.0 28.0 2.0 28.0 2.0 24.25 2.0 20.5 2.0 16.0 2.0 11.5 2.0 7.75 2.0 4.0 2.0 4.0" fill="url(#gradient0)" fill-rule="evenodd" stroke="none"/>
  </g>
  <defs>
    <linearGradient gradientTransform="matrix(0.0, 0.0171, -1.0, 0.0, -803.2, 16.0)" gradientUnits="userSpaceOnUse" id="gradient0" spreadMethod="pad" x1="-819.2" x2="819.2">
      <stop offset="0.0" stop-color="#000000" stop-opacity="0.2509804"/>
      <stop offset="1.0" stop-color="#000000" stop-opacity="0.050980393"/>
    </linearGradient>
  </defs>
</svg>
