<?xml version="1.0" encoding="UTF-8" standalone="no"?>
<svg xmlns:xlink="http://www.w3.org/1999/xlink" height="26.0px" width="26.0px" xmlns="http://www.w3.org/2000/svg">
  <g transform="matrix(1.0, 0.0, 0.0, 1.0, -3.0, -3.0)">
    <path d="M4.0 6.0 L4.0 6.0 Q4.0 6.0 4.0 9.1 4.0 12.25 4.0 16.0 4.0 19.75 4.0 22.85 4.0 26.0 4.0 26.0 4.0 26.35 4.0 26.7 4.0 27.05 4.1 27.35 4.2 27.65 4.4 27.8 4.6 28.0 5.0 28.0 5.0 28.0 8.4 28.0 11.85 28.0 16.0 28.0 20.1 28.0 23.55 28.0 27.0 28.0 27.0 28.0 27.35 28.0 27.55 27.8 27.75 27.65 27.85 27.35 27.95 27.05 27.95 26.7 28.0 26.35 28.0 26.0 28.0 26.0 28.0 22.85 28.0 19.75 28.0 16.0 28.0 12.25 28.0 9.1 28.0 6.0 28.0 6.0 28.0 5.6 27.8 5.25 27.65 4.9 27.35 4.6 27.05 4.3 26.7 4.15 26.35 4.0 26.0 4.0 26.0 4.0 22.85 4.0 19.75 4.0 16.0 4.0 12.25 4.0 9.1 4.0 6.0 4.0 6.0 4.0 5.6 4.0 5.25 4.15 4.9 4.3 4.6 4.6 4.3 4.9 4.15 5.25 4.0 5.6 4.0 6.0 M3.0 5.0 L3.0 5.0 Q3.0 4.6 3.15 4.25 3.3 3.9 3.6 3.6 3.9 3.3 4.25 3.15 4.6 3.0 5.0 3.0 5.0 3.0 8.4 3.0 11.85 3.0 16.0 3.0 20.1 3.0 23.55 3.0 27.0 3.0 27.0 3.0 27.35 3.0 27.7 3.15 28.05 3.3 28.35 3.6 28.65 3.9 28.8 4.25 29.0 4.6 29.0 5.0 29.0 5.0 29.0 8.4 29.0 11.85 29.0 16.0 29.0 20.1 29.0 23.55 29.0 27.0 29.0 27.0 29.0 27.35 28.95 27.7 28.95 28.05 28.85 28.35 28.75 28.65 28.55 28.8 28.35 29.0 28.0 29.0 28.0 29.0 24.25 29.0 20.5 29.0 16.0 29.0 11.5 29.0 7.75 29.0 4.0 29.0 4.0 29.0 3.6 29.0 3.4 28.8 3.2 28.65 3.1 28.35 3.0 28.05 3.0 27.7 3.0 27.35 3.0 27.0 3.0 27.0 3.0 23.55 3.0 20.1 3.0 16.0 3.0 11.85 3.0 8.4 3.0 5.0 3.0 5.0" fill="url(#gradient0)" fill-rule="evenodd" stroke="none"/>
  </g>
  <defs>
    <linearGradient gradientTransform="matrix(0.0, 0.0159, -1.0, 0.0, -803.2, 16.0)" gradientUnits="userSpaceOnUse" id="gradient0" spreadMethod="pad" x1="-819.2" x2="819.2">
      <stop offset="0.0" stop-color="#000000" stop-opacity="0.101960786"/>
      <stop offset="1.0" stop-color="#000000" stop-opacity="0.0"/>
    </linearGradient>
  </defs>
</svg>
