<?xml version="1.0" encoding="UTF-8" standalone="no"?>
<svg xmlns:xlink="http://www.w3.org/1999/xlink" height="30.0px" width="30.0px" xmlns="http://www.w3.org/2000/svg">
  <g transform="matrix(1.0, 0.0, 0.0, 1.0, -1.0, -1.0)">
    <path d="M2.0 4.0 L2.0 4.0 Q2.0 4.0 2.0 7.75 2.0 11.5 2.0 16.0 2.0 20.5 2.0 24.25 2.0 28.0 2.0 28.0 2.0 28.35 2.0 28.7 2.0 29.05 2.1 29.35 2.2 29.65 2.4 29.8 2.6 30.0 3.0 30.0 3.0 30.0 7.05 30.0 11.1 30.0 16.0 30.0 20.85 30.0 24.9 30.0 29.0 30.0 29.0 30.0 29.35 30.0 29.55 29.8 29.75 29.65 29.85 29.35 29.95 29.05 29.95 28.7 30.0 28.35 30.0 28.0 30.0 28.0 30.0 24.25 30.0 20.5 30.0 16.0 30.0 11.5 30.0 7.75 30.0 4.0 30.0 4.0 30.0 3.6 29.8 3.25 29.65 2.9 29.35 2.6 29.05 2.3 28.7 2.15 28.35 2.0 28.0 2.0 28.0 2.0 24.25 2.0 20.5 2.0 16.0 2.0 11.5 2.0 7.75 2.0 4.0 2.0 4.0 2.0 3.6 2.0 3.25 2.15 2.9 2.3 2.6 2.6 2.3 2.9 2.15 3.25 2.0 3.6 2.0 4.0 M1.0 3.0 L1.0 3.0 Q1.0 3.0 1.15 2.65 1.3 2.35 1.6 2.0 1.9 1.6 2.25 1.3 2.6 1.0 3.0 1.0 3.0 1.0 7.05 1.0 11.1 1.0 16.0 1.0 20.85 1.0 24.9 1.0 29.0 1.0 29.0 1.0 29.35 1.0 29.7 1.15 30.05 1.3 30.35 1.6 30.65 1.9 30.8 2.25 31.0 2.6 31.0 3.0 31.0 3.0 31.0 7.05 31.0 11.1 31.0 16.0 31.0 20.85 31.0 24.9 31.0 29.0 31.0 29.0 31.0 29.35 30.8 29.7 30.65 30.05 30.35 30.35 30.05 30.65 29.7 30.8 29.35 31.0 29.0 31.0 29.0 31.0 24.9 31.0 20.85 31.0 16.0 31.0 11.1 31.0 7.05 31.0 3.0 31.0 3.0 31.0 2.6 31.0 2.25 30.8 1.9 30.65 1.6 30.35 1.3 30.05 1.15 29.7 1.0 29.35 1.0 29.0 1.0 29.0 1.0 24.9 1.0 20.85 1.0 16.0 1.0 11.1 1.0 7.05 1.0 3.0 1.0 3.0" fill="#000000" fill-rule="evenodd" stroke="none"/>
  </g>
</svg>
