<?xml version="1.0" encoding="UTF-8" standalone="no"?>
<svg xmlns:xlink="http://www.w3.org/1999/xlink" height="38.0px" width="38.0px" xmlns="http://www.w3.org/2000/svg">
  <g transform="matrix(1.0, 0.0, 0.0, 1.0, 0.0, 0.0)">
    <path d="M38.0 19.0 L38.0 19.0 Q38.0 15.05 36.5 11.6 35.0 8.1 32.4 5.55 29.85 2.95 26.35 1.45 22.9 0.0 18.95 0.0 15.05 0.0 11.55 1.45 8.1 2.95 5.55 5.55 2.95 8.1 1.45 11.6 0.0 15.05 0.0 19.0 0.0 22.9 1.45 26.4 2.95 29.85 5.55 32.4 8.1 35.0 11.55 36.5 15.05 38.0 18.95 38.0 22.9 38.0 26.35 36.5 29.85 35.0 32.4 32.4 35.0 29.85 36.5 26.4 38.0 22.9 38.0 19.0" fill="#ffffff" fill-rule="evenodd" stroke="none"/>
  </g>
</svg>
