<?xml version="1.0" encoding="UTF-8" standalone="no"?>
<svg xmlns:xlink="http://www.w3.org/1999/xlink" height="4.0px" width="14.05px" xmlns="http://www.w3.org/2000/svg">
  <g transform="matrix(1.0, 0.0, 0.0, 1.0, -560.45, -60.45)">
    <path d="M572.5 60.45 L572.5 60.45 562.5 60.45 Q562.05 60.45 561.7 60.65 561.35 60.8 561.05 61.05 560.8 61.35 560.65 61.7 560.45 62.05 560.5 62.45 L560.5 62.45 Q560.5 62.9 560.65 63.25 560.8 63.6 561.05 63.9 561.35 64.15 561.7 64.3 562.05 64.45 562.45 64.45 L572.45 64.45 Q572.9 64.45 573.25 64.3 573.6 64.15 573.9 63.9 574.15 63.6 574.3 63.25 574.45 62.9 574.5 62.45 L574.5 62.45 Q574.45 62.05 574.3 61.7 574.15 61.35 573.9 61.05 573.6 60.8 573.25 60.65 572.9 60.45 572.5 60.45" fill="#ffffff" fill-rule="evenodd" stroke="none"/>
  </g>
</svg>
