<?xml version="1.0" encoding="UTF-8" standalone="no"?>
<svg xmlns:xlink="http://www.w3.org/1999/xlink" height="33.0px" width="260.0px" xmlns="http://www.w3.org/2000/svg">
  <g transform="matrix(1.0, 0.0, 0.0, 1.0, 0.0, 0.0)">
    <path d="M6.0 1.0 L6.0 1.0 Q4.85 1.0 3.95 1.35 3.0 1.7 2.35 2.35 1.7 3.0 1.35 3.95 1.0 4.85 1.0 6.0 1.0 6.0 1.0 9.25 1.0 12.55 1.0 16.5 1.0 20.4 1.0 23.7 1.0 27.0 1.0 27.0 1.0 28.1 1.35 29.0 1.7 29.95 2.35 30.6 3.0 31.25 3.95 31.6 4.85 32.0 6.0 32.0 6.0 32.0 44.75 32.0 83.5 32.0 130.0 32.0 176.5 32.0 215.25 32.0 254.0 32.0 254.0 32.0 255.1 32.0 256.0 31.6 256.95 31.25 257.6 30.6 258.25 29.95 258.6 29.0 259.0 28.1 259.0 27.0 259.0 27.0 259.0 23.7 259.0 20.4 259.0 16.5 259.0 12.55 259.0 9.25 259.0 6.0 259.0 6.0 259.0 4.85 258.6 3.95 258.25 3.0 257.6 2.35 256.95 1.7 256.0 1.35 255.1 1.0 254.0 1.0 254.0 1.0 215.25 1.0 176.5 1.0 130.0 1.0 83.5 1.0 44.75 1.0 6.0 1.0 6.0 1.0 M6.0 0.0 L6.0 0.0 Q6.0 0.0 44.75 0.0 83.5 0.0 130.0 0.0 176.5 0.0 215.25 0.0 254.0 0.0 254.0 0.0 255.1 0.0 256.2 0.5 257.25 1.0 258.1 1.85 258.95 2.7 259.45 3.75 260.0 4.85 260.0 6.0 260.0 6.0 260.0 9.25 260.0 12.55 260.0 16.5 260.0 20.4 260.0 23.7 260.0 27.0 260.0 27.0 260.0 28.1 259.45 29.2 258.95 30.25 258.1 31.1 257.25 31.95 256.2 32.45 255.1 33.0 254.0 33.0 254.0 33.0 215.25 33.0 176.5 33.0 130.0 33.0 83.5 33.0 44.75 33.0 6.0 33.0 6.0 33.0 4.85 33.0 3.75 32.45 2.7 31.95 1.85 31.1 1.0 30.25 0.5 29.2 0.0 28.1 0.0 27.0 0.0 27.0 0.0 23.7 0.0 20.4 0.0 16.5 0.0 12.55 0.0 9.25 0.0 6.0 0.0 6.0 0.0 4.85 0.5 3.75 1.0 2.7 1.85 1.85 2.7 1.0 3.75 0.5 4.85 0.0 6.0 0.0" fill="#505050" fill-rule="evenodd" stroke="none"/>
  </g>
</svg>
