<?xml version="1.0" encoding="UTF-8" standalone="no"?>
<svg xmlns:xlink="http://www.w3.org/1999/xlink" height="31.0px" width="258.0px" xmlns="http://www.w3.org/2000/svg">
  <g transform="matrix(1.0, 0.0, 0.0, 1.0, -1.0, -1.0)">
    <path d="M6.0 3.0 L6.0 3.0 Q5.25 3.0 4.5 3.3 3.8 3.65 3.25 4.25 2.65 4.8 2.3 5.5 2.0 6.25 2.0 7.0 2.0 7.0 2.0 10.1 2.0 13.25 2.0 17.0 2.0 20.75 2.0 23.85 2.0 27.0 2.0 27.0 2.0 27.75 2.3 28.45 2.65 29.15 3.25 29.75 3.8 30.3 4.5 30.65 5.25 31.0 6.0 31.0 6.0 31.0 44.75 31.0 83.5 31.0 130.0 31.0 176.5 31.0 215.25 31.0 254.0 31.0 254.0 31.0 254.75 31.0 255.45 30.65 256.15 30.3 256.75 29.75 257.3 29.15 257.65 28.45 258.0 27.75 258.0 27.0 258.0 27.0 258.0 23.85 258.0 20.75 258.0 17.0 258.0 13.25 258.0 10.1 258.0 7.0 258.0 7.0 258.0 6.25 257.65 5.5 257.3 4.8 256.75 4.25 256.15 3.65 255.45 3.3 254.75 3.0 254.0 3.0 254.0 3.0 215.25 3.0 176.5 3.0 130.0 3.0 83.5 3.0 44.75 3.0 6.0 3.0 6.0 3.0 M6.0 1.0 L6.0 1.0 Q6.0 1.0 44.75 1.0 83.5 1.0 130.0 1.0 176.5 1.0 215.25 1.0 254.0 1.0 254.0 1.0 255.1 1.0 256.0 1.35 256.95 1.7 257.6 2.35 258.25 3.0 258.6 3.95 259.0 4.85 259.0 6.0 259.0 6.0 259.0 9.25 259.0 12.55 259.0 16.5 259.0 20.4 259.0 23.7 259.0 27.0 259.0 27.0 259.0 28.1 258.6 29.0 258.25 29.95 257.6 30.6 256.95 31.25 256.0 31.6 255.1 32.0 254.0 32.0 254.0 32.0 215.25 32.0 176.5 32.0 130.0 32.0 83.5 32.0 44.75 32.0 6.0 32.0 6.0 32.0 4.85 32.0 3.95 31.6 3.0 31.25 2.35 30.6 1.7 29.95 1.35 29.0 1.0 28.1 1.0 27.0 1.0 27.0 1.0 23.7 1.0 20.4 1.0 16.5 1.0 12.55 1.0 9.25 1.0 6.0 1.0 6.0 1.0 4.85 1.35 3.95 1.7 3.0 2.35 2.35 3.0 1.7 3.95 1.35 4.85 1.0 6.0 1.0" fill="#030303" fill-rule="evenodd" stroke="none"/>
  </g>
</svg>
