<?xml version="1.0" encoding="UTF-8" standalone="no"?>
<svg xmlns:xlink="http://www.w3.org/1999/xlink" height="62.0px" width="516.0px" xmlns="http://www.w3.org/2000/svg">
  <g transform="matrix(1.0, 0.0, 0.0, 1.0, 0.0, 0.0)">
    <path d="M10.0 3.0 L10.0 3.0 Q8.5 3.0 7.05 3.65 5.6 4.35 4.5 5.5 3.35 6.6 2.65 8.05 2.0 9.5 2.0 11.0 L2.0 52.0 Q2.0 53.5 2.65 54.9 3.35 56.35 4.5 57.5 5.6 58.6 7.05 59.3 8.5 60.0 10.0 60.0 L506.0 60.0 Q507.5 60.0 508.9 59.3 510.35 58.6 511.5 57.5 512.6 56.35 513.3 54.9 514.0 53.5 514.0 52.0 L514.0 11.0 Q514.0 9.5 513.3 8.05 512.6 6.6 511.5 5.5 510.35 4.35 508.9 3.65 507.5 3.0 506.0 3.0 L10.0 3.0 M10.0 0.0 L10.0 0.0 506.0 0.0 Q508.25 0.0 510.05 0.7 511.9 1.4 513.25 2.75 514.55 4.05 515.25 5.9 516.0 7.75 516.0 10.0 L516.0 52.0 Q516.0 54.25 515.25 56.05 514.55 57.9 513.25 59.25 511.9 60.55 510.05 61.25 508.25 62.0 506.0 62.0 L10.0 62.0 Q7.75 62.0 5.9 61.25 4.05 60.55 2.75 59.25 1.4 57.9 0.7 56.05 0.0 54.25 0.0 52.0 L0.0 10.0 Q0.0 7.75 0.7 5.9 1.4 4.05 2.75 2.75 4.05 1.4 5.9 0.7 7.75 0.0 10.0 0.0" fill="#030303" fill-rule="evenodd" stroke="none"/>
  </g>
</svg>
