<?xml version="1.0" encoding="UTF-8" standalone="no"?>
<svg xmlns:xlink="http://www.w3.org/1999/xlink" height="66.0px" width="520.0px" xmlns="http://www.w3.org/2000/svg">
  <g transform="matrix(1.0, 0.0, 0.0, 1.0, 0.0, 0.0)">
    <path d="M12.0 2.0 L12.0 2.0 Q9.75 2.0 7.9 2.7 6.05 3.4 4.75 4.75 3.4 6.05 2.7 7.9 2.0 9.75 2.0 12.0 L2.0 54.0 Q2.0 56.25 2.7 58.05 3.4 59.9 4.75 61.25 6.05 62.55 7.9 63.25 9.75 64.0 12.0 64.0 L508.0 64.0 Q510.25 64.0 512.05 63.25 513.9 62.55 515.25 61.25 516.55 59.9 517.25 58.05 518.0 56.25 518.0 54.0 L518.0 12.0 Q518.0 9.75 517.25 7.9 516.55 6.05 515.25 4.75 513.9 3.4 512.05 2.7 510.25 2.0 508.0 2.0 L12.0 2.0 M12.0 0.0 L12.0 0.0 508.0 0.0 Q510.25 0.0 512.4 1.0 514.55 2.05 516.25 3.75 517.9 5.4 518.95 7.55 520.0 9.75 520.0 12.0 L520.0 54.0 Q520.0 56.25 518.95 58.4 517.9 60.55 516.25 62.25 514.55 63.9 512.4 64.95 510.25 66.0 508.0 66.0 L12.0 66.0 Q9.75 66.0 7.55 64.95 5.4 63.9 3.75 62.25 2.05 60.55 1.0 58.4 0.0 56.25 0.0 54.0 L0.0 12.0 Q0.0 9.75 1.0 7.55 2.05 5.4 3.75 3.75 5.4 2.05 7.55 1.0 9.75 0.0 12.0 0.0" fill="#505050" fill-rule="evenodd" stroke="none"/>
  </g>
</svg>
