<?xml version="1.0" encoding="UTF-8" standalone="no"?>
<svg xmlns:xlink="http://www.w3.org/1999/xlink" height="50.0px" width="298.0px" xmlns="http://www.w3.org/2000/svg">
  <g transform="matrix(1.0, 0.0, 0.0, 1.0, 0.0, 0.0)">
    <path d="M7.0 1.0 L7.0 1.0 Q5.85 1.0 4.75 1.5 3.7 2.0 2.85 2.85 2.0 3.7 1.5 4.75 1.0 5.85 1.0 7.0 1.0 7.0 1.0 12.6 1.0 18.25 1.0 25.0 1.0 31.75 1.0 37.35 1.0 43.0 1.0 43.0 1.0 44.1 1.5 45.2 2.0 46.25 2.85 47.1 3.7 47.95 4.75 48.45 5.85 49.0 7.0 49.0 7.0 49.0 51.35 49.0 95.75 49.0 149.0 49.0 202.25 49.0 246.6 49.0 291.0 49.0 291.0 49.0 292.1 49.0 293.2 48.45 294.25 47.95 295.1 47.1 295.95 46.25 296.45 45.2 297.0 44.1 297.0 43.0 297.0 43.0 297.0 37.35 297.0 31.75 297.0 25.0 297.0 18.25 297.0 12.6 297.0 7.0 297.0 7.0 297.0 5.85 296.45 4.75 295.95 3.7 295.1 2.85 294.25 2.0 293.2 1.5 292.1 1.0 291.0 1.0 291.0 1.0 246.6 1.0 202.25 1.0 149.0 1.0 95.75 1.0 51.35 1.0 7.0 1.0 7.0 1.0 M7.0 0.0 L7.0 0.0 Q7.0 0.0 51.35 0.0 95.75 0.0 149.0 0.0 202.25 0.0 246.6 0.0 291.0 0.0 291.0 0.0 292.5 0.0 293.75 0.5 295.05 1.05 296.0 2.0 296.9 2.9 297.45 4.2 298.0 5.5 298.0 7.0 298.0 7.0 298.0 12.6 298.0 18.25 298.0 25.0 298.0 31.75 298.0 37.35 298.0 43.0 298.0 43.0 298.0 44.5 297.45 45.75 296.9 47.05 296.0 48.0 295.05 48.9 293.75 49.45 292.5 50.0 291.0 50.0 291.0 50.0 246.6 50.0 202.25 50.0 149.0 50.0 95.75 50.0 51.35 50.0 7.0 50.0 7.0 50.0 5.5 50.0 4.2 49.45 2.9 48.9 2.0 48.0 1.05 47.05 0.5 45.75 0.0 44.5 0.0 43.0 0.0 43.0 0.0 37.35 0.0 31.75 0.0 25.0 0.0 18.25 0.0 12.6 0.0 7.0 0.0 7.0 0.0 5.5 0.5 4.2 1.05 2.9 2.0 2.0 2.9 1.05 4.2 0.5 5.5 0.0 7.0 0.0" fill="#505050" fill-rule="evenodd" stroke="none"/>
  </g>
</svg>
