<?xml version="1.0" encoding="UTF-8" standalone="no"?>
<svg xmlns:xlink="http://www.w3.org/1999/xlink" height="48.0px" width="296.0px" xmlns="http://www.w3.org/2000/svg">
  <g transform="matrix(1.0, 0.0, 0.0, 1.0, -1.0, -1.0)">
    <path d="M7.0 3.0 L7.0 3.0 Q5.85 3.0 4.95 3.2 4.0 3.4 3.35 3.85 2.7 4.3 2.35 5.1 2.0 5.85 2.0 7.0 2.0 7.0 2.0 12.6 2.0 18.25 2.0 25.0 2.0 31.75 2.0 37.35 2.0 43.0 2.0 43.0 2.0 44.1 2.5 45.0 3.0 45.95 3.85 46.6 4.7 47.25 5.75 47.6 6.85 48.0 8.0 48.0 8.0 48.0 52.05 48.0 96.1 48.0 149.0 48.0 201.85 48.0 245.9 48.0 290.0 48.0 290.0 48.0 291.1 48.0 292.2 47.6 293.25 47.25 294.1 46.6 294.95 45.95 295.45 45.0 296.0 44.1 296.0 43.0 296.0 43.0 296.0 37.35 296.0 31.75 296.0 25.0 296.0 18.25 296.0 12.6 296.0 7.0 296.0 7.0 296.0 5.85 295.45 5.1 294.95 4.3 294.1 3.85 293.25 3.4 292.2 3.2 291.1 3.0 290.0 3.0 290.0 3.0 245.75 3.0 201.55 3.0 148.5 3.0 95.4 3.0 51.2 3.0 7.0 3.0 7.0 3.0 M7.0 1.0 L7.0 1.0 Q7.0 1.0 51.35 1.0 95.75 1.0 149.0 1.0 202.25 1.0 246.6 1.0 291.0 1.0 291.0 1.0 292.1 1.0 293.2 1.5 294.25 2.0 295.1 2.85 295.95 3.7 296.45 4.75 297.0 5.85 297.0 7.0 297.0 7.0 297.0 12.6 297.0 18.25 297.0 25.0 297.0 31.75 297.0 37.35 297.0 43.0 297.0 43.0 297.0 44.1 296.45 45.2 295.95 46.25 295.1 47.1 294.25 47.95 293.2 48.45 292.1 49.0 291.0 49.0 291.0 49.0 246.6 49.0 202.25 49.0 149.0 49.0 95.75 49.0 51.35 49.0 7.0 49.0 7.0 49.0 5.85 49.0 4.75 48.45 3.7 47.95 2.85 47.1 2.0 46.25 1.5 45.2 1.0 44.1 1.0 43.0 1.0 43.0 1.0 37.35 1.0 31.75 1.0 25.0 1.0 18.25 1.0 12.6 1.0 7.0 1.0 7.0 1.0 5.85 1.5 4.75 2.0 3.7 2.85 2.85 3.7 2.0 4.75 1.5 5.85 1.0 7.0 1.0" fill="#030303" fill-rule="evenodd" stroke="none"/>
  </g>
</svg>
