<?xml version="1.0" encoding="UTF-8" standalone="no"?>
<svg xmlns:xlink="http://www.w3.org/1999/xlink" height="42.0px" width="87.0px" xmlns="http://www.w3.org/2000/svg">
  <g transform="matrix(1.0, 0.0, 0.0, 1.0, 0.0, 0.0)">
    <path d="M81.0 1.0 L81.0 1.0 81.0 1.0 19.0 1.0 Q17.8 1.0 16.9 1.4 16.0 1.8 15.2 2.55 14.45 3.25 13.7 4.2 13.0 5.15 12.15 6.25 12.15 6.25 11.0 7.75 9.9 9.2 8.25 11.4 6.6 13.6 4.75 16.15 2.9 18.7 1.5 20.85 2.9 23.0 4.75 25.6 6.6 28.15 8.2 30.35 9.85 32.55 10.95 34.05 12.05 35.55 12.1 35.6 12.55 36.05 13.15 36.95 13.8 37.85 14.6 38.75 15.45 39.65 16.55 40.3 17.6 41.0 19.0 41.0 L81.0 41.0 Q82.0 41.0 82.9 40.6 83.85 40.2 84.5 39.5 85.2 38.85 85.6 37.9 86.0 37.0 86.0 36.0 L86.0 6.0 Q86.0 4.95 85.6 4.05 85.2 3.1 84.5 2.45 83.85 1.75 82.9 1.35 82.0 1.0 81.0 1.0 M19.0 0.0 L19.0 0.0 81.0 0.0 Q82.2 0.0 83.3 0.45 84.4 0.9 85.2 1.75 86.05 2.55 86.5 3.65 87.0 4.75 87.0 6.0 L87.0 36.0 Q87.0 37.2 86.5 38.3 86.05 39.4 85.2 40.2 84.4 41.05 83.3 41.5 82.2 42.0 81.0 42.0 L19.0 42.0 Q17.5 42.0 16.5 41.65 15.55 41.3 14.75 40.55 13.95 39.85 13.15 38.75 12.4 37.65 11.25 36.15 11.25 36.15 10.05 34.65 8.85 33.1 7.1 30.8 5.4 28.55 3.45 25.9 1.5 23.25 0.0 21.0 1.5 18.75 3.45 16.05 5.4 13.35 7.15 11.05 8.9 8.75 10.1 7.2 11.35 5.65 11.35 5.65 12.35 4.25 13.05 3.2 13.8 2.1 14.6 1.4 15.4 0.7 16.4 0.35 17.4 0.0 19.0 0.0" fill="#323232" fill-rule="evenodd" stroke="none"/>
  </g>
</svg>
