<?xml version="1.0" encoding="UTF-8" standalone="no"?>
<svg xmlns:xlink="http://www.w3.org/1999/xlink" height="26.65px" width="56.3px" xmlns="http://www.w3.org/2000/svg">
  <g transform="matrix(1.0, 0.0, 0.0, 1.0, 0.0, 0.0)">
    <path d="M53.0 0.65 L53.0 0.65 11.65 0.65 Q10.95 0.65 10.3 1.1 9.6 1.55 9.05 2.1 8.5 2.7 8.1 3.2 7.75 3.75 7.65 3.85 7.65 3.85 6.75 5.05 5.9 6.2 4.75 7.75 3.6 9.3 2.45 10.9 1.3 12.45 0.8 13.25 1.3 14.05 2.2 15.2 3.1 16.4 4.05 17.7 5.05 19.0 5.95 20.3 6.9 21.55 7.5 22.55 7.5 22.55 7.9 23.1 8.3 23.6 8.9 24.25 9.5 24.9 10.2 25.45 10.95 26.0 11.65 26.0 L53.0 26.0 Q53.55 26.0 54.0 25.75 54.5 25.55 54.85 25.2 55.2 24.85 55.45 24.35 55.65 23.85 55.65 23.3 L55.65 3.3 Q55.65 2.75 55.45 2.25 55.2 1.8 54.85 1.4 54.5 1.05 54.0 0.85 53.55 0.65 53.0 0.65 M11.35 0.0 L11.35 0.0 53.0 0.0 Q53.65 0.0 54.25 0.25 54.9 0.5 55.35 0.95 55.8 1.4 56.05 2.0 56.3 2.6 56.3 3.3 L56.3 23.3 Q56.3 24.0 56.05 24.6 55.8 25.2 55.35 25.65 54.9 26.1 54.25 26.4 53.65 26.65 53.0 26.65 L11.65 26.65 Q10.75 26.65 10.0 26.2 9.3 25.75 8.75 25.15 8.2 24.55 7.75 23.95 7.35 23.35 7.05 23.05 7.05 23.05 6.3 22.05 5.55 21.05 4.45 19.55 3.4 18.1 2.15 16.4 0.95 14.65 0.0 13.25 0.95 11.8 2.15 10.1 3.4 8.4 4.5 6.95 5.6 5.45 6.35 4.5 7.1 3.5 7.1 3.5 7.5 2.95 7.95 2.35 8.35 1.75 8.85 1.2 9.35 0.7 10.0 0.35 10.6 0.0 11.35 0.0" fill="url(#gradient0)" fill-rule="evenodd" stroke="none"/>
  </g>
  <defs>
    <linearGradient gradientTransform="matrix(0.0, 0.0174, -1.0, 0.0, -791.0, 14.25)" gradientUnits="userSpaceOnUse" id="gradient0" spreadMethod="pad" x1="-819.2" x2="819.2">
      <stop offset="0.0" stop-color="#ffffff" stop-opacity="0.050980393"/>
      <stop offset="1.0" stop-color="#ffffff" stop-opacity="0.101960786"/>
    </linearGradient>
  </defs>
</svg>
