<?xml version="1.0" encoding="UTF-8" standalone="no"?>
<svg xmlns:xlink="http://www.w3.org/1999/xlink" height="28.0px" width="58.0px" xmlns="http://www.w3.org/2000/svg">
  <g transform="matrix(1.0, 0.0, 0.0, 1.0, 0.0, 0.0)">
    <path d="M54.0 0.65 L54.0 0.65 54.0 0.65 12.65 0.65 Q11.85 0.65 11.25 0.9 10.65 1.2 10.15 1.7 9.6 2.15 9.15 2.8 8.65 3.45 8.1 4.15 8.1 4.15 7.35 5.15 6.6 6.15 5.5 7.6 4.4 9.05 3.15 10.75 1.95 12.45 1.0 13.9 1.95 15.35 3.15 17.05 4.4 18.75 5.45 20.25 6.55 21.7 7.3 22.7 8.05 23.7 8.05 23.7 8.35 24.05 8.75 24.65 9.2 25.25 9.75 25.85 10.3 26.4 11.0 26.85 11.75 27.3 12.65 27.3 L54.0 27.3 Q54.65 27.3 55.25 27.05 55.9 26.8 56.35 26.35 56.8 25.9 57.05 25.25 57.3 24.65 57.3 24.0 L57.3 4.0 Q57.3 3.3 57.05 2.7 56.8 2.05 56.35 1.6 55.9 1.15 55.25 0.9 54.65 0.65 54.0 0.65 M12.65 0.0 L12.65 0.0 54.0 0.0 Q54.8 0.0 55.55 0.3 56.25 0.6 56.8 1.15 57.35 1.7 57.65 2.4 58.0 3.15 58.0 4.0 L58.0 24.0 Q58.0 24.8 57.65 25.55 57.35 26.25 56.8 26.8 56.25 27.35 55.55 27.65 54.8 28.0 54.0 28.0 L12.65 28.0 Q11.65 28.0 11.0 27.75 10.35 27.5 9.8 27.05 9.3 26.55 8.75 25.85 8.25 25.1 7.5 24.1 7.5 24.1 6.7 23.1 5.9 22.05 4.75 20.55 3.6 19.0 2.3 17.25 0.95 15.5 0.0 14.0 0.95 12.5 2.3 10.7 3.6 8.9 4.75 7.35 5.95 5.85 6.75 4.8 7.55 3.75 7.55 3.75 8.2 2.8 8.7 2.1 9.2 1.4 9.7 0.95 10.25 0.45 10.95 0.2 11.6 0.0 12.65 0.0" fill="#323232" fill-rule="evenodd" stroke="none"/>
  </g>
</svg>
