<?xml version="1.0" encoding="UTF-8" standalone="no"?>
<svg xmlns:xlink="http://www.w3.org/1999/xlink" height="53.3px" width="112.65px" xmlns="http://www.w3.org/2000/svg">
  <g transform="matrix(1.0, 0.0, 0.0, 1.0, 0.0, 0.0)">
    <path d="M106.0 1.3 L106.0 1.3 23.3 1.3 Q21.95 1.3 20.6 2.2 19.25 3.1 18.1 4.25 17.0 5.4 16.25 6.45 15.5 7.5 15.3 7.75 15.3 7.75 13.55 10.1 11.8 12.45 9.5 15.55 7.2 18.65 4.9 21.8 2.65 24.9 1.6 26.5 2.65 28.1 4.4 30.45 6.2 32.85 8.15 35.45 10.1 38.05 11.95 40.6 13.8 43.15 15.05 45.1 15.05 45.1 15.8 46.2 16.6 47.25 17.8 48.55 19.0 49.85 20.45 50.9 21.95 52.0 23.35 52.0 L106.0 52.0 Q107.1 52.0 108.05 51.55 109.0 51.15 109.75 50.4 110.45 49.7 110.9 48.7 111.3 47.75 111.3 46.65 L111.3 6.65 Q111.3 5.55 110.9 4.55 110.45 3.6 109.75 2.85 109.0 2.15 108.05 1.75 107.1 1.3 106.0 1.3 M22.75 0.0 L22.75 0.0 106.0 0.0 Q107.35 0.0 108.55 0.5 109.8 1.0 110.7 1.95 111.6 2.85 112.1 4.05 112.65 5.25 112.65 6.65 L112.65 46.65 Q112.65 48.0 112.1 49.25 111.6 50.45 110.7 51.35 109.8 52.25 108.55 52.8 107.35 53.3 106.0 53.3 L23.35 53.3 Q21.5 53.3 20.05 52.4 18.6 51.55 17.5 50.35 16.4 49.15 15.55 47.95 14.75 46.75 14.1 46.1 14.1 46.1 12.6 44.1 11.1 42.1 8.95 39.15 6.8 36.2 4.35 32.8 1.9 29.35 0.0 26.5 1.9 23.6 4.35 20.2 6.8 16.8 9.0 13.9 11.2 10.95 12.7 9.0 14.2 7.0 14.2 7.0 15.05 5.95 15.9 4.75 16.75 3.5 17.75 2.45 18.75 1.4 20.0 0.7 21.2 0.0 22.75 0.0" fill="url(#gradient0)" fill-rule="evenodd" stroke="none"/>
  </g>
  <defs>
    <linearGradient gradientTransform="matrix(0.0, 0.0348, -1.0, 0.0, -762.85, 28.5)" gradientUnits="userSpaceOnUse" id="gradient0" spreadMethod="pad" x1="-819.2" x2="819.2">
      <stop offset="0.0" stop-color="#ffffff" stop-opacity="0.050980393"/>
      <stop offset="1.0" stop-color="#ffffff" stop-opacity="0.101960786"/>
    </linearGradient>
  </defs>
</svg>
