<?xml version="1.0" encoding="UTF-8" standalone="no"?>
<svg xmlns:xlink="http://www.w3.org/1999/xlink" height="40.0px" width="84.5px" xmlns="http://www.w3.org/2000/svg">
  <g transform="matrix(1.0, 0.0, 0.0, 1.0, 0.0, 0.0)">
    <path d="M79.5 0.0 L79.5 0.0 79.5 0.0 17.5 0.0 Q16.35 0.0 15.45 0.4 14.55 0.8 13.8 1.55 13.0 2.25 12.25 3.2 11.5 4.15 10.65 5.25 10.65 5.25 9.5 6.75 8.4 8.2 6.75 10.4 5.1 12.6 3.25 15.15 1.4 17.7 0.0 19.85 1.4 22.0 3.25 24.6 5.1 27.15 6.7 29.35 8.35 31.55 9.45 33.05 10.55 34.55 10.6 34.6 11.05 35.05 11.65 35.95 12.3 36.85 13.1 37.75 13.95 38.65 15.05 39.3 16.1 40.0 17.5 40.0 L79.5 40.0 Q80.5 40.0 81.4 39.6 82.35 39.2 83.0 38.5 83.7 37.85 84.1 36.9 84.5 36.0 84.5 35.0 L84.5 5.0 Q84.5 3.95 84.1 3.05 83.7 2.1 83.0 1.45 82.35 0.75 81.4 0.35 80.5 0.0 79.5 0.0" fill="url(#gradient0)" fill-rule="evenodd" stroke="none"/>
  </g>
  <defs>
    <linearGradient gradientTransform="matrix(0.0, 0.0138, -1.0, 0.0, -776.95, 11.3)" gradientUnits="userSpaceOnUse" id="gradient0" spreadMethod="pad" x1="-819.2" x2="819.2">
      <stop offset="0.0" stop-color="#000000" stop-opacity="0.2509804"/>
      <stop offset="1.0" stop-color="#000000" stop-opacity="0.0"/>
    </linearGradient>
  </defs>
</svg>
