<?xml version="1.0" encoding="UTF-8" standalone="no"?>
<svg xmlns:xlink="http://www.w3.org/1999/xlink" height="40.0px" width="84.5px" xmlns="http://www.w3.org/2000/svg">
  <g transform="matrix(1.0, 0.0, 0.0, 1.0, 0.0, 0.0)">
    <path d="M79.5 1.0 L17.5 1.0 Q16.45 1.0 15.45 1.65 14.4 2.35 13.6 3.2 12.75 4.05 12.2 4.8 11.6 5.6 11.45 5.8 11.45 5.8 10.15 7.55 8.85 9.3 7.1 11.65 5.4 14.0 3.65 16.35 1.95 18.7 1.2 19.85 2.0 21.05 3.3 22.85 4.65 24.65 6.1 26.6 7.55 28.55 8.95 30.45 10.35 32.35 11.3 33.8 11.3 33.8 11.85 34.65 12.45 35.45 13.35 36.4 14.25 37.35 15.35 38.15 16.45 39.0 17.5 39.0 L79.5 39.0 Q80.3 39.0 81.05 38.65 81.75 38.35 82.3 37.8 82.85 37.25 83.15 36.55 83.5 35.8 83.5 35.0 L83.5 5.0 Q83.5 4.15 83.15 3.4 82.85 2.7 82.3 2.15 81.75 1.6 81.05 1.3 80.3 1.0 79.5 1.0 M17.15 0.0 L17.15 0.0 79.35 0.0 Q80.45 0.0 81.35 0.35 82.3 0.75 83.0 1.45 83.7 2.1 84.1 3.05 84.5 3.95 84.5 5.0 L84.5 35.0 Q84.5 36.0 84.1 36.9 83.7 37.85 83.0 38.5 82.35 39.2 81.4 39.6 80.5 40.0 79.5 40.0 L17.5 40.0 Q16.1 40.0 15.05 39.3 13.95 38.65 13.1 37.75 12.3 36.85 11.65 35.95 11.05 35.05 10.6 34.6 10.55 34.55 9.45 33.05 8.35 31.55 6.7 29.35 5.1 27.15 3.25 24.6 1.4 22.0 0.0 19.85 1.4 17.7 3.25 15.15 5.1 12.6 6.75 10.4 8.4 8.2 9.5 6.75 10.65 5.25 10.65 5.25 11.25 4.45 11.95 3.55 12.65 2.6 13.45 1.85 14.25 1.05 15.2 0.5 16.1 0.0 17.15 0.0" fill="url(#gradient0)" fill-rule="evenodd" stroke="none"/>
  </g>
  <defs>
    <linearGradient gradientTransform="matrix(0.0, 0.0261, -1.0, 0.0, -776.95, 21.35)" gradientUnits="userSpaceOnUse" id="gradient0" spreadMethod="pad" x1="-819.2" x2="819.2">
      <stop offset="0.0" stop-color="#ffffff" stop-opacity="0.050980393"/>
      <stop offset="1.0" stop-color="#ffffff" stop-opacity="0.101960786"/>
    </linearGradient>
  </defs>
</svg>
