<?xml version="1.0" encoding="UTF-8" standalone="no"?>
<svg xmlns:xlink="http://www.w3.org/1999/xlink" height="56.0px" width="116.0px" xmlns="http://www.w3.org/2000/svg">
  <g transform="matrix(1.0, 0.0, 0.0, 1.0, 0.0, 0.0)">
    <path d="M108.0 1.3 L108.0 1.3 108.0 1.3 25.3 1.3 Q23.7 1.3 22.5 1.85 21.3 2.45 20.3 3.4 19.25 4.35 18.3 5.65 17.35 6.9 16.2 8.3 16.2 8.35 14.7 10.3 13.2 12.3 11.0 15.2 8.8 18.15 6.35 21.55 3.9 24.95 2.0 27.85 3.9 30.7 6.35 34.1 8.8 37.55 10.95 40.5 13.1 43.45 14.6 45.45 16.1 47.45 16.1 47.45 16.75 48.1 17.55 49.3 18.4 50.5 19.5 51.7 20.6 52.85 22.05 53.75 23.5 54.65 25.35 54.65 L108.0 54.65 Q109.35 54.65 110.55 54.1 111.8 53.6 112.7 52.7 113.6 51.8 114.1 50.55 114.65 49.35 114.65 48.0 L114.65 8.0 Q114.65 6.6 114.1 5.4 113.6 4.15 112.7 3.25 111.8 2.35 110.55 1.85 109.35 1.3 108.0 1.3 M25.3 0.0 L25.3 0.0 108.0 0.0 Q109.65 0.0 111.1 0.6 112.55 1.25 113.65 2.3 114.7 3.4 115.35 4.85 116.0 6.3 116.0 8.0 L116.0 48.0 Q116.0 49.65 115.35 51.1 114.7 52.55 113.65 53.65 112.55 54.7 111.1 55.35 109.65 56.0 108.0 56.0 L25.3 56.0 Q23.3 56.0 22.0 55.5 20.7 55.05 19.65 54.1 18.6 53.15 17.55 51.7 16.5 50.2 15.0 48.2 15.0 48.2 13.4 46.2 11.8 44.15 9.5 41.1 7.2 38.05 4.6 34.5 1.95 31.0 0.0 28.0 1.95 25.0 4.6 21.4 7.2 17.85 9.55 14.75 11.9 11.7 13.5 9.6 15.1 7.55 15.1 7.55 16.45 5.65 17.45 4.25 18.4 2.85 19.45 1.9 20.55 0.95 21.9 0.45 23.25 0.0 25.3 0.0" fill="#323232" fill-rule="evenodd" stroke="none"/>
  </g>
</svg>
