<?xml version="1.0" encoding="UTF-8" standalone="no"?>
<svg xmlns:xlink="http://www.w3.org/1999/xlink" height="53.3px" width="112.65px" xmlns="http://www.w3.org/2000/svg">
  <g transform="matrix(1.0, 0.0, 0.0, 1.0, 0.0, 0.0)">
    <path d="M106.0 0.0 L106.0 0.0 106.0 0.0 23.3 0.0 Q21.8 0.0 20.6 0.55 19.45 1.1 18.4 2.05 17.35 3.05 16.35 4.3 15.35 5.55 14.2 7.0 14.2 7.0 12.7 9.0 11.2 10.95 9.0 13.9 6.8 16.8 4.35 20.2 1.9 23.6 0.0 26.5 1.9 29.35 4.35 32.8 6.8 36.2 8.95 39.15 11.1 42.1 12.6 44.1 14.1 46.1 14.1 46.1 14.75 46.75 15.55 47.95 16.4 49.15 17.5 50.35 18.6 51.55 20.05 52.4 21.5 53.3 23.35 53.3 L106.0 53.3 Q107.35 53.3 108.55 52.8 109.8 52.25 110.7 51.35 111.6 50.45 112.1 49.25 112.65 48.0 112.65 46.65 L112.65 6.65 Q112.65 5.25 112.1 4.05 111.6 2.85 110.7 1.95 109.8 1.0 108.55 0.5 107.35 0.0 106.0 0.0" fill="url(#gradient0)" fill-rule="evenodd" stroke="none"/>
  </g>
  <defs>
    <linearGradient gradientTransform="matrix(0.0, 0.033, -1.0, 0.0, -762.85, 26.0)" gradientUnits="userSpaceOnUse" id="gradient0" spreadMethod="pad" x1="-819.2" x2="819.2">
      <stop offset="0.0" stop-color="#ffffff" stop-opacity="0.4"/>
      <stop offset="1.0" stop-color="#ffffff" stop-opacity="0.101960786"/>
    </linearGradient>
  </defs>
</svg>
