<?xml version="1.0" encoding="UTF-8" standalone="no"?>
<svg xmlns:xlink="http://www.w3.org/1999/xlink" height="26.65px" width="56.3px" xmlns="http://www.w3.org/2000/svg">
  <g transform="matrix(1.0, 0.0, 0.0, 1.0, 0.0, 0.0)">
    <path d="M53.0 0.0 L53.0 0.0 53.0 0.0 11.65 0.0 Q10.9 0.0 10.3 0.25 9.7 0.55 9.2 1.0 8.65 1.5 8.15 2.15 7.65 2.75 7.1 3.5 7.1 3.5 6.35 4.5 5.6 5.45 4.5 6.95 3.4 8.4 2.15 10.1 0.95 11.8 0.0 13.25 0.95 14.65 2.15 16.4 3.4 18.1 4.45 19.55 5.55 21.05 6.3 22.05 7.05 23.05 7.05 23.05 7.35 23.35 7.75 23.95 8.2 24.55 8.75 25.15 9.3 25.75 10.0 26.2 10.75 26.65 11.65 26.65 L53.0 26.65 Q53.65 26.65 54.25 26.4 54.9 26.1 55.35 25.65 55.8 25.2 56.05 24.6 56.3 24.0 56.3 23.3 L56.3 3.3 Q56.3 2.6 56.05 2.0 55.8 1.4 55.35 0.95 54.9 0.5 54.25 0.25 53.65 0.0 53.0 0.0" fill="url(#gradient0)" fill-rule="evenodd" stroke="none"/>
  </g>
  <defs>
    <linearGradient gradientTransform="matrix(0.0, 0.0165, -1.0, 0.0, -791.0, 13.0)" gradientUnits="userSpaceOnUse" id="gradient0" spreadMethod="pad" x1="-819.2" x2="819.2">
      <stop offset="0.0" stop-color="#ffffff" stop-opacity="0.4"/>
      <stop offset="1.0" stop-color="#ffffff" stop-opacity="0.101960786"/>
    </linearGradient>
  </defs>
</svg>
