<?xml version="1.0" encoding="UTF-8" standalone="no"?>
<svg xmlns:xlink="http://www.w3.org/1999/xlink" height="96.2px" width="96.2px" xmlns="http://www.w3.org/2000/svg">
  <g transform="matrix(1.0, 0.0, 0.0, 1.0, 3.0, 3.0)">
    <path d="M56.7 52.05 Q58.35 52.95 60.4 54.05 62.4 55.15 64.65 56.35 66.9 57.55 69.3 58.8 71.75 60.05 74.15 61.25 77.25 62.8 79.95 62.65 82.7 62.5 84.75 60.95 86.85 59.45 88.2 56.75 89.55 54.05 89.85 50.6 89.9 49.9 89.95 49.2 90.0 48.5 90.05 47.8 90.1 47.1 90.15 46.45 90.2 45.75 90.2 45.1 90.2 40.4 89.25 36.0 88.35 31.55 86.65 27.5 84.95 23.45 82.5 19.85 80.05 16.25 76.95 13.2 73.9 10.1 70.3 7.7 66.7 5.25 62.65 3.5 58.6 1.8 54.15 0.9 49.75 0.0 45.1 0.0 40.4 0.0 36.0 0.9 31.55 1.8 27.5 3.5 23.45 5.25 19.85 7.7 16.25 10.1 13.2 13.2 10.1 16.25 7.7 19.85 5.25 23.45 3.5 27.5 1.8 31.55 0.9 36.0 0.0 40.4 0.0 45.1 0.0 49.75 0.9 54.15 1.8 58.6 3.5 62.65 5.25 66.7 7.7 70.3 10.1 73.9 13.2 76.95 16.25 80.05 19.85 82.5 23.45 84.95 27.5 86.65 31.55 88.35 36.0 89.25 40.4 90.2 45.1 90.2 49.75 90.2 54.15 89.25 58.6 88.35 62.65 86.65 66.7 84.95 70.3 82.5 73.9 80.05 76.95 76.95" fill="none" stroke="#ffffff" stroke-linecap="round" stroke-linejoin="miter" stroke-miterlimit="10.0" stroke-width="6.0"/>
  </g>
</svg>
