<?xml version="1.0" encoding="UTF-8" standalone="no"?>
<svg xmlns:xlink="http://www.w3.org/1999/xlink" height="62.0px" width="102.0px" xmlns="http://www.w3.org/2000/svg">
  <g transform="matrix(1.0, 0.0, 0.0, 1.0, 0.0, 0.0)">
    <path d="M0.0 31.0 L0.0 31.0 Q0.0 24.55 0.0 23.75 0.0 22.95 0.0 24.55 0.0 26.15 0.0 28.55 0.0 31.0 0.0 31.0 0.0 24.55 2.4 18.9 4.85 13.25 9.05 9.05 13.25 4.85 18.9 2.4 24.55 0.0 31.0 0.0 L71.0 0.0 Q77.4 0.0 83.05 2.4 88.7 4.85 92.9 9.05 97.1 13.25 99.55 18.9 102.0 24.55 102.0 31.0 102.0 37.4 99.55 43.05 97.1 48.7 92.9 52.9 88.7 57.1 83.05 59.55 77.4 62.0 71.0 62.0 L31.0 62.0 Q24.55 62.0 18.9 59.55 13.25 57.1 9.05 52.9 4.85 48.7 2.4 43.05 0.0 37.4 0.0 31.0" fill="#4cd964" fill-rule="evenodd" stroke="none"/>
  </g>
</svg>
