<?xml version="1.0" encoding="UTF-8" standalone="no"?>
<svg xmlns:xlink="http://www.w3.org/1999/xlink" height="57.0px" width="57.0px" xmlns="http://www.w3.org/2000/svg">
  <g transform="matrix(1.0, 0.0, 0.0, 1.0, 0.5, 0.5)">
    <path d="M56.0 28.0 L56.0 28.0 Q56.0 22.2 53.75 17.1 51.55 12.0 47.75 8.2 43.95 4.4 38.85 2.2 33.75 0.0 28.0 0.0 22.2 0.0 17.1 2.2 12.0 4.4 8.2 8.2 4.4 12.0 2.2 17.1 0.0 22.2 0.0 28.0 0.0 33.75 2.2 38.85 4.4 43.95 8.2 47.75 12.0 51.55 17.1 53.75 22.2 56.0 28.0 56.0 33.75 56.0 38.85 53.75 43.95 51.55 47.75 47.75 51.55 43.95 53.75 38.85 56.0 33.75 56.0 28.0" fill="#ffffff" fill-rule="evenodd" stroke="none"/>
    <path d="M56.0 28.0 Q56.0 33.75 53.75 38.85 51.55 43.95 47.75 47.75 43.95 51.55 38.85 53.75 33.75 56.0 28.0 56.0 22.2 56.0 17.1 53.75 12.0 51.55 8.2 47.75 4.4 43.95 2.2 38.85 0.0 33.75 0.0 28.0 0.0 22.2 2.2 17.1 4.4 12.0 8.2 8.2 12.0 4.4 17.1 2.2 22.2 0.0 28.0 0.0 33.75 0.0 38.85 2.2 43.95 4.4 47.75 8.2 51.55 12.0 53.75 17.1 56.0 22.2 56.0 28.0 L56.0 28.0 Z" fill="none" stroke="#e5e5e5" stroke-linecap="round" stroke-linejoin="round" stroke-opacity="0.5019608" stroke-width="1.0"/>
  </g>
</svg>
