<?xml version="1.0" encoding="UTF-8" standalone="no"?>
<svg xmlns:xlink="http://www.w3.org/1999/xlink" height="59.0px" width="99.0px" xmlns="http://www.w3.org/2000/svg">
  <g transform="matrix(1.0, 0.0, 0.0, 1.0, 0.0, 0.0)">
    <path d="M29.5 59.0 L29.5 59.0 69.5 59.0 Q75.55 59.0 80.95 56.65 86.3 54.35 90.3 50.3 94.35 46.3 96.65 40.95 99.0 35.55 99.0 29.5 99.0 23.4 96.65 18.0 94.35 12.65 90.3 8.65 86.3 4.6 80.95 2.3 75.55 0.0 69.5 0.0 L29.5 0.0 Q23.35 0.0 18.0 2.3 12.65 4.6 8.6 8.65 4.6 12.65 2.3 18.0 0.0 23.4 0.0 29.5 0.0 35.55 2.3 40.95 4.6 46.3 8.6 50.3 12.65 54.35 18.0 56.65 23.35 59.0 29.5 59.0" fill="#ffffff" fill-rule="evenodd" stroke="none"/>
  </g>
</svg>
