<?xml version="1.0" encoding="UTF-8" standalone="no"?>
<svg xmlns:xlink="http://www.w3.org/1999/xlink" height="56.0px" width="56.0px" xmlns="http://www.w3.org/2000/svg">
  <g transform="matrix(1.0, 0.0, 0.0, 1.0, 0.0, 0.0)">
    <path d="M56.0 48.0 L56.0 48.0 56.0 7.9 Q56.0 6.25 55.35 4.8 54.7 3.35 53.65 2.3 52.55 1.2 51.1 0.6 49.65 0.0 48.0 0.0 L8.0 0.0 Q6.3 0.0 4.85 0.6 3.4 1.2 2.3 2.3 1.25 3.35 0.6 4.8 0.0 6.25 0.0 7.9 L0.0 48.0 Q0.0 49.65 0.6 51.1 1.25 52.55 2.3 53.65 3.4 54.7 4.85 55.35 6.3 56.0 8.0 56.0 L48.0 56.0 Q49.65 56.0 51.1 55.35 52.55 54.7 53.65 53.65 54.7 52.55 55.35 51.1 56.0 49.65 56.0 48.0 M54.65 8.0 L54.65 8.0 54.65 48.0 Q54.65 49.35 54.1 50.55 53.6 51.8 52.7 52.7 51.8 53.6 50.55 54.1 49.35 54.65 48.0 54.65 L8.0 54.65 Q6.6 54.65 5.4 54.1 4.15 53.6 3.25 52.7 2.35 51.8 1.85 50.55 1.3 49.35 1.3 48.0 L1.3 8.0 Q1.3 6.6 1.85 5.4 2.35 4.15 3.25 3.25 4.15 2.35 5.4 1.85 6.6 1.3 8.0 1.3 L48.0 1.3 Q49.35 1.3 50.55 1.85 51.8 2.35 52.7 3.25 53.6 4.15 54.1 5.4 54.65 6.6 54.65 8.0" fill="#323232" fill-rule="evenodd" stroke="none"/>
  </g>
</svg>
