<?xml version="1.0" encoding="UTF-8" standalone="no"?>
<svg xmlns:xlink="http://www.w3.org/1999/xlink" height="42.0px" width="42.0px" xmlns="http://www.w3.org/2000/svg">
  <g transform="matrix(1.0, 0.0, 0.0, 1.0, 0.0, 0.0)">
    <path d="M42.0 36.0 L42.0 36.0 42.0 5.95 Q42.0 4.7 41.5 3.6 41.05 2.5 40.2 1.7 39.4 0.9 38.3 0.45 37.2 0.0 36.0 0.0 L6.0 0.0 Q4.75 0.0 3.65 0.45 2.55 0.9 1.75 1.7 0.9 2.5 0.45 3.6 0.0 4.7 0.0 5.95 L0.0 36.0 Q0.0 37.2 0.45 38.3 0.9 39.4 1.75 40.2 2.55 41.05 3.65 41.5 4.75 42.0 6.0 42.0 L36.0 42.0 Q37.2 42.0 38.3 41.5 39.4 41.05 40.2 40.2 41.05 39.4 41.5 38.3 42.0 37.2 42.0 36.0 M41.0 6.0 L41.0 6.0 41.0 36.0 Q41.0 37.0 40.6 37.9 40.2 38.85 39.5 39.5 38.85 40.2 37.9 40.6 37.0 41.0 36.0 41.0 L6.0 41.0 Q4.95 41.0 4.05 40.6 3.1 40.2 2.45 39.5 1.75 38.85 1.35 37.9 1.0 37.0 1.0 36.0 L1.0 6.0 Q1.0 4.95 1.35 4.05 1.75 3.1 2.45 2.45 3.1 1.75 4.05 1.35 4.95 1.0 6.0 1.0 L36.0 1.0 Q37.0 1.0 37.9 1.35 38.85 1.75 39.5 2.45 40.2 3.1 40.6 4.05 41.0 4.95 41.0 6.0" fill="#323232" fill-rule="evenodd" stroke="none"/>
  </g>
</svg>
