<?xml version="1.0" encoding="UTF-8" standalone="no"?>
<svg xmlns:xlink="http://www.w3.org/1999/xlink" height="26.65px" width="26.65px" xmlns="http://www.w3.org/2000/svg">
  <g transform="matrix(1.0, 0.0, 0.0, 1.0, 0.0, 0.0)">
    <path d="M23.3 0.65 L23.3 0.65 3.3 0.65 Q2.75 0.65 2.25 0.85 1.8 1.05 1.4 1.4 1.05 1.8 0.85 2.25 0.65 2.75 0.65 3.3 L0.65 23.3 Q0.65 23.85 0.85 24.35 1.05 24.85 1.4 25.2 1.8 25.55 2.25 25.75 2.75 26.0 3.3 26.0 L23.3 26.0 Q23.85 26.0 24.35 25.75 24.85 25.55 25.2 25.2 25.55 24.85 25.75 24.35 26.0 23.85 26.0 23.3 L26.0 3.3 Q26.0 2.75 25.75 2.25 25.55 1.8 25.2 1.4 24.85 1.05 24.35 0.85 23.85 0.65 23.3 0.65 M23.3 0.0 L23.3 0.0 23.3 0.0 Q24.0 0.0 24.6 0.25 25.2 0.5 25.65 0.95 26.1 1.4 26.4 2.0 26.65 2.6 26.65 3.3 L26.65 23.3 Q26.65 24.0 26.4 24.6 26.1 25.2 25.65 25.65 25.2 26.1 24.6 26.4 24.0 26.65 23.3 26.65 L3.3 26.65 Q2.6 26.65 2.0 26.4 1.4 26.1 0.95 25.65 0.5 25.2 0.25 24.6 0.0 24.0 0.0 23.3 L0.0 3.3 Q0.0 2.6 0.25 2.0 0.5 1.4 0.95 0.95 1.4 0.5 2.0 0.25 2.6 0.0 3.3 0.0 L23.3 0.0" fill="url(#gradient0)" fill-rule="evenodd" stroke="none"/>
  </g>
  <defs>
    <linearGradient gradientTransform="matrix(0.0, 0.0155, -1.0, 0.0, -805.85, 13.3)" gradientUnits="userSpaceOnUse" id="gradient0" spreadMethod="pad" x1="-819.2" x2="819.2">
      <stop offset="0.0" stop-color="#ffffff" stop-opacity="0.050980393"/>
      <stop offset="1.0" stop-color="#ffffff" stop-opacity="0.101960786"/>
    </linearGradient>
  </defs>
</svg>
