<?xml version="1.0" encoding="UTF-8" standalone="no"?>
<svg xmlns:xlink="http://www.w3.org/1999/xlink" height="53.3px" width="53.3px" xmlns="http://www.w3.org/2000/svg">
  <g transform="matrix(1.0, 0.0, 0.0, 1.0, 0.0, 0.0)">
    <path d="M46.65 1.3 L46.65 1.3 6.65 1.3 Q5.55 1.3 4.55 1.75 3.6 2.15 2.85 2.85 2.15 3.6 1.75 4.55 1.3 5.55 1.3 6.65 L1.3 46.65 Q1.3 47.75 1.75 48.7 2.15 49.7 2.85 50.4 3.6 51.15 4.55 51.55 5.55 51.95 6.65 51.95 L46.65 51.95 Q47.75 51.95 48.7 51.55 49.7 51.15 50.4 50.4 51.15 49.7 51.55 48.7 51.95 47.75 51.95 46.65 L51.95 6.65 Q51.95 5.55 51.55 4.55 51.15 3.6 50.4 2.85 49.7 2.15 48.7 1.75 47.75 1.3 46.65 1.3 M46.65 0.0 L46.65 0.0 46.65 0.0 Q48.0 0.0 49.25 0.5 50.45 1.0 51.35 1.95 52.25 2.85 52.8 4.05 53.3 5.25 53.3 6.65 L53.3 46.65 Q53.3 48.0 52.8 49.25 52.25 50.45 51.35 51.35 50.45 52.25 49.25 52.8 48.0 53.3 46.65 53.3 L6.65 53.3 Q5.25 53.3 4.05 52.8 2.85 52.25 1.95 51.35 1.0 50.45 0.5 49.25 0.0 48.0 0.0 46.65 L0.0 6.65 Q0.0 5.25 0.5 4.05 1.0 2.85 1.95 1.95 2.85 1.0 4.05 0.5 5.25 0.0 6.65 0.0 L46.65 0.0" fill="url(#gradient0)" fill-rule="evenodd" stroke="none"/>
  </g>
  <defs>
    <linearGradient gradientTransform="matrix(0.0, 0.0325, -1.0, 0.0, -792.5, 26.65)" gradientUnits="userSpaceOnUse" id="gradient0" spreadMethod="pad" x1="-819.2" x2="819.2">
      <stop offset="0.0" stop-color="#000000" stop-opacity="0.34901962"/>
      <stop offset="0.6627450980392157" stop-color="#000000" stop-opacity="0.101960786"/>
      <stop offset="0.8705882352941177" stop-color="#ffffff" stop-opacity="0.050980393"/>
      <stop offset="1.0" stop-color="#ffffff" stop-opacity="0.2"/>
    </linearGradient>
  </defs>
</svg>
