<?xml version="1.0" encoding="UTF-8" standalone="no"?>
<svg xmlns:xlink="http://www.w3.org/1999/xlink" height="28.0px" width="28.0px" xmlns="http://www.w3.org/2000/svg">
  <g transform="matrix(1.0, 0.0, 0.0, 1.0, 0.0, 0.0)">
    <path d="M28.0 24.0 L28.0 24.0 28.0 3.95 Q28.0 3.1 27.65 2.4 27.35 1.65 26.8 1.15 26.25 0.6 25.55 0.3 24.8 0.0 24.0 0.0 L4.0 0.0 Q3.15 0.0 2.4 0.3 1.7 0.6 1.15 1.15 0.6 1.65 0.3 2.4 0.0 3.1 0.0 3.95 L0.0 24.0 Q0.0 24.8 0.3 25.55 0.6 26.25 1.15 26.8 1.7 27.35 2.4 27.65 3.15 28.0 4.0 28.0 L24.0 28.0 Q24.8 28.0 25.55 27.65 26.25 27.35 26.8 26.8 27.35 26.25 27.65 25.55 28.0 24.8 28.0 24.0 M27.3 4.0 L27.3 4.0 27.3 24.0 Q27.3 24.65 27.05 25.25 26.8 25.9 26.35 26.35 25.9 26.8 25.25 27.05 24.65 27.3 24.0 27.3 L4.0 27.3 Q3.3 27.3 2.7 27.05 2.05 26.8 1.6 26.35 1.15 25.9 0.9 25.25 0.65 24.65 0.65 24.0 L0.65 4.0 Q0.65 3.3 0.9 2.7 1.15 2.05 1.6 1.6 2.05 1.15 2.7 0.9 3.3 0.65 4.0 0.65 L24.0 0.65 Q24.65 0.65 25.25 0.9 25.9 1.15 26.35 1.6 26.8 2.05 27.05 2.7 27.3 3.3 27.3 4.0" fill="#323232" fill-rule="evenodd" stroke="none"/>
  </g>
</svg>
