<?xml version="1.0" encoding="UTF-8" standalone="no"?>
<svg xmlns:xlink="http://www.w3.org/1999/xlink" height="32.0px" width="32.0px" xmlns="http://www.w3.org/2000/svg">
  <g transform="matrix(1.0, 0.0, 0.0, 1.0, 0.0, 0.0)">
    <path d="M32.0 31.0 L32.0 31.0 32.0 0.95 Q32.0 0.75 31.9 0.6 31.8 0.4 31.7 0.25 31.55 0.15 31.35 0.05 31.2 0.0 31.0 0.0 L0.95 0.0 Q0.75 0.0 0.6 0.05 0.4 0.15 0.25 0.25 0.15 0.4 0.05 0.6 0.0 0.75 0.0 0.95 L0.0 31.0 Q0.0 31.2 0.05 31.35 0.15 31.55 0.25 31.7 0.4 31.8 0.6 31.9 0.75 32.0 0.95 32.0 L31.0 32.0 Q31.2 32.0 31.35 31.9 31.55 31.8 31.7 31.7 31.8 31.55 31.9 31.35 32.0 31.2 32.0 31.0" fill="#dededd" fill-rule="evenodd" stroke="none"/>
  </g>
</svg>
