<?xml version="1.0" encoding="UTF-8" standalone="no"?>
<svg xmlns:xlink="http://www.w3.org/1999/xlink" height="26.0px" width="26.0px" xmlns="http://www.w3.org/2000/svg">
  <g transform="matrix(1.0, 0.0, 0.0, 1.0, 0.0, 0.0)">
    <path d="M0.0 0.0 L0.0 0.0 26.0 0.0 26.0 26.0 0.0 26.0 0.0 0.0 M13.25 24.35 L13.25 24.35 Q13.8 24.35 14.25 24.2 14.65 24.05 14.95 23.75 15.25 23.45 15.4 23.0 15.55 22.6 15.55 22.1 15.55 21.6 15.4 21.2 15.2 20.75 14.9 20.45 14.6 20.15 14.2 20.0 13.8 19.85 13.25 19.85 12.8 19.85 12.35 20.0 11.95 20.15 11.65 20.45 11.35 20.75 11.15 21.15 11.0 21.55 11.0 22.1 11.0 22.6 11.15 23.05 11.35 23.45 11.65 23.75 11.95 24.05 12.35 24.2 12.8 24.35 13.25 24.35 M14.5 15.25 L14.5 15.25 Q14.5 14.55 15.2 13.8 15.95 13.0 16.8 12.15 17.65 11.25 18.4 10.15 19.15 9.05 19.15 7.7 19.15 6.55 18.7 5.55 18.25 4.6 17.45 3.9 16.6 3.2 15.45 2.8 14.3 2.4 12.85 2.4 11.95 2.4 11.2 2.5 10.45 2.6 9.85 2.75 9.25 2.9 8.8 3.1 8.35 3.25 8.05 3.4 8.0 3.45 8.0 3.45 7.95 3.5 7.95 3.55 7.95 3.6 7.95 3.65 8.0 3.7 8.0 3.75 L8.0 6.3 Q8.0 6.35 8.0 6.4 8.0 6.45 8.0 6.45 8.05 6.45 8.05 6.45 8.1 6.45 8.15 6.45 8.55 6.25 9.0 6.1 9.45 5.95 9.9 5.85 10.35 5.75 10.9 5.7 11.4 5.6 12.05 5.6 12.75 5.6 13.35 5.8 13.9 6.0 14.3 6.35 14.65 6.65 14.85 7.1 15.05 7.5 15.05 8.0 15.05 8.95 14.4 9.8 13.75 10.6 12.95 11.4 12.1 12.15 11.45 13.0 10.8 13.8 10.8 14.8 10.8 15.0 10.85 15.3 10.9 15.55 11.0 15.85 11.1 16.15 11.25 16.4 11.4 16.7 11.65 16.95 11.7 17.0 11.75 17.0 11.8 17.0 11.85 17.0 11.9 17.0 11.9 17.0 11.95 17.0 12.05 17.0 L14.9 17.0 Q14.95 17.0 15.0 16.95 15.05 16.95 15.05 16.95 15.1 16.95 15.1 16.9 15.1 16.9 15.05 16.85 14.95 16.6 14.8 16.4 14.7 16.2 14.65 16.0 14.55 15.85 14.5 15.65 14.5 15.45 14.5 15.25" fill="#969696" fill-rule="evenodd" stroke="none"/>
  </g>
</svg>
