<?xml version="1.0" encoding="UTF-8" standalone="no"?>
<svg xmlns:xlink="http://www.w3.org/1999/xlink" height="52.0px" width="52.0px" xmlns="http://www.w3.org/2000/svg">
  <g transform="matrix(1.0, 0.0, 0.0, 1.0, 0.0, 0.0)">
    <path d="M0.0 0.0 L0.0 0.0 52.0 0.0 52.0 52.0 0.0 52.0 0.0 0.0 M26.1 47.95 L26.1 47.95 Q27.2 47.95 28.05 47.6 28.9 47.3 29.5 46.7 30.05 46.1 30.35 45.25 30.7 44.4 30.7 43.35 30.7 42.4 30.35 41.55 30.05 40.75 29.45 40.15 28.85 39.55 28.0 39.2 27.15 38.85 26.1 38.85 25.15 38.85 24.3 39.2 23.45 39.5 22.85 40.1 22.25 40.7 21.9 41.5 21.55 42.35 21.55 43.35 21.55 44.45 21.9 45.3 22.25 46.15 22.85 46.75 23.45 47.3 24.3 47.65 25.15 47.95 26.1 47.95 M28.55 29.65 L28.55 29.65 Q28.55 28.25 30.0 26.75 31.45 25.25 33.2 23.45 34.95 21.65 36.45 19.5 37.9 17.35 37.9 14.65 37.9 12.3 37.0 10.35 36.15 8.4 34.55 6.95 32.9 5.55 30.6 4.8 28.3 4.0 25.45 4.0 23.65 4.0 22.15 4.2 20.65 4.4 19.45 4.7 18.3 5.05 17.4 5.4 16.5 5.75 15.9 6.05 15.8 6.1 15.8 6.15 15.8 6.2 15.85 6.3 15.85 6.4 15.9 6.5 16.0 6.6 16.0 6.7 L16.0 11.85 Q16.0 11.95 15.95 12.0 15.95 12.1 15.95 12.1 15.95 12.15 15.95 12.15 16.0 12.15 16.1 12.1 16.95 11.75 17.75 11.45 18.6 11.15 19.5 10.95 20.4 10.7 21.4 10.6 22.4 10.5 23.65 10.5 25.15 10.5 26.25 10.9 27.4 11.25 28.15 11.95 28.95 12.6 29.3 13.45 29.7 14.3 29.7 15.25 29.7 17.25 28.35 18.9 27.05 20.55 25.45 22.1 23.85 23.7 22.5 25.35 21.15 27.0 21.15 28.95 21.15 29.45 21.25 30.05 21.35 30.6 21.55 31.2 21.75 31.8 22.1 32.4 22.4 33.0 22.85 33.5 22.95 33.6 23.05 33.7 23.15 33.8 23.25 33.85 23.35 33.9 23.4 33.95 23.5 34.0 23.65 34.0 L29.4 34.0 Q29.5 34.0 29.6 33.9 29.65 33.85 29.7 33.75 29.75 33.6 29.75 33.5 29.75 33.4 29.7 33.3 29.45 32.8 29.2 32.35 29.0 31.9 28.85 31.45 28.7 31.0 28.6 30.55 28.55 30.1 28.55 29.65" fill="#969696" fill-rule="evenodd" stroke="none"/>
  </g>
</svg>
