<?xml version="1.0" encoding="UTF-8" standalone="no"?>
<svg xmlns:xlink="http://www.w3.org/1999/xlink" height="38.0px" width="38.0px" xmlns="http://www.w3.org/2000/svg">
  <g transform="matrix(1.0, 0.0, 0.0, 1.0, 0.0, 0.0)">
    <path d="M0.0 0.0 L0.0 0.0 38.0 0.0 38.0 38.0 0.0 38.0 0.0 0.0 M19.25 35.5 L19.25 35.5 Q20.0 35.5 20.65 35.25 21.25 35.0 21.7 34.55 22.15 34.1 22.35 33.5 22.6 32.9 22.6 32.1 22.6 31.4 22.35 30.8 22.1 30.2 21.65 29.75 21.2 29.3 20.6 29.05 20.0 28.8 19.25 28.8 18.5 28.8 17.9 29.05 17.3 29.3 16.85 29.7 16.4 30.15 16.1 30.75 15.85 31.35 15.85 32.1 15.85 32.9 16.1 33.55 16.4 34.15 16.85 34.6 17.3 35.05 17.9 35.25 18.5 35.5 19.25 35.5 M21.0 22.05 L21.0 22.05 Q21.0 21.0 22.05 19.9 23.1 18.8 24.4 17.5 25.65 16.15 26.7 14.55 27.8 13.0 27.8 11.0 27.8 9.25 27.15 7.85 26.45 6.4 25.25 5.35 24.05 4.35 22.35 3.75 20.65 3.2 18.55 3.2 17.2 3.2 16.05 3.35 14.95 3.5 14.05 3.7 13.15 3.95 12.45 4.2 11.75 4.45 11.3 4.65 11.25 4.7 11.2 4.75 11.1 4.8 11.05 4.85 11.05 4.95 11.0 5.0 11.0 5.05 11.0 5.15 L11.0 8.95 Q11.0 9.0 11.0 9.05 11.05 9.1 11.15 9.15 11.2 9.15 11.3 9.15 11.4 9.15 11.45 9.15 12.1 8.85 12.75 8.65 13.4 8.4 14.15 8.25 14.9 8.1 15.7 8.0 16.5 7.95 17.4 7.95 18.5 7.95 19.35 8.2 20.15 8.5 20.75 9.0 21.3 9.45 21.6 10.1 21.85 10.75 21.85 11.45 21.85 12.9 20.9 14.1 19.9 15.3 18.7 16.45 17.55 17.6 16.55 18.8 15.6 20.05 15.6 21.45 15.6 21.85 15.65 22.25 15.75 22.65 15.9 23.1 16.05 23.55 16.25 23.95 16.5 24.35 16.85 24.75 16.9 24.8 17.0 24.85 17.05 24.9 17.1 24.95 17.2 24.95 17.25 24.95 17.3 25.0 17.4 25.0 L21.65 25.0 Q21.7 25.0 21.8 24.95 21.85 24.9 21.85 24.85 21.9 24.8 21.9 24.75 21.9 24.65 21.85 24.6 21.65 24.25 21.5 23.95 21.35 23.6 21.25 23.3 21.15 23.0 21.05 22.7 21.0 22.35 21.0 22.05" fill="#969696" fill-rule="evenodd" stroke="none"/>
  </g>
</svg>
