<?xml version="1.0" encoding="UTF-8" standalone="no"?>
<svg xmlns:xlink="http://www.w3.org/1999/xlink" height="36.0px" width="17.95px" xmlns="http://www.w3.org/2000/svg">
  <g transform="matrix(1.0, 0.0, 0.0, 1.0, 0.0, 0.0)">
    <path d="M0.0 18.0 L0.0 18.0 Q0.0 14.25 1.25 11.0 2.5 7.7 4.85 5.25 7.15 2.8 10.5 1.4 13.8 0.0 17.95 0.0 L17.95 3.0 Q14.55 3.0 11.8 4.2 9.05 5.35 7.1 7.4 5.15 9.45 4.05 12.15 3.0 14.9 3.0 18.0 3.0 21.1 4.05 23.8 5.15 26.55 7.1 28.6 9.05 30.6 11.8 31.8 14.55 33.0 17.95 33.0 L17.95 36.0 Q13.8 36.0 10.5 34.55 7.15 33.15 4.85 30.7 2.5 28.25 1.25 25.0 0.0 21.7 0.0 18.0" fill="#ffffff" fill-rule="evenodd" stroke="none"/>
  </g>
</svg>
