<?xml version="1.0" encoding="UTF-8" standalone="no"?>
<svg xmlns:xlink="http://www.w3.org/1999/xlink" height="36.0px" width="17.95px" xmlns="http://www.w3.org/2000/svg">
  <g transform="matrix(1.0, 0.0, 0.0, 1.0, 0.0, 0.0)">
    <path d="M0.0 3.0 L0.0 3.0 0.0 0.0 Q3.75 0.0 7.0 1.4 10.3 2.8 12.7 5.25 15.15 7.7 16.55 11.0 17.95 14.25 17.95 18.0 17.95 21.7 16.55 25.0 15.15 28.25 12.7 30.7 10.3 33.15 7.0 34.55 3.75 36.0 0.0 36.0 L0.0 33.0 Q3.0 33.0 5.7 31.8 8.4 30.6 10.45 28.6 12.5 26.55 13.7 23.8 14.95 21.1 14.95 18.0 14.95 14.9 13.7 12.15 12.5 9.45 10.45 7.4 8.4 5.35 5.7 4.2 3.0 3.0 0.0 3.0" fill="#ffffff" fill-rule="evenodd" stroke="none"/>
  </g>
</svg>
