<?xml version="1.0" encoding="UTF-8" standalone="no"?>
<svg xmlns:xlink="http://www.w3.org/1999/xlink" height="58.0px" width="36.3px" xmlns="http://www.w3.org/2000/svg">
  <g transform="matrix(1.0, 0.0, 0.0, 1.0, 0.0, 0.0)">
    <path d="M0.0 19.35 L0.0 19.35 9.0 19.35 Q9.0 16.65 9.6 14.45 10.15 12.25 11.35 10.7 12.55 9.2 14.35 8.35 16.15 7.5 18.6 7.5 19.65 7.5 21.0 8.0 22.35 8.45 23.55 9.5 24.75 10.55 25.55 12.25 26.4 13.9 26.4 16.3 26.4 18.3 25.85 19.75 25.3 21.15 24.45 22.3 23.55 23.4 22.4 24.4 21.2 25.35 19.95 26.45 18.4 27.8 17.25 29.2 16.05 30.6 15.3 32.4 14.55 34.25 14.15 36.7 13.8 39.15 13.8 42.6 L22.35 42.6 Q22.35 39.75 22.85 37.75 23.4 35.8 24.3 34.3 25.25 32.8 26.55 31.65 27.8 30.45 29.35 29.15 30.6 28.05 31.85 26.9 33.1 25.75 34.1 24.3 35.1 22.8 35.7 20.8 36.3 18.85 36.3 16.0 36.3 12.15 34.95 9.2 33.65 6.2 31.3 4.15 28.95 2.1 25.8 1.05 22.65 0.0 19.0 0.0 14.6 0.0 11.1 1.35 7.55 2.75 5.1 5.3 2.6 7.8 1.3 11.4 0.0 14.95 0.0 19.35 M12.6 48.05 L12.6 48.05 12.6 58.0 23.2 58.0 23.2 48.05 12.6 48.05" fill="#ffffff" fill-rule="evenodd" stroke="none"/>
  </g>
</svg>
