<?xml version="1.0" encoding="UTF-8" standalone="no"?>
<svg xmlns:xlink="http://www.w3.org/1999/xlink" height="12.6px" width="8.95px" xmlns="http://www.w3.org/2000/svg">
  <g transform="matrix(1.0, 0.0, 0.0, 1.0, 0.0, 0.0)">
    <path d="M8.7 9.65 L8.7 9.65 3.7 0.95 Q3.5 0.6 3.2 0.4 2.85 0.15 2.5 0.05 2.1 0.0 1.7 0.0 1.35 0.05 0.95 0.25 0.6 0.45 0.4 0.75 0.15 1.1 0.05 1.45 0.0 1.85 0.0 2.2 0.05 2.6 0.25 2.95 L5.25 11.65 Q5.45 12.0 5.75 12.25 6.1 12.45 6.45 12.55 6.85 12.65 7.2 12.6 7.6 12.55 7.95 12.35 8.35 12.15 8.55 11.85 8.8 11.5 8.9 11.15 9.0 10.8 8.95 10.4 8.9 10.0 8.7 9.65" fill="#333333" fill-rule="evenodd" stroke="none"/>
  </g>
</svg>
