<?xml version="1.0" encoding="UTF-8" standalone="no"?>
<svg xmlns:xlink="http://www.w3.org/1999/xlink" height="8.95px" width="12.6px" xmlns="http://www.w3.org/2000/svg">
  <g transform="matrix(1.0, 0.0, 0.0, 1.0, 0.0, 0.0)">
    <path d="M11.65 5.25 L11.65 5.25 2.95 0.25 Q2.6 0.05 2.2 0.0 1.85 0.0 1.45 0.05 1.1 0.15 0.75 0.4 0.45 0.6 0.25 0.95 0.05 1.35 0.0 1.7 0.0 2.1 0.05 2.5 0.15 2.85 0.4 3.2 0.6 3.5 0.95 3.7 L9.65 8.7 Q10.0 8.9 10.4 8.95 10.8 9.0 11.15 8.9 11.5 8.8 11.85 8.55 12.15 8.35 12.35 7.95 12.55 7.6 12.6 7.2 12.65 6.85 12.55 6.45 12.45 6.1 12.25 5.75 12.0 5.45 11.65 5.25" fill="#444444" fill-rule="evenodd" stroke="none"/>
  </g>
</svg>
