<?xml version="1.0" encoding="UTF-8" standalone="no"?>
<svg xmlns:xlink="http://www.w3.org/1999/xlink" height="8.95px" width="12.65px" xmlns="http://www.w3.org/2000/svg">
  <g transform="matrix(1.0, 0.0, 0.0, 1.0, 0.0, 0.0)">
    <path d="M9.65 0.25 L9.65 0.25 0.95 5.25 Q0.6 5.45 0.4 5.75 0.15 6.1 0.05 6.45 0.0 6.85 0.0 7.2 0.05 7.6 0.25 7.95 0.45 8.35 0.75 8.55 1.1 8.8 1.45 8.9 1.85 9.0 2.2 8.95 2.6 8.9 2.95 8.7 L11.65 3.7 Q12.0 3.5 12.25 3.2 12.45 2.85 12.55 2.5 12.65 2.1 12.6 1.7 12.55 1.35 12.35 0.95 12.15 0.6 11.85 0.4 11.5 0.15 11.15 0.05 10.8 0.0 10.4 0.0 10.0 0.05 9.65 0.25" fill="#666666" fill-rule="evenodd" stroke="none"/>
  </g>
</svg>
