<?xml version="1.0" encoding="UTF-8" standalone="no"?>
<svg xmlns:xlink="http://www.w3.org/1999/xlink" height="14.0px" width="4.0px" xmlns="http://www.w3.org/2000/svg">
  <g transform="matrix(1.0, 0.0, 0.0, 1.0, 0.0, 0.0)">
    <path d="M0.0 2.0 L0.0 2.0 0.0 12.0 Q0.0 12.4 0.15 12.75 0.3 13.1 0.55 13.4 0.85 13.65 1.2 13.8 1.55 14.0 1.95 14.0 2.4 14.0 2.75 13.8 3.1 13.65 3.4 13.4 3.65 13.1 3.8 12.75 4.0 12.4 4.0 11.95 L4.0 1.95 Q4.0 1.55 3.8 1.2 3.65 0.85 3.4 0.55 3.1 0.3 2.75 0.15 2.4 0.0 2.0 0.0 1.55 0.0 1.2 0.15 0.85 0.3 0.55 0.55 0.3 0.85 0.15 1.2 0.0 1.55 0.0 2.0" fill="#888888" fill-rule="evenodd" stroke="none"/>
  </g>
</svg>
