<?xml version="1.0" encoding="UTF-8" standalone="no"?>
<svg xmlns:xlink="http://www.w3.org/1999/xlink" height="12.6px" width="8.95px" xmlns="http://www.w3.org/2000/svg">
  <g transform="matrix(1.0, 0.0, 0.0, 1.0, 0.0, 0.0)">
    <path d="M3.7 11.65 L3.7 11.65 8.7 2.95 Q8.9 2.6 8.95 2.2 9.0 1.85 8.9 1.45 8.8 1.1 8.55 0.75 8.35 0.45 7.95 0.25 7.6 0.05 7.2 0.0 6.85 0.0 6.45 0.05 6.1 0.15 5.75 0.4 5.45 0.6 5.25 0.95 L0.25 9.65 Q0.05 10.0 0.0 10.4 0.0 10.8 0.05 11.15 0.15 11.5 0.4 11.85 0.6 12.15 0.95 12.35 1.35 12.55 1.75 12.6 2.1 12.65 2.5 12.55 2.85 12.45 3.2 12.25 3.5 12.0 3.7 11.65" fill="#dddddd" fill-rule="evenodd" stroke="none"/>
  </g>
</svg>
