<?xml version="1.0" encoding="UTF-8" standalone="no"?>
<svg xmlns:xlink="http://www.w3.org/1999/xlink" height="16.0px" width="16.0px" xmlns="http://www.w3.org/2000/svg">
  <g transform="matrix(1.0, 0.0, 0.0, 1.0, 0.0, 0.0)">
    <path d="M16.0 8.0 Q16.0 6.35 15.35 4.9 14.7 3.45 13.6 2.35 12.5 1.25 11.05 0.6 9.6 -0.05 7.95 -0.05 6.3 -0.05 4.85 0.6 3.4 1.25 2.3 2.35 1.2 3.45 0.55 4.9 -0.1 6.35 -0.1 8.0 -0.1 9.65 0.55 11.1 1.2 12.55 2.3 13.65 3.4 14.75 4.85 15.4 6.3 16.05 7.95 16.05 9.6 16.05 11.05 15.4 12.5 14.75 13.6 13.65 14.7 12.55 15.35 11.1 16.0 9.65 16.0 8.0" fill="#167efb" fill-rule="evenodd" stroke="none"/>
  </g>
</svg>
