<?xml version="1.0" encoding="UTF-8" standalone="no"?>
<svg xmlns:xlink="http://www.w3.org/1999/xlink" height="17.0px" width="17.0px" xmlns="http://www.w3.org/2000/svg">
  <g transform="matrix(1.0, 0.0, 0.0, 1.0, 0.5, 0.5)">
    <path d="M16.0 8.0 Q16.0 9.65 15.35 11.1 14.7 12.55 13.6 13.65 12.5 14.75 11.05 15.4 9.6 16.05 7.95 16.05 6.3 16.05 4.85 15.4 3.4 14.75 2.3 13.65 1.2 12.55 0.55 11.1 -0.1 9.65 -0.1 8.0 -0.1 6.35 0.55 4.9 1.2 3.45 2.3 2.35 3.4 1.25 4.85 0.6 6.3 -0.05 7.95 -0.05 9.6 -0.05 11.05 0.6 12.5 1.25 13.6 2.35 14.7 3.45 15.35 4.9 16.0 6.35 16.0 8.0 Z" fill="none" stroke="#cccccc" stroke-linecap="round" stroke-linejoin="round" stroke-width="1.0"/>
  </g>
</svg>
