<?xml version="1.0" encoding="UTF-8" standalone="no"?>
<svg xmlns:xlink="http://www.w3.org/1999/xlink" height="28.0px" width="71.0px" xmlns="http://www.w3.org/2000/svg">
  <g transform="matrix(1.0, 0.0, 0.0, 1.0, 0.0, 0.0)">
    <path d="M0.0 0.0 L0.0 0.0 71.0 0.0 71.0 28.0 57.0 28.0 Q58.5 28.0 59.75 27.4 61.05 26.85 62.0 25.9 62.9 24.95 63.45 23.7 64.0 22.4 64.0 21.0 64.0 19.55 63.45 18.25 62.9 17.0 62.0 16.05 61.05 15.1 59.75 14.55 58.5 14.0 57.0 14.0 L14.0 14.0 Q12.5 14.0 11.2 14.55 9.9 15.1 9.0 16.05 8.05 17.0 7.5 18.25 7.0 19.55 7.0 21.0 7.0 22.4 7.5 23.7 8.05 24.95 9.0 25.9 9.9 26.85 11.2 27.4 12.5 28.0 14.0 28.0 L0.0 28.0 0.0 0.0" fill="url(#gradient0)" fill-rule="evenodd" stroke="none"/>
  </g>
  <defs>
    <linearGradient gradientTransform="matrix(0.0, 0.0171, -1.0, 0.0, 35.5, 14.0)" gradientUnits="userSpaceOnUse" id="gradient0" spreadMethod="pad" x1="-819.2" x2="819.2">
      <stop offset="0.0" stop-color="#000000" stop-opacity="0.101960786"/>
      <stop offset="0.5019607843137255" stop-color="#000000" stop-opacity="0.2"/>
      <stop offset="1.0" stop-color="#000000" stop-opacity="0.101960786"/>
    </linearGradient>
  </defs>
</svg>
