<?xml version="1.0" encoding="UTF-8" standalone="no"?>
<svg xmlns:xlink="http://www.w3.org/1999/xlink" height="56.0px" width="142.0px" xmlns="http://www.w3.org/2000/svg">
  <g transform="matrix(1.0, 0.0, 0.0, 1.0, 0.0, 0.0)">
    <path d="M0.0 0.0 L0.0 0.0 142.0 0.0 142.0 56.0 114.0 56.0 Q117.0 56.0 119.55 54.85 122.1 53.75 124.0 51.85 125.85 49.95 126.9 47.4 128.0 44.85 128.0 42.0 128.0 39.1 126.9 36.55 125.85 34.0 124.0 32.1 122.1 30.2 119.55 29.1 117.0 28.0 114.0 28.0 L28.0 28.0 Q25.0 28.0 22.4 29.1 19.85 30.2 18.0 32.1 16.1 34.0 15.05 36.55 14.0 39.1 14.0 42.0 14.0 44.85 15.05 47.4 16.1 49.95 18.0 51.85 19.85 53.75 22.4 54.85 25.0 56.0 28.0 56.0 L0.0 56.0 0.0 0.0" fill="url(#gradient0)" fill-rule="evenodd" stroke="none"/>
  </g>
  <defs>
    <linearGradient gradientTransform="matrix(0.0, 0.0342, -1.0, 0.0, 71.0, 28.0)" gradientUnits="userSpaceOnUse" id="gradient0" spreadMethod="pad" x1="-819.2" x2="819.2">
      <stop offset="0.0" stop-color="#000000" stop-opacity="0.101960786"/>
      <stop offset="0.5019607843137255" stop-color="#000000" stop-opacity="0.2"/>
      <stop offset="1.0" stop-color="#000000" stop-opacity="0.101960786"/>
    </linearGradient>
  </defs>
</svg>
