<?xml version="1.0" encoding="UTF-8" standalone="no"?>
<svg xmlns:xlink="http://www.w3.org/1999/xlink" height="42.0px" width="106.0px" xmlns="http://www.w3.org/2000/svg">
  <g transform="matrix(1.0, 0.0, 0.0, 1.0, 0.0, 0.0)">
    <path d="M0.0 0.0 L0.0 0.0 106.0 0.0 106.0 42.0 85.0 42.0 Q87.25 42.0 89.15 41.15 91.05 40.3 92.5 38.9 93.9 37.45 94.7 35.55 95.5 33.65 95.5 31.5 95.5 29.3 94.7 27.4 93.9 25.5 92.5 24.05 91.05 22.65 89.15 21.8 87.25 21.0 85.0 21.0 L21.0 21.0 Q18.75 21.0 16.8 21.8 14.9 22.65 13.5 24.05 12.05 25.5 11.25 27.4 10.5 29.3 10.5 31.5 10.5 33.65 11.25 35.55 12.05 37.45 13.5 38.9 14.9 40.3 16.8 41.15 18.75 42.0 21.0 42.0 L0.0 42.0 0.0 0.0" fill="url(#gradient0)" fill-rule="evenodd" stroke="none"/>
  </g>
  <defs>
    <linearGradient gradientTransform="matrix(0.0, 0.0256, -1.0, 0.0, 53.0, 21.0)" gradientUnits="userSpaceOnUse" id="gradient0" spreadMethod="pad" x1="-819.2" x2="819.2">
      <stop offset="0.0" stop-color="#000000" stop-opacity="0.101960786"/>
      <stop offset="0.5019607843137255" stop-color="#000000" stop-opacity="0.2"/>
      <stop offset="1.0" stop-color="#000000" stop-opacity="0.101960786"/>
    </linearGradient>
  </defs>
</svg>
