<?xml version="1.0" encoding="UTF-8" standalone="no"?>
<svg xmlns:xlink="http://www.w3.org/1999/xlink" height="58.0px" width="202.0px" xmlns="http://www.w3.org/2000/svg">
  <g transform="matrix(1.0, 0.0, 0.0, 1.0, 0.0, 0.0)">
    <path d="M193.0 2.0 L2.0 2.0 2.0 56.0 193.0 56.0 Q194.4 56.0 195.7 55.4 196.95 54.85 197.9 53.9 198.85 52.95 199.4 51.7 200.0 50.4 200.0 49.0 L200.0 9.0 Q200.0 7.55 199.4 6.25 198.85 5.0 197.9 4.05 196.95 3.1 195.7 2.55 194.4 2.0 193.0 2.0 M193.0 0.0 Q194.85 0.0 196.5 0.7 198.1 1.4 199.35 2.6 200.55 3.85 201.25 5.45 202.0 7.1 202.0 9.0 L202.0 49.0 Q202.0 50.85 201.25 52.5 200.55 54.1 199.35 55.35 198.1 56.55 196.5 57.25 194.85 58.0 193.0 58.0 L0.0 58.0 0.0 0.0 193.0 0.0" fill="#007aff" fill-rule="evenodd" stroke="none"/>
  </g>
</svg>
