<?xml version="1.0" encoding="UTF-8" standalone="no"?>
<svg xmlns:xlink="http://www.w3.org/1999/xlink" height="58.0px" width="236.0px" xmlns="http://www.w3.org/2000/svg">
  <g transform="matrix(1.0, 0.0, 0.0, 1.0, 0.0, 0.0)">
    <path d="M227.0 2.0 L2.0 2.0 2.0 56.0 227.0 56.0 Q228.4 56.0 229.7 55.4 230.95 54.85 231.9 53.9 232.85 52.95 233.4 51.7 234.0 50.4 234.0 49.0 L234.0 9.0 Q234.0 7.55 233.4 6.25 232.85 5.0 231.9 4.05 230.95 3.1 229.7 2.55 228.4 2.0 227.0 2.0 M227.0 0.0 Q228.85 0.0 230.5 0.7 232.1 1.4 233.35 2.6 234.55 3.85 235.25 5.45 236.0 7.1 236.0 9.0 L236.0 49.0 Q236.0 50.85 235.25 52.5 234.55 54.1 233.35 55.35 232.1 56.55 230.5 57.25 228.85 58.0 227.0 58.0 L0.0 58.0 0.0 0.0 227.0 0.0" fill="#007aff" fill-rule="evenodd" stroke="none"/>
  </g>
</svg>
