<?xml version="1.0" encoding="UTF-8" standalone="no"?>
<svg xmlns:xlink="http://www.w3.org/1999/xlink" height="58.0px" width="200.0px" xmlns="http://www.w3.org/2000/svg">
  <g transform="matrix(1.0, 0.0, 0.0, 1.0, 0.0, 0.0)">
    <path d="M198.0 2.0 L9.0 2.0 Q7.55 2.0 6.25 2.55 5.0 3.1 4.05 4.05 3.1 5.0 2.55 6.25 2.0 7.55 2.0 9.0 L2.0 49.0 Q2.0 50.4 2.55 51.7 3.1 52.95 4.05 53.9 5.0 54.85 6.25 55.4 7.55 56.0 9.0 56.0 L198.0 56.0 198.0 2.0 M200.0 0.0 L200.0 0.0 200.0 58.0 9.0 58.0 Q7.1 58.0 5.45 57.25 3.85 56.55 2.6 55.35 1.4 54.1 0.7 52.5 0.0 50.85 0.0 49.0 L0.0 9.0 Q0.0 7.1 0.7 5.45 1.4 3.85 2.6 2.6 3.85 1.4 5.45 0.7 7.1 0.0 9.0 0.0 L200.0 0.0" fill="#007aff" fill-rule="evenodd" stroke="none"/>
  </g>
</svg>
