<?xml version="1.0" encoding="UTF-8" standalone="no"?>
<svg xmlns:xlink="http://www.w3.org/1999/xlink" height="74.55px" width="154.6px" xmlns="http://www.w3.org/2000/svg">
  <g transform="matrix(1.0, 0.0, 0.0, 1.0, 0.0, 0.0)">
    <path d="M153.25 1.3 L153.25 1.3 8.05 1.3 Q6.65 1.3 5.4 1.85 4.2 2.4 3.3 3.3 2.35 4.25 1.85 5.45 1.3 6.7 1.3 8.1 L1.3 66.4 Q1.3 67.8 1.85 69.05 2.35 70.3 3.3 71.2 4.2 72.15 5.4 72.7 6.65 73.2 8.05 73.2 L153.25 73.2 153.25 1.3 M154.6 0.0 L154.6 0.0 154.6 0.0 154.6 74.55 8.05 74.55 Q6.35 74.55 4.9 73.9 3.45 73.25 2.35 72.15 1.25 71.05 0.6 69.6 0.0 68.1 0.0 66.4 L0.0 8.1 Q0.0 6.45 0.6 4.95 1.25 3.45 2.35 2.35 3.45 1.25 4.9 0.6 6.35 0.0 8.05 0.0 L154.6 0.0" fill="#000000" fill-opacity="0.101960786" fill-rule="evenodd" stroke="none"/>
  </g>
</svg>
