<?xml version="1.0" encoding="UTF-8" standalone="no"?>
<svg xmlns:xlink="http://www.w3.org/1999/xlink" height="12.65px" width="9.05px" xmlns="http://www.w3.org/2000/svg">
  <g transform="matrix(1.0, 0.0, 0.0, 1.0, -90.9, -15.0)">
    <path d="M96.2 16.0 L96.2 16.0 91.2 24.65 Q91.0 25.05 90.95 25.4 90.9 25.8 91.0 26.2 91.1 26.55 91.35 26.85 91.6 27.2 91.95 27.4 L91.95 27.4 Q92.3 27.6 92.7 27.65 93.1 27.7 93.45 27.6 93.85 27.5 94.15 27.25 94.45 27.05 94.7 26.65 L99.7 18.0 Q99.9 17.65 99.95 17.25 100.0 16.85 99.9 16.5 99.8 16.1 99.55 15.8 99.3 15.5 98.95 15.3 L98.95 15.3 Q98.6 15.05 98.2 15.0 97.8 15.0 97.45 15.1 97.05 15.2 96.75 15.4 96.45 15.65 96.2 16.0" fill="#ffffff" fill-rule="evenodd" stroke="none"/>
  </g>
</svg>
