<?xml version="1.0" encoding="UTF-8" standalone="no"?>
<svg xmlns:xlink="http://www.w3.org/1999/xlink" height="77.25px" width="157.3px" xmlns="http://www.w3.org/2000/svg">
  <g transform="matrix(1.0, 0.0, 0.0, 1.0, 0.0, 0.0)">
    <path d="M155.95 1.35 L155.95 1.35 9.4 1.35 Q7.7 1.35 6.25 1.95 4.8 2.6 3.7 3.7 2.6 4.8 1.95 6.3 1.3 7.8 1.3 9.45 L1.3 67.75 Q1.3 69.45 1.95 70.95 2.6 72.4 3.7 73.5 4.8 74.65 6.25 75.25 7.7 75.9 9.4 75.9 L155.95 75.9 155.95 1.35 M157.3 0.0 L157.3 0.0 157.3 0.0 157.3 77.25 9.4 77.25 Q7.45 77.25 5.75 76.5 4.0 75.75 2.75 74.5 1.45 73.2 0.7 71.45 0.0 69.75 0.0 67.75 L0.0 9.45 Q0.0 7.5 0.7 5.8 1.45 4.05 2.75 2.75 4.0 1.45 5.75 0.7 7.45 0.0 9.4 0.0 L157.3 0.0" fill="#000000" fill-opacity="0.2" fill-rule="evenodd" stroke="none"/>
  </g>
</svg>
