<?xml version="1.0" encoding="UTF-8" standalone="no"?>
<svg xmlns:xlink="http://www.w3.org/1999/xlink" height="38.6px" width="78.65px" xmlns="http://www.w3.org/2000/svg">
  <g transform="matrix(1.0, 0.0, 0.0, 1.0, 0.0, 0.0)">
    <path d="M77.95 0.65 L77.95 0.65 4.7 0.65 Q3.85 0.65 3.1 0.95 2.4 1.3 1.85 1.85 1.3 2.4 0.95 3.15 0.65 3.9 0.65 4.7 L0.65 33.85 Q0.65 34.7 0.95 35.45 1.3 36.2 1.85 36.75 2.4 37.3 3.1 37.6 3.85 37.95 4.7 37.95 L77.95 37.95 77.95 0.65 M78.65 0.0 L78.65 0.0 78.65 0.0 78.65 38.6 4.7 38.6 Q3.7 38.6 2.85 38.25 2.0 37.85 1.35 37.25 0.7 36.6 0.35 35.7 0.0 34.85 0.0 33.85 L0.0 4.7 Q0.0 3.75 0.35 2.9 0.7 2.0 1.35 1.35 2.0 0.7 2.85 0.35 3.7 0.0 4.7 0.0 L78.65 0.0" fill="#000000" fill-opacity="0.2" fill-rule="evenodd" stroke="none"/>
  </g>
</svg>
