<?xml version="1.0" encoding="UTF-8" standalone="no"?>
<svg xmlns:xlink="http://www.w3.org/1999/xlink" height="37.25px" width="77.3px" xmlns="http://www.w3.org/2000/svg">
  <g transform="matrix(1.0, 0.0, 0.0, 1.0, 0.0, 0.0)">
    <path d="M76.6 0.65 L76.6 0.65 4.0 0.65 Q3.3 0.65 2.7 0.9 2.1 1.2 1.65 1.65 1.15 2.1 0.9 2.7 0.65 3.35 0.65 4.05 L0.65 33.2 Q0.65 33.9 0.9 34.5 1.15 35.15 1.65 35.6 2.1 36.05 2.7 36.35 3.3 36.6 4.0 36.6 L76.6 36.6 76.6 0.65 M77.3 0.0 L77.3 0.0 77.3 0.0 77.3 37.25 4.0 37.25 Q3.15 37.25 2.45 36.95 1.7 36.6 1.15 36.05 0.6 35.5 0.3 34.8 0.0 34.05 0.0 33.2 L0.0 4.05 Q0.0 3.2 0.3 2.45 0.6 1.7 1.15 1.15 1.7 0.6 2.45 0.3 3.15 0.0 4.0 0.0 L77.3 0.0" fill="#000000" fill-opacity="0.101960786" fill-rule="evenodd" stroke="none"/>
  </g>
</svg>
