<?xml version="1.0" encoding="UTF-8" standalone="no"?>
<svg xmlns:xlink="http://www.w3.org/1999/xlink" height="40.0px" width="80.0px" xmlns="http://www.w3.org/2000/svg">
  <g transform="matrix(1.0, 0.0, 0.0, 1.0, 0.0, 0.0)">
    <path d="M79.3 0.65 L79.3 0.65 5.35 0.65 Q4.4 0.65 3.5 1.05 2.65 1.4 2.05 2.05 1.4 2.7 1.0 3.55 0.65 4.4 0.65 5.4 L0.65 34.55 Q0.65 35.55 1.0 36.4 1.4 37.25 2.05 37.9 2.65 38.55 3.5 38.9 4.4 39.3 5.35 39.3 L79.3 39.3 79.3 0.65 M80.0 0.0 L80.0 0.0 80.0 0.0 80.0 40.0 5.35 40.0 Q4.25 40.0 3.25 39.55 2.3 39.1 1.55 38.4 0.8 37.65 0.4 36.65 0.0 35.65 0.0 34.55 L0.0 5.4 Q0.0 4.3 0.4 3.3 0.8 2.3 1.55 1.55 2.3 0.85 3.25 0.4 4.25 0.0 5.35 0.0 L80.0 0.0" fill="#464646" fill-rule="evenodd" stroke="none"/>
  </g>
</svg>
