<?xml version="1.0" encoding="UTF-8" standalone="no"?>
<svg xmlns:xlink="http://www.w3.org/1999/xlink" height="40.0px" width="80.0px" xmlns="http://www.w3.org/2000/svg">
  <g transform="matrix(1.0, 0.0, 0.0, 1.0, 0.0, 0.0)">
    <path d="M79.3 0.65 L79.3 0.65 5.25 0.65 Q4.3 0.65 3.45 1.0 2.6 1.35 2.0 2.0 1.35 2.6 1.0 3.45 0.65 4.25 0.65 5.2 L0.65 34.75 Q0.65 35.7 1.0 36.5 1.35 37.35 2.0 37.95 2.6 38.6 3.45 38.95 4.3 39.3 5.25 39.3 L79.3 39.3 79.3 0.65 M80.0 0.0 L80.0 0.0 80.0 0.0 80.0 40.0 5.25 40.0 Q4.15 40.0 3.2 39.55 2.25 39.15 1.5 38.45 0.8 37.75 0.4 36.75 0.0 35.8 0.0 34.75 L0.0 5.2 Q0.0 4.15 0.4 3.2 0.8 2.2 1.5 1.5 2.25 0.8 3.2 0.4 4.15 0.0 5.25 0.0 L80.0 0.0" fill="#646464" fill-rule="evenodd" stroke="none"/>
  </g>
</svg>
