<?xml version="1.0" encoding="UTF-8" standalone="no"?>
<svg xmlns:xlink="http://www.w3.org/1999/xlink" height="60.0px" width="120.0px" xmlns="http://www.w3.org/2000/svg">
  <g transform="matrix(1.0, 0.0, 0.0, 1.0, 0.0, 0.0)">
    <path d="M119.0 0.95 L119.0 0.95 7.9 0.95 Q6.45 0.95 5.2 1.5 3.95 2.05 3.0 3.0 2.05 3.9 1.5 5.15 0.95 6.4 0.95 7.85 L0.95 52.1 Q0.95 53.55 1.5 54.8 2.05 56.05 3.0 56.95 3.95 57.9 5.2 58.45 6.45 59.0 7.9 59.0 L119.0 59.0 119.0 0.95 M120.0 0.0 L120.0 0.0 120.0 0.0 120.0 60.0 7.9 60.0 Q6.25 60.0 4.8 59.35 3.4 58.75 2.3 57.65 1.2 56.6 0.6 55.15 0.0 53.75 0.0 52.1 L0.0 7.85 Q0.0 6.2 0.6 4.8 1.2 3.35 2.3 2.3 3.4 1.2 4.8 0.6 6.25 0.0 7.9 0.0 L120.0 0.0" fill="#646464" fill-rule="evenodd" stroke="none"/>
  </g>
</svg>
