<?xml version="1.0" encoding="UTF-8" standalone="no"?>
<svg xmlns:xlink="http://www.w3.org/1999/xlink" height="80.0px" width="160.0px" xmlns="http://www.w3.org/2000/svg">
  <g transform="matrix(1.0, 0.0, 0.0, 1.0, 0.0, 0.0)">
    <path d="M158.65 1.3 L158.65 1.3 10.55 1.3 Q8.65 1.3 6.95 2.0 5.25 2.75 4.0 4.0 2.75 5.2 2.05 6.9 1.3 8.55 1.3 10.45 L1.3 69.5 Q1.3 71.4 2.05 73.05 2.75 74.7 4.0 75.95 5.25 77.2 6.95 77.95 8.65 78.65 10.55 78.65 L158.65 78.65 158.65 1.3 M160.0 0.0 L160.0 0.0 160.0 0.0 160.0 80.0 10.55 80.0 Q8.35 80.0 6.45 79.15 4.5 78.35 3.05 76.9 1.65 75.5 0.8 73.55 0.0 71.65 0.0 69.5 L0.0 10.45 Q0.0 8.3 0.8 6.4 1.65 4.45 3.05 3.05 4.5 1.6 6.45 0.8 8.35 0.0 10.55 0.0 L160.0 0.0" fill="#646464" fill-rule="evenodd" stroke="none"/>
  </g>
</svg>
