<?xml version="1.0" encoding="UTF-8" standalone="no"?>
<svg xmlns:xlink="http://www.w3.org/1999/xlink" height="80.0px" width="160.0px" xmlns="http://www.w3.org/2000/svg">
  <g transform="matrix(1.0, 0.0, 0.0, 1.0, 0.0, 0.0)">
    <path d="M158.65 1.35 L158.65 1.35 10.75 1.35 Q8.8 1.35 7.05 2.1 5.35 2.85 4.1 4.1 2.8 5.4 2.05 7.15 1.3 8.85 1.3 10.8 L1.3 69.15 Q1.3 71.1 2.05 72.8 2.8 74.55 4.1 75.85 5.35 77.15 7.05 77.85 8.8 78.6 10.75 78.6 L158.65 78.6 158.65 1.35 M160.0 0.0 L160.0 0.0 160.0 0.0 160.0 80.0 10.75 80.0 Q8.5 80.0 6.55 79.1 4.6 78.25 3.15 76.8 1.65 75.35 0.8 73.35 0.0 71.35 0.0 69.15 L0.0 10.8 Q0.0 8.6 0.8 6.6 1.65 4.6 3.15 3.15 4.6 1.7 6.55 0.85 8.5 0.0 10.75 0.0 L160.0 0.0" fill="#464646" fill-rule="evenodd" stroke="none"/>
  </g>
</svg>
