<?xml version="1.0" encoding="UTF-8" standalone="no"?>
<svg xmlns:xlink="http://www.w3.org/1999/xlink" height="57.95px" width="117.95px" xmlns="http://www.w3.org/2000/svg">
  <g transform="matrix(1.0, 0.0, 0.0, 1.0, 0.0, 0.0)">
    <path d="M116.95 1.0 L116.95 1.0 7.05 1.0 Q5.8 1.0 4.7 1.45 3.6 1.95 2.75 2.8 1.95 3.6 1.45 4.7 1.0 5.85 1.0 7.1 L1.0 50.8 Q1.0 52.1 1.45 53.2 1.95 54.3 2.75 55.15 3.6 55.95 4.7 56.45 5.8 56.9 7.05 56.9 L116.95 56.9 116.95 1.0 M117.95 0.0 L117.95 0.0 117.95 0.0 117.95 57.95 7.05 57.95 Q5.55 57.95 4.3 57.4 3.0 56.8 2.05 55.85 1.1 54.9 0.55 53.6 0.0 52.3 0.0 50.8 L0.0 7.1 Q0.0 5.6 0.55 4.3 1.1 3.05 2.05 2.05 3.0 1.1 4.3 0.55 5.55 0.0 7.05 0.0 L117.95 0.0" fill="#000000" fill-opacity="0.2" fill-rule="evenodd" stroke="none"/>
  </g>
</svg>
