<?xml version="1.0" encoding="UTF-8" standalone="no"?>
<svg xmlns:xlink="http://www.w3.org/1999/xlink" height="60.0px" width="120.0px" xmlns="http://www.w3.org/2000/svg">
  <g transform="matrix(1.0, 0.0, 0.0, 1.0, 0.0, 0.0)">
    <path d="M118.95 1.0 L118.95 1.0 8.05 1.0 Q6.6 1.0 5.3 1.55 4.0 2.1 3.05 3.1 2.1 4.05 1.55 5.35 1.0 6.65 1.0 8.1 L1.0 51.85 Q1.0 53.3 1.55 54.6 2.1 55.9 3.05 56.85 4.0 57.85 5.3 58.4 6.6 58.95 8.05 58.95 L118.95 58.95 118.95 1.0 M120.0 0.0 L120.0 0.0 120.0 0.0 120.0 60.0 8.05 60.0 Q6.35 60.0 4.9 59.35 3.45 58.7 2.35 57.6 1.25 56.5 0.6 55.0 0.0 53.5 0.0 51.85 L0.0 8.1 Q0.0 6.45 0.6 4.95 1.25 3.45 2.35 2.35 3.45 1.25 4.9 0.6 6.35 0.0 8.05 0.0 L120.0 0.0" fill="#646464" fill-rule="evenodd" stroke="none"/>
  </g>
</svg>
