<?xml version="1.0" encoding="UTF-8" standalone="no"?>
<svg xmlns:xlink="http://www.w3.org/1999/xlink" height="55.9px" width="115.95px" xmlns="http://www.w3.org/2000/svg">
  <g transform="matrix(1.0, 0.0, 0.0, 1.0, 0.0, 0.0)">
    <path d="M114.95 1.0 L114.95 1.0 6.0 1.0 Q5.0 1.0 4.05 1.4 3.15 1.8 2.45 2.45 1.75 3.15 1.35 4.1 1.0 5.0 1.0 6.1 L1.0 49.8 Q1.0 50.85 1.35 51.8 1.75 52.7 2.45 53.4 3.15 54.1 4.05 54.5 5.0 54.9 6.0 54.9 L114.95 54.9 114.95 1.0 M115.95 0.0 L115.95 0.0 115.95 0.0 115.95 55.9 6.0 55.9 Q4.75 55.9 3.65 55.45 2.55 54.95 1.75 54.1 0.95 53.3 0.45 52.2 0.0 51.05 0.0 49.8 L0.0 6.1 Q0.0 4.8 0.45 3.7 0.95 2.6 1.75 1.75 2.55 0.95 3.65 0.45 4.75 0.0 6.0 0.0 L115.95 0.0" fill="#000000" fill-opacity="0.101960786" fill-rule="evenodd" stroke="none"/>
  </g>
</svg>
