<?xml version="1.0" encoding="UTF-8" standalone="no"?>
<svg xmlns:xlink="http://www.w3.org/1999/xlink" height="37.25px" width="77.95px" xmlns="http://www.w3.org/2000/svg">
  <g transform="matrix(1.0, 0.0, 0.0, 1.0, 0.0, 0.0)">
    <path d="M73.95 0.65 L73.95 0.65 0.65 0.65 0.65 36.6 73.95 36.6 Q74.65 36.6 75.25 36.35 75.85 36.05 76.3 35.6 76.75 35.15 77.05 34.5 77.3 33.9 77.3 33.2 L77.3 4.05 Q77.3 3.35 77.05 2.7 76.75 2.1 76.3 1.65 75.85 1.2 75.25 0.9 74.65 0.65 73.95 0.65 M73.95 0.0 L73.95 0.0 73.95 0.0 Q74.75 0.0 75.5 0.3 76.25 0.6 76.8 1.15 77.35 1.7 77.65 2.45 77.95 3.2 77.95 4.05 L77.95 33.2 Q77.95 34.05 77.65 34.8 77.35 35.5 76.8 36.05 76.25 36.6 75.5 36.95 74.75 37.25 73.95 37.25 L0.0 37.25 0.0 0.0 73.95 0.0" fill="#000000" fill-opacity="0.101960786" fill-rule="evenodd" stroke="none"/>
  </g>
</svg>
