<?xml version="1.0" encoding="UTF-8" standalone="no"?>
<svg xmlns:xlink="http://www.w3.org/1999/xlink" height="40.0px" width="80.0px" xmlns="http://www.w3.org/2000/svg">
  <g transform="matrix(1.0, 0.0, 0.0, 1.0, 0.0, 0.0)">
    <path d="M74.7 0.0 L74.7 0.0 Q75.8 0.0 76.75 0.4 77.7 0.8 78.45 1.5 79.15 2.2 79.55 3.2 80.0 4.15 80.0 5.2 L80.0 34.75 Q80.0 35.8 79.55 36.75 79.15 37.75 78.45 38.45 77.7 39.15 76.75 39.55 75.8 40.0 74.7 40.0 L0.0 40.0 0.0 39.3 74.7 39.3 Q75.65 39.3 76.5 38.95 77.35 38.6 77.95 37.95 78.6 37.35 78.95 36.5 79.3 35.7 79.3 34.75 L79.3 5.2 Q79.3 4.25 78.95 3.45 78.6 2.6 77.95 2.0 77.35 1.35 76.5 1.0 75.65 0.65 74.7 0.65 L0.0 0.65 0.0 0.0 74.7 0.0" fill="#464646" fill-rule="evenodd" stroke="none"/>
  </g>
</svg>
