<?xml version="1.0" encoding="UTF-8" standalone="no"?>
<svg xmlns:xlink="http://www.w3.org/1999/xlink" height="57.95px" width="119.0px" xmlns="http://www.w3.org/2000/svg">
  <g transform="matrix(1.0, 0.0, 0.0, 1.0, 0.0, 0.0)">
    <path d="M1.0 1.0 L1.0 56.9 111.9 56.9 Q113.15 56.9 114.25 56.45 115.35 55.95 116.2 55.15 117.0 54.3 117.5 53.2 117.95 52.1 117.95 50.8 L117.95 7.1 Q117.95 5.85 117.5 4.7 117.0 3.6 116.2 2.8 115.35 1.95 114.25 1.45 113.15 1.0 111.9 1.0 L1.0 1.0 M0.0 0.0 L0.0 0.0 111.9 0.0 Q113.4 0.0 114.65 0.55 115.95 1.1 116.9 2.05 117.85 3.05 118.4 4.3 119.0 5.6 119.0 7.1 L119.0 50.8 Q119.0 52.3 118.4 53.6 117.85 54.9 116.9 55.85 115.95 56.8 114.65 57.4 113.4 57.95 111.9 57.95 L0.0 57.95 0.0 0.0" fill="#000000" fill-opacity="0.2" fill-rule="evenodd" stroke="none"/>
  </g>
</svg>
