<?xml version="1.0" encoding="UTF-8" standalone="no"?>
<svg xmlns:xlink="http://www.w3.org/1999/xlink" height="38.6px" width="79.3px" xmlns="http://www.w3.org/2000/svg">
  <g transform="matrix(1.0, 0.0, 0.0, 1.0, 0.0, 0.0)">
    <path d="M0.65 0.65 L0.65 0.65 0.65 37.95 74.6 37.95 Q75.45 37.95 76.15 37.6 76.9 37.3 77.45 36.75 78.0 36.2 78.3 35.45 78.65 34.7 78.65 33.85 L78.65 4.7 Q78.65 3.9 78.3 3.15 78.0 2.4 77.45 1.85 76.9 1.3 76.15 0.95 75.45 0.65 74.6 0.65 L0.65 0.65 M0.0 38.6 L0.0 38.6 0.0 0.0 74.6 0.0 Q75.6 0.0 76.45 0.35 77.3 0.7 77.95 1.35 78.55 2.0 78.95 2.9 79.3 3.75 79.3 4.7 L79.3 33.85 Q79.3 34.85 78.95 35.7 78.55 36.6 77.95 37.25 77.3 37.85 76.45 38.25 75.6 38.6 74.6 38.6 L0.0 38.6" fill="#000000" fill-opacity="0.2" fill-rule="evenodd" stroke="none"/>
  </g>
</svg>
