<?xml version="1.0" encoding="UTF-8" standalone="no"?>
<svg xmlns:xlink="http://www.w3.org/1999/xlink" height="55.9px" width="116.95px" xmlns="http://www.w3.org/2000/svg">
  <g transform="matrix(1.0, 0.0, 0.0, 1.0, 0.0, 0.0)">
    <path d="M110.9 1.0 L110.9 1.0 1.0 1.0 1.0 54.9 110.9 54.9 Q111.95 54.9 112.9 54.5 113.8 54.1 114.5 53.4 115.15 52.7 115.55 51.8 115.95 50.85 115.95 49.8 L115.95 6.1 Q115.95 5.0 115.55 4.1 115.15 3.15 114.5 2.45 113.8 1.8 112.9 1.4 111.95 1.0 110.9 1.0 M110.9 0.0 L110.9 0.0 110.9 0.0 Q112.15 0.0 113.25 0.45 114.35 0.95 115.2 1.75 116.0 2.6 116.5 3.7 116.95 4.8 116.95 6.1 L116.95 49.8 Q116.95 51.05 116.5 52.2 116.0 53.3 115.2 54.1 114.35 54.95 113.25 55.45 112.15 55.9 110.9 55.9 L0.0 55.9 0.0 0.0 110.9 0.0" fill="#000000" fill-opacity="0.101960786" fill-rule="evenodd" stroke="none"/>
  </g>
</svg>
