<?xml version="1.0" encoding="UTF-8" standalone="no"?>
<svg xmlns:xlink="http://www.w3.org/1999/xlink" height="60.0px" width="120.0px" xmlns="http://www.w3.org/2000/svg">
  <g transform="matrix(1.0, 0.0, 0.0, 1.0, 0.0, 0.0)">
    <path d="M112.05 0.0 L112.05 0.0 Q113.7 0.0 115.15 0.6 116.55 1.2 117.65 2.3 118.75 3.35 119.35 4.8 120.0 6.2 120.0 7.85 L120.0 52.1 Q120.0 53.75 119.35 55.15 118.75 56.6 117.65 57.65 116.55 58.75 115.15 59.35 113.7 60.0 112.05 60.0 L0.0 60.0 0.0 59.0 112.05 59.0 Q113.5 59.0 114.75 58.45 116.0 57.9 116.95 56.95 117.9 56.05 118.45 54.8 119.0 53.55 119.0 52.1 L119.0 7.85 Q119.0 6.4 118.45 5.15 117.9 3.9 116.95 3.0 116.0 2.05 114.75 1.5 113.5 0.95 112.05 0.95 L0.0 0.95 0.0 0.0 112.05 0.0" fill="#646464" fill-rule="evenodd" stroke="none"/>
  </g>
</svg>
