<?xml version="1.0" encoding="UTF-8" standalone="no"?>
<svg xmlns:xlink="http://www.w3.org/1999/xlink" height="80.0px" width="160.0px" xmlns="http://www.w3.org/2000/svg">
  <g transform="matrix(1.0, 0.0, 0.0, 1.0, 0.0, 0.0)">
    <path d="M149.4 0.0 L149.4 0.0 Q151.6 0.0 153.5 0.8 155.45 1.6 156.9 3.05 158.3 4.45 159.15 6.4 160.0 8.3 160.0 10.45 L160.0 69.5 Q160.0 71.65 159.15 73.55 158.3 75.5 156.9 76.9 155.45 78.35 153.5 79.15 151.6 80.0 149.4 80.0 L0.0 80.0 0.0 78.65 149.4 78.65 Q151.3 78.65 153.0 77.95 154.7 77.2 155.95 75.95 157.2 74.7 157.9 73.05 158.65 71.4 158.65 69.5 L158.65 10.45 Q158.65 8.55 157.9 6.9 157.2 5.2 155.95 4.0 154.7 2.75 153.0 2.0 151.3 1.3 149.4 1.3 L0.0 1.3 0.0 0.0 149.4 0.0" fill="#646464" fill-rule="evenodd" stroke="none"/>
  </g>
</svg>
