<?xml version="1.0" encoding="UTF-8" standalone="no"?>
<svg xmlns:xlink="http://www.w3.org/1999/xlink" height="74.55px" width="155.95px" xmlns="http://www.w3.org/2000/svg">
  <g transform="matrix(1.0, 0.0, 0.0, 1.0, 0.0, 0.0)">
    <path d="M147.9 1.3 L147.9 1.3 1.3 1.3 1.3 73.2 147.9 73.2 Q149.3 73.2 150.5 72.7 151.75 72.15 152.65 71.2 153.55 70.3 154.1 69.05 154.65 67.8 154.65 66.4 L154.65 8.1 Q154.65 6.7 154.1 5.45 153.55 4.25 152.65 3.3 151.75 2.4 150.5 1.85 149.3 1.3 147.9 1.3 M147.9 0.0 L147.9 0.0 147.9 0.0 Q149.55 0.0 151.05 0.6 152.5 1.25 153.6 2.35 154.7 3.45 155.35 4.95 155.95 6.45 155.95 8.1 L155.95 66.4 Q155.95 68.1 155.35 69.6 154.7 71.05 153.6 72.15 152.5 73.25 151.05 73.9 149.55 74.55 147.9 74.55 L0.0 74.55 0.0 0.0 147.9 0.0" fill="#000000" fill-opacity="0.101960786" fill-rule="evenodd" stroke="none"/>
  </g>
</svg>
