<?xml version="1.0" encoding="UTF-8" standalone="no"?>
<svg xmlns:xlink="http://www.w3.org/1999/xlink" height="77.25px" width="158.65px" xmlns="http://www.w3.org/2000/svg">
  <g transform="matrix(1.0, 0.0, 0.0, 1.0, 0.0, 0.0)">
    <path d="M1.3 1.35 L1.3 1.35 1.3 75.9 149.25 75.9 Q150.9 75.9 152.35 75.25 153.85 74.65 154.95 73.5 156.05 72.4 156.65 70.95 157.3 69.45 157.3 67.75 L157.3 9.45 Q157.3 7.8 156.65 6.3 156.05 4.8 154.95 3.7 153.85 2.6 152.35 1.95 150.9 1.35 149.25 1.35 L1.3 1.35 M0.0 77.25 L0.0 77.25 0.0 0.0 149.25 0.0 Q151.2 0.0 152.9 0.7 154.6 1.45 155.9 2.75 157.15 4.05 157.9 5.8 158.65 7.5 158.65 9.45 L158.65 67.75 Q158.65 69.75 157.9 71.45 157.15 73.2 155.9 74.5 154.6 75.75 152.9 76.5 151.2 77.25 149.25 77.25 L0.0 77.25" fill="#000000" fill-opacity="0.2" fill-rule="evenodd" stroke="none"/>
  </g>
</svg>
