<?xml version="1.0" encoding="UTF-8" standalone="no"?>
<svg xmlns:xlink="http://www.w3.org/1999/xlink" height="64.7px" width="66.0px" xmlns="http://www.w3.org/2000/svg">
  <g transform="matrix(1.0, 0.0, 0.0, 1.0, 0.0, 0.0)">
    <path d="M42.0 0.0 L42.0 0.0 Q47.15 1.45 51.55 4.45 55.95 7.5 59.15 11.65 62.35 15.8 64.15 20.95 66.0 26.05 66.0 31.7 66.0 38.55 63.4 44.55 60.8 50.6 56.3 55.05 51.85 59.55 45.8 62.15 39.8 64.7 33.0 64.7 26.15 64.7 20.15 62.15 14.1 59.55 9.65 55.05 5.15 50.6 2.55 44.55 0.0 38.55 0.0 31.7 0.0 26.05 1.8 20.95 3.6 15.8 6.8 11.65 10.0 7.5 14.4 4.45 18.8 1.45 24.0 0.0 L24.0 6.25 Q20.05 7.65 16.75 10.15 13.45 12.65 11.05 16.0 8.65 19.3 7.3 23.3 6.0 27.3 6.0 31.7 6.0 37.3 8.1 42.25 10.2 47.15 13.9 50.8 17.55 54.5 22.45 56.6 27.4 58.7 33.0 58.7 38.55 58.7 43.5 56.6 48.4 54.5 52.05 50.8 55.75 47.15 57.85 42.25 60.0 37.3 60.0 31.7 60.0 27.3 58.65 23.3 57.3 19.3 54.9 16.0 52.5 12.65 49.2 10.15 45.9 7.65 42.0 6.25 L42.0 0.0" fill="#ffffff" fill-rule="evenodd" stroke="none"/>
  </g>
</svg>
