<?xml version="1.0" encoding="UTF-8" standalone="no"?>
<svg xmlns:xlink="http://www.w3.org/1999/xlink" height="57.15px" width="8.7px" xmlns="http://www.w3.org/2000/svg">
  <g transform="matrix(1.0, 0.0, 0.0, 1.0, 0.0, 0.0)">
    <path d="M8.7 48.5 L8.7 48.5 8.7 1.65 Q8.7 1.0 8.5 0.6 8.3 0.2 8.0 0.05 7.65 -0.05 7.25 0.0 6.8 0.15 6.35 0.5 L2.3 3.75 Q1.85 4.15 1.4 4.75 1.0 5.3 0.65 6.0 0.35 6.65 0.15 7.35 0.0 8.05 0.0 8.65 L0.0 55.55 Q0.0 56.15 0.15 56.55 0.35 56.95 0.65 57.1 1.0 57.25 1.4 57.15 1.85 57.05 2.3 56.65 L6.35 53.4 Q6.8 53.0 7.25 52.45 7.65 51.85 8.0 51.2 8.3 50.5 8.5 49.85 8.7 49.15 8.7 48.5" fill="#ffffff" fill-rule="evenodd" stroke="none"/>
  </g>
</svg>
