<?xml version="1.0" encoding="UTF-8" standalone="no"?>
<svg xmlns:xlink="http://www.w3.org/1999/xlink" height="12.75px" width="11.65px" xmlns="http://www.w3.org/2000/svg">
  <g transform="matrix(1.0, 0.0, 0.0, 1.0, 0.0, 0.0)">
    <path d="M5.7 0.1 L5.7 0.1 0.4 3.15 Q0.25 3.25 0.15 3.35 0.05 3.5 0.0 3.65 0.0 3.85 0.0 4.0 0.0 4.2 0.1 4.35 L4.7 12.35 Q4.8 12.5 4.95 12.6 5.1 12.7 5.25 12.75 5.4 12.8 5.6 12.75 5.75 12.75 5.9 12.65 L11.2 9.6 Q11.35 9.5 11.45 9.4 11.55 9.25 11.6 9.05 11.65 8.9 11.6 8.75 11.6 8.55 11.5 8.4 L6.9 0.4 Q6.8 0.25 6.65 0.15 6.5 0.05 6.35 0.0 6.2 0.0 6.0 0.0 5.85 0.0 5.7 0.1" fill="#999999" fill-rule="evenodd" stroke="none"/>
  </g>
</svg>
