<?xml version="1.0" encoding="UTF-8" standalone="no"?>
<svg xmlns:xlink="http://www.w3.org/1999/xlink" height="12.75px" width="11.6px" xmlns="http://www.w3.org/2000/svg">
  <g transform="matrix(1.0, 0.0, 0.0, 1.0, 0.0, 0.0)">
    <path d="M0.4 9.6 L0.4 9.6 5.7 12.65 Q5.85 12.75 6.0 12.75 6.2 12.8 6.35 12.75 6.5 12.7 6.65 12.6 6.8 12.5 6.9 12.35 L11.5 4.35 Q11.6 4.2 11.6 4.0 11.65 3.85 11.6 3.65 11.55 3.5 11.45 3.35 11.35 3.25 11.2 3.15 L5.9 0.1 Q5.75 0.0 5.6 0.0 5.4 0.0 5.25 0.0 5.1 0.05 4.95 0.15 4.8 0.25 4.7 0.4 L0.1 8.4 Q0.0 8.55 0.0 8.75 0.0 8.9 0.0 9.1 0.05 9.25 0.15 9.4 0.25 9.5 0.4 9.6" fill="#999999" fill-rule="evenodd" stroke="none"/>
  </g>
</svg>
