<?xml version="1.0" encoding="UTF-8" standalone="no"?>
<svg xmlns:xlink="http://www.w3.org/1999/xlink" height="42.35px" width="42.35px" xmlns="http://www.w3.org/2000/svg">
  <g transform="matrix(1.0, 0.0, 0.0, 1.0, 0.0, 0.0)">
    <path d="M42.35 21.15 L42.35 21.15 Q42.35 16.8 40.7 12.9 39.05 9.05 36.15 6.2 33.3 3.3 29.4 1.65 25.55 0.0 21.15 0.0 16.8 0.0 12.9 1.65 9.05 3.3 6.2 6.2 3.3 9.05 1.65 12.9 0.0 16.8 0.0 21.15 0.0 25.55 1.65 29.4 3.3 33.3 6.2 36.15 9.05 39.05 12.9 40.7 16.8 42.35 21.15 42.35 25.55 42.35 29.4 40.7 33.3 39.05 36.15 36.15 39.05 33.3 40.7 29.4 42.35 25.55 42.35 21.15" fill="#999999" fill-rule="evenodd" stroke="none"/>
  </g>
</svg>
