<?xml version="1.0" encoding="UTF-8" standalone="no"?>
<svg xmlns:xlink="http://www.w3.org/1999/xlink" height="37.65px" width="37.65px" xmlns="http://www.w3.org/2000/svg">
  <g transform="matrix(1.0, 0.0, 0.0, 1.0, 0.0, 0.0)">
    <path d="M37.65 18.85 Q37.65 14.95 36.15 11.5 34.65 8.05 32.1 5.5 29.55 2.95 26.1 1.45 22.65 -0.05 18.75 -0.05 14.85 -0.05 11.4 1.45 7.95 2.95 5.4 5.5 2.85 8.05 1.35 11.5 -0.15 14.95 -0.15 18.85 -0.15 22.75 1.35 26.2 2.85 29.65 5.4 32.2 7.95 34.75 11.4 36.25 14.85 37.75 18.75 37.75 22.65 37.75 26.1 36.25 29.55 34.75 32.1 32.2 34.65 29.65 36.15 26.2 37.65 22.75 37.65 18.85" fill="#343434" fill-rule="evenodd" stroke="none"/>
  </g>
</svg>
