<?xml version="1.0" encoding="UTF-8" standalone="no"?>
<svg xmlns:xlink="http://www.w3.org/1999/xlink" height="15.65px" width="15.65px" xmlns="http://www.w3.org/2000/svg">
  <g transform="matrix(1.0, 0.0, 0.0, 1.0, 0.0, 0.0)">
    <path d="M15.65 7.85 L15.65 7.85 Q15.65 6.2 15.05 4.75 14.45 3.35 13.35 2.25 12.3 1.2 10.9 0.6 9.45 0.0 7.8 0.0 6.2 0.0 4.75 0.6 3.35 1.2 2.25 2.25 1.2 3.35 0.6 4.75 0.0 6.2 0.0 7.85 0.0 9.45 0.6 10.9 1.2 12.3 2.25 13.35 3.35 14.45 4.75 15.05 6.2 15.65 7.8 15.65 9.45 15.65 10.9 15.05 12.3 14.45 13.35 13.35 14.45 12.3 15.05 10.9 15.65 9.45 15.65 7.85" fill="#999999" fill-rule="evenodd" stroke="none"/>
  </g>
</svg>
