<?xml version="1.0" encoding="UTF-8" standalone="no"?>
<svg xmlns:xlink="http://www.w3.org/1999/xlink" height="3.0px" width="20.0px" xmlns="http://www.w3.org/2000/svg">
  <g transform="matrix(1.0, 0.0, 0.0, 1.0, -510.0, -108.35)">
    <path d="M530.0 109.95 L530.0 109.95 530.0 109.75 Q530.0 109.5 529.85 109.2 529.75 108.95 529.55 108.75 529.35 108.6 529.1 108.45 528.85 108.35 528.55 108.35 L511.4 108.35 Q511.1 108.35 510.85 108.45 510.6 108.6 510.4 108.75 510.2 108.95 510.1 109.2 510.0 109.5 510.0 109.75 L510.0 109.95 Q510.0 110.25 510.1 110.5 510.2 110.75 510.4 110.95 510.6 111.15 510.85 111.25 511.1 111.35 511.4 111.35 L528.55 111.35 Q528.85 111.35 529.1 111.25 529.35 111.15 529.55 110.95 529.75 110.75 529.85 110.5 530.0 110.25 530.0 109.95" fill="#ffffff" fill-rule="evenodd" stroke="none"/>
  </g>
</svg>
