<?xml version="1.0" encoding="UTF-8" standalone="no"?>
<svg xmlns:xlink="http://www.w3.org/1999/xlink" height="30.0px" width="37.45px" xmlns="http://www.w3.org/2000/svg">
  <g transform="matrix(1.0, 0.0, 0.0, 1.0, 0.0, 0.0)">
    <path d="M36.5 0.0 L36.5 0.0 Q36.7 0.0 36.85 0.05 37.05 0.15 37.2 0.25 37.3 0.4 37.4 0.6 37.45 0.75 37.45 0.95 L37.45 29.0 Q37.45 29.2 37.4 29.35 37.3 29.55 37.2 29.7 37.05 29.8 36.85 29.9 36.7 30.0 36.5 30.0 L0.95 30.0 Q0.75 30.0 0.6 29.9 0.4 29.8 0.25 29.7 0.15 29.55 0.05 29.35 0.0 29.2 0.0 29.0 L0.0 0.95 Q0.0 0.75 0.05 0.6 0.15 0.4 0.25 0.25 0.4 0.15 0.6 0.05 0.75 0.0 0.95 0.0 L36.5 0.0 M18.75 27.8 L18.75 27.8 Q19.0 27.8 19.2 27.7 19.4 27.65 19.6 27.45 19.75 27.3 19.85 27.05 19.95 26.85 19.95 26.6 19.95 26.35 19.85 26.15 19.75 25.9 19.6 25.75 19.4 25.55 19.2 25.5 19.0 25.4 18.75 25.4 18.45 25.4 18.25 25.5 18.05 25.55 17.85 25.75 17.7 25.9 17.6 26.15 17.5 26.35 17.5 26.6 17.5 26.85 17.6 27.05 17.7 27.3 17.85 27.45 18.05 27.65 18.25 27.7 18.45 27.8 18.75 27.8 M35.2 22.15 L35.2 22.15 35.2 3.3 Q35.2 3.05 35.15 2.85 35.05 2.7 34.9 2.55 34.75 2.4 34.6 2.3 34.4 2.25 34.15 2.25 L3.3 2.25 Q3.05 2.25 2.85 2.3 2.7 2.4 2.55 2.55 2.4 2.7 2.3 2.85 2.25 3.05 2.25 3.3 L2.25 22.15 Q2.25 22.4 2.3 22.6 2.4 22.75 2.55 22.9 2.7 23.05 2.85 23.15 3.05 23.25 3.3 23.25 L34.15 23.25 Q34.4 23.25 34.6 23.15 34.75 23.05 34.9 22.9 35.05 22.75 35.15 22.6 35.2 22.4 35.2 22.15" fill="#ffffff" fill-rule="evenodd" stroke="none"/>
  </g>
</svg>
