<?xml version="1.0" encoding="UTF-8" standalone="no"?>
<svg xmlns:xlink="http://www.w3.org/1999/xlink" height="54.0px" width="53.95px" xmlns="http://www.w3.org/2000/svg">
  <g transform="matrix(1.0, 0.0, 0.0, 1.0, 0.0, 0.0)">
    <path d="M53.95 27.0 L53.95 27.0 Q53.95 21.4 51.85 16.45 49.75 11.55 46.05 7.9 42.4 4.2 37.5 2.1 32.55 0.0 27.0 0.0 21.4 0.0 16.45 2.1 11.55 4.2 7.9 7.9 4.2 11.55 2.1 16.45 0.0 21.4 0.0 27.0 0.0 32.55 2.1 37.5 4.2 42.4 7.9 46.05 11.55 49.75 16.45 51.85 21.4 54.0 27.0 54.0 32.55 54.0 37.5 51.85 42.4 49.75 46.05 46.05 49.75 42.4 51.85 37.5 53.95 32.55 53.95 27.0" fill="#ffffff" fill-rule="evenodd" stroke="none"/>
  </g>
</svg>
