<?xml version="1.0" encoding="UTF-8" standalone="no"?>
<svg xmlns:xlink="http://www.w3.org/1999/xlink" height="49.75px" width="49.75px" xmlns="http://www.w3.org/2000/svg">
  <g transform="matrix(1.0, 0.0, 0.0, 1.0, 0.0, 0.0)">
    <path d="M49.75 24.9 Q49.75 19.75 47.8 15.2 45.85 10.65 42.45 7.25 39.05 3.85 34.5 1.9 29.95 -0.05 24.8 -0.05 19.65 -0.05 15.1 1.9 10.55 3.85 7.15 7.25 3.75 10.65 1.8 15.2 -0.15 19.75 -0.15 24.9 -0.15 30.05 1.8 34.6 3.75 39.15 7.15 42.55 10.55 45.95 15.1 47.9 19.65 49.85 24.8 49.85 29.95 49.85 34.5 47.9 39.05 45.95 42.45 42.55 45.85 39.15 47.8 34.6 49.75 30.05 49.75 24.9" fill="#1c3d75" fill-rule="evenodd" stroke="none"/>
  </g>
</svg>
