<?xml version="1.0" encoding="UTF-8" standalone="no"?>
<svg xmlns:xlink="http://www.w3.org/1999/xlink" height="45.75px" width="45.75px" xmlns="http://www.w3.org/2000/svg">
  <g transform="matrix(1.0, 0.0, 0.0, 1.0, 0.0, 0.0)">
    <path d="M39.05 6.7 L39.05 6.7 Q42.4 10.05 44.05 14.25 45.75 18.45 45.75 22.85 45.75 27.25 44.05 31.45 42.4 35.7 39.05 39.05 35.7 42.4 31.45 44.05 27.25 45.75 22.85 45.75 18.45 45.75 14.25 44.05 10.05 42.4 6.7 39.05 3.35 35.7 1.65 31.45 0.0 27.25 0.0 22.85 0.0 18.45 1.65 14.25 3.35 10.05 6.7 6.7 10.05 3.35 14.25 1.65 18.45 0.0 22.85 0.0 27.25 0.0 31.45 1.65 35.7 3.3 39.05 6.7 M37.75 7.95 L37.75 7.95 Q34.8 4.95 31.05 3.4 27.3 1.9 23.4 1.8 19.5 1.7 15.7 3.0 11.9 4.35 8.8 7.15 L38.55 36.9 Q41.35 33.8 42.7 30.0 44.05 26.2 43.95 22.3 43.8 18.4 42.3 14.65 40.75 10.95 37.75 7.95 M7.95 37.75 L7.95 37.75 Q10.8 40.6 14.35 42.15 17.95 43.7 21.7 43.9 25.4 44.1 29.1 43.0 32.8 41.85 35.9 39.4 L6.3 9.85 Q3.85 12.95 2.7 16.6 1.6 20.3 1.8 24.05 2.0 27.8 3.55 31.35 5.1 34.9 7.95 37.75" fill="#ffffff" fill-rule="evenodd" stroke="none"/>
  </g>
</svg>
