<?xml version="1.0" encoding="UTF-8" standalone="no"?>
<svg xmlns:xlink="http://www.w3.org/1999/xlink" height="32.3px" width="32.95px" xmlns="http://www.w3.org/2000/svg">
  <g transform="matrix(1.0, 0.0, 0.0, 1.0, 0.0, 0.0)">
    <path d="M32.9 0.6 L32.9 0.6 32.95 0.6 32.9 0.75 Q32.9 0.75 32.9 0.75 32.95 0.75 32.95 0.75 32.95 0.75 32.95 0.75 32.95 0.8 32.95 0.8 32.95 0.8 32.95 0.8 32.95 0.8 32.95 0.85 32.9 0.85 32.9 0.85 32.9 0.85 32.9 0.85 L31.65 27.1 31.65 27.1 Q31.6 27.9 31.0 28.8 30.4 29.7 28.75 30.45 27.1 31.25 24.15 31.75 21.2 32.3 16.45 32.3 11.7 32.3 8.75 31.75 5.8 31.25 4.15 30.45 2.5 29.7 1.9 28.8 1.3 27.9 1.25 27.1 L1.25 27.1 0.0 0.85 Q0.0 0.85 0.0 0.85 0.0 0.85 0.0 0.85 0.0 0.8 0.0 0.8 0.0 0.8 0.0 0.8 0.0 0.8 0.0 0.75 0.0 0.75 0.0 0.75 0.0 0.75 0.0 0.75 0.0 0.75 0.0 0.75 L0.0 0.6 0.0 0.6 Q0.0 0.55 0.05 0.45 0.05 0.35 0.1 0.3 0.15 0.2 0.25 0.15 0.3 0.05 0.35 0.0 1.0 0.6 2.45 1.0 3.95 1.35 6.05 1.55 8.2 1.75 10.85 1.85 13.5 1.9 16.45 1.9 19.4 1.9 22.05 1.85 24.7 1.75 26.85 1.55 28.95 1.35 30.45 1.0 31.9 0.6 32.55 0.0 32.6 0.05 32.7 0.15 32.75 0.2 32.8 0.3 32.85 0.35 32.85 0.45 32.9 0.55 32.9 0.6" fill="#ffffff" fill-rule="evenodd" stroke="none"/>
  </g>
</svg>
