<?xml version="1.0" encoding="UTF-8" standalone="no"?>
<svg xmlns:xlink="http://www.w3.org/1999/xlink" height="19.2px" width="37.45px" xmlns="http://www.w3.org/2000/svg">
  <g transform="matrix(1.0, 0.0, 0.0, 1.0, 0.0, 0.0)">
    <path d="M26.55 8.2 L26.55 8.2 Q28.95 8.45 30.95 8.85 32.95 9.25 34.4 9.7 35.85 10.2 36.65 10.8 37.45 11.35 37.45 12.0 L37.45 15.05 Q37.45 15.25 37.3 15.5 37.2 15.75 36.95 15.95 36.75 16.2 36.4 16.4 36.05 16.6 35.65 16.8 34.55 17.35 32.8 17.75 31.05 18.2 28.85 18.5 26.65 18.85 24.1 19.0 21.5 19.2 18.7 19.2 15.9 19.2 13.3 19.0 10.75 18.85 8.55 18.5 6.35 18.2 4.6 17.75 2.85 17.35 1.75 16.8 1.3 16.6 1.0 16.4 0.65 16.2 0.45 15.95 0.2 15.75 0.1 15.5 0.0 15.25 0.0 15.05 L0.0 12.0 Q0.0 11.35 0.7 10.8 1.45 10.25 2.8 9.8 4.15 9.3 6.05 8.9 7.9 8.55 10.2 8.3 L10.2 2.0 Q10.2 1.6 10.35 1.25 10.5 0.85 10.8 0.6 11.05 0.3 11.45 0.15 11.8 0.0 12.2 0.0 L24.5 0.0 Q24.9 0.0 25.3 0.15 25.65 0.3 25.95 0.6 26.2 0.85 26.35 1.25 26.55 1.6 26.55 2.0 L26.55 8.2 M14.1 7.95 L14.1 7.95 Q14.65 7.95 15.2 7.9 15.8 7.9 16.35 7.85 16.95 7.85 17.5 7.85 18.1 7.85 18.7 7.85 19.25 7.85 19.85 7.85 20.4 7.85 20.95 7.85 21.5 7.9 22.05 7.9 22.6 7.9 23.15 7.95 L23.15 5.4 Q23.15 5.0 23.1 4.65 23.05 4.25 23.05 4.0 23.0 3.7 22.9 3.55 22.85 3.4 22.8 3.4 22.7 3.4 22.5 3.4 22.25 3.4 21.95 3.4 21.6 3.4 21.2 3.4 20.8 3.4 20.4 3.4 L16.3 3.4 Q15.9 3.4 15.5 3.4 15.1 3.4 14.75 3.4 14.45 3.4 14.25 3.4 14.0 3.4 13.95 3.4 13.85 3.4 13.8 3.55 13.75 3.7 13.7 4.0 13.65 4.25 13.6 4.65 13.6 5.0 13.6 5.4 L13.6 8.0 14.1 7.95" fill="#ffffff" fill-rule="evenodd" stroke="none"/>
  </g>
</svg>
