<?xml version="1.0" encoding="UTF-8" standalone="no"?>
<svg xmlns:xlink="http://www.w3.org/1999/xlink" height="56.0px" width="50.15px" xmlns="http://www.w3.org/2000/svg">
  <g transform="matrix(1.0, 0.0, 0.0, 1.0, 0.0, 0.0)">
    <path d="M32.85 10.35 L32.85 10.35 26.55 17.05 44.05 16.5 42.55 0.0 37.0 5.95 Q34.75 4.7 32.35 4.0 29.95 3.25 27.45 3.0 24.95 2.75 22.45 3.0 19.95 3.3 17.55 4.05 13.4 5.35 10.05 7.9 6.65 10.4 4.35 13.8 2.05 17.2 0.9 21.2 -0.2 25.25 0.05 29.6 L5.85 29.25 Q5.6 25.9 6.5 22.8 7.4 19.7 9.15 17.1 10.95 14.5 13.5 12.55 16.1 10.6 19.3 9.6 20.95 9.05 22.7 8.85 24.4 8.65 26.15 8.75 27.85 8.85 29.55 9.25 31.25 9.65 32.85 10.35 M32.65 51.95 L32.65 51.95 Q36.8 50.6 40.15 48.1 43.5 45.55 45.8 42.15 48.15 38.8 49.3 34.75 50.4 30.7 50.15 26.35 L44.35 26.75 Q44.55 30.05 43.65 33.2 42.8 36.3 41.0 38.9 39.25 41.5 36.65 43.4 34.05 45.35 30.9 46.35 29.2 46.9 27.45 47.1 25.75 47.35 24.0 47.25 22.3 47.15 20.6 46.75 18.95 46.3 17.35 45.6 L23.6 38.9 6.15 39.5 7.6 56.0 13.2 50.05 Q14.6 50.8 16.05 51.35 17.5 51.9 19.0 52.3 20.5 52.7 22.0 52.9 23.55 53.1 25.1 53.1 26.05 53.1 27.0 53.0 27.95 52.95 28.9 52.8 29.85 52.65 30.75 52.45 31.7 52.2 32.65 51.95" fill="#809cbe" fill-rule="evenodd" stroke="none"/>
  </g>
</svg>
