<?xml version="1.0" encoding="UTF-8" standalone="no"?>
<svg xmlns:xlink="http://www.w3.org/1999/xlink" height="51.6px" width="36.25px" xmlns="http://www.w3.org/2000/svg">
  <g transform="matrix(1.0, 0.0, 0.0, 1.0, 0.0, 0.0)">
    <path d="M0.0 17.2 L0.0 17.2 9.0 17.2 Q9.0 14.8 9.6 12.85 10.15 10.9 11.35 9.55 12.5 8.15 14.3 7.4 16.1 6.7 18.6 6.7 19.65 6.7 20.95 7.1 22.3 7.55 23.5 8.45 24.7 9.4 25.5 10.9 26.35 12.4 26.35 14.5 26.35 16.3 25.8 17.55 25.3 18.85 24.4 19.85 23.5 20.85 22.35 21.7 21.2 22.6 19.95 23.55 18.35 24.75 17.2 26.0 16.05 27.25 15.25 28.85 14.5 30.45 14.15 32.65 13.75 34.85 13.75 37.9 L22.3 37.9 Q22.3 35.35 22.85 33.6 23.35 31.85 24.3 30.55 25.2 29.2 26.5 28.15 27.75 27.1 29.3 25.95 30.55 24.95 31.8 23.95 33.05 22.95 34.05 21.6 35.05 20.3 35.65 18.55 36.25 16.75 36.25 14.25 36.25 10.8 34.9 8.15 33.55 5.5 31.25 3.7 28.9 1.85 25.75 0.9 22.6 0.0 19.0 0.0 14.6 0.0 11.05 1.2 7.55 2.45 5.1 4.7 2.6 6.95 1.3 10.15 0.0 13.3 0.0 17.2 M12.55 42.8 L12.55 42.8 12.55 51.6 23.2 51.6 23.2 42.8 12.55 42.8" fill="#809cbe" fill-rule="evenodd" stroke="none"/>
  </g>
</svg>
