<?xml version="1.0" encoding="UTF-8" standalone="no"?>
<svg xmlns:xlink="http://www.w3.org/1999/xlink" height="22.6px" width="25.0px" xmlns="http://www.w3.org/2000/svg">
  <g transform="matrix(1.0, 0.0, 0.0, 1.0, 0.0, 0.0)">
    <path d="M0.0 22.6 L0.0 22.6 8.55 22.6 8.55 12.55 15.05 22.6 25.0 22.6 17.7 12.25 Q18.65 12.0 19.5 11.4 20.3 10.85 20.9 10.05 21.5 9.25 21.8 8.3 22.15 7.3 22.15 6.25 22.15 4.95 21.65 3.8 21.2 2.65 20.35 1.8 19.5 0.95 18.35 0.5 17.25 0.0 15.95 0.0 L0.0 0.0 0.0 22.6 M13.6 10.7 L13.6 10.7 8.55 10.7 8.55 3.5 13.6 3.5 13.6 10.7" fill="#f49b0b" fill-rule="evenodd" stroke="none"/>
  </g>
</svg>
