<?xml version="1.0" encoding="UTF-8" standalone="no"?>
<svg xmlns:xlink="http://www.w3.org/1999/xlink" height="4.6px" width="4.6px" xmlns="http://www.w3.org/2000/svg">
  <g transform="matrix(1.0, 0.0, 0.0, 1.0, 0.0, 0.0)">
    <path d="M4.6 2.3 Q4.6 1.8 4.4 1.4 4.2 1.0 3.9 0.7 3.6 0.4 3.2 0.2 2.8 0.0 2.3 0.0 1.8 0.0 1.4 0.2 1.0 0.4 0.7 0.7 0.4 1.0 0.2 1.4 0.0 1.8 0.0 2.3 0.0 2.8 0.2 3.2 0.4 3.6 0.7 3.9 1.0 4.2 1.4 4.4 1.8 4.6 2.3 4.6 2.8 4.6 3.2 4.4 3.6 4.2 3.9 3.9 4.2 3.6 4.4 3.2 4.6 2.8 4.6 2.3" fill="#f49b0b" fill-rule="evenodd" stroke="none"/>
  </g>
</svg>
