<?xml version="1.0" encoding="UTF-8" standalone="no"?>
<svg xmlns:xlink="http://www.w3.org/1999/xlink" height="23.9px" width="23.7px" xmlns="http://www.w3.org/2000/svg">
  <g transform="matrix(1.0, 0.0, 0.0, 1.0, 0.0, 0.0)">
    <path d="M23.7 11.95 L23.7 11.95 Q23.7 14.45 22.75 16.6 21.8 18.8 20.2 20.4 18.6 22.05 16.45 23.0 14.3 23.9 11.85 23.9 9.35 23.9 7.2 23.0 5.05 22.05 3.45 20.4 1.85 18.8 0.9 16.6 0.0 14.45 0.0 11.95 0.0 9.45 0.9 7.3 1.85 5.1 3.45 3.5 5.05 1.85 7.2 0.9 9.35 0.0 11.85 0.0 14.3 0.0 16.45 0.9 18.6 1.85 20.2 3.5 21.8 5.1 22.75 7.3 23.7 9.45 23.7 11.95 M9.15 19.7 L9.15 19.7 14.3 19.7 14.3 3.85 9.15 3.9 9.15 19.7" fill="#f49b0b" fill-rule="evenodd" stroke="none"/>
  </g>
</svg>
