<?xml version="1.0" encoding="UTF-8" standalone="no"?>
<svg xmlns:xlink="http://www.w3.org/1999/xlink" height="23.15px" width="23.15px" xmlns="http://www.w3.org/2000/svg">
  <g transform="matrix(1.0, 0.0, 0.0, 1.0, 0.0, 0.0)">
    <path d="M13.2 0.0 L13.2 0.0 Q13.5 0.0 14.1 0.2 14.7 0.35 15.5 0.75 16.35 1.1 17.35 1.8 18.35 2.5 19.45 3.6 20.25 4.4 20.9 5.2 21.55 6.0 22.05 6.8 22.5 7.6 22.8 8.35 23.05 9.15 23.15 9.8 L9.9 23.15 Q9.9 23.15 9.7 22.85 9.5 22.55 9.25 22.0 9.0 21.45 8.8 20.65 8.65 19.85 8.7 18.8 7.4 18.2 6.6 17.6 5.8 17.0 5.3 16.45 4.85 15.85 4.55 15.3 4.3 14.8 4.05 14.3 2.95 14.3 2.15 14.2 1.4 14.05 0.9 13.85 0.4 13.65 0.2 13.5 0.0 13.35 0.0 13.35 L13.2 0.0" fill="#ffffff" fill-rule="evenodd" stroke="none"/>
  </g>
</svg>
