<?xml version="1.0" encoding="UTF-8" standalone="no"?>
<svg xmlns:xlink="http://www.w3.org/1999/xlink" height="13.3px" width="13.65px" xmlns="http://www.w3.org/2000/svg">
  <g transform="matrix(1.0, 0.0, 0.0, 1.0, 0.0, 0.0)">
    <path d="M11.0 2.15 L11.0 2.15 Q12.45 3.3 13.05 4.5 13.65 5.65 13.65 6.7 13.65 7.75 13.25 8.6 12.85 9.45 12.3 10.05 12.2 10.1 11.9 10.5 11.6 10.85 11.25 11.3 10.85 11.8 10.45 12.35 10.05 12.9 9.7 13.3 9.65 12.85 9.55 12.2 9.4 11.5 9.05 10.7 8.7 9.9 8.05 9.0 7.45 8.05 6.4 7.05 5.4 6.05 4.45 5.4 3.5 4.8 2.65 4.4 1.8 4.05 1.1 3.9 0.45 3.8 0.0 3.75 0.4 3.4 0.85 3.05 1.3 2.65 1.75 2.3 2.2 1.95 2.5 1.65 2.85 1.35 3.05 1.2 3.55 0.7 4.3 0.35 5.1 0.0 6.05 0.0 7.05 0.0 8.3 0.45 9.55 0.95 11.0 2.15" fill="#ffffff" fill-rule="evenodd" stroke="none"/>
  </g>
</svg>
