<?xml version="1.0" encoding="UTF-8" standalone="no"?>
<svg xmlns:xlink="http://www.w3.org/1999/xlink" height="15.2px" width="15.15px" xmlns="http://www.w3.org/2000/svg">
  <g transform="matrix(1.0, 0.0, 0.0, 1.0, 0.0, 0.0)">
    <path d="M9.3 0.55 L9.3 0.55 Q9.6 1.55 10.25 2.35 10.85 3.2 11.55 3.8 12.25 4.35 12.9 4.75 13.6 5.1 14.0 5.25 13.95 5.75 14.15 6.35 14.35 7.0 14.55 7.55 14.8 8.15 14.95 8.5 15.15 8.9 15.15 8.9 L0.0 15.2 6.05 0.0 Q6.05 0.0 6.2 0.05 6.35 0.15 6.7 0.25 7.05 0.4 7.7 0.45 8.3 0.55 9.3 0.55" fill="#ffffff" fill-rule="evenodd" stroke="none"/>
  </g>
</svg>
