<?xml version="1.0" encoding="UTF-8" standalone="no"?>
<svg xmlns:xlink="http://www.w3.org/1999/xlink" height="11.25px" width="11.25px" xmlns="http://www.w3.org/2000/svg">
  <g transform="matrix(1.0, 0.0, 0.0, 1.0, 0.0, 0.0)">
    <path d="M1.5 0.0 L1.5 0.0 Q1.5 0.0 2.0 0.0 2.5 0.05 3.4 0.4 4.25 0.7 5.45 1.45 6.65 2.15 8.0 3.5 9.4 4.9 10.05 6.05 10.75 7.2 11.0 8.05 11.25 8.9 11.25 9.35 11.2 9.8 11.2 9.8 L9.75 11.25 Q9.7 10.65 9.45 9.95 9.2 9.25 8.75 8.5 8.3 7.7 7.7 6.9 7.05 6.1 6.25 5.3 5.0 4.05 3.85 3.3 2.7 2.5 1.85 2.1 1.0 1.7 0.5 1.6 0.0 1.45 0.0 1.45 L1.5 0.0" fill="#ffffff" fill-rule="evenodd" stroke="none"/>
  </g>
</svg>
