<?xml version="1.0" encoding="UTF-8" standalone="no"?>
<svg xmlns:xlink="http://www.w3.org/1999/xlink" height="10.75px" width="10.75px" xmlns="http://www.w3.org/2000/svg">
  <g transform="matrix(1.0, 0.0, 0.0, 1.0, 0.0, 0.0)">
    <path d="M1.4 0.0 L1.4 0.0 Q1.4 0.0 1.9 0.0 2.4 0.05 3.25 0.35 4.1 0.65 5.2 1.35 6.35 2.05 7.65 3.35 9.0 4.7 9.65 5.8 10.3 6.9 10.5 7.7 10.75 8.5 10.75 8.95 10.75 9.4 10.75 9.4 L9.35 10.75 Q9.3 10.2 9.05 9.55 8.8 8.85 8.35 8.15 7.95 7.4 7.35 6.6 6.75 5.85 6.0 5.1 4.75 3.85 3.7 3.15 2.6 2.4 1.75 2.0 0.95 1.65 0.45 1.5 0.0 1.4 0.0 1.4 L1.4 0.0" fill="#ffffff" fill-rule="evenodd" stroke="none"/>
  </g>
</svg>
