<?xml version="1.0" encoding="UTF-8" standalone="no"?>
<svg xmlns:xlink="http://www.w3.org/1999/xlink" height="32.0px" width="32.0px" xmlns="http://www.w3.org/2000/svg">
  <g transform="matrix(1.0, 0.0, 0.0, 1.0, 0.0, 0.0)">
    <path d="M16.0 0.0 L16.0 0.0 Q19.3 0.0 22.2 1.25 25.1 2.5 27.3 4.65 29.45 6.85 30.7 9.75 32.0 12.65 32.0 15.95 32.0 19.3 30.7 22.2 29.45 25.1 27.3 27.3 25.1 29.45 22.2 30.7 19.3 32.0 16.0 32.0 12.65 32.0 9.75 30.7 6.85 29.45 4.65 27.3 2.5 25.1 1.25 22.2 0.0 19.3 0.0 15.95 0.0 12.65 1.25 9.75 2.5 6.85 4.65 4.65 6.85 2.5 9.75 1.25 12.65 0.0 16.0 0.0 M18.75 26.9 L18.75 26.9 18.75 13.6 13.2 13.6 13.2 26.9 18.75 26.9 M16.0 11.25 L16.0 11.25 Q16.6 11.25 17.2 11.0 17.75 10.75 18.15 10.35 18.6 9.9 18.85 9.35 19.1 8.8 19.1 8.15 19.1 7.5 18.85 6.95 18.6 6.4 18.15 5.95 17.75 5.55 17.2 5.3 16.6 5.05 16.0 5.05 15.35 5.05 14.75 5.3 14.2 5.55 13.8 5.95 13.35 6.4 13.1 6.95 12.85 7.5 12.85 8.15 12.85 8.8 13.1 9.35 13.35 9.9 13.8 10.35 14.2 10.75 14.75 11.0 15.35 11.25 16.0 11.25" fill="#00682c" fill-rule="evenodd" stroke="none"/>
  </g>
</svg>
