<?xml version="1.0" encoding="UTF-8" standalone="no"?>
<svg xmlns:xlink="http://www.w3.org/1999/xlink" height="64.0px" width="64.0px" xmlns="http://www.w3.org/2000/svg">
  <g transform="matrix(1.0, 0.0, 0.0, 1.0, 0.0, 0.0)">
    <path d="M31.95 0.0 L31.95 0.0 Q38.6 0.0 44.4 2.5 50.25 5.0 54.6 9.35 58.95 13.7 61.45 19.55 64.0 25.35 64.0 32.0 64.0 38.6 61.45 44.4 58.95 50.25 54.6 54.6 50.25 58.95 44.4 61.45 38.6 64.0 31.95 64.0 25.35 64.0 19.55 61.45 13.7 58.95 9.35 54.6 5.0 50.25 2.5 44.4 0.0 38.6 0.0 32.0 0.0 25.35 2.5 19.55 5.0 13.7 9.35 9.35 13.7 5.0 19.55 2.5 25.35 0.0 31.95 0.0 M31.95 59.35 L31.95 59.35 Q37.65 59.35 42.6 57.2 47.6 55.05 51.3 51.35 55.05 47.6 57.2 42.65 59.35 37.65 59.35 32.0 59.35 26.3 57.2 21.35 55.05 16.35 51.3 12.65 47.6 8.9 42.6 6.75 37.65 4.6 31.95 4.6 26.3 4.6 21.35 6.75 16.35 8.9 12.6 12.65 8.9 16.35 6.75 21.35 4.6 26.3 4.6 32.0 4.6 37.65 6.75 42.65 8.9 47.6 12.6 51.35 16.35 55.05 21.35 57.2 26.3 59.35 31.95 59.35" fill="#178e02" fill-rule="evenodd" stroke="none"/>
  </g>
</svg>
