<?xml version="1.0" encoding="UTF-8" standalone="no"?>
<svg xmlns:xlink="http://www.w3.org/1999/xlink" height="54.95px" width="54.95px" xmlns="http://www.w3.org/2000/svg">
  <g transform="matrix(1.0, 0.0, 0.0, 1.0, 0.0, 0.0)">
    <path d="M54.3 46.4 L54.3 46.4 Q54.8 46.85 54.95 47.6 55.05 48.35 54.85 49.2 54.6 50.1 54.1 51.0 53.55 51.9 52.7 52.7 51.9 53.55 51.0 54.1 50.1 54.6 49.2 54.85 48.35 55.05 47.6 54.95 46.85 54.8 46.4 54.3 L36.0 43.95 Q35.65 43.6 35.5 43.15 35.35 42.65 35.35 42.1 35.4 41.55 35.55 40.95 35.75 40.35 36.05 39.75 L31.5 35.2 Q28.65 37.4 25.25 38.4 21.85 39.4 18.4 39.2 14.95 39.0 11.65 37.55 8.35 36.15 5.75 33.5 2.85 30.65 1.4 27.0 0.0 23.4 0.0 19.6 0.0 15.85 1.4 12.2 2.85 8.6 5.75 5.75 8.6 2.85 12.2 1.4 15.85 0.0 19.6 0.0 23.4 0.0 27.0 1.4 30.6 2.85 33.5 5.75 36.15 8.35 37.55 11.65 39.0 14.95 39.2 18.4 39.4 21.85 38.4 25.25 37.4 28.65 35.2 31.5 L39.75 36.05 Q40.35 35.7 40.95 35.55 41.55 35.4 42.1 35.35 42.65 35.35 43.15 35.5 43.6 35.65 43.95 36.0 L54.3 46.4 M8.65 30.6 L8.65 30.6 Q10.9 32.85 13.75 34.0 16.65 35.1 19.6 35.1 22.6 35.1 25.45 34.0 28.3 32.85 30.6 30.6 32.85 28.3 34.0 25.45 35.1 22.6 35.1 19.6 35.1 16.65 34.0 13.8 32.85 10.9 30.6 8.65 28.3 6.4 25.45 5.25 22.6 4.1 19.6 4.1 16.65 4.1 13.8 5.25 10.9 6.35 8.65 8.65 6.4 10.9 5.25 13.8 4.1 16.65 4.1 19.6 4.1 22.6 5.25 25.45 6.4 28.3 8.65 30.6" fill="#ffffff" fill-rule="evenodd" stroke="none"/>
  </g>
</svg>
