<?xml version="1.0" encoding="UTF-8" standalone="no"?>
<svg xmlns:xlink="http://www.w3.org/1999/xlink" height="6.35px" width="7.1px" xmlns="http://www.w3.org/2000/svg">
  <g transform="matrix(1.0, 0.0, 0.0, 1.0, 0.0, 0.0)">
    <path d="M6.0 0.65 L6.0 0.65 Q6.15 0.75 6.25 0.85 6.35 0.95 6.45 1.1 6.55 1.2 6.65 1.35 6.7 1.5 6.8 1.65 6.85 1.8 6.9 1.95 6.95 2.15 7.0 2.3 7.05 2.5 7.05 2.7 7.1 2.95 7.1 3.15 7.1 3.4 7.05 3.6 7.05 3.8 7.0 4.0 6.95 4.2 6.9 4.35 6.85 4.5 6.8 4.7 6.7 4.85 6.65 4.95 6.55 5.1 6.45 5.25 6.35 5.35 6.25 5.45 6.15 5.6 6.0 5.65 5.9 5.75 5.75 5.85 5.65 5.95 5.5 6.0 5.35 6.05 5.2 6.1 5.05 6.15 4.9 6.2 4.75 6.25 4.55 6.3 4.4 6.3 4.25 6.35 4.05 6.35 3.9 6.35 3.7 6.35 3.55 6.35 3.35 6.35 3.15 6.35 3.0 6.35 2.8 6.35 2.65 6.3 2.5 6.3 2.3 6.25 2.15 6.2 2.0 6.15 1.85 6.1 1.7 6.05 1.55 6.0 1.4 5.95 1.25 5.85 1.15 5.75 1.0 5.65 0.9 5.6 0.8 5.45 0.7 5.35 0.6 5.25 0.5 5.1 0.4 4.95 0.3 4.85 0.25 4.7 0.2 4.5 0.15 4.35 0.1 4.2 0.05 4.0 0.0 3.8 0.0 3.6 0.0 3.4 0.0 3.15 0.0 2.95 0.0 2.7 0.0 2.5 0.05 2.3 0.1 2.15 0.15 1.95 0.2 1.8 0.25 1.65 0.3 1.5 0.4 1.35 0.5 1.2 0.6 1.1 0.7 0.95 0.8 0.85 0.9 0.75 1.0 0.65 1.15 0.55 1.25 0.45 1.4 0.4 1.55 0.35 1.7 0.25 1.85 0.2 2.0 0.15 2.15 0.1 2.3 0.1 2.5 0.05 2.65 0.05 2.8 0.0 3.0 0.0 3.15 0.0 3.35 0.0 3.55 0.0 3.7 0.0 3.9 0.0 4.05 0.0 4.25 0.0 4.4 0.05 4.55 0.05 4.75 0.1 4.9 0.1 5.05 0.15 5.2 0.2 5.35 0.25 5.5 0.35 5.65 0.4 5.75 0.45 5.9 0.55 6.0 0.65" fill="#333333" fill-rule="evenodd" stroke="none"/>
  </g>
</svg>
