<?xml version="1.0" encoding="UTF-8" standalone="no"?>
<svg xmlns:xlink="http://www.w3.org/1999/xlink" height="80.0px" width="52.0px" xmlns="http://www.w3.org/2000/svg">
  <g transform="matrix(1.0, 0.0, 0.0, 1.0, 0.0, 0.0)">
    <path d="M37.1 31.1 L37.1 31.1 Q36.4 31.85 35.8 32.65 35.15 33.45 34.7 34.3 34.25 35.2 33.95 36.15 33.65 37.15 33.55 38.25 33.45 39.3 33.45 40.35 33.45 41.4 33.6 42.45 33.75 43.45 34.1 44.45 34.45 45.4 35.1 46.3 35.6 47.0 36.15 47.65 36.65 48.3 37.25 48.9 37.8 49.55 38.4 50.15 38.95 50.8 39.55 51.4 41.05 52.95 42.2 54.65 43.35 56.35 44.2 58.25 45.05 60.1 45.6 62.15 46.15 64.15 46.4 66.35 46.5 67.05 46.55 67.75 46.6 68.4 46.7 69.15 46.75 69.85 46.8 70.55 46.85 71.25 46.9 72.0 L52.0 72.0 52.0 80.0 0.0 80.0 0.0 72.0 5.05 72.0 Q5.1 71.25 5.15 70.55 5.2 69.85 5.25 69.15 5.35 68.4 5.4 67.75 5.45 67.05 5.55 66.35 5.8 64.15 6.35 62.15 6.9 60.1 7.75 58.25 8.6 56.35 9.75 54.65 10.9 52.95 12.4 51.4 13.0 50.8 13.55 50.15 14.15 49.55 14.7 48.9 15.3 48.3 15.8 47.65 16.35 47.0 16.85 46.3 17.5 45.4 17.85 44.45 18.2 43.45 18.35 42.45 18.5 41.4 18.5 40.35 18.5 39.3 18.4 38.25 18.3 37.15 18.0 36.15 17.7 35.2 17.25 34.3 16.8 33.45 16.15 32.65 15.55 31.85 14.85 31.1 14.6 30.85 14.35 30.6 14.15 30.35 13.9 30.15 13.7 29.9 13.45 29.65 13.2 29.4 13.0 29.2 11.15 27.45 9.8 25.45 8.5 23.45 7.55 21.25 6.6 19.0 6.05 16.65 5.55 14.25 5.3 11.65 5.3 11.2 5.25 10.75 5.2 10.3 5.2 9.85 5.15 9.4 5.15 8.9 5.1 8.45 5.1 8.0 L0.0 8.0 0.0 0.0 52.0 0.0 52.0 8.0 46.85 8.0 Q46.85 8.45 46.8 8.9 46.8 9.4 46.75 9.85 46.75 10.3 46.7 10.75 46.65 11.2 46.65 11.65 46.4 14.25 45.9 16.65 45.35 19.0 44.4 21.25 43.45 23.45 42.15 25.45 40.8 27.45 38.95 29.2 38.75 29.4 38.5 29.65 38.25 29.9 38.05 30.15 37.8 30.35 37.6 30.6 37.35 30.85 37.1 31.1 M33.65 51.95 L33.65 51.95 Q31.9 50.1 30.85 48.1 29.8 46.1 29.35 43.95 28.9 41.8 29.0 39.5 29.1 37.2 29.7 34.75 29.9 33.9 30.25 33.05 30.55 32.25 31.0 31.5 31.45 30.75 31.95 30.05 32.5 29.35 33.05 28.7 33.45 28.3 33.8 27.9 34.15 27.5 34.55 27.1 34.9 26.7 35.3 26.3 35.7 25.9 36.05 25.5 37.55 24.05 38.6 22.45 39.7 20.8 40.45 19.0 41.15 17.2 41.6 15.2 42.0 13.25 42.15 11.2 42.2 10.8 42.25 10.4 42.25 10.0 42.3 9.6 42.3 9.2 42.3 8.8 42.35 8.4 42.35 8.0 L9.6 8.0 Q9.6 8.4 9.65 8.8 9.65 9.2 9.65 9.6 9.7 10.0 9.7 10.4 9.75 10.8 9.8 11.2 9.95 13.25 10.35 15.2 10.8 17.2 11.5 19.0 12.25 20.8 13.35 22.45 14.4 24.05 15.9 25.5 16.25 25.9 16.65 26.3 17.05 26.7 17.4 27.1 17.8 27.5 18.15 27.9 18.5 28.3 18.9 28.7 19.45 29.35 20.0 30.05 20.5 30.75 20.95 31.5 21.4 32.25 21.7 33.05 22.05 33.9 22.25 34.75 22.85 37.2 22.95 39.5 23.05 41.8 22.6 43.95 22.15 46.1 21.1 48.1 20.05 50.1 18.3 51.95 18.05 52.25 17.8 52.5 17.5 52.8 17.25 53.05 17.0 53.35 16.7 53.65 16.45 53.9 16.15 54.2 14.9 55.4 13.9 56.75 12.85 58.1 12.1 59.6 11.35 61.1 10.85 62.7 10.35 64.35 10.1 66.15 10.0 66.85 9.9 67.6 9.85 68.3 9.8 69.05 9.7 69.75 9.65 70.5 9.6 71.25 9.55 72.0 L42.4 72.0 Q42.35 71.25 42.3 70.5 42.25 69.75 42.15 69.05 42.1 68.3 42.05 67.6 41.95 66.85 41.85 66.15 41.6 64.35 41.1 62.7 40.6 61.1 39.85 59.6 39.1 58.1 38.05 56.75 37.05 55.4 35.8 54.2 35.5 53.9 35.25 53.65 34.95 53.35 34.7 53.05 34.45 52.8 34.15 52.5 33.9 52.25 33.65 51.95" fill="#f9cb7f" fill-rule="evenodd" stroke="none"/>
  </g>
</svg>
