<?xml version="1.0" encoding="UTF-8" standalone="no"?>
<svg xmlns:xlink="http://www.w3.org/1999/xlink" height="21.15px" width="24.2px" xmlns="http://www.w3.org/2000/svg">
  <g transform="matrix(1.0, 0.0, 0.0, 1.0, 0.0, 0.0)">
    <path d="M17.85 12.25 L17.85 12.25 Q17.65 12.45 17.45 12.65 17.25 12.85 17.05 13.1 16.85 13.3 16.6 13.55 16.4 13.8 16.2 14.05 15.8 14.45 15.45 14.9 15.1 15.35 14.75 15.75 14.45 16.2 14.15 16.65 13.9 17.1 13.6 17.55 13.35 17.95 13.15 18.4 12.9 18.85 12.75 19.3 12.55 19.75 12.35 20.2 12.2 20.7 12.1 21.15 11.95 20.7 11.8 20.2 11.6 19.75 11.45 19.3 11.25 18.85 11.0 18.4 10.8 17.95 10.55 17.55 10.25 17.1 10.0 16.65 9.7 16.2 9.4 15.75 9.05 15.35 8.7 14.9 8.35 14.45 7.95 14.05 7.75 13.8 7.55 13.55 7.3 13.3 7.1 13.1 6.9 12.85 6.7 12.65 6.5 12.45 6.3 12.25 6.1 12.0 5.9 11.8 5.75 11.6 5.55 11.45 5.35 11.25 5.15 11.05 5.0 10.85 4.8 10.65 4.3 10.15 3.85 9.65 3.35 9.1 2.95 8.5 2.55 7.95 2.2 7.3 1.85 6.7 1.55 6.0 1.25 5.35 1.0 4.65 0.75 3.95 0.55 3.2 0.35 2.4 0.2 1.6 0.05 0.8 0.0 0.0 0.0 0.0 1.0 0.75 2.05 1.5 3.75 2.4 5.45 3.3 7.6 4.05 9.8 4.8 12.1 4.8 14.35 4.8 16.55 4.05 18.7 3.3 20.4 2.4 22.1 1.5 23.15 0.75 24.2 0.0 24.2 0.0 24.1 0.8 23.95 1.6 23.8 2.4 23.6 3.2 23.4 3.95 23.15 4.65 22.9 5.35 22.6 6.0 22.3 6.7 21.95 7.3 21.6 7.95 21.2 8.5 20.8 9.1 20.3 9.65 19.85 10.15 19.35 10.65 19.15 10.85 19.0 11.05 18.8 11.25 18.6 11.45 18.4 11.6 18.25 11.8 18.05 12.0 17.85 12.25" fill="#f9cb7f" fill-rule="evenodd" stroke="none"/>
  </g>
</svg>
