<?xml version="1.0" encoding="UTF-8" standalone="no"?>
<svg xmlns:xlink="http://www.w3.org/1999/xlink" height="58.65px" width="66.05px" xmlns="http://www.w3.org/2000/svg">
  <g transform="matrix(1.0, 0.0, 0.0, 1.0, 0.0, 0.0)">
    <path d="M34.9 40.4 L34.9 40.4 31.1 40.4 29.45 25.4 29.45 17.5 36.55 17.5 36.55 25.4 34.9 40.4 M36.25 43.55 L36.25 43.55 36.25 50.0 29.8 50.0 29.8 43.55 36.25 43.55 M60.55 58.65 L60.55 58.65 5.5 58.65 Q4.35 58.65 3.35 58.2 2.3 57.8 1.6 57.05 0.85 56.3 0.4 55.3 0.0 54.3 0.0 53.15 0.0 52.8 0.0 52.45 0.05 52.1 0.15 51.75 0.25 51.4 0.35 51.05 0.5 50.7 0.7 50.4 L28.2 2.75 Q28.6 2.1 29.1 1.55 29.65 1.05 30.25 0.7 30.9 0.35 31.6 0.15 32.25 0.0 33.0 0.0 33.75 0.0 34.45 0.15 35.15 0.35 35.75 0.7 36.4 1.05 36.9 1.55 37.4 2.1 37.8 2.75 L65.35 50.4 Q65.5 50.7 65.65 51.05 65.8 51.4 65.85 51.75 65.95 52.1 66.0 52.45 66.05 52.8 66.05 53.15 66.05 54.3 65.6 55.3 65.2 56.3 64.45 57.05 63.7 57.8 62.7 58.2 61.7 58.65 60.55 58.65 M33.0 5.5 L33.0 5.5 5.5 53.15 60.55 53.15 33.0 5.5" fill="#f9cb7f" fill-rule="evenodd" stroke="none"/>
  </g>
</svg>
