<?xml version="1.0" encoding="UTF-8" standalone="no"?>
<svg xmlns:xlink="http://www.w3.org/1999/xlink" height="71.95px" width="45.05px" xmlns="http://www.w3.org/2000/svg">
  <g transform="matrix(1.0, 0.0, 0.0, 1.0, 0.0, 0.0)">
    <path d="M0.0 24.0 L0.0 24.0 11.2 24.0 Q11.2 20.65 11.9 17.9 12.6 15.2 14.1 13.3 15.55 11.4 17.8 10.35 20.05 9.35 23.1 9.35 24.4 9.35 26.05 9.9 27.75 10.5 29.2 11.8 30.7 13.1 31.75 15.2 32.75 17.25 32.75 20.25 32.75 22.7 32.1 24.5 31.4 26.25 30.3 27.65 29.2 29.05 27.75 30.25 26.35 31.5 24.8 32.85 22.8 34.5 21.4 36.25 19.95 37.95 19.0 40.2 18.05 42.5 17.55 45.5 17.1 48.55 17.1 52.85 L27.75 52.85 Q27.75 49.3 28.4 46.85 29.05 44.4 30.2 42.55 31.35 40.7 32.9 39.25 34.5 37.8 36.4 36.2 38.0 34.8 39.55 33.4 41.1 31.95 42.3 30.15 43.55 28.3 44.3 25.85 45.05 23.35 45.05 19.85 45.05 15.1 43.4 11.4 41.75 7.7 38.85 5.15 35.95 2.6 32.0 1.3 28.1 0.0 23.6 0.0 18.15 0.0 13.75 1.7 9.4 3.4 6.3 6.55 3.25 9.7 1.6 14.15 0.0 18.55 0.0 24.0 M15.65 59.6 L15.65 59.6 15.65 71.95 28.8 71.95 28.8 59.6 15.65 59.6" fill="#ffffff" fill-rule="evenodd" stroke="none"/>
  </g>
</svg>
