<?xml version="1.0" encoding="UTF-8" standalone="no"?>
<svg xmlns:xlink="http://www.w3.org/1999/xlink" height="9.05px" width="47.55px" xmlns="http://www.w3.org/2000/svg">
  <g transform="matrix(1.0, 0.0, 0.0, 1.0, 0.0, 0.0)">
    <path d="M47.55 8.2 Q47.55 8.5 47.4 8.7 47.25 8.85 47.1 8.95 46.95 9.0 46.8 9.0 46.7 9.05 46.7 9.05 L0.8 9.05 Q0.5 9.05 0.35 8.9 0.15 8.75 0.1 8.6 0.0 8.45 0.0 8.3 0.0 8.2 0.0 8.2 L0.0 0.8 Q0.0 0.5 0.1 0.35 0.25 0.15 0.4 0.1 0.55 0.0 0.7 0.0 0.8 0.0 0.8 0.0 L46.7 0.0 Q47.0 0.0 47.2 0.1 47.35 0.25 47.45 0.4 47.5 0.55 47.5 0.7 47.55 0.8 47.55 0.8 L47.55 8.2" fill="#ffffff" fill-rule="evenodd" stroke="none"/>
  </g>
</svg>
