<?xml version="1.0" encoding="UTF-8" standalone="no"?>
<svg xmlns:xlink="http://www.w3.org/1999/xlink" height="56.15px" width="79.85px" xmlns="http://www.w3.org/2000/svg">
  <g transform="matrix(1.0, 0.0, 0.0, 1.0, 0.0, 0.0)">
    <path d="M63.7 53.0 L63.7 53.0 79.85 53.0 79.85 56.15 0.0 56.15 0.0 53.0 16.15 53.0 16.15 7.9 16.15 0.85 Q16.15 0.5 16.25 0.35 16.4 0.15 16.55 0.1 16.75 0.0 16.85 0.0 17.0 0.0 17.0 0.0 L62.8 0.0 Q63.15 0.0 63.3 0.1 63.5 0.25 63.6 0.4 63.65 0.55 63.7 0.7 63.7 0.85 63.7 0.85 L63.7 7.9 63.7 53.0" fill="#ffffff" fill-rule="evenodd" stroke="none"/>
  </g>
</svg>
