<?xml version="1.0" encoding="UTF-8" standalone="no"?>
<svg xmlns:xlink="http://www.w3.org/1999/xlink" height="93.75px" width="45.0px" xmlns="http://www.w3.org/2000/svg">
  <g transform="matrix(1.0, 0.0, 0.0, 1.0, 0.0, 0.0)">
    <path d="M45.0 75.1 L45.0 75.1 45.0 2.1 Q45.0 1.5 44.75 1.05 44.55 0.55 44.15 0.3 43.75 0.05 43.25 0.0 42.75 0.0 42.15 0.15 L2.8 14.6 Q2.2 14.8 1.7 15.2 1.2 15.65 0.8 16.2 0.4 16.75 0.2 17.35 0.0 18.0 0.0 18.6 L0.0 91.6 Q0.0 92.25 0.2 92.7 0.4 93.15 0.8 93.45 1.2 93.7 1.7 93.75 2.2 93.8 2.8 93.6 L42.15 79.15 Q42.75 78.95 43.25 78.5 43.75 78.1 44.15 77.55 44.55 77.0 44.75 76.35 45.0 75.75 45.0 75.1" fill="#ffffff" fill-rule="evenodd" stroke="none"/>
  </g>
</svg>
