<?xml version="1.0" encoding="UTF-8" standalone="no"?>
<svg xmlns:xlink="http://www.w3.org/1999/xlink" height="86.8px" width="75.0px" xmlns="http://www.w3.org/2000/svg">
  <g transform="matrix(1.0, 0.0, 0.0, 1.0, 0.0, 0.0)">
    <path d="M75.0 75.65 L75.0 75.65 75.0 2.65 Q75.0 2.05 74.75 1.5 74.5 1.0 74.1 0.65 73.7 0.25 73.15 0.1 72.6 -0.05 72.0 0.0 L2.95 7.8 Q2.35 7.9 1.8 8.2 1.25 8.5 0.85 8.95 0.45 9.4 0.2 9.95 0.0 10.55 0.0 11.15 L0.0 84.15 Q0.0 84.8 0.2 85.3 0.45 85.8 0.85 86.2 1.25 86.55 1.8 86.7 2.35 86.9 2.95 86.8 L72.0 79.0 Q72.6 78.9 73.15 78.65 73.7 78.35 74.1 77.85 74.5 77.4 74.75 76.85 75.0 76.3 75.0 75.65" fill="#ffffff" fill-rule="evenodd" stroke="none"/>
  </g>
</svg>
