<?xml version="1.0" encoding="UTF-8" standalone="no"?>
<svg xmlns:xlink="http://www.w3.org/1999/xlink" height="87.3px" width="20.0px" xmlns="http://www.w3.org/2000/svg">
  <g transform="matrix(1.0, 0.0, 0.0, 1.0, 0.0, 0.0)">
    <path d="M20.0 74.9 L20.0 74.9 20.0 1.9 Q20.0 1.25 19.75 0.85 19.55 0.4 19.2 0.2 18.85 0.0 18.35 0.0 17.85 0.0 17.3 0.3 L2.65 8.0 Q2.1 8.3 1.6 8.75 1.1 9.25 0.75 9.85 0.4 10.45 0.2 11.1 0.0 11.75 0.0 12.4 L0.0 85.4 Q0.0 86.0 0.2 86.45 0.4 86.9 0.75 87.1 1.1 87.3 1.6 87.3 2.1 87.3 2.65 87.0 L17.3 79.3 Q17.85 79.0 18.35 78.5 18.85 78.0 19.2 77.4 19.55 76.8 19.75 76.15 20.0 75.5 20.0 74.9" fill="#ffffff" fill-rule="evenodd" stroke="none"/>
  </g>
</svg>
