<?xml version="1.0" encoding="UTF-8" standalone="no"?>
<svg xmlns:xlink="http://www.w3.org/1999/xlink" height="57.15px" width="62.95px" xmlns="http://www.w3.org/2000/svg">
  <g transform="matrix(1.0, 0.0, 0.0, 1.0, 0.0, 0.0)">
    <path d="M55.65 0.0 L55.65 0.0 7.3 0.0 Q4.85 0.0 3.15 0.8 1.5 1.65 0.65 3.05 -0.1 4.45 0.0 6.35 0.15 8.25 1.35 10.35 L25.6 52.95 Q26.8 55.05 28.35 56.1 29.9 57.15 31.45 57.15 33.05 57.15 34.6 56.1 36.15 55.0 37.35 52.9 L61.6 10.4 Q62.8 8.25 62.95 6.35 63.1 4.5 62.25 3.05 61.45 1.65 59.75 0.8 58.1 0.0 55.65 0.0" fill="#ffffff" fill-rule="evenodd" stroke="none"/>
  </g>
</svg>
