<?xml version="1.0" encoding="UTF-8" standalone="no"?>
<svg xmlns:xlink="http://www.w3.org/1999/xlink" height="65.9px" width="53.0px" xmlns="http://www.w3.org/2000/svg">
  <g transform="matrix(1.0, 0.0, 0.0, 1.0, 0.0, 0.0)">
    <path d="M26.5 4.0 L26.5 4.0 Q23.4 4.0 20.85 4.8 18.3 5.6 16.25 6.85 14.2 8.05 12.7 9.4 11.2 10.8 10.2 11.9 8.8 13.55 7.65 15.4 6.5 17.25 5.65 19.15 4.85 21.05 4.4 22.9 4.0 24.8 4.0 26.5 4.0 28.0 4.35 29.7 4.7 31.4 5.4 33.15 6.1 34.9 7.1 36.65 8.1 38.35 9.3 39.95 9.35 39.95 9.35 39.95 9.35 39.95 9.35 40.0 9.35 40.0 9.35 40.0 9.35 40.0 9.35 40.0 9.5 40.15 9.6 40.3 9.7 40.45 9.85 40.6 9.95 40.75 10.1 40.9 10.2 41.0 10.35 41.15 10.35 41.2 10.35 41.2 10.4 41.25 10.4 41.25 10.4 41.25 10.45 41.3 10.45 41.3 10.45 41.35 11.65 42.8 12.6 44.4 13.6 46.0 14.4 47.65 15.15 49.3 15.75 51.05 16.35 52.75 16.75 54.55 16.75 54.55 16.75 54.55 16.75 54.55 16.75 54.55 16.75 54.55 16.75 54.55 16.75 54.6 16.75 54.6 L18.05 61.05 Q18.05 61.1 18.05 61.15 18.05 61.2 18.05 61.25 18.05 61.3 18.1 61.3 18.1 61.35 18.1 61.4 18.1 61.5 18.15 61.6 18.2 61.65 18.3 61.75 18.4 61.8 18.5 61.85 18.6 61.9 18.65 61.9 L34.3 61.9 Q34.35 61.9 34.45 61.85 34.55 61.8 34.65 61.75 34.75 61.65 34.8 61.6 34.85 61.5 34.85 61.4 34.85 61.35 34.9 61.3 34.9 61.3 34.9 61.25 34.9 61.2 34.9 61.15 34.9 61.1 34.9 61.05 L36.2 54.6 Q36.2 54.6 36.2 54.6 36.2 54.6 36.2 54.6 36.2 54.6 36.2 54.6 36.2 54.55 36.2 54.55 36.6 52.8 37.2 51.05 37.8 49.3 38.55 47.65 39.35 45.95 40.35 44.4 41.35 42.8 42.5 41.3 42.5 41.3 42.55 41.25 42.55 41.25 42.55 41.2 42.6 41.2 42.6 41.2 42.65 41.15 42.65 41.15 42.75 41.0 42.9 40.85 43.0 40.75 43.1 40.6 43.25 40.45 43.35 40.3 43.45 40.15 43.6 40.0 43.6 40.0 43.6 40.0 43.6 40.0 43.6 40.0 43.6 40.0 43.6 40.0 43.6 40.0 43.6 40.0 43.6 40.0 43.6 40.0 43.6 40.0 43.6 40.0 43.6 40.0 43.6 39.95 43.6 39.95 43.65 39.95 44.85 38.35 45.85 36.65 46.85 34.9 47.55 33.15 48.25 31.4 48.6 29.7 49.0 28.0 49.0 26.5 49.0 24.8 48.55 22.9 48.1 21.05 47.3 19.15 46.45 17.25 45.3 15.4 44.15 13.55 42.75 11.9 41.75 10.8 40.25 9.4 38.75 8.05 36.7 6.85 34.65 5.6 32.1 4.8 29.55 4.0 26.5 4.0 M26.5 0.0 L26.5 0.0 26.5 0.0 Q32.5 0.0 37.4 2.65 42.3 5.3 45.75 9.3 49.2 13.25 51.1 17.9 53.0 22.55 53.0 26.5 53.0 28.3 52.55 30.3 52.15 32.3 51.35 34.35 50.6 36.4 49.4 38.45 48.25 40.5 46.8 42.4 L46.8 42.4 Q46.75 42.45 46.75 42.45 46.75 42.45 46.75 42.45 46.75 42.45 46.75 42.45 46.75 42.5 46.7 42.5 46.6 42.65 46.45 42.8 46.35 43.0 46.2 43.15 46.05 43.3 45.9 43.45 45.8 43.6 45.65 43.8 44.55 45.15 43.7 46.6 42.8 48.05 42.1 49.55 41.4 51.0 40.9 52.5 40.45 53.95 40.1 55.4 L38.85 61.85 Q38.75 62.7 38.35 63.45 37.95 64.15 37.3 64.7 36.7 65.3 35.9 65.6 35.15 65.9 34.3 65.9 L18.65 65.9 Q17.8 65.9 17.05 65.6 16.25 65.3 15.65 64.7 15.0 64.15 14.6 63.45 14.2 62.7 14.1 61.85 L12.85 55.35 Q12.5 53.95 12.0 52.45 11.55 51.0 10.85 49.5 10.15 48.05 9.3 46.6 8.4 45.2 7.35 43.8 7.2 43.65 7.05 43.45 6.9 43.3 6.75 43.15 6.6 42.95 6.45 42.8 6.35 42.6 6.2 42.45 6.2 42.45 6.2 42.45 6.2 42.45 6.2 42.45 6.2 42.45 6.2 42.45 6.2 42.4 6.15 42.4 L6.2 42.4 Q4.7 40.5 3.55 38.45 2.35 36.4 1.6 34.35 0.8 32.3 0.4 30.3 0.0 28.3 0.0 26.5 0.0 22.55 1.85 17.9 3.75 13.25 7.2 9.3 10.65 5.3 15.55 2.65 20.45 0.0 26.5 0.0" fill="#ffffff" fill-rule="evenodd" stroke="none"/>
  </g>
</svg>
