<?xml version="1.0" encoding="UTF-8" standalone="no"?>
<svg xmlns:xlink="http://www.w3.org/1999/xlink" height="3.0px" width="10.0px" xmlns="http://www.w3.org/2000/svg">
  <g transform="matrix(1.0, 0.0, 0.0, 1.0, 0.0, 0.0)">
    <path d="M10.0 1.5 L10.0 1.5 Q10.0 1.8 9.85 2.05 9.7 2.35 9.45 2.55 9.2 2.75 8.9 2.85 8.55 3.0 8.2 3.0 L1.75 3.0 Q1.4 3.0 1.05 2.85 0.75 2.75 0.5 2.55 0.25 2.35 0.1 2.05 0.0 1.8 0.0 1.5 0.0 1.15 0.1 0.9 0.25 0.6 0.5 0.4 0.75 0.2 1.05 0.1 1.4 0.0 1.75 0.0 L8.2 0.0 Q8.55 0.0 8.9 0.1 9.2 0.2 9.45 0.4 9.7 0.6 9.85 0.9 10.0 1.15 10.0 1.5" fill="#ffffff" fill-rule="evenodd" stroke="none"/>
  </g>
</svg>
