<?xml version="1.0" encoding="UTF-8" standalone="no"?>
<svg xmlns:xlink="http://www.w3.org/1999/xlink" height="65.9px" width="52.95px" xmlns="http://www.w3.org/2000/svg">
  <g transform="matrix(1.0, 0.0, 0.0, 1.0, 46.7, 23.4)">
    <path d="M0.0 0.0 Q-0.1 -0.15 -0.25 -0.3 -0.35 -0.45 -0.5 -0.65 -0.65 -0.8 -0.75 -0.95 -0.9 -1.1 -1.05 -1.25 -2.15 -2.65 -3.0 -4.1 -3.9 -5.55 -4.6 -7.0 -5.3 -8.5 -5.75 -9.95 -6.25 -11.45 -6.6 -12.9 L-7.85 -19.35 Q-7.95 -20.15 -8.35 -20.9 -8.75 -21.65 -9.4 -22.2 -10.0 -22.75 -10.8 -23.1 -11.55 -23.4 -12.4 -23.4 L-28.05 -23.4 Q-28.9 -23.4 -29.65 -23.1 -30.45 -22.75 -31.05 -22.2 -31.7 -21.65 -32.1 -20.9 -32.5 -20.15 -32.6 -19.35 L-33.85 -12.85 Q-34.2 -11.4 -34.65 -9.95 -35.15 -8.45 -35.85 -7.0 -36.55 -5.55 -37.4 -4.1 -38.3 -2.65 -39.35 -1.3 -39.5 -1.1 -39.65 -0.95 -39.8 -0.8 -39.95 -0.6 -40.1 -0.45 -40.2 -0.3 -40.35 -0.1 -40.5 0.0 -40.5 0.0 -40.5 0.0 -40.5 0.05 -40.5 0.05 -40.5 0.05 -40.5 0.05 -40.5 0.05 -40.5 0.05 L-40.5 0.05 Q-42.0 1.95 -43.15 4.0 -44.3 6.05 -45.1 8.1 -45.9 10.15 -46.3 12.15 -46.7 14.15 -46.7 16.0 -46.7 19.95 -44.85 24.55 -42.95 29.2 -39.5 33.2 -36.05 37.15 -31.15 39.85 -26.25 42.5 -20.2 42.5 -14.2 42.5 -9.3 39.85 -4.4 37.15 -0.95 33.2 2.45 29.2 4.35 24.55 6.25 19.95 6.25 16.0 6.25 14.15 5.8 12.15 5.4 10.15 4.6 8.1 3.85 6.05 2.7 4.0 1.5 1.95 0.05 0.05 L0.05 0.05 Q0.05 0.05 0.0 0.05 0.0 0.0 0.0 0.0 0.0 0.0 0.0 0.0 0.0 0.0 0.0 0.0" fill="#ffffff" fill-rule="evenodd" stroke="none"/>
  </g>
</svg>
