<?xml version="1.0" encoding="UTF-8" standalone="no"?>
<svg xmlns:xlink="http://www.w3.org/1999/xlink" height="2.95px" width="20.0px" xmlns="http://www.w3.org/2000/svg">
  <g transform="matrix(1.0, 0.0, 0.0, 1.0, 20.0, 1.6)">
    <path d="M0.0 0.0 L0.0 0.0 0.0 -0.25 Q0.0 -0.5 -0.1 -0.75 -0.2 -1.0 -0.4 -1.2 -0.55 -1.4 -0.8 -1.5 -1.05 -1.6 -1.35 -1.6 L-18.6 -1.6 Q-18.9 -1.6 -19.15 -1.5 -19.4 -1.4 -19.55 -1.2 -19.75 -1.0 -19.85 -0.75 -20.0 -0.5 -20.0 -0.25 L-20.0 0.0 Q-20.0 0.25 -19.85 0.5 -19.75 0.75 -19.55 0.95 -19.4 1.15 -19.15 1.25 -18.9 1.35 -18.6 1.35 L-1.35 1.35 Q-1.05 1.35 -0.8 1.25 -0.55 1.15 -0.4 0.95 -0.2 0.75 -0.1 0.5 0.0 0.25 0.0 0.0" fill="#ffffff" fill-rule="evenodd" stroke="none"/>
  </g>
</svg>
