<?xml version="1.0" encoding="UTF-8" standalone="no"?>
<svg xmlns:xlink="http://www.w3.org/1999/xlink" height="2.95px" width="20.0px" xmlns="http://www.w3.org/2000/svg">
  <g transform="matrix(1.0, 0.0, 0.0, 1.0, 20.0, 1.55)">
    <path d="M0.0 0.0 L0.0 0.0 0.0 -0.15 Q0.0 -0.45 -0.1 -0.7 -0.2 -0.95 -0.4 -1.15 -0.6 -1.35 -0.85 -1.45 -1.1 -1.55 -1.4 -1.55 L-18.55 -1.55 Q-18.85 -1.55 -19.1 -1.45 -19.35 -1.35 -19.55 -1.15 -19.75 -0.95 -19.85 -0.7 -20.0 -0.45 -20.0 -0.15 L-20.0 0.0 Q-20.0 0.25 -19.85 0.5 -19.75 0.8 -19.55 0.95 -19.35 1.15 -19.1 1.3 -18.85 1.4 -18.55 1.4 L-1.4 1.4 Q-1.1 1.4 -0.85 1.3 -0.6 1.15 -0.4 0.95 -0.2 0.8 -0.1 0.5 0.0 0.25 0.0 0.0" fill="#ffffff" fill-rule="evenodd" stroke="none"/>
  </g>
</svg>
