<?xml version="1.0" encoding="UTF-8" standalone="no"?>
<svg xmlns:xlink="http://www.w3.org/1999/xlink" height="3.0px" width="10.0px" xmlns="http://www.w3.org/2000/svg">
  <g transform="matrix(1.0, 0.0, 0.0, 1.0, 10.0, 1.5)">
    <path d="M0.0 0.0 Q0.0 -0.3 -0.1 -0.55 -0.25 -0.85 -0.5 -1.05 -0.75 -1.25 -1.05 -1.35 -1.4 -1.5 -1.75 -1.5 L-8.2 -1.5 Q-8.55 -1.5 -8.9 -1.35 -9.2 -1.25 -9.45 -1.05 -9.7 -0.85 -9.85 -0.55 -10.0 -0.3 -10.0 0.0 -10.0 0.3 -9.85 0.55 -9.7 0.85 -9.45 1.05 -9.2 1.25 -8.9 1.35 -8.55 1.5 -8.2 1.5 L-1.75 1.5 Q-1.4 1.5 -1.05 1.35 -0.75 1.25 -0.5 1.05 -0.25 0.85 -0.1 0.55 0.0 0.3 0.0 0.0" fill="#ffffff" fill-rule="evenodd" stroke="none"/>
  </g>
</svg>
