<?xml version="1.0" encoding="UTF-8" standalone="no"?>
<svg xmlns:xlink="http://www.w3.org/1999/xlink" height="2.95px" width="16.0px" xmlns="http://www.w3.org/2000/svg">
  <g transform="matrix(1.0, 0.0, 0.0, 1.0, 16.0, 1.65)">
    <path d="M0.0 0.0 L0.0 0.0 0.0 -0.35 Q0.0 -0.65 -0.1 -0.85 -0.2 -1.1 -0.35 -1.3 -0.55 -1.45 -0.8 -1.55 -1.0 -1.65 -1.3 -1.65 L-14.65 -1.65 Q-14.95 -1.65 -15.15 -1.55 -15.4 -1.45 -15.6 -1.3 -15.75 -1.1 -15.85 -0.85 -16.0 -0.65 -16.0 -0.35 L-16.0 0.0 Q-16.0 0.25 -15.85 0.5 -15.75 0.7 -15.6 0.9 -15.4 1.1 -15.15 1.2 -14.95 1.3 -14.65 1.3 L-1.3 1.3 Q-1.0 1.3 -0.8 1.2 -0.55 1.1 -0.35 0.9 -0.2 0.7 -0.1 0.5 0.0 0.25 0.0 0.0" fill="#ffffff" fill-rule="evenodd" stroke="none"/>
  </g>
</svg>
