<?xml version="1.0" encoding="UTF-8" standalone="no"?>
<svg xmlns:xlink="http://www.w3.org/1999/xlink" height="14.0px" width="4.0px" xmlns="http://www.w3.org/2000/svg">
  <g transform="matrix(1.0, 0.0, 0.0, 1.0, 0.0, 12.0)">
    <path d="M0.0 0.0 L0.0 0.0 0.0 -10.0 Q0.0 -10.4 0.15 -10.75 0.3 -11.1 0.55 -11.4 0.85 -11.65 1.2 -11.8 1.55 -12.0 2.0 -12.0 2.4 -12.0 2.75 -11.8 3.1 -11.65 3.4 -11.4 3.65 -11.1 3.8 -10.75 4.0 -10.4 4.0 -10.0 L4.0 0.0 Q4.0 0.4 3.8 0.75 3.65 1.1 3.4 1.4 3.1 1.65 2.75 1.8 2.4 2.0 2.0 2.0 1.55 2.0 1.2 1.8 0.85 1.65 0.55 1.4 0.3 1.1 0.15 0.75 0.0 0.4 0.0 0.0" fill="#ffffff" fill-rule="evenodd" stroke="none"/>
  </g>
</svg>
