<?xml version="1.0" encoding="UTF-8" standalone="no"?>
<svg xmlns:xlink="http://www.w3.org/1999/xlink" height="12.55px" width="8.95px" xmlns="http://www.w3.org/2000/svg">
  <g transform="matrix(1.0, 0.0, 0.0, 1.0, 0.25, 9.6)">
    <path d="M0.0 0.0 L0.0 0.0 5.0 -8.65 Q5.2 -9.0 5.5 -9.25 5.8 -9.45 6.2 -9.55 6.55 -9.65 6.95 -9.6 7.35 -9.6 7.7 -9.35 8.05 -9.15 8.3 -8.85 8.55 -8.5 8.65 -8.15 8.75 -7.8 8.7 -7.4 8.65 -7.0 8.45 -6.65 L3.45 2.0 Q3.25 2.35 2.9 2.55 2.6 2.8 2.2 2.9 1.85 3.0 1.45 2.95 1.05 2.9 0.7 2.7 0.35 2.5 0.1 2.2 -0.1 1.85 -0.2 1.5 -0.25 1.1 -0.25 0.75 -0.2 0.35 0.0 0.0" fill="#ffffff" fill-rule="evenodd" stroke="none"/>
  </g>
</svg>
