<?xml version="1.0" encoding="UTF-8" standalone="no"?>
<svg xmlns:xlink="http://www.w3.org/1999/xlink" height="8.95px" width="12.55px" xmlns="http://www.w3.org/2000/svg">
  <g transform="matrix(1.0, 0.0, 0.0, 1.0, 11.6, 3.7)">
    <path d="M0.0 0.0 L0.0 0.0 -8.65 5.0 Q-9.0 5.2 -9.4 5.25 -9.8 5.25 -10.15 5.2 -10.5 5.1 -10.85 4.85 -11.15 4.6 -11.35 4.25 -11.55 3.9 -11.6 3.5 -11.65 3.1 -11.55 2.75 -11.45 2.35 -11.25 2.05 -11.0 1.7 -10.65 1.5 L-2.0 -3.45 Q-1.6 -3.65 -1.2 -3.7 -0.85 -3.75 -0.45 -3.65 -0.1 -3.55 0.2 -3.3 0.5 -3.05 0.7 -2.7 0.9 -2.35 0.95 -1.95 1.0 -1.55 0.9 -1.2 0.8 -0.8 0.55 -0.5 0.35 -0.2 0.0 0.0" fill="#ffffff" fill-rule="evenodd" stroke="none"/>
  </g>
</svg>
