<?xml version="1.0" encoding="UTF-8" standalone="no"?>
<svg xmlns:xlink="http://www.w3.org/1999/xlink" height="4.0px" width="14.0px" xmlns="http://www.w3.org/2000/svg">
  <g transform="matrix(1.0, 0.0, 0.0, 1.0, 12.0, 4.0)">
    <path d="M0.0 0.0 L0.0 0.0 -10.0 0.0 Q-10.4 0.0 -10.75 -0.15 -11.1 -0.3 -11.4 -0.55 -11.65 -0.85 -11.8 -1.2 -12.0 -1.55 -12.0 -2.0 -12.0 -2.4 -11.8 -2.75 -11.65 -3.1 -11.4 -3.4 -11.1 -3.65 -10.75 -3.8 -10.4 -3.95 -10.0 -4.0 L0.0 -3.95 Q0.4 -3.95 0.75 -3.8 1.1 -3.65 1.4 -3.4 1.65 -3.1 1.8 -2.75 1.95 -2.4 2.0 -1.95 1.95 -1.55 1.8 -1.2 1.65 -0.85 1.4 -0.55 1.1 -0.3 0.75 -0.15 0.4 0.0 0.0 0.0" fill="#ffffff" fill-rule="evenodd" stroke="none"/>
  </g>
</svg>
