<?xml version="1.0" encoding="UTF-8" standalone="no"?>
<svg xmlns:xlink="http://www.w3.org/1999/xlink" height="8.95px" width="12.55px" xmlns="http://www.w3.org/2000/svg">
  <g transform="matrix(1.0, 0.0, 0.0, 1.0, 9.6, 8.7)">
    <path d="M0.0 0.0 L0.0 0.0 -8.65 -5.0 Q-9.0 -5.2 -9.25 -5.5 -9.45 -5.8 -9.55 -6.2 -9.65 -6.55 -9.6 -6.95 -9.6 -7.35 -9.35 -7.7 -9.15 -8.05 -8.85 -8.3 -8.5 -8.55 -8.15 -8.65 -7.8 -8.75 -7.4 -8.7 -7.0 -8.65 -6.65 -8.45 L1.95 -3.45 Q2.35 -3.25 2.55 -2.9 2.8 -2.6 2.9 -2.2 3.0 -1.85 2.95 -1.45 2.9 -1.05 2.7 -0.7 2.5 -0.35 2.2 -0.1 1.85 0.1 1.5 0.15 1.1 0.25 0.75 0.25 0.35 0.2 0.0 0.0" fill="#ffffff" fill-rule="evenodd" stroke="none"/>
  </g>
</svg>
