<?xml version="1.0" encoding="UTF-8" standalone="no"?>
<svg xmlns:xlink="http://www.w3.org/1999/xlink" height="12.55px" width="8.95px" xmlns="http://www.w3.org/2000/svg">
  <g transform="matrix(1.0, 0.0, 0.0, 1.0, 5.25, 11.6)">
    <path d="M0.0 0.0 L0.0 0.0 -5.0 -8.65 Q-5.2 -9.0 -5.25 -9.4 -5.3 -9.8 -5.2 -10.15 -5.1 -10.5 -4.85 -10.85 -4.6 -11.15 -4.25 -11.35 -3.9 -11.55 -3.5 -11.6 -3.1 -11.65 -2.75 -11.55 -2.35 -11.45 -2.05 -11.25 -1.7 -11.0 -1.5 -10.65 L3.45 -2.0 Q3.65 -1.6 3.7 -1.2 3.75 -0.85 3.65 -0.45 3.55 -0.1 3.3 0.2 3.05 0.5 2.7 0.7 2.35 0.9 1.95 0.95 1.55 1.0 1.2 0.9 0.8 0.8 0.5 0.55 0.2 0.35 0.0 0.0" fill="#ffffff" fill-rule="evenodd" stroke="none"/>
  </g>
</svg>
