<?xml version="1.0" encoding="UTF-8" standalone="no"?>
<svg xmlns:xlink="http://www.w3.org/1999/xlink" height="44.9px" width="96.2px" xmlns="http://www.w3.org/2000/svg">
  <g transform="matrix(1.0, 0.0, 0.0, 1.0, 0.0, 0.0)">
    <path d="M93.5 42.45 L93.5 42.45 96.2 42.45 96.2 44.9 0.0 44.9 0.0 42.45 2.85 42.45 2.85 4.25 6.35 0.0 13.65 0.0 13.65 42.45 15.15 42.45 15.15 40.6 Q15.15 40.35 15.25 40.2 15.35 40.05 15.5 40.0 15.6 39.95 15.7 39.95 15.8 39.9 15.8 39.9 L80.55 39.9 Q80.8 39.9 80.95 40.0 81.05 40.15 81.15 40.25 81.2 40.4 81.2 40.5 81.2 40.6 81.2 40.6 L81.2 42.45 82.7 42.45 82.7 0.0 90.0 0.0 93.5 4.25 93.5 42.45" fill="#ffffff" fill-rule="evenodd" stroke="none"/>
  </g>
</svg>
