<?xml version="1.0" encoding="UTF-8" standalone="no"?>
<svg xmlns:xlink="http://www.w3.org/1999/xlink" height="5.95px" width="66.05px" xmlns="http://www.w3.org/2000/svg">
  <g transform="matrix(1.0, 0.0, 0.0, 1.0, 0.0, 0.0)">
    <path d="M0.65 0.0 L0.65 0.0 65.4 0.0 Q65.65 0.0 65.8 0.1 65.9 0.2 66.0 0.3 66.05 0.45 66.05 0.55 66.05 0.65 66.05 0.65 L66.05 5.3 Q66.05 5.55 65.95 5.7 65.85 5.8 65.75 5.9 65.6 5.95 65.5 5.95 65.4 5.95 65.4 5.95 L0.65 5.95 Q0.4 5.95 0.25 5.85 0.1 5.75 0.05 5.65 0.0 5.5 0.0 5.4 0.0 5.3 0.0 5.3 L0.0 0.65 Q0.0 0.4 0.1 0.25 0.2 0.1 0.3 0.05 0.45 0.0 0.55 0.0 0.65 0.0 0.65 0.0" fill="#ffffff" fill-rule="evenodd" stroke="none"/>
  </g>
</svg>
