<?xml version="1.0" encoding="UTF-8" standalone="no"?>
<svg xmlns:xlink="http://www.w3.org/1999/xlink" height="32.95px" width="44.55px" xmlns="http://www.w3.org/2000/svg">
  <g transform="matrix(1.0, 0.0, 0.0, 1.0, 0.0, 0.0)">
    <path d="M39.2 3.7 L5.3 3.7 Q5.3 3.7 5.25 3.7 5.2 3.7 5.15 3.7 5.1 3.7 5.05 3.7 5.05 3.7 5.0 3.7 5.45 4.05 5.75 4.5 6.1 4.95 6.25 5.5 6.45 6.05 6.45 6.6 6.45 7.2 6.25 7.75 6.25 7.8 6.25 7.85 6.25 7.9 6.25 8.0 6.25 8.05 6.25 8.1 6.25 8.2 6.25 8.25 L8.2 20.85 Q8.25 21.2 8.4 21.5 8.55 21.8 8.8 22.1 9.05 22.35 9.4 22.55 9.7 22.75 10.05 22.9 10.6 23.05 11.1 23.4 11.55 23.75 11.9 24.25 12.25 24.7 12.4 25.25 12.6 25.8 12.6 26.4 L12.6 28.05 Q12.6 28.3 12.7 28.5 12.8 28.75 12.95 28.9 13.1 29.05 13.3 29.15 13.55 29.25 13.75 29.25 L30.75 29.25 Q31.0 29.25 31.2 29.15 31.4 29.05 31.55 28.9 31.75 28.75 31.8 28.5 31.9 28.3 31.9 28.05 L31.9 26.4 Q31.9 25.8 32.1 25.25 32.3 24.7 32.6 24.25 32.95 23.75 33.45 23.4 33.9 23.05 34.5 22.9 34.8 22.75 35.15 22.55 35.45 22.35 35.7 22.1 35.95 21.8 36.1 21.5 36.3 21.2 36.35 20.85 L38.25 8.25 Q38.3 8.2 38.3 8.1 38.3 8.05 38.3 8.0 38.3 7.95 38.25 7.85 38.25 7.8 38.25 7.75 38.05 7.2 38.1 6.6 38.1 6.05 38.25 5.5 38.45 4.95 38.75 4.5 39.1 4.05 39.55 3.7 39.5 3.7 39.45 3.7 39.4 3.7 39.35 3.7 39.3 3.7 39.3 3.7 39.25 3.7 39.2 3.7 M39.2 0.0 Q40.3 0.0 41.25 0.25 42.25 0.55 42.95 1.0 43.7 1.5 44.1 2.15 44.55 2.8 44.55 3.55 44.55 4.05 44.35 4.5 44.15 4.95 43.8 5.35 43.4 5.75 42.9 6.1 42.4 6.4 41.8 6.65 41.9 6.9 41.95 7.15 42.0 7.4 42.0 7.7 42.0 7.95 42.0 8.25 42.0 8.55 41.95 8.85 L40.0 21.45 Q39.9 22.3 39.5 23.1 39.1 23.85 38.5 24.5 37.95 25.15 37.2 25.65 36.45 26.15 35.65 26.4 L35.65 28.05 Q35.65 29.1 35.25 29.95 34.85 30.85 34.2 31.5 33.55 32.2 32.65 32.55 31.75 32.95 30.75 32.95 L13.75 32.95 Q12.75 32.95 11.9 32.55 11.0 32.2 10.3 31.5 9.65 30.85 9.25 29.95 8.9 29.1 8.9 28.05 L8.9 26.4 Q8.05 26.15 7.35 25.65 6.6 25.15 6.0 24.5 5.45 23.85 5.05 23.1 4.65 22.3 4.5 21.45 L2.55 8.85 Q2.55 8.55 2.5 8.25 2.5 7.95 2.5 7.7 2.55 7.4 2.6 7.15 2.65 6.9 2.7 6.65 2.1 6.4 1.6 6.1 1.1 5.75 0.75 5.35 0.35 4.95 0.15 4.5 0.0 4.05 0.0 3.55 0.0 2.8 0.4 2.15 0.8 1.5 1.55 1.0 2.25 0.55 3.25 0.25 4.2 0.0 5.3 0.0 L39.2 0.0" fill="#ffffff" fill-rule="evenodd" stroke="none"/>
  </g>
</svg>
