<?xml version="1.0" encoding="UTF-8" standalone="no"?>
<svg xmlns:xlink="http://www.w3.org/1999/xlink" height="14.95px" width="9.8px" xmlns="http://www.w3.org/2000/svg">
  <g transform="matrix(1.0, 0.0, 0.0, 1.0, 0.0, 0.0)">
    <path d="M9.8 7.3 Q9.8 5.6 9.5 4.2 9.15 2.85 8.55 1.9 7.95 0.95 7.05 0.45 6.15 0.0 5.0 0.0 3.9 0.0 3.0 0.45 2.05 0.95 1.4 1.9 0.7 2.9 0.35 4.3 0.0 5.7 0.0 7.5 0.0 9.3 0.35 10.7 0.7 12.1 1.35 13.05 1.95 14.0 2.85 14.5 3.7 14.95 4.75 14.95 6.0 14.95 6.9 14.45 7.85 13.95 8.5 13.0 9.15 12.0 9.5 10.6 9.8 9.15 9.8 7.3 M1.95 7.55 Q1.95 6.05 2.15 4.95 2.4 3.8 2.8 3.05 3.15 2.25 3.7 1.9 4.25 1.5 4.9 1.5 5.65 1.5 6.2 1.9 6.8 2.35 7.15 3.1 7.5 3.9 7.7 5.0 7.85 6.05 7.85 7.4 7.85 8.8 7.65 9.9 7.5 11.05 7.1 11.8 6.75 12.6 6.2 13.05 5.65 13.45 4.9 13.45 4.2 13.45 3.65 13.05 3.15 12.65 2.75 11.9 2.35 11.15 2.15 10.05 1.95 8.95 1.95 7.55" fill="#ffffff" fill-rule="evenodd" stroke="none"/>
  </g>
</svg>
