<?xml version="1.0" encoding="UTF-8" standalone="no"?>
<svg xmlns:xlink="http://www.w3.org/1999/xlink" height="32.95px" width="44.55px" xmlns="http://www.w3.org/2000/svg">
  <g transform="matrix(1.0, 0.0, 0.0, 1.0, 0.0, 0.0)">
    <path d="M44.55 3.55 L44.55 3.55 Q44.55 4.05 44.35 4.5 44.15 4.95 43.8 5.35 43.4 5.75 42.9 6.1 42.4 6.4 41.8 6.65 41.9 6.9 41.95 7.15 42.0 7.4 42.0 7.7 42.0 7.95 42.0 8.25 42.0 8.55 41.95 8.85 L40.0 21.45 Q39.9 22.3 39.5 23.1 39.1 23.85 38.5 24.5 37.95 25.15 37.2 25.65 36.45 26.15 35.65 26.4 L35.65 28.05 Q35.65 29.1 35.25 29.95 34.85 30.85 34.2 31.5 33.55 32.2 32.65 32.55 31.75 32.95 30.75 32.95 L13.75 32.95 Q12.75 32.95 11.9 32.55 11.0 32.2 10.3 31.5 9.65 30.85 9.3 29.95 8.9 29.1 8.9 28.05 L8.9 26.4 Q8.05 26.15 7.35 25.65 6.6 25.15 6.0 24.5 5.45 23.85 5.05 23.1 4.65 22.3 4.5 21.45 L2.55 8.85 Q2.55 8.55 2.5 8.25 2.5 7.95 2.5 7.7 2.55 7.4 2.6 7.15 2.65 6.9 2.7 6.65 2.1 6.4 1.6 6.1 1.1 5.75 0.75 5.35 0.35 4.95 0.15 4.5 0.0 4.05 0.0 3.55 0.0 2.8 0.4 2.15 0.8 1.5 1.55 1.0 2.3 0.55 3.25 0.25 4.2 0.0 5.35 0.0 L39.2 0.0 Q40.3 0.0 41.25 0.25 42.25 0.55 42.95 1.0 43.7 1.5 44.1 2.15 44.55 2.8 44.55 3.55 M23.45 22.9 L23.45 22.9 23.45 7.85 21.5 7.85 21.5 22.9 23.45 22.9" fill="#ffffff" fill-rule="evenodd" stroke="none"/>
  </g>
</svg>
