<?xml version="1.0" encoding="UTF-8" standalone="no"?>
<svg xmlns:xlink="http://www.w3.org/1999/xlink" height="126.0px" width="6.0px" xmlns="http://www.w3.org/2000/svg">
  <g transform="matrix(1.0, 0.0, 0.0, 1.0, 0.0, 0.0)">
    <path d="M3.0 0.0 L3.0 0.0 Q2.35 0.0 1.8 0.3 1.25 0.6 0.85 1.15 0.45 1.7 0.2 2.4 0.0 3.15 0.0 4.0 L0.0 122.0 Q0.0 122.8 0.2 123.55 0.45 124.25 0.85 124.8 1.25 125.35 1.8 125.65 2.35 126.0 3.0 126.0 3.6 126.0 4.15 125.65 4.7 125.35 5.1 124.8 5.5 124.25 5.75 123.55 6.0 122.8 6.0 122.0 L6.0 4.0 Q6.0 3.15 5.75 2.4 5.5 1.7 5.1 1.15 4.7 0.6 4.15 0.3 3.6 0.0 3.0 0.0" fill="#ffffff" fill-rule="evenodd" stroke="none"/>
  </g>
</svg>
