<?xml version="1.0" encoding="UTF-8" standalone="no"?>
<svg xmlns:xlink="http://www.w3.org/1999/xlink" height="6.0px" width="125.0px" xmlns="http://www.w3.org/2000/svg">
  <g transform="matrix(1.0, 0.0, 0.0, 1.0, 0.0, 0.0)">
    <path d="M125.0 3.0 L125.0 3.0 Q125.0 2.35 124.65 1.8 124.35 1.25 123.8 0.85 123.25 0.45 122.55 0.2 121.8 0.0 121.0 0.0 L4.0 0.0 Q3.15 0.0 2.4 0.2 1.7 0.45 1.15 0.85 0.6 1.25 0.3 1.8 0.0 2.35 0.0 3.0 0.0 3.6 0.3 4.15 0.6 4.7 1.15 5.1 1.7 5.5 2.4 5.75 3.15 6.0 4.0 6.0 L121.0 6.0 Q121.8 6.0 122.55 5.75 123.25 5.5 123.8 5.1 124.35 4.7 124.65 4.15 125.0 3.6 125.0 3.0" fill="#ffffff" fill-rule="evenodd" stroke="none"/>
  </g>
</svg>
