<?xml version="1.0" encoding="UTF-8" standalone="no"?>
<svg xmlns:xlink="http://www.w3.org/1999/xlink" height="86.25px" width="7.0px" xmlns="http://www.w3.org/2000/svg">
  <g transform="matrix(1.0, 0.0, 0.0, 1.0, 0.0, 0.0)">
    <path d="M7.0 74.4 L7.0 74.4 7.0 1.4 Q7.0 0.75 6.85 0.4 6.7 0.05 6.5 0.0 6.25 -0.05 5.95 0.15 5.65 0.35 5.3 0.85 L1.65 6.4 Q1.3 6.9 1.0 7.6 0.7 8.3 0.45 9.05 0.25 9.75 0.1 10.5 0.0 11.25 0.0 11.9 L0.0 84.9 Q0.0 85.5 0.1 85.85 0.25 86.2 0.45 86.25 0.7 86.35 1.0 86.1 1.3 85.9 1.65 85.4 L5.3 79.85 Q5.65 79.35 5.95 78.65 6.25 78.0 6.5 77.25 6.7 76.5 6.85 75.75 7.0 75.0 7.0 74.4" fill="#ffffff" fill-rule="evenodd" stroke="none"/>
  </g>
</svg>
