<?xml version="1.0" encoding="UTF-8" standalone="no"?>
<svg xmlns:xlink="http://www.w3.org/1999/xlink" height="83.9px" width="26.3px" xmlns="http://www.w3.org/2000/svg">
  <g transform="matrix(1.0, 0.0, 0.0, 1.0, 0.0, 0.0)">
    <path d="M0.0 75.35 L0.0 75.35 0.0 2.35 Q0.0 1.75 0.2 1.25 0.45 0.75 0.85 0.45 1.25 0.15 1.75 0.0 2.3 -0.05 2.9 0.05 L23.4 4.85 Q24.0 5.0 24.5 5.35 25.05 5.7 25.45 6.2 25.85 6.7 26.1 7.3 26.3 7.9 26.3 8.55 L26.3 81.55 Q26.3 82.15 26.1 82.65 25.85 83.15 25.45 83.45 25.05 83.75 24.5 83.9 24.0 84.0 23.4 83.85 L2.9 79.05 Q2.3 78.9 1.75 78.55 1.25 78.2 0.85 77.7 0.45 77.2 0.2 76.6 0.0 76.0 0.0 75.35" fill="#ffffff" fill-rule="evenodd" stroke="none"/>
  </g>
</svg>
