<?xml version="1.0" encoding="UTF-8" standalone="no"?>
<svg xmlns:xlink="http://www.w3.org/1999/xlink" height="85.3px" width="34.5px" xmlns="http://www.w3.org/2000/svg">
  <g transform="matrix(1.0, 0.0, 0.0, 1.0, 0.0, 0.0)">
    <path d="M0.0 75.4 L0.0 75.4 0.0 2.4 Q0.0 1.8 0.2 1.3 0.45 0.8 0.85 0.45 1.25 0.15 1.75 0.05 2.3 -0.05 2.9 0.05 L31.55 6.25 Q32.15 6.4 32.7 6.75 33.2 7.1 33.6 7.6 34.0 8.1 34.25 8.7 34.5 9.3 34.5 9.9 L34.5 82.9 Q34.5 83.5 34.25 84.0 34.0 84.5 33.6 84.85 33.2 85.15 32.7 85.3 32.15 85.4 31.55 85.25 L2.9 79.05 Q2.3 78.9 1.75 78.55 1.25 78.2 0.85 77.7 0.45 77.2 0.2 76.6 0.0 76.0 0.0 75.4" fill="#ffffff" fill-rule="evenodd" stroke="none"/>
  </g>
</svg>
