<?xml version="1.0" encoding="UTF-8" standalone="no"?>
<svg xmlns:xlink="http://www.w3.org/1999/xlink" height="85.3px" width="34.5px" xmlns="http://www.w3.org/2000/svg">
  <g transform="matrix(1.0, 0.0, 0.0, 1.0, 0.0, 0.0)">
    <path d="M34.5 75.4 L34.5 75.4 34.5 2.4 Q34.5 1.8 34.25 1.3 34.0 0.8 33.6 0.45 33.2 0.15 32.7 0.05 32.15 -0.05 31.55 0.05 L2.9 6.25 Q2.3 6.4 1.75 6.75 1.25 7.1 0.85 7.6 0.45 8.1 0.2 8.7 0.0 9.3 0.0 9.9 L0.0 82.9 Q0.0 83.5 0.2 84.0 0.45 84.5 0.85 84.85 1.25 85.15 1.75 85.3 2.3 85.4 2.9 85.25 L31.55 79.05 Q32.15 78.9 32.7 78.55 33.2 78.2 33.6 77.7 34.0 77.2 34.25 76.6 34.5 76.0 34.5 75.4" fill="#ffffff" fill-rule="evenodd" stroke="none"/>
  </g>
</svg>
