<?xml version="1.0" encoding="UTF-8" standalone="no"?>
<svg xmlns:xlink="http://www.w3.org/1999/xlink" height="83.9px" width="26.3px" xmlns="http://www.w3.org/2000/svg">
  <g transform="matrix(1.0, 0.0, 0.0, 1.0, 0.0, 0.0)">
    <path d="M26.3 75.35 L26.3 75.35 26.3 2.35 Q26.3 1.75 26.1 1.25 25.85 0.75 25.45 0.45 25.05 0.15 24.5 0.0 24.0 -0.05 23.4 0.05 L2.9 4.85 Q2.3 5.0 1.75 5.35 1.25 5.7 0.85 6.2 0.45 6.7 0.2 7.3 0.0 7.9 0.0 8.55 L0.0 81.55 Q0.0 82.15 0.2 82.65 0.45 83.15 0.85 83.45 1.25 83.75 1.75 83.9 2.3 84.0 2.9 83.85 L23.4 79.05 Q24.0 78.9 24.5 78.55 25.05 78.2 25.45 77.7 25.85 77.2 26.1 76.6 26.3 76.0 26.3 75.35" fill="#ffffff" fill-rule="evenodd" stroke="none"/>
  </g>
</svg>
