<?xml version="1.0" encoding="UTF-8" standalone="no"?>
<svg xmlns:xlink="http://www.w3.org/1999/xlink" height="86.25px" width="7.0px" xmlns="http://www.w3.org/2000/svg">
  <g transform="matrix(1.0, 0.0, 0.0, 1.0, 0.0, 0.0)">
    <path d="M0.0 74.4 L0.0 74.4 0.0 1.4 Q0.0 0.75 0.1 0.4 0.25 0.05 0.45 0.0 0.7 -0.05 1.0 0.15 1.3 0.35 1.65 0.85 L5.3 6.4 Q5.65 6.9 5.95 7.6 6.25 8.3 6.5 9.05 6.7 9.75 6.85 10.5 7.0 11.25 7.0 11.9 L7.0 84.9 Q7.0 85.5 6.85 85.85 6.7 86.2 6.5 86.25 6.25 86.35 5.95 86.1 5.65 85.9 5.3 85.4 L1.65 79.85 Q1.3 79.35 1.0 78.65 0.7 78.0 0.45 77.25 0.25 76.5 0.1 75.75 0.0 75.0 0.0 74.4" fill="#ffffff" fill-rule="evenodd" stroke="none"/>
  </g>
</svg>
