<?xml version="1.0" encoding="UTF-8" standalone="no"?>
<svg xmlns:xlink="http://www.w3.org/1999/xlink" height="26.9px" width="26.5px" xmlns="http://www.w3.org/2000/svg">
  <g transform="matrix(1.0, 0.0, 0.0, 1.0, 0.0, 0.0)">
    <path d="M2.15 4.5 L2.15 4.5 0.5 6.05 Q0.3 6.25 0.15 6.55 0.0 6.85 0.0 7.15 0.0 7.4 0.05 7.7 0.15 8.0 0.4 8.25 0.6 8.5 0.9 8.6 1.15 8.7 1.45 8.7 1.75 8.7 2.05 8.55 2.35 8.45 2.6 8.2 L4.2 6.7 Q6.05 4.95 8.2 4.05 10.4 3.15 12.6 3.1 14.85 3.05 16.9 3.85 19.0 4.65 20.55 6.35 22.15 8.05 22.85 10.15 23.55 12.25 23.35 14.5 23.15 16.7 22.15 18.8 21.15 20.95 19.3 22.7 L17.7 24.2 Q17.45 24.45 17.3 24.7 17.15 25.0 17.15 25.3 17.1 25.6 17.2 25.9 17.3 26.15 17.55 26.4 17.8 26.65 18.05 26.75 18.35 26.9 18.65 26.85 18.95 26.85 19.2 26.75 19.5 26.6 19.75 26.4 L21.35 24.85 Q23.7 22.7 25.0 20.0 26.25 17.3 26.5 14.5 26.7 11.7 25.85 9.0 24.95 6.3 22.9 4.15 20.9 2.0 18.25 0.95 15.6 -0.05 12.8 0.0 10.0 0.05 7.2 1.2 4.45 2.35 2.15 4.5" fill="#f49b0b" fill-rule="evenodd" stroke="none"/>
  </g>
</svg>
