<?xml version="1.0" encoding="UTF-8" standalone="no"?>
<svg xmlns:xlink="http://www.w3.org/1999/xlink" height="19.2px" width="28.0px" xmlns="http://www.w3.org/2000/svg">
  <g transform="matrix(1.0, 0.0, 0.0, 1.0, 0.0, 0.0)">
    <path d="M0.0 15.35 L0.0 15.35 0.0 17.55 Q0.0 17.9 0.1 18.2 0.2 18.5 0.4 18.7 0.6 18.9 0.85 19.05 1.15 19.2 1.5 19.2 1.8 19.2 2.1 19.05 2.35 18.9 2.55 18.7 2.75 18.5 2.85 18.2 3.0 17.9 3.0 17.55 L3.0 15.35 Q3.0 12.85 3.85 10.6 4.7 8.4 6.15 6.75 7.65 5.1 9.65 4.15 11.65 3.2 13.95 3.2 16.3 3.2 18.3 4.15 20.3 5.1 21.8 6.75 23.25 8.4 24.1 10.6 25.0 12.85 25.0 15.35 L25.0 17.55 Q25.0 17.9 25.1 18.2 25.2 18.5 25.4 18.7 25.6 18.9 25.85 19.05 26.15 19.2 26.45 19.2 26.8 19.2 27.1 19.05 27.35 18.9 27.55 18.7 27.75 18.5 27.85 18.2 28.0 17.9 28.0 17.55 L28.0 15.35 Q28.0 12.15 26.9 9.35 25.85 6.55 23.95 4.5 22.05 2.4 19.5 1.2 16.95 0.0 14.0 0.0 11.0 0.0 8.45 1.2 5.9 2.4 4.0 4.5 2.1 6.55 1.05 9.35 0.0 12.15 0.0 15.35" fill="#f49b0b" fill-rule="evenodd" stroke="none"/>
  </g>
</svg>
