<?xml version="1.0" encoding="UTF-8" standalone="no"?>
<svg xmlns:xlink="http://www.w3.org/1999/xlink" height="79.05px" width="6.9px" xmlns="http://www.w3.org/2000/svg">
  <g transform="matrix(1.0, 0.0, 0.0, 1.0, 0.0, 0.0)">
    <path d="M0.0 1.2 L0.0 1.2 Q0.0 0.95 0.05 0.7 0.15 0.5 0.35 0.35 0.5 0.15 0.7 0.05 0.95 0.0 1.2 0.0 L5.65 0.0 Q5.9 0.0 6.15 0.05 6.35 0.15 6.5 0.35 6.65 0.5 6.75 0.7 6.85 0.95 6.85 1.2 L6.85 15.7 6.85 19.05 6.85 32.6 6.85 33.55 6.9 49.5 6.9 50.45 6.9 60.0 6.9 67.35 6.9 77.85 Q6.9 78.1 6.8 78.3 6.7 78.55 6.55 78.7 6.35 78.85 6.15 78.95 5.95 79.05 5.7 79.05 L1.2 79.05 Q0.95 79.05 0.75 78.95 0.5 78.85 0.35 78.7 0.2 78.55 0.1 78.3 0.0 78.1 0.0 77.85 L0.0 67.35 0.0 60.0 0.0 50.45 0.0 49.5 0.0 33.55 0.0 32.6 0.0 19.05 0.0 15.7 0.0 1.2" fill="#ffffff" fill-rule="evenodd" stroke="none"/>
  </g>
</svg>
