<?xml version="1.0" encoding="UTF-8" standalone="no"?>
<svg xmlns:xlink="http://www.w3.org/1999/xlink" height="6.85px" width="79.05px" xmlns="http://www.w3.org/2000/svg">
  <g transform="matrix(1.0, 0.0, 0.0, 1.0, 0.0, 0.0)">
    <path d="M77.85 0.0 L77.85 0.0 Q78.1 0.0 78.3 0.05 78.55 0.15 78.7 0.35 78.85 0.5 78.95 0.7 79.05 0.95 79.05 1.2 L79.05 5.65 Q79.05 5.9 78.95 6.15 78.85 6.35 78.7 6.5 78.55 6.65 78.3 6.75 78.1 6.85 77.85 6.85 L63.3 6.85 60.0 6.85 46.45 6.85 45.45 6.85 29.55 6.85 28.6 6.85 19.05 6.85 11.7 6.85 1.2 6.85 Q0.95 6.85 0.7 6.75 0.5 6.65 0.35 6.5 0.15 6.35 0.05 6.15 0.0 5.9 0.0 5.65 L0.0 1.2 Q0.0 0.95 0.05 0.7 0.15 0.5 0.35 0.35 0.5 0.15 0.7 0.05 0.95 0.0 1.2 0.0 L11.7 0.0 19.05 0.0 28.6 0.0 29.55 0.0 45.45 0.0 46.45 0.0 60.0 0.0 63.3 0.0 77.85 0.0" fill="#ffffff" fill-rule="evenodd" stroke="none"/>
  </g>
</svg>
