<?xml version="1.0" encoding="UTF-8" standalone="no"?>
<svg xmlns:xlink="http://www.w3.org/1999/xlink" height="41.3px" width="72.65px" xmlns="http://www.w3.org/2000/svg">
  <g transform="matrix(1.0, 0.0, 0.0, 1.0, 0.0, 0.0)">
    <path d="M68.9 0.1 L68.9 0.1 Q69.1 0.0 69.35 0.0 69.6 0.0 69.8 0.05 70.0 0.1 70.2 0.25 70.4 0.4 70.5 0.65 L72.55 4.6 Q72.65 4.85 72.65 5.1 72.7 5.3 72.6 5.55 72.55 5.75 72.4 5.95 72.25 6.1 72.0 6.25 L59.1 12.85 56.15 14.35 44.05 20.55 43.2 21.0 29.0 28.25 28.15 28.7 19.65 33.05 13.1 36.4 3.75 41.15 Q3.55 41.3 3.3 41.3 3.05 41.3 2.85 41.25 2.65 41.15 2.45 41.0 2.25 40.85 2.15 40.65 L0.1 36.65 Q0.0 36.45 0.0 36.2 0.0 35.95 0.05 35.75 0.1 35.5 0.25 35.35 0.4 35.15 0.65 35.05 L10.0 30.25 16.5 26.9 25.0 22.55 25.85 22.1 40.05 14.85 40.9 14.4 53.0 8.25 55.95 6.75 68.9 0.1" fill="#ffffff" fill-rule="evenodd" stroke="none"/>
  </g>
</svg>
