<?xml version="1.0" encoding="UTF-8" standalone="no"?>
<svg xmlns:xlink="http://www.w3.org/1999/xlink" height="72.0px" width="46.75px" xmlns="http://www.w3.org/2000/svg">
  <g transform="matrix(1.0, 0.0, 0.0, 1.0, 0.0, 0.0)">
    <path d="M33.4 28.0 L33.4 28.0 Q32.75 28.65 32.2 29.35 31.65 30.1 31.25 30.9 30.8 31.65 30.55 32.55 30.25 33.4 30.2 34.4 30.1 35.35 30.1 36.35 30.1 37.3 30.25 38.2 30.35 39.1 30.7 40.0 31.0 40.85 31.6 41.65 32.0 42.3 32.5 42.85 33.0 43.45 33.5 44.05 34.0 44.6 34.55 45.15 35.05 45.7 35.6 46.25 36.95 47.65 38.0 49.2 39.05 50.75 39.8 52.4 40.55 54.1 41.05 55.9 41.55 57.75 41.75 59.7 41.85 60.3 41.9 60.95 41.95 61.6 42.0 62.2 42.05 62.85 42.1 63.5 42.15 64.15 42.2 64.75 L46.75 64.75 46.75 72.0 0.0 72.0 0.0 64.75 4.55 64.75 Q4.6 64.15 4.65 63.5 4.7 62.85 4.75 62.2 4.8 61.6 4.85 60.95 4.9 60.3 5.0 59.7 5.2 57.75 5.7 55.9 6.2 54.1 6.95 52.4 7.7 50.75 8.75 49.2 9.8 47.65 11.15 46.25 11.7 45.7 12.2 45.15 12.75 44.6 13.25 44.05 13.75 43.45 14.25 42.85 14.7 42.3 15.15 41.65 15.75 40.85 16.05 40.0 16.4 39.1 16.5 38.2 16.65 37.3 16.65 36.35 16.65 35.35 16.55 34.4 16.5 33.4 16.2 32.55 15.95 31.65 15.5 30.9 15.1 30.1 14.55 29.35 14.0 28.65 13.35 28.0 13.15 27.75 12.95 27.55 12.7 27.35 12.5 27.1 12.3 26.9 12.1 26.7 11.9 26.5 11.7 26.25 10.05 24.7 8.85 22.9 7.65 21.1 6.8 19.1 5.95 17.1 5.45 14.95 4.95 12.8 4.8 10.5 4.75 10.1 4.7 9.7 4.7 9.25 4.65 8.85 4.65 8.45 4.6 8.0 4.6 7.6 4.6 7.2 L0.0 7.2 0.0 0.0 46.75 0.0 46.75 7.2 42.15 7.2 Q42.15 7.6 42.15 8.0 42.1 8.45 42.1 8.85 42.05 9.25 42.0 9.7 42.0 10.1 41.95 10.5 41.8 12.8 41.3 14.95 40.8 17.1 39.95 19.1 39.1 21.1 37.9 22.9 36.7 24.7 35.05 26.25 34.85 26.5 34.65 26.7 34.45 26.9 34.25 27.1 34.05 27.35 33.8 27.55 33.6 27.75 33.4 28.0 M30.25 46.75 L30.25 46.75 Q28.7 45.1 27.75 43.3 26.8 41.5 26.4 39.55 26.0 37.6 26.1 35.55 26.2 33.45 26.7 31.3 26.9 30.5 27.2 29.75 27.5 29.05 27.9 28.35 28.3 27.65 28.75 27.05 29.25 26.4 29.75 25.85 30.1 25.45 30.4 25.1 30.75 24.75 31.1 24.4 31.4 24.0 31.75 23.65 32.1 23.3 32.45 22.95 33.8 21.65 34.75 20.2 35.7 18.7 36.4 17.1 37.05 15.45 37.45 13.7 37.8 11.95 37.95 10.05 38.0 9.7 38.0 9.35 38.0 9.0 38.05 8.65 38.05 8.3 38.1 7.9 38.1 7.55 38.15 7.2 L8.6 7.2 Q8.65 7.55 8.65 7.9 8.7 8.3 8.7 8.65 8.7 9.0 8.75 9.35 8.75 9.7 8.8 10.05 8.95 11.95 9.3 13.7 9.7 15.45 10.35 17.1 11.05 18.7 12.0 20.2 12.95 21.65 14.3 22.95 14.65 23.3 15.0 23.65 15.35 24.0 15.65 24.4 16.0 24.75 16.35 25.1 16.65 25.45 17.0 25.85 17.5 26.4 18.0 27.05 18.45 27.65 18.85 28.35 19.25 29.05 19.55 29.75 19.85 30.5 20.05 31.3 20.55 33.45 20.65 35.55 20.75 37.6 20.35 39.55 19.9 41.5 19.0 43.3 18.05 45.1 16.5 46.75 16.25 47.0 16.0 47.25 15.75 47.5 15.5 47.75 15.3 48.0 15.05 48.25 14.8 48.5 14.55 48.75 13.4 49.85 12.5 51.05 11.6 52.3 10.9 53.65 10.2 54.95 9.75 56.45 9.3 57.9 9.1 59.55 9.0 60.2 8.9 60.85 8.85 61.5 8.8 62.15 8.75 62.8 8.7 63.45 8.65 64.1 8.6 64.75 L38.15 64.75 Q38.1 64.1 38.05 63.45 38.0 62.8 37.95 62.15 37.9 61.5 37.85 60.85 37.75 60.2 37.65 59.55 37.45 57.9 37.0 56.45 36.55 54.95 35.85 53.65 35.15 52.3 34.25 51.05 33.35 49.85 32.2 48.75 31.95 48.5 31.7 48.25 31.45 48.0 31.25 47.75 31.0 47.5 30.75 47.25 30.5 47.0 30.25 46.75" fill="#ffffff" fill-rule="evenodd" stroke="none"/>
  </g>
</svg>
