<?xml version="1.0" encoding="UTF-8" standalone="no"?>
<svg xmlns:xlink="http://www.w3.org/1999/xlink" height="19.05px" width="21.7px" xmlns="http://www.w3.org/2000/svg">
  <g transform="matrix(1.0, 0.0, 0.0, 1.0, 0.0, 0.0)">
    <path d="M6.55 7.1 L6.55 7.1 Q7.3 6.3 7.95 5.45 8.6 4.6 9.15 3.7 9.7 2.85 10.1 1.9 10.55 0.95 10.85 0.0 11.15 0.95 11.6 1.9 12.0 2.85 12.55 3.7 13.1 4.6 13.7 5.45 14.35 6.3 15.15 7.1 L15.65 7.65 Q15.8 7.85 16.0 8.05 16.2 8.25 16.4 8.45 16.6 8.65 16.8 8.85 17.0 9.05 17.2 9.2 18.1 10.1 18.85 11.1 19.6 12.1 20.15 13.15 20.65 14.25 21.05 15.4 21.4 16.6 21.55 17.9 21.6 18.05 21.6 18.15 21.6 18.3 21.65 18.45 21.65 18.6 21.7 18.75 21.7 18.9 21.7 19.05 L0.0 19.05 Q0.0 18.9 0.0 18.75 0.0 18.6 0.05 18.45 0.05 18.3 0.1 18.15 0.1 18.05 0.1 17.9 0.3 16.6 0.65 15.4 1.0 14.25 1.55 13.15 2.1 12.1 2.85 11.1 3.55 10.1 4.5 9.2 4.7 9.05 4.9 8.85 5.1 8.65 5.3 8.45 5.5 8.25 5.65 8.05 5.85 7.85 6.05 7.65 L6.55 7.1" fill="#ffffff" fill-rule="evenodd" stroke="none"/>
  </g>
</svg>
