<?xml version="1.0" encoding="UTF-8" standalone="no"?>
<svg xmlns:xlink="http://www.w3.org/1999/xlink" height="19.05px" width="21.75px" xmlns="http://www.w3.org/2000/svg">
  <g transform="matrix(1.0, 0.0, 0.0, 1.0, 0.0, 0.0)">
    <path d="M16.05 11.0 L16.05 11.0 Q15.9 11.2 15.7 11.4 15.5 11.6 15.35 11.8 15.15 12.0 14.95 12.2 14.75 12.4 14.55 12.65 14.2 13.0 13.9 13.4 13.6 13.8 13.3 14.2 13.0 14.6 12.75 15.0 12.5 15.35 12.25 15.75 12.05 16.15 11.85 16.55 11.6 16.95 11.45 17.4 11.3 17.8 11.15 18.2 11.0 18.6 10.85 19.05 10.75 18.6 10.6 18.2 10.45 17.8 10.3 17.4 10.1 16.95 9.9 16.55 9.7 16.15 9.45 15.75 9.25 15.35 9.0 15.0 8.75 14.6 8.45 14.2 8.15 13.8 7.85 13.4 7.5 13.0 7.15 12.65 6.95 12.4 6.8 12.2 6.6 12.0 6.4 11.8 6.2 11.6 6.05 11.4 5.85 11.2 5.7 11.0 5.5 10.8 5.35 10.65 5.15 10.45 5.0 10.3 4.8 10.1 4.65 9.95 4.5 9.75 4.3 9.6 3.85 9.15 3.45 8.65 3.05 8.2 2.65 7.65 2.3 7.15 2.0 6.55 1.7 6.0 1.4 5.4 1.15 4.8 0.9 4.2 0.7 3.55 0.5 2.85 0.35 2.2 0.2 1.45 0.05 0.75 0.0 0.0 0.0 0.0 0.9 0.65 1.85 1.35 3.35 2.15 4.9 2.95 6.85 3.65 8.8 4.3 10.85 4.3 12.9 4.3 14.9 3.65 16.85 2.95 18.35 2.15 19.9 1.35 20.8 0.65 21.75 0.0 21.75 0.0 21.65 0.75 21.55 1.45 21.4 2.2 21.2 2.85 21.05 3.55 20.8 4.2 20.6 4.8 20.3 5.4 20.05 6.0 19.75 6.55 19.4 7.15 19.05 7.65 18.7 8.2 18.3 8.65 17.9 9.15 17.4 9.6 17.25 9.75 17.1 9.95 16.9 10.1 16.75 10.3 16.6 10.45 16.4 10.65 16.25 10.8 16.05 11.0" fill="#ffffff" fill-rule="evenodd" stroke="none"/>
  </g>
</svg>
