<?xml version="1.0" encoding="UTF-8" standalone="no"?>
<svg xmlns:xlink="http://www.w3.org/1999/xlink" height="65.95px" width="53.0px" xmlns="http://www.w3.org/2000/svg">
  <g transform="matrix(1.0, 0.0, 0.0, 1.0, -45.2, -36.35)">
    <path d="M91.95 78.9 L91.95 78.9 Q91.8 79.05 91.7 79.2 91.55 79.35 91.4 79.55 91.3 79.7 91.15 79.85 91.0 80.0 90.85 80.15 89.8 81.55 88.9 83.0 88.0 84.45 87.35 85.9 86.65 87.4 86.15 88.85 85.65 90.35 85.35 91.8 L84.05 98.25 Q83.95 99.1 83.55 99.8 83.15 100.55 82.55 101.1 81.9 101.65 81.15 102.0 80.35 102.3 79.5 102.3 L63.9 102.3 Q63.05 102.3 62.25 102.0 61.5 101.65 60.85 101.1 60.25 100.55 59.85 99.8 59.45 99.1 59.35 98.25 L58.05 91.75 Q57.75 90.3 57.25 88.85 56.75 87.4 56.05 85.9 55.4 84.45 54.5 83.0 53.65 81.55 52.55 80.2 52.4 80.05 52.25 79.85 52.1 79.7 52.0 79.5 51.85 79.35 51.7 79.2 51.55 79.0 51.45 78.85 51.4 78.85 51.4 78.85 51.4 78.85 51.4 78.8 51.4 78.8 51.4 78.8 51.4 78.8 51.4 78.8 L51.4 78.8 Q49.9 76.9 48.75 74.85 47.6 72.8 46.8 70.75 46.0 68.7 45.6 66.7 45.2 64.7 45.2 62.85 45.2 58.9 47.1 54.3 48.95 49.65 52.4 45.65 55.9 41.7 60.75 39.05 65.65 36.35 71.7 36.35 77.75 36.35 82.65 39.05 87.5 41.7 91.0 45.65 94.45 49.65 96.3 54.3 98.2 58.9 98.2 62.85 98.2 64.7 97.8 66.7 97.4 68.7 96.6 70.75 95.8 72.8 94.65 74.85 93.5 76.9 92.0 78.8 L92.0 78.8 Q92.0 78.8 92.0 78.8 92.0 78.85 92.0 78.85 91.95 78.85 91.95 78.85 91.95 78.85 91.95 78.9" fill="#ffffff" fill-rule="evenodd" stroke="none"/>
  </g>
</svg>
