<?xml version="1.0" encoding="UTF-8" standalone="no"?>
<svg xmlns:xlink="http://www.w3.org/1999/xlink" height="3.0px" width="16.05px" xmlns="http://www.w3.org/2000/svg">
  <g transform="matrix(1.0, 0.0, 0.0, 1.0, -511.95, -112.35)">
    <path d="M528.0 114.05 L528.0 114.05 528.0 113.65 Q528.0 113.4 527.85 113.15 527.75 112.9 527.6 112.75 527.4 112.55 527.2 112.45 526.95 112.35 526.65 112.35 L513.3 112.35 Q513.0 112.35 512.75 112.45 512.55 112.55 512.35 112.75 512.2 112.9 512.1 113.15 511.95 113.4 511.95 113.65 L511.95 114.05 Q511.95 114.35 512.1 114.55 512.2 114.8 512.35 115.0 512.55 115.15 512.75 115.25 513.0 115.35 513.3 115.35 L526.65 115.35 Q526.95 115.35 527.2 115.25 527.4 115.15 527.6 115.0 527.75 114.8 527.85 114.55 528.0 114.35 528.0 114.05" fill="#ffffff" fill-rule="evenodd" stroke="none"/>
  </g>
</svg>
