<?xml version="1.0" encoding="UTF-8" standalone="no"?>
<svg xmlns:xlink="http://www.w3.org/1999/xlink" height="12.65px" width="9.05px" xmlns="http://www.w3.org/2000/svg">
  <g transform="matrix(1.0, 0.0, 0.0, 1.0, -491.7, -15.0)">
    <path d="M500.45 24.65 L500.45 24.65 495.45 16.0 Q495.25 15.65 494.95 15.4 494.6 15.15 494.25 15.05 493.85 15.0 493.5 15.0 493.1 15.05 492.75 15.25 L492.7 15.3 Q492.35 15.5 492.15 15.8 491.9 16.1 491.8 16.5 491.7 16.85 491.75 17.25 491.8 17.65 492.0 18.0 L497.0 26.65 Q497.2 27.05 497.5 27.25 497.85 27.5 498.2 27.6 498.6 27.7 498.95 27.65 499.35 27.6 499.7 27.4 L499.75 27.4 Q500.1 27.2 500.3 26.85 500.55 26.55 500.65 26.2 500.75 25.8 500.7 25.4 500.65 25.05 500.45 24.65" fill="#ffffff" fill-rule="evenodd" stroke="none"/>
  </g>
</svg>
