<?xml version="1.0" encoding="UTF-8" standalone="no"?>
<svg xmlns:xlink="http://www.w3.org/1999/xlink" height="9.05px" width="12.65px" xmlns="http://www.w3.org/2000/svg">
  <g transform="matrix(1.0, 0.0, 0.0, 1.0, -472.5, -34.2)">
    <path d="M484.15 39.5 L484.15 39.5 475.5 34.5 Q475.15 34.3 474.75 34.25 474.35 34.2 474.0 34.3 473.6 34.4 473.3 34.65 473.0 34.85 472.8 35.2 L472.8 35.25 Q472.55 35.6 472.5 36.0 472.5 36.35 472.6 36.75 472.7 37.1 472.9 37.45 473.15 37.75 473.5 37.95 L482.15 42.95 Q482.55 43.15 482.9 43.2 483.3 43.25 483.7 43.15 484.05 43.05 484.4 42.8 484.7 42.6 484.9 42.25 L484.9 42.2 Q485.1 41.85 485.15 41.45 485.2 41.1 485.1 40.7 485.0 40.35 484.75 40.0 484.55 39.7 484.15 39.5" fill="#ffffff" fill-rule="evenodd" stroke="none"/>
  </g>
</svg>
