<?xml version="1.0" encoding="UTF-8" standalone="no"?>
<svg xmlns:xlink="http://www.w3.org/1999/xlink" height="4.0px" width="14.0px" xmlns="http://www.w3.org/2000/svg">
  <g transform="matrix(1.0, 0.0, 0.0, 1.0, -465.5, -60.45)">
    <path d="M477.5 60.45 L477.5 60.45 467.45 60.45 Q467.05 60.45 466.7 60.65 466.35 60.8 466.05 61.05 465.8 61.35 465.65 61.7 465.5 62.05 465.5 62.45 L465.5 62.5 Q465.5 62.9 465.65 63.25 465.8 63.6 466.05 63.9 466.35 64.15 466.7 64.3 467.05 64.45 467.45 64.45 L477.5 64.45 Q477.9 64.45 478.25 64.3 478.6 64.15 478.9 63.9 479.15 63.6 479.3 63.25 479.5 62.9 479.5 62.5 L479.5 62.45 Q479.5 62.05 479.3 61.7 479.15 61.35 478.9 61.05 478.6 60.8 478.25 60.65 477.9 60.45 477.5 60.45" fill="#ffffff" fill-rule="evenodd" stroke="none"/>
  </g>
</svg>
