<?xml version="1.0" encoding="UTF-8" standalone="no"?>
<svg xmlns:xlink="http://www.w3.org/1999/xlink" height="11.05px" width="11.05px" xmlns="http://www.w3.org/2000/svg">
  <g transform="matrix(1.0, 0.0, 0.0, 1.0, -473.3, -80.7)">
    <path d="M480.95 81.3 L480.95 81.3 473.9 88.35 Q473.6 88.65 473.45 89.0 473.3 89.35 473.3 89.75 473.3 90.15 473.45 90.5 473.6 90.9 473.9 91.15 L473.9 91.15 Q474.2 91.45 474.55 91.6 474.9 91.75 475.3 91.75 475.7 91.75 476.05 91.6 476.45 91.45 476.7 91.15 L483.8 84.1 Q484.1 83.8 484.25 83.45 484.35 83.05 484.35 82.7 484.35 82.3 484.25 81.95 484.1 81.55 483.8 81.3 L483.8 81.25 Q483.5 81.0 483.15 80.85 482.75 80.7 482.35 80.7 482.0 80.7 481.6 80.85 481.25 81.0 480.95 81.3" fill="#ffffff" fill-rule="evenodd" stroke="none"/>
  </g>
</svg>
