<?xml version="1.0" encoding="UTF-8" standalone="no"?>
<svg xmlns:xlink="http://www.w3.org/1999/xlink" height="12.65px" width="9.0px" xmlns="http://www.w3.org/2000/svg">
  <g transform="matrix(1.0, 0.0, 0.0, 1.0, -539.2, -15.0)">
    <path d="M544.5 16.0 L544.5 16.0 539.5 24.65 Q539.3 25.05 539.25 25.4 539.2 25.8 539.3 26.2 539.4 26.55 539.65 26.85 539.85 27.2 540.25 27.4 L540.25 27.4 Q540.6 27.6 541.0 27.65 541.35 27.7 541.75 27.6 542.1 27.5 542.45 27.25 542.75 27.05 542.95 26.65 L547.95 18.0 Q548.15 17.65 548.2 17.25 548.25 16.85 548.15 16.5 548.05 16.1 547.8 15.8 547.6 15.5 547.2 15.3 L547.2 15.3 Q546.85 15.05 546.45 15.0 546.1 15.0 545.7 15.1 545.35 15.2 545.0 15.4 544.7 15.65 544.5 16.0" fill="#ffffff" fill-rule="evenodd" stroke="none"/>
  </g>
</svg>
