<?xml version="1.0" encoding="UTF-8" standalone="no"?>
<svg xmlns:xlink="http://www.w3.org/1999/xlink" height="3.0px" width="20.0px" xmlns="http://www.w3.org/2000/svg">
  <g transform="matrix(1.0, 0.0, 0.0, 1.0, -61.7, -108.35)">
    <path d="M81.7 109.95 L81.7 109.95 81.7 109.75 Q81.7 109.5 81.6 109.2 81.5 108.95 81.3 108.75 81.1 108.6 80.85 108.45 80.6 108.35 80.3 108.35 L63.1 108.35 Q62.8 108.35 62.55 108.45 62.3 108.6 62.1 108.75 61.9 108.95 61.8 109.2 61.7 109.5 61.7 109.75 L61.7 109.95 Q61.7 110.25 61.8 110.5 61.9 110.75 62.1 110.95 62.3 111.15 62.55 111.25 62.8 111.35 63.1 111.35 L80.3 111.35 Q80.6 111.35 80.85 111.25 81.1 111.15 81.3 110.95 81.5 110.75 81.6 110.5 81.7 110.25 81.7 109.95" fill="#ffffff" fill-rule="evenodd" stroke="none"/>
  </g>
</svg>
