<?xml version="1.0" encoding="UTF-8" standalone="no"?>
<svg xmlns:xlink="http://www.w3.org/1999/xlink" height="41.0px" width="26.2px" xmlns="http://www.w3.org/2000/svg">
  <g transform="matrix(1.0, 0.0, 0.0, 1.0, 0.0, 0.0)">
    <path d="M7.45 37.7 L7.45 37.7 25.15 7.05 Q25.75 6.05 26.0 5.0 26.25 3.95 26.2 3.05 26.15 2.15 25.8 1.45 25.4 0.7 24.75 0.3 24.1 0.0 23.25 0.0 22.45 0.0 21.65 0.45 20.8 0.85 20.05 1.55 19.3 2.3 18.7 3.3 L1.0 33.95 Q0.45 34.95 0.2 36.0 0.0 37.0 0.0 37.95 0.05 38.85 0.4 39.55 0.8 40.3 1.45 40.65 2.1 41.05 2.9 41.0 3.75 40.95 4.55 40.55 5.35 40.15 6.15 39.4 6.9 38.7 7.45 37.7" fill="#ffffff" fill-rule="evenodd" stroke="none"/>
  </g>
</svg>
