<?xml version="1.0" encoding="UTF-8" standalone="no"?>
<svg xmlns:xlink="http://www.w3.org/1999/xlink" height="60.85px" width="8.5px" xmlns="http://www.w3.org/2000/svg">
  <g transform="matrix(1.0, 0.0, 0.0, 1.0, 0.0, 0.0)">
    <path d="M8.5 51.8 L8.5 51.8 8.5 1.6 Q8.5 0.95 8.3 0.6 8.1 0.2 7.8 0.05 7.5 -0.05 7.1 0.05 6.7 0.15 6.2 0.55 L2.25 4.1 Q1.75 4.5 1.35 5.1 0.95 5.7 0.65 6.35 0.35 7.05 0.15 7.75 0.0 8.45 0.0 9.05 L0.0 59.25 Q0.0 59.9 0.15 60.25 0.35 60.65 0.65 60.8 0.95 60.95 1.35 60.8 1.75 60.7 2.25 60.3 L6.2 56.75 Q6.7 56.35 7.1 55.75 7.5 55.15 7.8 54.5 8.1 53.8 8.3 53.1 8.5 52.4 8.5 51.8" fill="#ffffff" fill-rule="evenodd" stroke="none"/>
  </g>
</svg>
