<?xml version="1.0" encoding="UTF-8" standalone="no"?>
<svg xmlns:xlink="http://www.w3.org/1999/xlink" height="64.3px" width="41.8px" xmlns="http://www.w3.org/2000/svg">
  <g transform="matrix(1.0, 0.0, 0.0, 1.0, 0.0, 0.0)">
    <path d="M29.85 25.0 L29.85 25.0 Q29.3 25.6 28.8 26.25 28.3 26.9 27.9 27.6 27.5 28.3 27.3 29.1 27.05 29.85 27.0 30.75 26.9 31.6 26.9 32.45 26.9 33.3 27.0 34.15 27.15 34.95 27.4 35.75 27.7 36.5 28.2 37.2 28.6 37.8 29.05 38.3 29.5 38.85 29.95 39.35 30.4 39.85 30.85 40.35 31.35 40.85 31.8 41.35 33.0 42.6 33.95 43.95 34.9 45.35 35.55 46.85 36.25 48.35 36.7 49.95 37.1 51.6 37.3 53.35 37.4 53.9 37.45 54.45 37.5 55.05 37.55 55.6 37.6 56.15 37.65 56.75 37.65 57.3 37.7 57.9 L41.8 57.9 41.8 64.3 0.0 64.3 0.0 57.9 4.05 57.9 Q4.1 57.3 4.15 56.75 4.2 56.15 4.25 55.6 4.3 55.05 4.35 54.45 4.4 53.9 4.45 53.35 4.65 51.6 5.1 49.95 5.55 48.35 6.2 46.85 6.9 45.35 7.85 43.95 8.75 42.6 9.95 41.35 10.45 40.85 10.9 40.35 11.35 39.85 11.85 39.35 12.3 38.85 12.7 38.3 13.15 37.8 13.55 37.2 14.05 36.5 14.35 35.75 14.65 34.95 14.75 34.15 14.85 33.3 14.85 32.45 14.85 31.6 14.8 30.75 14.75 29.85 14.5 29.1 14.25 28.3 13.85 27.6 13.5 26.9 13.0 26.25 12.5 25.6 11.9 25.0 11.75 24.8 11.55 24.6 11.35 24.4 11.2 24.25 11.0 24.05 10.8 23.85 10.65 23.65 10.45 23.5 9.0 22.05 7.9 20.45 6.8 18.85 6.05 17.05 5.3 15.3 4.9 13.35 4.45 11.45 4.25 9.4 4.25 9.0 4.2 8.65 4.2 8.3 4.15 7.9 4.15 7.55 4.15 7.15 4.1 6.8 4.1 6.4 L0.0 6.4 0.0 0.0 41.8 0.0 41.8 6.4 37.7 6.4 Q37.65 6.8 37.65 7.15 37.6 7.55 37.6 7.9 37.6 8.3 37.55 8.65 37.55 9.0 37.5 9.4 37.35 11.45 36.9 13.35 36.45 15.3 35.7 17.05 34.95 18.85 33.9 20.45 32.8 22.05 31.35 23.5 31.15 23.65 30.95 23.85 30.75 24.05 30.6 24.25 30.4 24.4 30.2 24.6 30.05 24.8 29.85 25.0 M27.05 41.75 L27.05 41.75 Q25.65 40.3 24.8 38.7 23.95 37.1 23.6 35.35 23.25 33.6 23.35 31.75 23.4 29.9 23.85 27.95 24.05 27.25 24.3 26.6 24.6 25.95 24.95 25.35 25.3 24.75 25.7 24.15 26.1 23.6 26.6 23.1 26.9 22.75 27.2 22.45 27.5 22.1 27.8 21.8 28.1 21.45 28.4 21.15 28.7 20.85 29.0 20.5 30.2 19.35 31.05 18.05 31.9 16.7 32.5 15.25 33.1 13.8 33.45 12.25 33.8 10.65 33.9 9.0 33.95 8.7 33.95 8.35 34.0 8.05 34.0 7.7 34.0 7.4 34.05 7.05 34.05 6.75 34.05 6.4 L7.7 6.4 Q7.7 6.75 7.75 7.05 7.75 7.4 7.75 7.7 7.8 8.05 7.8 8.35 7.85 8.7 7.85 9.0 8.0 10.65 8.35 12.25 8.65 13.8 9.25 15.25 9.85 16.7 10.7 18.05 11.6 19.35 12.75 20.5 13.1 20.85 13.4 21.15 13.7 21.45 14.0 21.8 14.3 22.1 14.6 22.45 14.9 22.75 15.2 23.1 15.65 23.6 16.05 24.15 16.5 24.75 16.85 25.35 17.2 25.95 17.45 26.6 17.75 27.25 17.9 27.95 18.35 29.9 18.45 31.75 18.5 33.6 18.15 35.35 17.8 37.1 16.95 38.7 16.1 40.3 14.7 41.75 14.5 42.0 14.3 42.25 14.1 42.45 13.85 42.7 13.65 42.9 13.45 43.15 13.2 43.35 13.0 43.55 12.0 44.55 11.15 45.65 10.35 46.7 9.75 47.9 9.15 49.15 8.7 50.45 8.3 51.75 8.1 53.2 8.05 53.75 7.95 54.35 7.9 54.95 7.85 55.55 7.8 56.1 7.75 56.7 7.7 57.3 7.65 57.9 L34.1 57.9 Q34.05 57.3 34.0 56.7 33.95 56.1 33.9 55.55 33.85 54.95 33.8 54.35 33.75 53.75 33.65 53.2 33.45 51.75 33.05 50.45 32.65 49.15 32.05 47.9 31.4 46.7 30.6 45.65 29.8 44.55 28.8 43.55 28.55 43.35 28.35 43.15 28.1 42.9 27.9 42.7 27.7 42.45 27.5 42.25 27.25 42.0 27.05 41.75" fill="#ffffff" fill-rule="evenodd" stroke="none"/>
  </g>
</svg>
