<?xml version="1.0" encoding="UTF-8" standalone="no"?>
<svg xmlns:xlink="http://www.w3.org/1999/xlink" height="17.0px" width="19.4px" xmlns="http://www.w3.org/2000/svg">
  <g transform="matrix(1.0, 0.0, 0.0, 1.0, 0.0, 0.0)">
    <path d="M5.85 6.35 L5.85 6.35 Q6.55 5.65 7.1 4.85 7.7 4.1 8.15 3.3 8.65 2.55 9.05 1.7 9.4 0.85 9.7 0.0 9.95 0.85 10.35 1.7 10.7 2.55 11.2 3.3 11.7 4.1 12.25 4.85 12.85 5.65 13.5 6.35 L13.95 6.8 Q14.15 7.0 14.3 7.2 14.5 7.35 14.65 7.55 14.8 7.7 15.0 7.9 15.15 8.05 15.35 8.25 16.2 9.05 16.85 9.9 17.5 10.8 18.0 11.75 18.45 12.7 18.8 13.75 19.1 14.8 19.25 16.0 19.3 16.1 19.3 16.25 19.3 16.35 19.35 16.5 19.35 16.6 19.35 16.75 19.4 16.9 19.4 17.0 L0.0 17.0 Q0.0 16.9 0.0 16.75 0.0 16.6 0.05 16.5 0.05 16.35 0.05 16.25 0.1 16.1 0.1 16.0 0.25 14.8 0.6 13.75 0.9 12.7 1.4 11.75 1.9 10.8 2.55 9.9 3.2 9.05 4.0 8.25 4.2 8.05 4.35 7.9 4.55 7.7 4.7 7.55 4.9 7.35 5.05 7.2 5.25 7.0 5.4 6.8 L5.85 6.35" fill="#ffffff" fill-rule="evenodd" stroke="none"/>
  </g>
</svg>
