<?xml version="1.0" encoding="UTF-8" standalone="no"?>
<svg xmlns:xlink="http://www.w3.org/1999/xlink" height="17.0px" width="19.45px" xmlns="http://www.w3.org/2000/svg">
  <g transform="matrix(1.0, 0.0, 0.0, 1.0, 0.0, 0.0)">
    <path d="M14.35 9.85 L14.35 9.85 Q14.2 10.0 14.0 10.15 13.85 10.35 13.7 10.55 13.55 10.7 13.35 10.9 13.2 11.1 13.0 11.3 12.7 11.65 12.4 12.0 12.15 12.35 11.9 12.7 11.6 13.05 11.4 13.4 11.15 13.75 10.95 14.1 10.75 14.45 10.55 14.8 10.4 15.15 10.25 15.55 10.05 15.9 9.95 16.25 9.8 16.65 9.7 17.0 9.6 16.65 9.45 16.25 9.35 15.9 9.2 15.55 9.05 15.15 8.85 14.8 8.65 14.45 8.45 14.1 8.25 13.75 8.05 13.4 7.8 13.05 7.55 12.7 7.3 12.35 7.0 12.0 6.7 11.65 6.4 11.3 6.25 11.1 6.05 10.9 5.9 10.7 5.7 10.55 5.55 10.35 5.4 10.15 5.25 10.0 5.05 9.85 4.9 9.65 4.75 9.5 4.6 9.35 4.45 9.2 4.3 9.05 4.15 8.9 4.0 8.75 3.85 8.6 3.45 8.2 3.1 7.75 2.7 7.3 2.4 6.85 2.05 6.35 1.8 5.85 1.5 5.35 1.25 4.85 1.0 4.3 0.8 3.75 0.6 3.15 0.45 2.55 0.3 1.95 0.15 1.3 0.05 0.65 0.0 0.0 0.0 0.0 0.8 0.6 1.65 1.2 3.0 1.9 4.35 2.65 6.1 3.25 7.85 3.85 9.7 3.85 11.55 3.85 13.3 3.25 15.05 2.65 16.4 1.9 17.75 1.2 18.6 0.6 19.45 0.0 19.45 0.0 19.35 0.65 19.25 1.3 19.1 1.95 18.95 2.55 18.8 3.15 18.6 3.75 18.4 4.3 18.15 4.85 17.9 5.35 17.65 5.85 17.35 6.35 17.05 6.85 16.7 7.3 16.35 7.75 15.95 8.2 15.55 8.6 15.4 8.75 15.25 8.9 15.1 9.05 14.95 9.2 14.8 9.35 14.65 9.5 14.5 9.65 14.35 9.85" fill="#ffffff" fill-rule="evenodd" stroke="none"/>
  </g>
</svg>
