<?xml version="1.0" encoding="UTF-8" standalone="no"?>
<svg xmlns:xlink="http://www.w3.org/1999/xlink" height="3.0px" width="16.0px" xmlns="http://www.w3.org/2000/svg">
  <g transform="matrix(1.0, 0.0, 0.0, 1.0, -63.7, -112.35)">
    <path d="M79.7 114.05 L79.7 114.05 79.7 113.65 Q79.7 113.4 79.6 113.15 79.5 112.9 79.3 112.75 79.15 112.55 78.9 112.45 78.65 112.35 78.4 112.35 L65.0 112.35 Q64.75 112.35 64.5 112.45 64.25 112.55 64.1 112.75 63.9 112.9 63.8 113.15 63.7 113.4 63.7 113.65 L63.7 114.05 Q63.7 114.35 63.8 114.55 63.9 114.8 64.1 115.0 64.25 115.15 64.5 115.25 64.75 115.35 65.0 115.35 L78.4 115.35 Q78.65 115.35 78.9 115.25 79.15 115.15 79.3 115.0 79.5 114.8 79.6 114.55 79.7 114.35 79.7 114.05" fill="#ffffff" fill-rule="evenodd" stroke="none"/>
  </g>
</svg>
