<?xml version="1.0" encoding="UTF-8" standalone="no"?>
<svg xmlns:xlink="http://www.w3.org/1999/xlink" height="56.75px" width="62.95px" xmlns="http://www.w3.org/2000/svg">
  <g transform="matrix(1.0, 0.0, 0.0, 1.0, 0.0, 0.0)">
    <path d="M7.3 56.75 L7.3 56.75 55.65 56.75 Q58.1 56.75 59.75 55.95 61.45 55.15 62.25 53.75 63.1 52.4 62.95 50.55 62.8 48.7 61.6 46.55 L37.35 4.25 Q36.15 2.1 34.6 1.05 33.05 0.0 31.45 0.0 29.9 0.0 28.35 1.0 26.8 2.1 25.6 4.2 L1.35 46.6 Q0.15 48.7 0.0 50.55 -0.1 52.4 0.65 53.8 1.5 55.15 3.15 55.95 4.85 56.75 7.3 56.75" fill="#ffffff" fill-rule="evenodd" stroke="none"/>
  </g>
</svg>
