<?xml version="1.0" encoding="UTF-8" standalone="no"?>
<svg xmlns:xlink="http://www.w3.org/1999/xlink" height="27.0px" width="38.0px" xmlns="http://www.w3.org/2000/svg">
  <g transform="matrix(1.0, 0.0, 0.0, 1.0, 0.0, 0.0)">
    <path d="M30.75 0.0 L30.75 0.0 Q32.3 0.0 33.6 0.45 34.95 0.95 35.9 1.85 36.85 2.7 37.4 3.95 38.0 5.2 38.0 6.7 L38.0 19.45 Q38.0 20.95 37.4 22.3 36.85 23.7 35.9 24.7 34.95 25.75 33.6 26.35 32.3 27.0 30.75 27.0 L7.2 27.0 Q5.65 27.0 4.35 26.35 3.0 25.75 2.05 24.7 1.1 23.7 0.55 22.3 0.0 20.95 0.0 19.45 L0.0 6.7 Q0.0 5.2 0.55 3.95 1.1 2.7 2.05 1.85 3.0 0.95 4.35 0.45 5.65 0.0 7.2 0.0 L30.75 0.0 M21.0 13.4 L21.0 13.4 Q21.35 13.2 21.65 12.85 21.95 12.55 22.15 12.2 22.35 11.85 22.45 11.45 22.55 11.05 22.55 10.65 22.55 9.9 22.3 9.25 22.05 8.6 21.55 8.1 21.1 7.65 20.45 7.35 19.8 7.05 19.05 7.05 18.3 7.05 17.65 7.35 16.95 7.65 16.5 8.1 16.0 8.6 15.7 9.25 15.45 9.9 15.45 10.65 15.45 11.05 15.55 11.45 15.65 11.85 15.85 12.2 16.05 12.55 16.3 12.85 16.6 13.2 17.0 13.4 L17.0 16.4 Q17.0 16.95 17.1 17.45 17.25 17.95 17.5 18.3 17.75 18.65 18.15 18.85 18.5 19.1 19.0 19.1 19.45 19.1 19.8 18.85 20.2 18.65 20.45 18.3 20.7 17.95 20.85 17.45 21.0 16.95 21.0 16.4 L21.0 13.4" fill="#003a7d" fill-rule="evenodd" stroke="none"/>
  </g>
</svg>
