<?xml version="1.0" encoding="UTF-8" standalone="no"?>
<svg xmlns:xlink="http://www.w3.org/1999/xlink" height="90.25px" width="56.55px" xmlns="http://www.w3.org/2000/svg">
  <g transform="matrix(1.0, 0.0, 0.0, 1.0, 0.0, 0.0)">
    <path d="M0.0 30.1 L0.0 30.1 14.05 30.1 Q14.05 25.9 14.95 22.5 15.85 19.1 17.7 16.7 19.55 14.3 22.35 13.0 25.15 11.7 29.0 11.7 30.6 11.7 32.7 12.45 34.8 13.2 36.7 14.8 38.55 16.45 39.8 19.05 41.1 21.65 41.1 25.4 41.1 28.5 40.25 30.75 39.45 32.95 38.05 34.7 36.65 36.45 34.85 38.0 33.05 39.5 31.1 41.25 28.65 43.3 26.85 45.5 25.0 47.65 23.85 50.5 22.65 53.3 22.05 57.1 21.45 60.95 21.45 66.3 L34.8 66.3 Q34.8 61.85 35.6 58.8 36.45 55.7 37.9 53.4 39.35 51.1 41.3 49.25 43.3 47.4 45.7 45.45 47.65 43.65 49.6 41.9 51.55 40.1 53.1 37.8 54.65 35.5 55.6 32.4 56.55 29.3 56.55 24.9 56.55 18.95 54.45 14.3 52.35 9.65 48.75 6.45 45.1 3.3 40.2 1.65 35.25 0.0 29.6 0.0 22.75 0.0 17.3 2.15 11.8 4.3 7.95 8.25 4.1 12.2 2.05 17.75 0.0 23.3 0.0 30.1 M19.6 74.85 L19.6 74.85 19.6 90.25 36.15 90.25 36.15 74.85 19.6 74.85" fill="#ffffff" fill-rule="evenodd" stroke="none"/>
  </g>
</svg>
