<?xml version="1.0" encoding="UTF-8" standalone="no"?>
<svg xmlns:xlink="http://www.w3.org/1999/xlink" height="65.95px" width="53.0px" xmlns="http://www.w3.org/2000/svg">
  <g transform="matrix(1.0, 0.0, 0.0, 1.0, -493.5, -36.35)">
    <path d="M540.2 78.9 L540.2 78.9 Q540.1 79.05 539.95 79.2 539.85 79.35 539.7 79.55 539.55 79.7 539.4 79.85 539.3 80.0 539.15 80.15 538.05 81.55 537.2 83.0 536.3 84.45 535.6 85.9 534.9 87.4 534.4 88.85 533.95 90.35 533.6 91.8 L532.35 98.25 Q532.25 99.1 531.85 99.8 531.45 100.55 530.8 101.1 530.2 101.65 529.4 102.0 528.65 102.3 527.8 102.3 L512.15 102.3 Q511.3 102.3 510.55 102.0 509.75 101.65 509.15 101.1 508.5 100.55 508.1 99.8 507.7 99.1 507.6 98.25 L506.35 91.75 Q506.0 90.3 505.5 88.85 505.05 87.4 504.35 85.9 503.65 84.45 502.8 83.0 501.9 81.55 500.85 80.2 500.7 80.05 500.55 79.85 500.4 79.7 500.25 79.5 500.1 79.35 499.95 79.2 499.85 79.0 499.7 78.85 499.7 78.85 499.7 78.85 499.7 78.85 499.7 78.8 499.7 78.8 499.7 78.8 499.7 78.8 499.65 78.8 L499.7 78.8 Q498.2 76.9 497.05 74.85 495.85 72.8 495.1 70.75 494.3 68.7 493.9 66.7 493.5 64.7 493.5 62.85 493.5 58.9 495.35 54.3 497.25 49.65 500.7 45.65 504.15 41.7 509.05 39.05 513.95 36.35 520.0 36.35 526.0 36.35 530.9 39.05 535.8 41.7 539.25 45.65 542.7 49.65 544.6 54.3 546.5 58.9 546.5 62.85 546.5 64.7 546.05 66.7 545.65 68.7 544.85 70.75 544.1 72.8 542.9 74.85 541.75 76.9 540.3 78.8 L540.3 78.8 Q540.25 78.8 540.25 78.8 540.25 78.85 540.25 78.85 540.25 78.85 540.25 78.85 540.25 78.85 540.2 78.9" fill="#ffffff" fill-rule="evenodd" stroke="none"/>
  </g>
</svg>
