<?xml version="1.0" encoding="UTF-8" standalone="no"?>
<svg xmlns:xlink="http://www.w3.org/1999/xlink" height="14.0px" width="4.0px" xmlns="http://www.w3.org/2000/svg">
  <g transform="matrix(1.0, 0.0, 0.0, 1.0, -518.0, -7.95)">
    <path d="M522.0 20.0 L522.0 20.0 522.0 9.95 Q522.0 9.55 521.8 9.2 521.65 8.85 521.4 8.55 521.1 8.3 520.75 8.15 520.4 7.95 520.0 7.95 L519.95 7.95 Q519.55 7.95 519.2 8.15 518.85 8.3 518.55 8.55 518.3 8.85 518.15 9.2 518.0 9.55 518.0 9.95 L518.0 20.0 Q518.0 20.4 518.15 20.75 518.3 21.1 518.55 21.4 518.85 21.65 519.2 21.8 519.55 21.95 519.95 21.95 L520.0 21.95 Q520.4 21.95 520.75 21.8 521.1 21.65 521.4 21.4 521.65 21.1 521.8 20.75 522.0 20.4 522.0 20.0" fill="#ffffff" fill-rule="evenodd" stroke="none"/>
  </g>
</svg>
