<?xml version="1.0" encoding="UTF-8" standalone="no"?>
<svg xmlns:xlink="http://www.w3.org/1999/xlink" height="9.0px" width="12.7px" xmlns="http://www.w3.org/2000/svg">
  <g transform="matrix(1.0, 0.0, 0.0, 1.0, -554.75, -81.7)">
    <path d="M566.45 87.0 L566.45 87.0 557.8 82.0 Q557.4 81.8 557.05 81.75 556.65 81.7 556.25 81.8 555.9 81.9 555.6 82.15 555.25 82.35 555.05 82.7 L555.05 82.7 Q554.85 83.1 554.8 83.5 554.75 83.85 554.85 84.25 554.95 84.6 555.2 84.95 555.4 85.25 555.8 85.45 L564.45 90.45 Q564.8 90.65 565.2 90.7 565.6 90.75 565.95 90.65 566.35 90.55 566.65 90.3 566.95 90.1 567.15 89.7 L567.15 89.7 Q567.4 89.35 567.45 88.95 567.45 88.6 567.35 88.2 567.25 87.85 567.05 87.5 566.8 87.2 566.45 87.0" fill="#ffffff" fill-rule="evenodd" stroke="none"/>
  </g>
</svg>
