<?xml version="1.0" encoding="UTF-8" standalone="no"?>
<svg xmlns:xlink="http://www.w3.org/1999/xlink" height="89.75px" width="56.0px" xmlns="http://www.w3.org/2000/svg">
  <g transform="matrix(1.0, 0.0, 0.0, 1.0, 0.0, 0.0)">
    <path d="M56.0 74.65 L56.0 74.65 56.0 1.65 Q56.0 1.0 55.8 0.6 55.6 0.2 55.3 0.05 54.95 -0.05 54.55 0.0 54.1 0.15 53.65 0.5 L2.3 10.25 Q1.85 10.65 1.4 11.2 1.0 11.8 0.65 12.45 0.35 13.1 0.15 13.8 0.0 14.5 0.0 15.15 L0.0 88.15 Q0.0 88.75 0.15 89.15 0.35 89.55 0.65 89.7 1.0 89.85 1.4 89.75 1.85 89.65 2.3 89.25 L53.65 79.5 Q54.1 79.15 54.55 78.55 54.95 77.95 55.3 77.3 55.6 76.65 55.8 75.95 56.0 75.25 56.0 74.65" fill="#ffffff" fill-rule="evenodd" stroke="none"/>
  </g>
</svg>
