<?xml version="1.0" encoding="UTF-8" standalone="no"?>
<svg xmlns:xlink="http://www.w3.org/1999/xlink" height="4.0px" width="14.0px" xmlns="http://www.w3.org/2000/svg">
  <g transform="matrix(1.0, 0.0, 0.0, 1.0, -112.2, -60.45)">
    <path d="M124.2 60.45 L124.2 60.45 114.2 60.45 Q113.8 60.45 113.4 60.65 113.05 60.8 112.8 61.05 112.5 61.35 112.35 61.7 112.2 62.05 112.2 62.45 L112.2 62.45 Q112.2 62.9 112.35 63.25 112.5 63.6 112.8 63.9 113.05 64.15 113.4 64.3 113.8 64.45 114.2 64.45 L124.2 64.45 Q124.6 64.45 125.0 64.3 125.35 64.15 125.6 63.9 125.9 63.6 126.05 63.25 126.2 62.9 126.2 62.45 L126.2 62.45 Q126.2 62.05 126.05 61.7 125.9 61.35 125.6 61.05 125.35 60.8 125.0 60.65 124.6 60.45 124.2 60.45" fill="#ffffff" fill-rule="evenodd" stroke="none"/>
  </g>
</svg>
