<?xml version="1.0" encoding="UTF-8" standalone="no"?>
<svg xmlns:xlink="http://www.w3.org/1999/xlink" height="9.0px" width="12.65px" xmlns="http://www.w3.org/2000/svg">
  <g transform="matrix(1.0, 0.0, 0.0, 1.0, -106.5, -34.2)">
    <path d="M116.15 34.5 L116.15 34.5 107.5 39.5 Q107.15 39.7 106.9 40.0 106.65 40.35 106.6 40.7 106.5 41.1 106.5 41.45 106.55 41.85 106.8 42.2 L106.8 42.2 Q107.0 42.6 107.3 42.8 107.6 43.05 108.0 43.15 108.35 43.25 108.75 43.2 109.15 43.15 109.5 42.95 L118.15 37.95 Q118.55 37.75 118.75 37.45 119.0 37.1 119.1 36.75 119.2 36.35 119.15 36.0 119.1 35.6 118.9 35.2 L118.9 35.2 Q118.7 34.85 118.35 34.65 118.05 34.4 117.7 34.3 117.3 34.2 116.9 34.25 116.55 34.3 116.15 34.5" fill="#ffffff" fill-rule="evenodd" stroke="none"/>
  </g>
</svg>
