<?xml version="1.0" encoding="UTF-8" standalone="no"?>
<svg xmlns:xlink="http://www.w3.org/1999/xlink" height="56.5px" width="13.0px" xmlns="http://www.w3.org/2000/svg">
  <g transform="matrix(1.0, 0.0, 0.0, 1.0, 0.0, 0.0)">
    <path d="M0.0 47.7 L0.0 47.7 0.0 1.9 Q0.0 1.25 0.2 0.85 0.4 0.4 0.75 0.2 1.1 0.0 1.6 0.0 2.1 0.0 2.65 0.3 L10.3 4.35 Q10.85 4.65 11.35 5.15 11.85 5.65 12.2 6.25 12.55 6.85 12.75 7.5 13.0 8.15 13.0 8.75 L13.0 54.6 Q13.0 55.2 12.75 55.65 12.55 56.1 12.2 56.3 11.85 56.5 11.35 56.5 10.85 56.45 10.3 56.2 L2.65 52.1 Q2.1 51.8 1.6 51.35 1.1 50.85 0.75 50.25 0.4 49.65 0.2 49.0 0.0 48.3 0.0 47.7" fill="#ffffff" fill-rule="evenodd" stroke="none"/>
  </g>
</svg>
