<?xml version="1.0" encoding="UTF-8" standalone="no"?>
<svg xmlns:xlink="http://www.w3.org/1999/xlink" height="69.2px" width="77.9px" xmlns="http://www.w3.org/2000/svg">
  <g transform="matrix(1.0, 0.0, 0.0, 1.0, 0.0, 0.0)">
    <path d="M41.15 47.7 L41.15 47.7 36.7 47.7 34.75 29.95 34.75 20.65 43.1 20.65 43.1 29.95 41.15 47.7 M42.75 51.35 L42.75 51.35 42.75 59.0 35.15 59.0 35.15 51.35 42.75 51.35 M71.4 69.2 L71.4 69.2 6.45 69.2 Q5.1 69.2 3.95 68.7 2.75 68.2 1.85 67.3 1.0 66.45 0.5 65.25 0.0 64.05 0.0 62.7 0.0 62.3 0.05 61.85 0.1 61.45 0.2 61.05 0.3 60.65 0.45 60.25 0.6 59.85 0.8 59.45 L33.3 3.2 Q33.75 2.45 34.35 1.85 34.95 1.25 35.7 0.85 36.45 0.4 37.25 0.2 38.1 0.0 38.95 0.0 39.8 0.0 40.65 0.2 41.45 0.4 42.2 0.85 42.9 1.25 43.55 1.85 44.15 2.45 44.6 3.2 L77.1 59.45 Q77.3 59.85 77.45 60.25 77.6 60.65 77.7 61.05 77.8 61.45 77.85 61.85 77.9 62.3 77.9 62.7 77.9 64.05 77.4 65.25 76.9 66.45 76.05 67.3 75.15 68.2 73.95 68.7 72.8 69.2 71.4 69.2 M38.95 6.45 L38.95 6.45 6.45 62.7 71.4 62.7 38.95 6.45" fill="#ffffff" fill-rule="evenodd" stroke="none"/>
  </g>
</svg>
