<?xml version="1.0" encoding="UTF-8" standalone="no"?>
<svg xmlns:xlink="http://www.w3.org/1999/xlink" height="8.0px" width="8.0px" xmlns="http://www.w3.org/2000/svg">
  <g transform="matrix(1.0, 0.0, 0.0, 1.0, 0.0, 0.0)">
    <path d="M8.0 4.0 L8.0 4.0 Q8.0 3.15 7.65 2.4 7.35 1.7 6.8 1.15 6.25 0.6 5.55 0.3 4.8 0.0 3.95 0.0 3.15 0.0 2.4 0.3 1.7 0.6 1.15 1.15 0.6 1.7 0.3 2.4 0.0 3.15 0.0 4.0 0.0 4.8 0.3 5.55 0.6 6.25 1.15 6.8 1.7 7.35 2.4 7.65 3.15 8.0 3.95 8.0 4.8 8.0 5.55 7.65 6.25 7.35 6.8 6.8 7.35 6.25 7.65 5.55 8.0 4.8 8.0 4.0" fill="#ffffff" fill-rule="evenodd" stroke="none"/>
  </g>
</svg>
