<?xml version="1.0" encoding="UTF-8" standalone="no"?>
<svg xmlns:xlink="http://www.w3.org/1999/xlink" height="9.0px" width="12.7px" xmlns="http://www.w3.org/2000/svg">
  <g transform="matrix(1.0, 0.0, 0.0, 1.0, -24.2, -34.2)">
    <path d="M35.9 39.5 L35.9 39.5 27.25 34.5 Q26.9 34.3 26.5 34.25 26.1 34.2 25.7 34.3 25.35 34.4 25.05 34.65 24.7 34.85 24.5 35.2 L24.5 35.2 Q24.3 35.6 24.25 36.0 24.2 36.35 24.3 36.75 24.4 37.1 24.65 37.45 24.9 37.75 25.25 37.95 L33.9 42.95 Q34.25 43.15 34.65 43.2 35.05 43.25 35.4 43.15 35.8 43.05 36.1 42.8 36.4 42.6 36.65 42.2 L36.65 42.2 Q36.85 41.85 36.9 41.45 36.95 41.1 36.85 40.7 36.75 40.35 36.5 40.0 36.25 39.7 35.9 39.5" fill="#ffffff" fill-rule="evenodd" stroke="none"/>
  </g>
</svg>
