<?xml version="1.0" encoding="UTF-8" standalone="no"?>
<svg xmlns:xlink="http://www.w3.org/1999/xlink" height="9.05px" width="12.65px" xmlns="http://www.w3.org/2000/svg">
  <g transform="matrix(1.0, 0.0, 0.0, 1.0, -106.5, -81.7)">
    <path d="M118.15 87.0 L118.15 87.0 109.5 82.0 Q109.15 81.8 108.75 81.75 108.35 81.7 108.0 81.8 107.6 81.9 107.3 82.15 107.0 82.35 106.8 82.7 L106.8 82.7 Q106.55 83.1 106.5 83.5 106.5 83.85 106.6 84.25 106.7 84.6 106.9 84.95 107.15 85.25 107.5 85.45 L116.15 90.45 Q116.55 90.65 116.9 90.7 117.3 90.75 117.7 90.65 118.05 90.55 118.35 90.3 118.7 90.1 118.9 89.7 L118.9 89.7 Q119.1 89.35 119.15 88.95 119.2 88.6 119.1 88.2 119.0 87.85 118.75 87.5 118.55 87.2 118.15 87.0" fill="#ffffff" fill-rule="evenodd" stroke="none"/>
  </g>
</svg>
