<?xml version="1.0" encoding="UTF-8" standalone="no"?>
<svg xmlns:xlink="http://www.w3.org/1999/xlink" height="62.9px" width="40.85px" xmlns="http://www.w3.org/2000/svg">
  <g transform="matrix(1.0, 0.0, 0.0, 1.0, 0.0, 0.0)">
    <path d="M29.2 24.45 L29.2 24.45 Q28.65 25.05 28.15 25.65 27.65 26.3 27.3 27.0 26.9 27.65 26.7 28.45 26.45 29.2 26.4 30.05 26.3 30.9 26.3 31.75 26.3 32.55 26.4 33.4 26.55 34.2 26.8 34.95 27.1 35.7 27.6 36.4 28.0 36.95 28.4 37.45 28.85 37.95 29.3 38.45 29.7 38.95 30.2 39.45 30.65 39.95 31.1 40.4 32.3 41.65 33.2 43.0 34.1 44.3 34.75 45.8 35.45 47.25 35.85 48.85 36.3 50.45 36.5 52.15 36.55 52.7 36.6 53.25 36.65 53.8 36.7 54.35 36.75 54.9 36.8 55.45 36.85 56.05 36.9 56.6 L40.85 56.6 40.85 62.9 0.0 62.9 0.0 56.6 3.95 56.6 Q4.0 56.05 4.05 55.45 4.1 54.9 4.15 54.35 4.2 53.8 4.25 53.25 4.3 52.7 4.35 52.15 4.55 50.45 5.0 48.85 5.4 47.25 6.1 45.8 6.75 44.3 7.65 43.0 8.55 41.65 9.75 40.4 10.2 39.95 10.65 39.45 11.1 38.95 11.55 38.45 12.0 37.95 12.45 37.45 12.85 36.95 13.25 36.4 13.75 35.7 14.05 34.95 14.3 34.2 14.45 33.4 14.55 32.55 14.55 31.75 14.55 30.9 14.45 30.05 14.4 29.2 14.15 28.45 13.95 27.65 13.55 27.0 13.2 26.3 12.7 25.65 12.2 25.05 11.65 24.45 11.45 24.25 11.3 24.05 11.1 23.9 10.95 23.7 10.75 23.5 10.55 23.3 10.4 23.15 10.2 22.95 8.8 21.55 7.7 20.0 6.65 18.4 5.95 16.7 5.2 14.95 4.75 13.05 4.35 11.2 4.2 9.15 4.15 8.8 4.15 8.45 4.1 8.1 4.1 7.75 4.05 7.4 4.05 7.0 4.0 6.65 4.0 6.25 L0.0 6.25 0.0 0.0 40.85 0.0 40.85 6.25 36.85 6.25 Q36.85 6.65 36.8 7.0 36.8 7.4 36.75 7.75 36.75 8.1 36.7 8.45 36.7 8.8 36.65 9.15 36.5 11.2 36.1 13.05 35.65 14.95 34.9 16.7 34.2 18.4 33.1 20.0 32.05 21.55 30.65 22.95 30.45 23.15 30.25 23.3 30.1 23.5 29.9 23.7 29.75 23.9 29.55 24.05 29.35 24.25 29.2 24.45 M26.45 40.85 L26.45 40.85 Q25.1 39.4 24.25 37.85 23.45 36.25 23.1 34.55 22.75 32.85 22.8 31.05 22.9 29.25 23.35 27.35 23.5 26.65 23.75 26.0 24.05 25.35 24.35 24.75 24.7 24.2 25.15 23.65 25.55 23.1 26.0 22.55 26.3 22.25 26.6 21.95 26.85 21.6 27.15 21.3 27.45 21.0 27.75 20.7 28.05 20.35 28.35 20.05 29.5 18.9 30.35 17.65 31.2 16.35 31.8 14.9 32.35 13.5 32.7 11.95 33.05 10.45 33.15 8.8 33.2 8.5 33.2 8.15 33.2 7.85 33.25 7.55 33.25 7.25 33.3 6.9 33.3 6.6 33.3 6.25 L7.55 6.25 Q7.55 6.6 7.55 6.9 7.6 7.25 7.6 7.55 7.6 7.85 7.65 8.15 7.65 8.5 7.7 8.8 7.8 10.45 8.15 11.95 8.5 13.5 9.05 14.9 9.65 16.35 10.5 17.65 11.35 18.9 12.5 20.05 12.8 20.35 13.1 20.7 13.4 21.0 13.7 21.3 14.0 21.6 14.25 21.95 14.55 22.25 14.85 22.55 15.3 23.1 15.7 23.65 16.15 24.2 16.45 24.75 16.8 25.35 17.1 26.0 17.35 26.65 17.5 27.35 17.95 29.25 18.05 31.05 18.1 32.85 17.75 34.55 17.4 36.25 16.6 37.85 15.75 39.4 14.4 40.85 14.2 41.05 14.0 41.3 13.75 41.5 13.55 41.75 13.35 41.95 13.15 42.15 12.9 42.4 12.7 42.6 11.7 43.55 10.9 44.6 10.1 45.7 9.5 46.85 8.9 48.05 8.5 49.3 8.15 50.6 7.95 52.0 7.85 52.6 7.8 53.15 7.75 53.7 7.7 54.3 7.65 54.85 7.6 55.45 7.55 56.0 7.5 56.6 L33.35 56.6 Q33.3 56.0 33.25 55.45 33.2 54.85 33.15 54.3 33.1 53.7 33.05 53.15 33.0 52.6 32.9 52.0 32.7 50.6 32.3 49.3 31.9 48.05 31.3 46.85 30.7 45.7 29.95 44.6 29.15 43.55 28.15 42.6 27.95 42.4 27.7 42.15 27.5 41.95 27.3 41.75 27.1 41.5 26.85 41.3 26.65 41.05 26.45 40.85" fill="#ffffff" fill-rule="evenodd" stroke="none"/>
  </g>
</svg>
