<?xml version="1.0" encoding="UTF-8" standalone="no"?>
<svg xmlns:xlink="http://www.w3.org/1999/xlink" height="80.0px" width="12.2px" xmlns="http://www.w3.org/2000/svg">
  <g transform="matrix(1.0, 0.0, 0.0, 1.0, 0.0, 0.0)">
    <path d="M11.35 0.1 L11.35 0.1 0.85 6.4 Q0.65 6.5 0.5 6.7 0.35 6.85 0.25 7.05 0.1 7.3 0.05 7.5 0.0 7.7 0.0 7.95 L0.0 79.4 Q0.0 79.6 0.05 79.75 0.1 79.85 0.25 79.95 0.35 80.0 0.5 80.0 0.65 79.95 0.85 79.85 L11.35 73.55 Q11.55 73.45 11.7 73.25 11.85 73.1 11.95 72.9 12.1 72.7 12.15 72.45 12.2 72.25 12.2 72.05 L12.2 0.6 Q12.2 0.4 12.15 0.25 12.1 0.1 11.95 0.05 11.85 0.0 11.7 0.0 11.55 0.0 11.35 0.1" fill="#ffffff" fill-rule="evenodd" stroke="none"/>
  </g>
</svg>
