<?xml version="1.0" encoding="UTF-8" standalone="no"?>
<svg xmlns:xlink="http://www.w3.org/1999/xlink" height="80.0px" width="12.2px" xmlns="http://www.w3.org/2000/svg">
  <g transform="matrix(1.0, 0.0, 0.0, 1.0, 0.0, 0.0)">
    <path d="M11.35 6.4 L11.35 6.4 0.85 0.1 Q0.65 0.0 0.5 0.0 0.35 0.0 0.25 0.05 0.1 0.1 0.05 0.25 0.0 0.4 0.0 0.6 L0.0 72.05 Q0.0 72.25 0.05 72.45 0.1 72.7 0.25 72.9 0.35 73.1 0.5 73.25 0.65 73.45 0.85 73.55 L11.35 79.85 Q11.55 79.95 11.7 80.0 11.85 80.0 11.95 79.95 12.1 79.85 12.15 79.75 12.2 79.6 12.2 79.4 L12.2 7.95 Q12.2 7.7 12.15 7.5 12.1 7.3 11.95 7.05 11.85 6.85 11.7 6.7 11.55 6.5 11.35 6.4" fill="#ffffff" fill-rule="evenodd" stroke="none"/>
  </g>
</svg>
