<?xml version="1.0" encoding="UTF-8" standalone="no"?>
<svg xmlns:xlink="http://www.w3.org/1999/xlink" height="89.45px" width="56.05px" xmlns="http://www.w3.org/2000/svg">
  <g transform="matrix(1.0, 0.0, 0.0, 1.0, 0.0, 0.0)">
    <path d="M0.0 29.85 L0.0 29.85 13.95 29.85 Q13.95 25.65 14.8 22.3 15.7 18.9 17.55 16.55 19.35 14.15 22.15 12.9 24.95 11.6 28.75 11.6 30.35 11.6 32.45 12.35 34.5 13.05 36.35 14.7 38.2 16.3 39.45 18.9 40.75 21.45 40.75 25.2 40.75 28.25 39.9 30.45 39.1 32.65 37.7 34.4 36.35 36.15 34.55 37.65 32.75 39.15 30.8 40.85 28.4 42.95 26.6 45.05 24.8 47.2 23.6 50.05 22.45 52.85 21.85 56.6 21.3 60.4 21.3 65.7 L34.5 65.7 Q34.5 61.3 35.3 58.25 36.1 55.2 37.55 52.95 39.0 50.65 40.95 48.85 42.95 47.0 45.25 45.05 47.25 43.3 49.15 41.5 51.1 39.75 52.65 37.5 54.15 35.2 55.1 32.15 56.05 29.05 56.05 24.7 56.05 18.8 53.95 14.2 51.9 9.55 48.3 6.4 44.7 3.25 39.85 1.6 34.95 0.0 29.35 0.0 22.55 0.0 17.1 2.1 11.7 4.25 7.85 8.15 4.05 12.05 2.0 17.6 0.0 23.1 0.0 29.85 M19.45 74.15 L19.45 74.15 19.45 89.45 35.85 89.45 35.85 74.15 19.45 74.15" fill="#ffffff" fill-rule="evenodd" stroke="none"/>
  </g>
</svg>
