<?xml version="1.0" encoding="UTF-8" standalone="no"?>
<svg xmlns:xlink="http://www.w3.org/1999/xlink" height="16.65px" width="18.95px" xmlns="http://www.w3.org/2000/svg">
  <g transform="matrix(1.0, 0.0, 0.0, 1.0, 0.0, 0.0)">
    <path d="M5.7 6.2 L5.7 6.2 Q6.4 5.5 6.95 4.75 7.5 4.05 8.0 3.25 8.45 2.45 8.85 1.65 9.2 0.85 9.45 0.0 9.75 0.85 10.1 1.65 10.5 2.45 10.95 3.25 11.4 4.05 12.0 4.75 12.55 5.5 13.2 6.2 L13.65 6.65 Q13.85 6.85 14.0 7.0 14.15 7.2 14.35 7.35 14.5 7.55 14.65 7.7 14.85 7.9 15.0 8.05 15.8 8.85 16.45 9.7 17.1 10.55 17.6 11.5 18.05 12.45 18.35 13.45 18.7 14.5 18.85 15.6 18.85 15.75 18.9 15.85 18.9 16.0 18.9 16.15 18.9 16.25 18.95 16.4 18.95 16.5 18.95 16.65 L0.0 16.65 Q0.0 16.5 0.0 16.4 0.0 16.25 0.05 16.15 0.05 16.0 0.05 15.9 0.1 15.75 0.1 15.65 0.25 14.5 0.55 13.45 0.9 12.45 1.35 11.5 1.85 10.55 2.5 9.7 3.1 8.85 3.95 8.05 4.1 7.9 4.3 7.7 4.45 7.55 4.6 7.35 4.8 7.2 4.95 7.0 5.1 6.85 5.3 6.65 L5.7 6.2" fill="#ffffff" fill-rule="evenodd" stroke="none"/>
  </g>
</svg>
