<?xml version="1.0" encoding="UTF-8" standalone="no"?>
<svg xmlns:xlink="http://www.w3.org/1999/xlink" height="21.15px" width="24.1px" xmlns="http://www.w3.org/2000/svg">
  <g transform="matrix(1.0, 0.0, 0.0, 1.0, 0.0, 0.0)">
    <path d="M7.3 7.9 L7.3 7.9 Q8.15 7.0 8.85 6.05 9.55 5.15 10.15 4.15 10.75 3.15 11.25 2.1 11.7 1.05 12.05 0.0 12.4 1.05 12.85 2.1 13.35 3.15 13.95 4.15 14.55 5.15 15.25 6.05 15.95 7.0 16.8 7.9 L17.35 8.5 Q17.6 8.7 17.8 8.95 18.0 9.15 18.2 9.35 18.45 9.6 18.65 9.8 18.85 10.05 19.1 10.25 20.15 11.25 20.95 12.35 21.75 13.4 22.35 14.6 22.95 15.8 23.35 17.15 23.75 18.45 23.95 19.85 24.0 20.05 24.0 20.2 24.05 20.35 24.05 20.5 24.05 20.65 24.1 20.85 24.1 21.0 24.1 21.15 L0.0 21.15 Q0.0 21.0 0.0 20.85 0.05 20.65 0.05 20.5 0.05 20.35 0.1 20.2 0.1 20.05 0.15 19.85 0.35 18.45 0.75 17.15 1.15 15.8 1.75 14.6 2.35 13.4 3.15 12.35 3.95 11.25 5.0 10.25 5.25 10.05 5.45 9.8 5.65 9.6 5.85 9.35 6.1 9.15 6.3 8.95 6.5 8.7 6.7 8.5 L7.3 7.9" fill="#ffffff" fill-rule="evenodd" stroke="none"/>
  </g>
</svg>
