<?xml version="1.0" encoding="UTF-8" standalone="no"?>
<svg xmlns:xlink="http://www.w3.org/1999/xlink" height="16.6px" width="19.0px" xmlns="http://www.w3.org/2000/svg">
  <g transform="matrix(1.0, 0.0, 0.0, 1.0, 0.0, 0.0)">
    <path d="M14.0 9.6 L14.0 9.6 Q13.85 9.75 13.7 9.95 13.55 10.1 13.4 10.3 13.25 10.45 13.05 10.65 12.9 10.85 12.7 11.05 12.4 11.35 12.15 11.7 11.85 12.05 11.6 12.4 11.35 12.75 11.15 13.1 10.9 13.45 10.7 13.8 10.5 14.15 10.35 14.5 10.15 14.85 10.0 15.2 9.85 15.55 9.7 15.9 9.6 16.25 9.5 16.6 9.4 16.25 9.25 15.9 9.15 15.55 9.0 15.2 8.85 14.85 8.65 14.5 8.5 14.15 8.3 13.8 8.05 13.45 7.85 13.1 7.6 12.75 7.35 12.4 7.1 12.05 6.85 11.7 6.55 11.35 6.25 11.05 6.1 10.85 5.9 10.65 5.75 10.45 5.6 10.3 5.45 10.1 5.25 9.95 5.1 9.75 4.95 9.6 4.8 9.45 4.65 9.3 4.5 9.15 4.35 9.0 4.2 8.85 4.05 8.7 3.9 8.55 3.75 8.4 3.35 8.0 3.0 7.55 2.65 7.15 2.35 6.7 2.0 6.25 1.75 5.75 1.45 5.25 1.25 4.75 1.0 4.2 0.8 3.65 0.6 3.1 0.45 2.5 0.3 1.9 0.15 1.25 0.05 0.65 0.0 0.0 0.0 0.0 0.8 0.55 1.6 1.15 2.95 1.85 4.25 2.6 6.0 3.15 7.7 3.75 9.5 3.75 11.3 3.75 13.0 3.15 14.7 2.6 16.05 1.85 17.4 1.15 18.2 0.55 19.0 0.0 19.0 0.0 18.95 0.65 18.8 1.25 18.7 1.9 18.55 2.5 18.4 3.1 18.2 3.65 18.0 4.2 17.75 4.75 17.5 5.25 17.25 5.75 16.95 6.25 16.65 6.7 16.35 7.15 16.0 7.55 15.6 8.0 15.2 8.4 15.05 8.55 14.95 8.7 14.8 8.85 14.65 9.0 14.5 9.15 14.35 9.3 14.2 9.45 14.0 9.6" fill="#ffffff" fill-rule="evenodd" stroke="none"/>
  </g>
</svg>
