<?xml version="1.0" encoding="UTF-8" standalone="no"?>
<svg xmlns:xlink="http://www.w3.org/1999/xlink" height="84.75px" width="53.1px" xmlns="http://www.w3.org/2000/svg">
  <g transform="matrix(1.0, 0.0, 0.0, 1.0, 0.0, 0.0)">
    <path d="M0.0 28.25 L0.0 28.25 13.2 28.25 Q13.2 24.3 14.05 21.1 14.85 17.95 16.6 15.65 18.35 13.4 21.0 12.2 23.6 11.0 27.25 11.0 28.75 11.0 30.7 11.7 32.7 12.35 34.45 13.9 36.2 15.45 37.4 17.9 38.6 20.35 38.6 23.85 38.6 26.8 37.8 28.85 37.05 30.95 35.7 32.6 34.4 34.25 32.7 35.65 31.05 37.1 29.2 38.7 26.9 40.65 25.2 42.7 23.5 44.75 22.35 47.4 21.25 50.05 20.7 53.65 20.15 57.2 20.15 62.25 L32.7 62.25 Q32.7 58.1 33.45 55.2 34.2 52.3 35.55 50.15 36.95 48.0 38.8 46.25 40.65 44.5 42.9 42.65 44.75 41.0 46.6 39.35 48.4 37.65 49.85 35.5 51.3 33.35 52.2 30.45 53.1 27.55 53.1 23.4 53.1 17.8 51.15 13.45 49.15 9.05 45.75 6.1 42.35 3.1 37.75 1.55 33.1 0.0 27.8 0.0 21.35 0.0 16.2 2.0 11.05 4.0 7.45 7.75 3.85 11.45 1.9 16.65 0.0 21.9 0.0 28.25 M18.4 70.25 L18.4 70.25 18.4 84.75 33.95 84.75 33.95 70.25 18.4 70.25" fill="#ffffff" fill-rule="evenodd" stroke="none"/>
  </g>
</svg>
