<?xml version="1.0" encoding="UTF-8" standalone="no"?>
<svg xmlns:xlink="http://www.w3.org/1999/xlink" height="69.3px" width="45.05px" xmlns="http://www.w3.org/2000/svg">
  <g transform="matrix(1.0, 0.0, 0.0, 1.0, 0.0, 0.0)">
    <path d="M32.15 26.95 L32.15 26.95 Q31.55 27.6 31.0 28.25 30.45 28.95 30.05 29.75 29.65 30.5 29.4 31.35 29.15 32.2 29.05 33.15 29.0 34.05 29.0 34.95 29.0 35.9 29.1 36.8 29.25 37.65 29.55 38.5 29.85 39.35 30.4 40.1 30.85 40.7 31.3 41.25 31.75 41.85 32.25 42.4 32.75 42.95 33.25 43.45 33.75 44.0 34.3 44.55 35.55 45.85 36.55 47.35 37.6 48.85 38.3 50.45 39.05 52.1 39.5 53.85 40.0 55.6 40.2 57.5 40.3 58.1 40.35 58.7 40.4 59.3 40.45 59.9 40.5 60.5 40.55 61.1 40.6 61.75 40.65 62.35 L45.05 62.35 45.05 69.3 0.0 69.3 0.0 62.35 4.35 62.35 Q4.4 61.75 4.45 61.1 4.5 60.5 4.55 59.9 4.6 59.3 4.65 58.7 4.75 58.1 4.8 57.5 5.0 55.6 5.5 53.85 5.95 52.1 6.7 50.45 7.45 48.85 8.45 47.35 9.45 45.85 10.75 44.55 11.25 44.0 11.75 43.45 12.25 42.95 12.75 42.4 13.25 41.85 13.7 41.25 14.2 40.7 14.6 40.1 15.15 39.35 15.45 38.5 15.75 37.65 15.9 36.8 16.05 35.9 16.0 34.95 16.0 34.05 15.95 33.15 15.85 32.2 15.6 31.35 15.35 30.5 14.95 29.75 14.55 28.95 14.0 28.25 13.45 27.6 12.85 26.95 12.65 26.75 12.45 26.5 12.25 26.3 12.05 26.1 11.85 25.9 11.65 25.7 11.45 25.5 11.25 25.3 9.7 23.75 8.5 22.05 7.35 20.3 6.55 18.4 5.75 16.5 5.25 14.4 4.8 12.35 4.6 10.1 4.6 9.7 4.55 9.3 4.5 8.95 4.5 8.55 4.45 8.15 4.45 7.7 4.45 7.3 4.4 6.9 L0.0 6.9 0.0 0.0 45.05 0.0 45.05 6.9 40.6 6.9 Q40.6 7.3 40.55 7.7 40.55 8.15 40.5 8.55 40.5 8.95 40.45 9.3 40.45 9.7 40.4 10.1 40.2 12.35 39.75 14.4 39.3 16.5 38.45 18.4 37.65 20.3 36.5 22.05 35.35 23.75 33.75 25.3 33.55 25.5 33.35 25.7 33.15 25.9 32.95 26.1 32.75 26.3 32.55 26.5 32.35 26.75 32.15 26.95 M29.15 45.0 L29.15 45.0 Q27.65 43.45 26.75 41.7 25.85 39.95 25.45 38.05 25.05 36.2 25.15 34.2 25.25 32.2 25.7 30.1 25.9 29.35 26.2 28.65 26.5 27.95 26.85 27.3 27.25 26.65 27.7 26.05 28.15 25.45 28.65 24.85 28.95 24.5 29.3 24.15 29.6 23.8 29.95 23.45 30.25 23.1 30.6 22.8 30.9 22.45 31.25 22.1 32.5 20.85 33.45 19.45 34.4 18.0 35.05 16.45 35.65 14.9 36.05 13.2 36.4 11.5 36.55 9.7 36.55 9.35 36.6 9.0 36.6 8.65 36.65 8.3 36.65 7.95 36.65 7.6 36.7 7.25 36.7 6.9 L8.3 6.9 Q8.3 7.25 8.35 7.6 8.35 7.95 8.4 8.3 8.4 8.65 8.4 9.0 8.45 9.35 8.45 9.7 8.6 11.5 9.0 13.2 9.35 14.9 10.0 16.45 10.6 18.0 11.55 19.45 12.5 20.85 13.75 22.1 14.1 22.45 14.45 22.8 14.75 23.1 15.1 23.45 15.4 23.8 15.7 24.15 16.05 24.5 16.35 24.85 16.85 25.45 17.3 26.05 17.75 26.65 18.15 27.3 18.55 27.95 18.8 28.65 19.1 29.35 19.3 30.1 19.75 32.2 19.85 34.2 19.95 36.2 19.55 38.05 19.2 39.95 18.3 41.7 17.35 43.45 15.85 45.0 15.65 45.25 15.4 45.5 15.15 45.75 14.95 46.0 14.7 46.25 14.45 46.45 14.25 46.7 14.0 46.95 12.9 48.0 12.05 49.15 11.15 50.35 10.5 51.65 9.85 52.95 9.4 54.35 8.95 55.75 8.75 57.3 8.65 57.95 8.6 58.55 8.5 59.2 8.45 59.8 8.4 60.45 8.35 61.1 8.3 61.75 8.25 62.35 L36.75 62.35 Q36.7 61.75 36.65 61.1 36.6 60.45 36.55 59.8 36.5 59.2 36.4 58.55 36.35 57.95 36.25 57.3 36.05 55.75 35.6 54.35 35.15 52.95 34.5 51.65 33.85 50.35 33.0 49.15 32.1 48.0 31.0 46.95 30.75 46.7 30.55 46.45 30.3 46.25 30.05 46.0 29.85 45.75 29.6 45.5 29.4 45.25 29.15 45.0" fill="#ffffff" fill-rule="evenodd" stroke="none"/>
  </g>
</svg>
