<?xml version="1.0" encoding="UTF-8" standalone="no"?>
<svg xmlns:xlink="http://www.w3.org/1999/xlink" height="18.35px" width="20.9px" xmlns="http://www.w3.org/2000/svg">
  <g transform="matrix(1.0, 0.0, 0.0, 1.0, 0.0, 0.0)">
    <path d="M6.3 6.85 L6.3 6.85 Q7.05 6.05 7.65 5.25 8.3 4.45 8.8 3.6 9.3 2.7 9.75 1.8 10.15 0.9 10.45 0.0 10.75 0.9 11.15 1.8 11.55 2.7 12.05 3.6 12.6 4.45 13.2 5.25 13.85 6.05 14.55 6.85 L15.05 7.35 Q15.25 7.55 15.4 7.75 15.6 7.95 15.8 8.1 15.95 8.3 16.15 8.5 16.35 8.7 16.55 8.85 17.45 9.75 18.15 10.7 18.85 11.65 19.4 12.65 19.9 13.7 20.25 14.85 20.6 15.95 20.75 17.2 20.8 17.35 20.8 17.5 20.8 17.65 20.85 17.75 20.85 17.9 20.85 18.05 20.9 18.2 20.9 18.35 L0.0 18.35 Q0.0 18.2 0.0 18.05 0.0 17.9 0.05 17.75 0.05 17.65 0.05 17.5 0.1 17.35 0.1 17.2 0.3 15.95 0.65 14.85 0.95 13.7 1.5 12.65 2.0 11.65 2.75 10.7 3.45 9.75 4.35 8.9 4.5 8.7 4.7 8.5 4.9 8.3 5.1 8.1 5.25 7.95 5.45 7.75 5.65 7.55 5.8 7.35 L6.3 6.85" fill="#ffffff" fill-rule="evenodd" stroke="none"/>
  </g>
</svg>
