<?xml version="1.0" encoding="UTF-8" standalone="no"?>
<svg xmlns:xlink="http://www.w3.org/1999/xlink" height="18.3px" width="20.95px" xmlns="http://www.w3.org/2000/svg">
  <g transform="matrix(1.0, 0.0, 0.0, 1.0, 0.0, 0.0)">
    <path d="M15.45 10.6 L15.45 10.6 Q15.3 10.75 15.1 10.95 14.95 11.15 14.75 11.35 14.6 11.55 14.4 11.75 14.2 11.95 14.0 12.15 13.7 12.55 13.4 12.9 13.05 13.3 12.8 13.65 12.5 14.05 12.25 14.4 12.0 14.8 11.8 15.2 11.6 15.55 11.4 15.95 11.2 16.35 11.0 16.75 10.85 17.1 10.7 17.5 10.55 17.9 10.45 18.3 10.35 17.9 10.2 17.5 10.05 17.1 9.9 16.75 9.75 16.35 9.55 15.95 9.35 15.55 9.1 15.2 8.9 14.8 8.65 14.4 8.4 14.05 8.1 13.65 7.85 13.3 7.55 12.9 7.25 12.55 6.9 12.15 6.7 11.95 6.55 11.75 6.35 11.55 6.15 11.35 6.0 11.15 5.8 10.95 5.65 10.75 5.45 10.6 5.3 10.4 5.15 10.25 4.95 10.05 4.8 9.9 4.65 9.75 4.45 9.55 4.3 9.4 4.15 9.25 3.7 8.8 3.3 8.35 2.9 7.85 2.55 7.35 2.2 6.85 1.9 6.35 1.6 5.8 1.35 5.2 1.1 4.65 0.9 4.0 0.65 3.4 0.5 2.75 0.3 2.1 0.2 1.4 0.05 0.7 0.0 0.0 0.0 0.0 0.85 0.65 1.75 1.3 3.25 2.05 4.7 2.85 6.6 3.5 8.5 4.15 10.45 4.15 12.45 4.15 14.3 3.5 16.2 2.85 17.7 2.05 19.15 1.3 20.05 0.65 20.95 0.0 20.95 0.0 20.85 0.7 20.75 1.4 20.6 2.1 20.45 2.75 20.25 3.4 20.05 4.0 19.85 4.65 19.55 5.2 19.3 5.8 19.0 6.35 18.7 6.85 18.35 7.35 18.0 7.85 17.6 8.35 17.2 8.8 16.75 9.25 16.6 9.4 16.45 9.55 16.3 9.75 16.1 9.9 15.95 10.05 15.8 10.25 15.6 10.4 15.45 10.6" fill="#ffffff" fill-rule="evenodd" stroke="none"/>
  </g>
</svg>
