<?xml version="1.0" encoding="UTF-8" standalone="no"?>
<svg xmlns:xlink="http://www.w3.org/1999/xlink" height="56.5px" width="13.0px" xmlns="http://www.w3.org/2000/svg">
  <g transform="matrix(1.0, 0.0, 0.0, 1.0, 0.0, 0.0)">
    <path d="M13.0 47.7 L13.0 47.7 13.0 1.9 Q13.0 1.25 12.75 0.85 12.55 0.4 12.2 0.2 11.85 0.0 11.35 0.0 10.85 0.0 10.3 0.3 L2.65 4.35 Q2.1 4.65 1.6 5.15 1.1 5.65 0.75 6.25 0.4 6.85 0.2 7.5 0.0 8.15 0.0 8.75 L0.0 54.6 Q0.0 55.2 0.2 55.65 0.4 56.1 0.75 56.3 1.1 56.5 1.6 56.5 2.1 56.45 2.65 56.2 L10.3 52.1 Q10.85 51.8 11.35 51.35 11.85 50.85 12.2 50.25 12.55 49.65 12.75 49.0 13.0 48.3 13.0 47.7" fill="#ffffff" fill-rule="evenodd" stroke="none"/>
  </g>
</svg>
