<?xml version="1.0" encoding="UTF-8" standalone="no"?>
<svg xmlns:xlink="http://www.w3.org/1999/xlink" height="50.85px" width="33.05px" xmlns="http://www.w3.org/2000/svg">
  <g transform="matrix(1.0, 0.0, 0.0, 1.0, 0.0, 0.0)">
    <path d="M23.6 19.75 L23.6 19.75 Q23.15 20.25 22.75 20.75 22.35 21.25 22.05 21.8 21.75 22.35 21.55 23.0 21.35 23.6 21.3 24.3 21.25 25.0 21.25 25.65 21.25 26.35 21.35 26.95 21.45 27.6 21.65 28.25 21.9 28.85 22.3 29.4 22.6 29.85 22.95 30.25 23.3 30.7 23.65 31.1 24.0 31.5 24.4 31.9 24.75 32.3 25.15 32.65 26.1 33.65 26.8 34.75 27.55 35.8 28.1 37.0 28.65 38.2 29.0 39.5 29.35 40.8 29.5 42.15 29.55 42.6 29.6 43.05 29.65 43.5 29.65 43.95 29.7 44.4 29.75 44.85 29.75 45.3 29.8 45.75 L33.05 45.75 33.05 50.85 0.0 50.85 0.0 45.75 3.2 45.75 Q3.25 45.3 3.25 44.85 3.3 44.4 3.35 43.95 3.4 43.5 3.4 43.05 3.45 42.6 3.5 42.15 3.7 40.8 4.0 39.5 4.35 38.2 4.9 37.0 5.45 35.8 6.2 34.75 6.9 33.65 7.85 32.65 8.25 32.3 8.6 31.9 9.0 31.5 9.35 31.1 9.7 30.7 10.05 30.25 10.4 29.85 10.7 29.4 11.1 28.85 11.35 28.25 11.55 27.6 11.65 26.95 11.75 26.35 11.75 25.65 11.75 25.0 11.7 24.3 11.65 23.6 11.45 23.0 11.25 22.35 10.95 21.8 10.65 21.25 10.25 20.75 9.85 20.25 9.4 19.75 9.25 19.6 9.15 19.45 9.0 19.3 8.85 19.15 8.7 19.0 8.55 18.85 8.4 18.7 8.25 18.55 7.1 17.45 6.25 16.15 5.4 14.9 4.8 13.5 4.2 12.1 3.85 10.55 3.5 9.05 3.35 7.4 3.35 7.1 3.35 6.85 3.3 6.55 3.3 6.25 3.25 5.95 3.25 5.65 3.25 5.35 3.2 5.05 L0.0 5.05 0.0 0.0 33.05 0.0 33.05 5.05 29.8 5.05 Q29.75 5.35 29.75 5.65 29.75 5.95 29.7 6.25 29.7 6.55 29.7 6.85 29.65 7.1 29.65 7.4 29.5 9.05 29.15 10.55 28.8 12.1 28.2 13.5 27.65 14.9 26.75 16.15 25.9 17.45 24.75 18.55 24.6 18.7 24.45 18.85 24.3 19.0 24.15 19.15 24.05 19.3 23.9 19.45 23.75 19.6 23.6 19.75 M21.35 33.0 L21.35 33.0 Q20.25 31.85 19.6 30.6 18.95 29.3 18.65 27.95 18.35 26.55 18.45 25.1 18.5 23.6 18.85 22.1 19.0 21.55 19.2 21.0 19.4 20.5 19.7 20.0 19.95 19.55 20.3 19.1 20.65 18.65 21.0 18.25 21.25 18.0 21.5 17.7 21.7 17.45 21.95 17.2 22.2 16.95 22.45 16.7 22.65 16.45 22.9 16.2 23.85 15.3 24.55 14.25 25.2 13.2 25.7 12.05 26.15 10.9 26.45 9.65 26.7 8.45 26.8 7.1 26.8 6.85 26.85 6.6 26.85 6.35 26.85 6.1 26.9 5.85 26.9 5.6 26.9 5.3 26.95 5.05 L6.1 5.05 Q6.1 5.3 6.1 5.6 6.1 5.85 6.15 6.1 6.15 6.35 6.15 6.6 6.2 6.85 6.2 7.1 6.3 8.45 6.6 9.65 6.85 10.9 7.3 12.05 7.8 13.2 8.45 14.25 9.15 15.3 10.1 16.2 10.35 16.45 10.6 16.7 10.8 16.95 11.05 17.2 11.3 17.45 11.55 17.7 11.75 18.0 12.0 18.25 12.35 18.65 12.7 19.1 13.05 19.55 13.3 20.0 13.6 20.5 13.8 21.0 14.0 21.55 14.15 22.1 14.5 23.6 14.55 25.1 14.65 26.55 14.35 27.95 14.05 29.3 13.4 30.6 12.75 31.85 11.65 33.0 11.45 33.2 11.3 33.35 11.1 33.55 10.95 33.75 10.8 33.9 10.6 34.1 10.45 34.25 10.25 34.45 9.45 35.2 8.8 36.05 8.2 36.9 7.7 37.85 7.2 38.8 6.9 39.85 6.55 40.9 6.4 42.05 6.35 42.5 6.3 42.95 6.25 43.4 6.2 43.9 6.15 44.35 6.15 44.8 6.1 45.3 6.05 45.75 L26.95 45.75 Q26.9 45.3 26.9 44.8 26.85 44.35 26.8 43.9 26.75 43.4 26.7 42.95 26.65 42.5 26.6 42.05 26.45 40.9 26.1 39.85 25.8 38.8 25.3 37.85 24.85 36.9 24.2 36.05 23.55 35.2 22.75 34.45 22.55 34.25 22.4 34.1 22.2 33.9 22.05 33.75 21.9 33.55 21.7 33.35 21.55 33.2 21.35 33.0" fill="#ffffff" fill-rule="evenodd" stroke="none"/>
  </g>
</svg>
