<?xml version="1.0" encoding="UTF-8" standalone="no"?>
<svg xmlns:xlink="http://www.w3.org/1999/xlink" height="13.45px" width="15.35px" xmlns="http://www.w3.org/2000/svg">
  <g transform="matrix(1.0, 0.0, 0.0, 1.0, 0.0, 0.0)">
    <path d="M4.6 5.0 L4.6 5.0 Q5.15 4.45 5.6 3.85 6.05 3.25 6.45 2.6 6.85 2.0 7.15 1.35 7.45 0.65 7.65 0.0 7.85 0.65 8.15 1.35 8.45 2.0 8.85 2.6 9.25 3.25 9.7 3.85 10.15 4.45 10.7 5.0 L11.05 5.4 Q11.15 5.5 11.3 5.65 11.45 5.8 11.6 5.95 11.7 6.1 11.85 6.25 12.0 6.35 12.15 6.5 12.8 7.15 13.3 7.85 13.8 8.5 14.2 9.3 14.6 10.05 14.85 10.9 15.1 11.7 15.25 12.6 15.25 12.7 15.25 12.85 15.25 12.95 15.3 13.05 15.3 13.15 15.3 13.25 15.3 13.35 15.35 13.45 L0.0 13.45 Q0.0 13.35 0.0 13.25 0.0 13.15 0.0 13.05 0.05 12.95 0.05 12.85 0.05 12.75 0.05 12.6 0.2 11.7 0.45 10.9 0.7 10.05 1.1 9.3 1.5 8.5 2.0 7.85 2.5 7.15 3.15 6.5 3.3 6.35 3.45 6.25 3.6 6.1 3.75 5.95 3.85 5.8 4.0 5.65 4.15 5.5 4.25 5.4 L4.6 5.0" fill="#ffffff" fill-rule="evenodd" stroke="none"/>
  </g>
</svg>
