<?xml version="1.0" encoding="UTF-8" standalone="no"?>
<svg xmlns:xlink="http://www.w3.org/1999/xlink" height="13.45px" width="15.35px" xmlns="http://www.w3.org/2000/svg">
  <g transform="matrix(1.0, 0.0, 0.0, 1.0, 0.0, 0.0)">
    <path d="M11.35 7.75 L11.35 7.75 Q11.2 7.9 11.1 8.05 10.95 8.15 10.8 8.3 10.7 8.45 10.55 8.6 10.4 8.75 10.3 8.9 10.05 9.2 9.8 9.45 9.6 9.75 9.4 10.0 9.2 10.3 9.0 10.55 8.8 10.85 8.65 11.15 8.5 11.4 8.35 11.7 8.2 12.0 8.1 12.25 7.95 12.55 7.85 12.85 7.75 13.15 7.65 13.45 7.6 13.15 7.5 12.85 7.4 12.55 7.25 12.25 7.15 12.0 7.0 11.7 6.85 11.4 6.7 11.15 6.5 10.85 6.35 10.55 6.15 10.3 5.95 10.0 5.75 9.75 5.55 9.45 5.3 9.2 5.05 8.9 4.9 8.75 4.8 8.6 4.65 8.45 4.5 8.3 4.4 8.15 4.25 8.05 4.15 7.9 4.0 7.75 3.9 7.65 3.75 7.5 3.65 7.4 3.5 7.25 3.4 7.15 3.25 7.0 3.15 6.9 3.05 6.8 2.7 6.45 2.45 6.1 2.15 5.75 1.9 5.4 1.6 5.05 1.4 4.65 1.2 4.25 1.0 3.8 0.8 3.4 0.65 2.95 0.5 2.5 0.35 2.0 0.25 1.55 0.15 1.0 0.05 0.5 0.0 0.0 0.0 0.0 0.65 0.45 1.3 0.95 2.35 1.5 3.45 2.1 4.85 2.55 6.2 3.05 7.65 3.05 9.1 3.05 10.5 2.55 11.9 2.1 12.95 1.5 14.05 0.95 14.7 0.45 15.35 0.0 15.35 0.0 15.3 0.5 15.2 1.0 15.1 1.55 15.0 2.0 14.85 2.5 14.7 2.95 14.55 3.4 14.35 3.8 14.15 4.25 13.95 4.65 13.7 5.05 13.45 5.4 13.2 5.75 12.9 6.1 12.6 6.45 12.3 6.8 12.2 6.9 12.05 7.0 11.95 7.15 11.8 7.25 11.7 7.4 11.6 7.5 11.45 7.65 11.35 7.75" fill="#ffffff" fill-rule="evenodd" stroke="none"/>
  </g>
</svg>
