<?xml version="1.0" encoding="UTF-8" standalone="no"?>
<svg xmlns:xlink="http://www.w3.org/1999/xlink" height="3.0px" width="10.05px" xmlns="http://www.w3.org/2000/svg">
  <g transform="matrix(1.0, 0.0, 0.0, 1.0, -514.95, -114.35)">
    <path d="M525.0 115.85 L525.0 115.85 Q525.0 115.55 524.85 115.3 524.7 115.0 524.45 114.8 524.2 114.6 523.9 114.5 523.55 114.35 523.2 114.35 L516.75 114.35 Q516.4 114.35 516.05 114.5 515.75 114.6 515.5 114.8 515.25 115.0 515.1 115.3 514.95 115.55 514.95 115.85 514.95 116.15 515.1 116.45 515.25 116.7 515.5 116.9 515.75 117.15 516.05 117.25 516.4 117.35 516.75 117.35 L523.2 117.35 Q523.55 117.35 523.9 117.25 524.2 117.15 524.45 116.9 524.7 116.7 524.85 116.45 525.0 116.15 525.0 115.85" fill="#ffffff" fill-rule="evenodd" stroke="none"/>
  </g>
</svg>
