<?xml version="1.0" encoding="UTF-8" standalone="no"?>
<svg xmlns:xlink="http://www.w3.org/1999/xlink" height="9.05px" width="12.65px" xmlns="http://www.w3.org/2000/svg">
  <g transform="matrix(1.0, 0.0, 0.0, 1.0, -554.75, -34.2)">
    <path d="M564.45 34.5 L564.45 34.5 555.8 39.5 Q555.4 39.7 555.2 40.0 554.95 40.35 554.85 40.7 554.75 41.1 554.8 41.45 554.85 41.85 555.05 42.2 L555.05 42.2 Q555.25 42.6 555.6 42.8 555.9 43.05 556.25 43.15 556.65 43.25 557.05 43.2 557.4 43.15 557.8 42.95 L566.45 37.95 Q566.8 37.75 567.05 37.45 567.25 37.1 567.35 36.75 567.45 36.35 567.4 36.0 567.4 35.6 567.15 35.2 L567.15 35.2 Q566.95 34.85 566.65 34.65 566.35 34.4 565.95 34.3 565.6 34.2 565.2 34.25 564.8 34.3 564.45 34.5" fill="#ffffff" fill-rule="evenodd" stroke="none"/>
  </g>
</svg>
