<?xml version="1.0" encoding="UTF-8" standalone="no"?>
<svg xmlns:xlink="http://www.w3.org/1999/xlink" height="33.6px" width="27.1px" xmlns="http://www.w3.org/2000/svg">
  <g transform="matrix(1.0, 0.0, 0.0, 1.0, 0.0, 0.0)">
    <path d="M27.1 17.65 L27.1 17.65 27.1 15.95 Q27.1 15.05 27.05 14.15 27.0 13.25 26.85 12.45 26.75 11.6 26.55 10.8 26.4 10.0 26.15 9.25 25.9 8.55 25.6 7.85 25.3 7.15 24.95 6.55 24.6 5.9 24.2 5.35 23.8 4.75 23.35 4.25 22.9 3.75 22.45 3.25 21.95 2.8 21.4 2.4 20.85 2.0 20.3 1.7 19.7 1.35 19.1 1.1 18.45 0.8 17.8 0.6 17.15 0.4 16.45 0.25 15.75 0.1 15.0 0.05 14.3 0.0 13.55 0.0 12.8 0.0 12.05 0.05 11.35 0.1 10.65 0.25 9.95 0.4 9.3 0.6 8.65 0.8 8.05 1.1 7.4 1.35 6.85 1.7 6.25 2.0 5.7 2.4 5.2 2.8 4.7 3.25 4.2 3.75 3.75 4.25 3.3 4.75 2.9 5.35 2.5 5.9 2.15 6.55 1.8 7.15 1.5 7.85 1.2 8.55 0.95 9.25 0.7 10.0 0.55 10.8 0.35 11.6 0.2 12.45 0.1 13.25 0.05 14.15 0.0 15.05 0.0 15.95 L0.0 17.65 Q0.0 18.55 0.05 19.45 0.1 20.35 0.2 21.15 0.35 22.0 0.55 22.8 0.7 23.55 0.95 24.3 1.2 25.05 1.5 25.75 1.85 26.4 2.2 27.05 2.55 27.65 2.95 28.25 3.35 28.8 3.8 29.3 4.25 29.85 4.75 30.3 5.2 30.75 5.75 31.15 6.3 31.55 6.9 31.85 7.45 32.2 8.1 32.5 8.7 32.75 9.35 32.95 10.0 33.15 10.7 33.3 11.4 33.45 12.1 33.5 12.85 33.6 13.6 33.6 14.35 33.6 15.05 33.5 15.8 33.45 16.5 33.3 17.15 33.15 17.85 32.95 18.5 32.75 19.1 32.5 19.75 32.2 20.3 31.85 20.9 31.55 21.45 31.15 21.95 30.75 22.45 30.3 22.95 29.85 23.4 29.3 23.8 28.8 24.2 28.25 24.6 27.65 24.95 27.05 25.3 26.4 25.6 25.75 25.9 25.05 26.15 24.3 26.4 23.55 26.55 22.8 26.75 22.0 26.85 21.15 27.0 20.35 27.05 19.45 27.1 18.55 27.1 17.65 M21.45 15.9 L21.45 15.9 21.45 17.65 Q21.45 19.0 21.3 20.25 21.15 21.45 20.9 22.5 20.65 23.55 20.3 24.45 19.9 25.3 19.4 26.05 18.9 26.75 18.25 27.3 17.65 27.85 16.9 28.2 16.2 28.55 15.35 28.75 14.55 28.9 13.6 28.9 13.15 28.9 12.7 28.85 12.25 28.8 11.85 28.7 11.45 28.65 11.05 28.5 10.65 28.35 10.3 28.15 9.95 28.0 9.6 27.75 9.25 27.55 8.95 27.25 8.6 27.0 8.35 26.7 8.05 26.35 7.8 26.0 7.55 25.65 7.3 25.25 7.1 24.85 6.9 24.4 6.7 24.0 6.5 23.5 6.35 23.0 6.2 22.5 6.05 21.95 5.95 21.4 5.85 20.8 5.8 20.2 5.75 19.6 5.7 18.95 5.65 18.3 5.65 17.65 L5.65 15.9 Q5.65 15.25 5.7 14.6 5.75 13.95 5.8 13.35 5.85 12.75 5.95 12.15 6.05 11.6 6.2 11.1 6.35 10.55 6.5 10.05 6.7 9.6 6.9 9.15 7.05 8.7 7.3 8.3 7.5 7.9 7.8 7.55 8.05 7.2 8.3 6.9 8.6 6.6 8.9 6.3 9.2 6.05 9.55 5.85 9.9 5.6 10.25 5.4 10.65 5.25 11.0 5.1 11.4 4.95 11.8 4.85 12.2 4.8 12.65 4.75 13.1 4.7 13.55 4.7 14.0 4.7 14.45 4.75 14.9 4.8 15.3 4.85 15.7 4.95 16.1 5.1 16.5 5.25 16.9 5.4 17.25 5.6 17.6 5.85 17.9 6.05 18.25 6.3 18.55 6.6 18.8 6.9 19.1 7.2 19.35 7.55 19.6 7.9 19.85 8.3 20.05 8.7 20.25 9.15 20.45 9.6 20.6 10.05 20.75 10.55 20.9 11.1 21.05 11.6 21.15 12.15 21.25 12.75 21.3 13.35 21.35 13.95 21.4 14.6 21.45 15.25 21.45 15.9" fill="#ffffff" fill-rule="evenodd" stroke="none"/>
  </g>
</svg>
