<?xml version="1.0" encoding="UTF-8" standalone="no"?>
<!-- Generator: Adobe Illustrator 15.1.0, SVG Export Plug-In . SVG Version: 6.00 Build 0)  -->

<svg
   xmlns:dc="http://purl.org/dc/elements/1.1/"
   xmlns:cc="http://creativecommons.org/ns#"
   xmlns:rdf="http://www.w3.org/1999/02/22-rdf-syntax-ns#"
   xmlns:svg="http://www.w3.org/2000/svg"
   xmlns="http://www.w3.org/2000/svg"
   xmlns:sodipodi="http://sodipodi.sourceforge.net/DTD/sodipodi-0.dtd"
   xmlns:inkscape="http://www.inkscape.org/namespaces/inkscape"
   version="1.1"
   id="Ebene_1"
   x="0px"
   y="0px"
   width="141.732px"
   height="141.73px"
   viewBox="0 0 141.732 141.73"
   enable-background="new 0 0 141.732 141.73"
   xml:space="preserve"
   inkscape:version="0.48.4 r9939"
   sodipodi:docname="LIGHT.svg"><metadata
   id="metadata53"><rdf:RDF><cc:Work
       rdf:about=""><dc:format>image/svg+xml</dc:format><dc:type
         rdf:resource="http://purl.org/dc/dcmitype/StillImage" /></cc:Work></rdf:RDF></metadata><defs
   id="defs51" /><sodipodi:namedview
   pagecolor="#ffffff"
   bordercolor="#666666"
   borderopacity="1"
   objecttolerance="10"
   gridtolerance="10"
   guidetolerance="10"
   inkscape:pageopacity="0"
   inkscape:pageshadow="2"
   inkscape:window-width="1920"
   inkscape:window-height="1018"
   id="namedview49"
   showgrid="false"
   inkscape:zoom="2.3548607"
   inkscape:cx="51.033662"
   inkscape:cy="47.287442"
   inkscape:window-x="1272"
   inkscape:window-y="-8"
   inkscape:window-maximized="1"
   inkscape:current-layer="Ebene_1" />
<g
   id="g3">
	<polyline
   fill="none"
   stroke="#FFFFFF"
   stroke-width="6"
   stroke-miterlimit="10"
   points="0.732,139 104.41,139 136.894,139    141.733,139  "
   id="polyline5" />
	<g
   id="g7">
		<g
   id="g9">
			<path
   fill="#FFFFFF"
   d="M91.971,78.903c0.021-0.023,0.04-0.049,0.062-0.072h-0.006c3.974-5.077,6.199-11.096,6.199-15.943     c0-10.51-10.416-26.5-26.5-26.5s-26.5,15.99-26.5,26.5c0,4.848,2.226,10.866,6.2,15.943h-0.003     c0.01,0.012,0.018,0.021,0.027,0.032c0.361,0.461,0.736,0.913,1.127,1.356c2.873,3.656,4.678,7.734,5.5,11.561l1.284,6.484     c0.25,2.236,2.298,4.066,4.548,4.066h15.633c2.251,0,4.299-1.83,4.549-4.066l1.279-6.452c0.822-3.845,2.635-7.946,5.527-11.618     C91.269,79.772,91.626,79.341,91.971,78.903z"
   id="path11" />
			<g
   id="g13">
				<path
   fill="#FFFFFF"
   d="M81.726,106.023c0,0.753-0.61,1.363-1.363,1.363H63.089c-0.753,0-1.363-0.61-1.363-1.363v-0.273      c0-0.753,0.61-1.363,1.363-1.363h17.273c0.753,0,1.363,0.61,1.363,1.363V106.023z"
   id="path15" />
			</g>
			<g
   id="g17">
				<path
   fill="#FFFFFF"
   d="M81.726,109.979c0,0.777-0.63,1.407-1.407,1.407H63.134c-0.777,0-1.408-0.63-1.408-1.407v-0.186      c0-0.777,0.63-1.407,1.408-1.407h17.185c0.777,0,1.407,0.63,1.407,1.407V109.979z"
   id="path19" />
			</g>
			<g
   id="g21">
				<path
   fill="#FFFFFF"
   d="M76.726,115.887c0,0.825-0.796,1.5-1.768,1.5h-6.465c-0.972,0-1.768-0.675-1.768-1.5      s0.796-1.5,1.768-1.5h6.465C75.93,114.387,76.726,115.062,76.726,115.887z"
   id="path23" />
			</g>
			<g
   id="g25">
				<path
   fill="#FFFFFF"
   d="M79.726,114.085c0,0.72-0.583,1.303-1.303,1.303H65.029c-0.72,0-1.303-0.583-1.303-1.303v-0.395      c0-0.72,0.583-1.303,1.303-1.303h13.394c0.72,0,1.303,0.583,1.303,1.303V114.085z"
   id="path27" />
			</g>
		</g>
		<g
   id="g29">
			<path
   fill="#FFFFFF"
   d="M73.726,20.001c0,1.104-0.895,1.998-1.998,1.998h-0.004c-1.104,0-1.998-0.895-1.998-1.998V9.997     c0-1.104,0.895-1.998,1.998-1.998h0.004c1.104,0,1.998,0.895,1.998,1.998V20.001z"
   id="path31" />
			<path
   d="m 52.208801,24.693926 c 0.552,0.956092 0.224407,2.178685 -0.731685,2.730685 l -0.0017,0.001 c -0.956092,0.552 -2.178685,0.224407 -2.730685,-0.731685 l -5.0015,-8.662852 c -0.552,-0.956092 -0.224407,-2.178685 0.731685,-2.730685 l 0.0017,-10e-4 c 0.956092,-0.552 2.178685,-0.224407 2.730685,0.731685 l 5.0015,8.662852 z"
   id="path33"
   inkscape:connector-curvature="0"
   style="fill:#ffffff" />
			<path
   d="m 35.922359,39.518815 c 0.956092,0.552 1.282819,1.774093 0.731319,2.729319 l -10e-4,0.0017 c -0.552,0.956092 -1.774093,1.282819 -2.729319,0.731319 l -8.663718,-5.002 c -0.956092,-0.552 -1.282819,-1.774093 -0.731319,-2.729319 l 0.001,-0.0017 c 0.552,-0.956092 1.774093,-1.282819 2.729319,-0.731319 l 8.663718,5.002 z"
   id="path35"
   inkscape:connector-curvature="0"
   style="fill:#ffffff" />
			<path
   d="m 19.224,64.499 c -1.104,0 -1.998,-0.895 -1.998,-1.998 l 0,-0.004 c 0,-1.104 0.895,-1.998 1.998,-1.998 l 10.004,0 c 1.104,0 1.998,0.895 1.998,1.998 l 0,0.004 c 0,1.104 -0.895,1.998 -1.998,1.998 l -10.004,0 z"
   id="path37"
   inkscape:connector-curvature="0"
   style="fill:#ffffff" />
			<path
   d="m 28.471655,91.195565 c -0.782061,0.782061 -2.049903,0.784182 -2.829842,0.0042 l -0.0021,-0.0021 c -0.780646,-0.780646 -0.778525,-2.047074 0.0042,-2.829842 l 7.06541,-7.06541 c 0.782061,-0.782061 2.049903,-0.784182 2.829842,-0.0042 l 0.0021,0.0021 c 0.780646,0.780646 0.778525,2.047074 -0.0042,2.829842 l -7.06541,7.06541 z"
   id="path39"
   inkscape:connector-curvature="0"
   style="fill:#ffffff" />
			<path
   fill="#FFFFFF"
   d="M118.192,87.017c0.957,0.551,1.282,1.777,0.733,2.73l0,0c-0.553,0.956-1.776,1.285-2.733,0.732     l-8.66-4.999c-0.956-0.554-1.283-1.774-0.731-2.731l0,0c0.553-0.959,1.773-1.283,2.731-0.732L118.192,87.017z"
   id="path41" />
			<path
   fill="#FFFFFF"
   d="M124.226,60.499c1.104-0.002,1.998,0.897,2,1.998l0,0c-0.002,1.104-0.896,2.001-2.002,2.001l-10,0.001     c-1.104-0.002-1.998-0.896-1.998-2l0,0c-0.002-1.107,0.894-1.998,2-2H124.226z"
   id="path43" />
			<path
   fill="#FFFFFF"
   d="M116.193,34.517c0.954-0.553,2.18-0.223,2.73,0.73l0,0c0.551,0.957,0.226,2.181-0.731,2.733l-8.66,5.001     c-0.958,0.551-2.178,0.224-2.731-0.732l0,0c-0.555-0.959-0.225-2.178,0.732-2.732L116.193,34.517z"
   id="path45" />
			<path
   fill="#FFFFFF"
   d="M96.245,16.032c0.55-0.956,1.775-1.282,2.729-0.732l0,0c0.956,0.553,1.287,1.775,0.734,2.732l-5,8.661     c-0.556,0.956-1.775,1.282-2.732,0.731l0,0c-0.96-0.553-1.284-1.773-0.731-2.732L96.245,16.032z"
   id="path47" />
		</g>
	</g>
<rect
   style="fill:#ffffff"
   id="rect3032"
   width="141.73"
   height="6.0055084"
   x="0"
   y="136.02477" /></g>
</svg>